#usda 1.0
(
    defaultPrim = "tire"
    metersPerUnit = 1
    upAxis = "Z"
)

def Mesh "tire" (
    customData = {
        int chamber_id = 1
        dictionary hex_mesh = {
            int[] hex_vertex_indices = [0, 16, 20, 4, 1, 17, 21, 5, 1, 17, 21, 5, 2, 18, 22, 6, 2, 18, 22, 6, 3, 19, 23, 7, 4, 20, 24, 8, 5, 21, 25, 9, 5, 21, 25, 9, 6, 22, 26, 10, 6, 22, 26, 10, 7, 23, 27, 11, 8, 24, 28, 12, 9, 25, 29, 13, 9, 25, 29, 13, 10, 26, 30, 14, 10, 26, 30, 14, 11, 27, 31, 15, 16, 32, 36, 20, 17, 33, 37, 21, 17, 33, 37, 21, 18, 34, 38, 22, 18, 34, 38, 22, 19, 35, 39, 23, 20, 36, 40, 24, 21, 37, 41, 25, 21, 37, 41, 25, 22, 38, 42, 26, 22, 38, 42, 26, 23, 39, 43, 27, 24, 40, 44, 28, 25, 41, 45, 29, 25, 41, 45, 29, 26, 42, 46, 30, 26, 42, 46, 30, 27, 43, 47, 31, 32, 48, 52, 36, 33, 49, 53, 37, 33, 49, 53, 37, 34, 50, 54, 38, 34, 50, 54, 38, 35, 51, 55, 39, 36, 52, 56, 40, 37, 53, 57, 41, 37, 53, 57, 41, 38, 54, 58, 42, 38, 54, 58, 42, 39, 55, 59, 43, 40, 56, 60, 44, 41, 57, 61, 45, 41, 57, 61, 45, 42, 58, 62, 46, 42, 58, 62, 46, 43, 59, 63, 47, 48, 64, 68, 52, 49, 65, 69, 53, 49, 65, 69, 53, 50, 66, 70, 54, 50, 66, 70, 54, 51, 67, 71, 55, 52, 68, 72, 56, 53, 69, 73, 57, 53, 69, 73, 57, 54, 70, 74, 58, 54, 70, 74, 58, 55, 71, 75, 59, 56, 72, 76, 60, 57, 73, 77, 61, 57, 73, 77, 61, 58, 74, 78, 62, 58, 74, 78, 62, 59, 75, 79, 63, 64, 80, 84, 68, 65, 81, 85, 69, 65, 81, 85, 69, 66, 82, 86, 70, 66, 82, 86, 70, 67, 83, 87, 71, 68, 84, 88, 72, 69, 85, 89, 73, 69, 85, 89, 73, 70, 86, 90, 74, 70, 86, 90, 74, 71, 87, 91, 75, 72, 88, 92, 76, 73, 89, 93, 77, 73, 89, 93, 77, 74, 90, 94, 78, 74, 90, 94, 78, 75, 91, 95, 79, 80, 96, 100, 84, 81, 97, 101, 85, 81, 97, 101, 85, 82, 98, 102, 86, 82, 98, 102, 86, 83, 99, 103, 87, 84, 100, 104, 88, 85, 101, 105, 89, 85, 101, 105, 89, 86, 102, 106, 90, 86, 102, 106, 90, 87, 103, 107, 91, 88, 104, 108, 92, 89, 105, 109, 93, 89, 105, 109, 93, 90, 106, 110, 94, 90, 106, 110, 94, 91, 107, 111, 95, 96, 112, 116, 100, 97, 113, 117, 101, 97, 113, 117, 101, 98, 114, 118, 102, 98, 114, 118, 102, 99, 115, 119, 103, 100, 116, 120, 104, 101, 117, 121, 105, 101, 117, 121, 105, 102, 118, 122, 106, 102, 118, 122, 106, 103, 119, 123, 107, 104, 120, 124, 108, 105, 121, 125, 109, 105, 121, 125, 109, 106, 122, 126, 110, 106, 122, 126, 110, 107, 123, 127, 111, 112, 128, 132, 116, 113, 129, 133, 117, 113, 129, 133, 117, 114, 130, 134, 118, 114, 130, 134, 118, 115, 131, 135, 119, 116, 132, 136, 120, 117, 133, 137, 121, 117, 133, 137, 121, 118, 134, 138, 122, 118, 134, 138, 122, 119, 135, 139, 123, 120, 136, 140, 124, 121, 137, 141, 125, 121, 137, 141, 125, 122, 138, 142, 126, 122, 138, 142, 126, 123, 139, 143, 127, 128, 144, 148, 132, 129, 145, 149, 133, 129, 145, 149, 133, 130, 146, 150, 134, 130, 146, 150, 134, 131, 147, 151, 135, 132, 148, 152, 136, 133, 149, 153, 137, 133, 149, 153, 137, 134, 150, 154, 138, 134, 150, 154, 138, 135, 151, 155, 139, 136, 152, 156, 140, 137, 153, 157, 141, 137, 153, 157, 141, 138, 154, 158, 142, 138, 154, 158, 142, 139, 155, 159, 143, 144, 160, 164, 148, 145, 161, 165, 149, 145, 161, 165, 149, 146, 162, 166, 150, 146, 162, 166, 150, 147, 163, 167, 151, 148, 164, 168, 152, 149, 165, 169, 153, 149, 165, 169, 153, 150, 166, 170, 154, 150, 166, 170, 154, 151, 167, 171, 155, 152, 168, 172, 156, 153, 169, 173, 157, 153, 169, 173, 157, 154, 170, 174, 158, 154, 170, 174, 158, 155, 171, 175, 159, 160, 176, 180, 164, 161, 177, 181, 165, 161, 177, 181, 165, 162, 178, 182, 166, 162, 178, 182, 166, 163, 179, 183, 167, 164, 180, 184, 168, 165, 181, 185, 169, 165, 181, 185, 169, 166, 182, 186, 170, 166, 182, 186, 170, 167, 183, 187, 171, 168, 184, 188, 172, 169, 185, 189, 173, 169, 185, 189, 173, 170, 186, 190, 174, 170, 186, 190, 174, 171, 187, 191, 175, 176, 192, 196, 180, 177, 193, 197, 181, 177, 193, 197, 181, 178, 194, 198, 182, 178, 194, 198, 182, 179, 195, 199, 183, 180, 196, 200, 184, 181, 197, 201, 185, 181, 197, 201, 185, 182, 198, 202, 186, 182, 198, 202, 186, 183, 199, 203, 187, 184, 200, 204, 188, 185, 201, 205, 189, 185, 201, 205, 189, 186, 202, 206, 190, 186, 202, 206, 190, 187, 203, 207, 191, 192, 208, 212, 196, 193, 209, 213, 197, 193, 209, 213, 197, 194, 210, 214, 198, 194, 210, 214, 198, 195, 211, 215, 199, 196, 212, 216, 200, 197, 213, 217, 201, 197, 213, 217, 201, 198, 214, 218, 202, 198, 214, 218, 202, 199, 215, 219, 203, 200, 216, 220, 204, 201, 217, 221, 205, 201, 217, 221, 205, 202, 218, 222, 206, 202, 218, 222, 206, 203, 219, 223, 207, 208, 224, 228, 212, 209, 225, 229, 213, 209, 225, 229, 213, 210, 226, 230, 214, 210, 226, 230, 214, 211, 227, 231, 215, 212, 228, 232, 216, 213, 229, 233, 217, 213, 229, 233, 217, 214, 230, 234, 218, 214, 230, 234, 218, 215, 231, 235, 219, 216, 232, 236, 220, 217, 233, 237, 221, 217, 233, 237, 221, 218, 234, 238, 222, 218, 234, 238, 222, 219, 235, 239, 223, 224, 240, 244, 228, 225, 241, 245, 229, 225, 241, 245, 229, 226, 242, 246, 230, 226, 242, 246, 230, 227, 243, 247, 231, 228, 244, 248, 232, 229, 245, 249, 233, 229, 245, 249, 233, 230, 246, 250, 234, 230, 246, 250, 234, 231, 247, 251, 235, 232, 248, 252, 236, 233, 249, 253, 237, 233, 249, 253, 237, 234, 250, 254, 238, 234, 250, 254, 238, 235, 251, 255, 239, 240, 256, 260, 244, 241, 257, 261, 245, 241, 257, 261, 245, 242, 258, 262, 246, 242, 258, 262, 246, 243, 259, 263, 247, 244, 260, 264, 248, 245, 261, 265, 249, 245, 261, 265, 249, 246, 262, 266, 250, 246, 262, 266, 250, 247, 263, 267, 251, 248, 264, 268, 252, 249, 265, 269, 253, 249, 265, 269, 253, 250, 266, 270, 254, 250, 266, 270, 254, 251, 267, 271, 255, 256, 272, 276, 260, 257, 273, 277, 261, 257, 273, 277, 261, 258, 274, 278, 262, 258, 274, 278, 262, 259, 275, 279, 263, 260, 276, 280, 264, 261, 277, 281, 265, 261, 277, 281, 265, 262, 278, 282, 266, 262, 278, 282, 266, 263, 279, 283, 267, 264, 280, 284, 268, 265, 281, 285, 269, 265, 281, 285, 269, 266, 282, 286, 270, 266, 282, 286, 270, 267, 283, 287, 271, 272, 288, 292, 276, 273, 289, 293, 277, 273, 289, 293, 277, 274, 290, 294, 278, 274, 290, 294, 278, 275, 291, 295, 279, 276, 292, 296, 280, 277, 293, 297, 281, 277, 293, 297, 281, 278, 294, 298, 282, 278, 294, 298, 282, 279, 295, 299, 283, 280, 296, 300, 284, 281, 297, 301, 285, 281, 297, 301, 285, 282, 298, 302, 286, 282, 298, 302, 286, 283, 299, 303, 287, 288, 304, 308, 292, 289, 305, 309, 293, 289, 305, 309, 293, 290, 306, 310, 294, 290, 306, 310, 294, 291, 307, 311, 295, 292, 308, 312, 296, 293, 309, 313, 297, 293, 309, 313, 297, 294, 310, 314, 298, 294, 310, 314, 298, 295, 311, 315, 299, 296, 312, 316, 300, 297, 313, 317, 301, 297, 313, 317, 301, 298, 314, 318, 302, 298, 314, 318, 302, 299, 315, 319, 303, 304, 0, 4, 308, 305, 1, 5, 309, 305, 1, 5, 309, 306, 2, 6, 310, 306, 2, 6, 310, 307, 3, 7, 311, 308, 4, 8, 312, 309, 5, 9, 313, 309, 5, 9, 313, 310, 6, 10, 314, 310, 6, 10, 314, 311, 7, 11, 315, 312, 8, 12, 316, 313, 9, 13, 317, 313, 9, 13, 317, 314, 10, 14, 318, 314, 10, 14, 318, 315, 11, 15, 319]
            int num_elements = 180
        }
    }
)
{
    int[] faceVertexCounts = [3, 3, 3, 3, 3, 3, 3, 3, 3, 3, 3, 3, 3, 3, 3, 3, 3, 3, 3, 3, 3, 3, 3, 3, 3, 3, 3, 3, 3, 3, 3, 3, 3, 3, 3, 3, 3, 3, 3, 3, 3, 3, 3, 3, 3, 3, 3, 3, 3, 3, 3, 3, 3, 3, 3, 3, 3, 3, 3, 3, 3, 3, 3, 3, 3, 3, 3, 3, 3, 3, 3, 3, 3, 3, 3, 3, 3, 3, 3, 3, 3, 3, 3, 3, 3, 3, 3, 3, 3, 3, 3, 3, 3, 3, 3, 3, 3, 3, 3, 3, 3, 3, 3, 3, 3, 3, 3, 3, 3, 3, 3, 3, 3, 3, 3, 3, 3, 3, 3, 3, 3, 3, 3, 3, 3, 3, 3, 3, 3, 3, 3, 3, 3, 3, 3, 3, 3, 3, 3, 3, 3, 3, 3, 3, 3, 3, 3, 3, 3, 3, 3, 3, 3, 3, 3, 3, 3, 3, 3, 3, 3, 3, 3, 3, 3, 3, 3, 3, 3, 3, 3, 3, 3, 3, 3, 3, 3, 3, 3, 3, 3, 3, 3, 3, 3, 3, 3, 3, 3, 3, 3, 3, 3, 3, 3, 3, 3, 3, 3, 3, 3, 3, 3, 3, 3, 3, 3, 3, 3, 3, 3, 3, 3, 3, 3, 3, 3, 3, 3, 3, 3, 3, 3, 3, 3, 3, 3, 3, 3, 3, 3, 3, 3, 3, 3, 3, 3, 3, 3, 3, 3, 3, 3, 3, 3, 3, 3, 3, 3, 3, 3, 3, 3, 3, 3, 3, 3, 3, 3, 3, 3, 3, 3, 3, 3, 3, 3, 3, 3, 3, 3, 3, 3, 3, 3, 3, 3, 3, 3, 3, 3, 3, 3, 3, 3, 3, 3, 3, 3, 3, 3, 3, 3, 3, 3, 3, 3, 3, 3, 3, 3, 3, 3, 3, 3, 3, 3, 3, 3, 3, 3, 3, 3, 3, 3, 3, 3, 3, 3, 3, 3, 3, 3, 3, 3, 3, 3, 3, 3, 3, 3, 3, 3, 3, 3, 3, 3, 3, 3, 3, 3, 3, 3, 3, 3, 3, 3, 3, 3, 3, 3, 3, 3, 3, 3, 3, 3, 3, 3, 3, 3, 3, 3, 3, 3, 3, 3, 3, 3, 3, 3, 3, 3, 3, 3, 3, 3, 3, 3, 3, 3, 3, 3, 3, 3, 3, 3, 3, 3, 3, 3, 3, 3, 3, 3, 3, 3, 3, 3, 3, 3, 3, 3, 3, 3, 3, 3, 3, 3, 3, 3, 3, 3, 3, 3, 3, 3, 3, 3, 3, 3, 3, 3, 3, 3, 3, 3, 3, 3, 3, 3, 3, 3, 3, 3, 3, 3, 3, 3, 3, 3, 3, 3, 3, 3, 3, 3, 3, 3, 3, 3, 3, 3, 3, 3, 3, 3, 3, 3, 3, 3, 3, 3, 3, 3, 3, 3, 3, 3, 3, 3, 3, 3, 3, 3, 3, 3, 3, 3, 3]
    int[] faceVertexIndices = [0, 16, 17, 0, 17, 1, 1, 17, 18, 1, 18, 2, 2, 18, 19, 2, 19, 3, 16, 32, 33, 16, 33, 17, 17, 33, 34, 17, 34, 18, 18, 34, 35, 18, 35, 19, 32, 48, 49, 32, 49, 33, 33, 49, 50, 33, 50, 34, 34, 50, 51, 34, 51, 35, 48, 64, 65, 48, 65, 49, 49, 65, 66, 49, 66, 50, 50, 66, 67, 50, 67, 51, 64, 80, 81, 64, 81, 65, 65, 81, 82, 65, 82, 66, 66, 82, 83, 66, 83, 67, 80, 96, 97, 80, 97, 81, 81, 97, 98, 81, 98, 82, 82, 98, 99, 82, 99, 83, 96, 112, 113, 96, 113, 97, 97, 113, 114, 97, 114, 98, 98, 114, 115, 98, 115, 99, 112, 128, 129, 112, 129, 113, 113, 129, 130, 113, 130, 114, 114, 130, 131, 114, 131, 115, 128, 144, 145, 128, 145, 129, 129, 145, 146, 129, 146, 130, 130, 146, 147, 130, 147, 131, 144, 160, 161, 144, 161, 145, 145, 161, 162, 145, 162, 146, 146, 162, 163, 146, 163, 147, 160, 176, 177, 160, 177, 161, 161, 177, 178, 161, 178, 162, 162, 178, 179, 162, 179, 163, 176, 192, 193, 176, 193, 177, 177, 193, 194, 177, 194, 178, 178, 194, 195, 178, 195, 179, 192, 208, 209, 192, 209, 193, 193, 209, 210, 193, 210, 194, 194, 210, 211, 194, 211, 195, 208, 224, 225, 208, 225, 209, 209, 225, 226, 209, 226, 210, 210, 226, 227, 210, 227, 211, 224, 240, 241, 224, 241, 225, 225, 241, 242, 225, 242, 226, 226, 242, 243, 226, 243, 227, 240, 256, 257, 240, 257, 241, 241, 257, 258, 241, 258, 242, 242, 258, 259, 242, 259, 243, 256, 272, 273, 256, 273, 257, 257, 273, 274, 257, 274, 258, 258, 274, 275, 258, 275, 259, 272, 288, 289, 272, 289, 273, 273, 289, 290, 273, 290, 274, 274, 290, 291, 274, 291, 275, 288, 304, 305, 288, 305, 289, 289, 305, 306, 289, 306, 290, 290, 306, 307, 290, 307, 291, 304, 0, 1, 304, 1, 305, 305, 1, 2, 305, 2, 306, 306, 2, 3, 306, 3, 307, 12, 13, 29, 12, 29, 28, 13, 14, 30, 13, 30, 29, 14, 15, 31, 14, 31, 30, 28, 29, 45, 28, 45, 44, 29, 30, 46, 29, 46, 45, 30, 31, 47, 30, 47, 46, 44, 45, 61, 44, 61, 60, 45, 46, 62, 45, 62, 61, 46, 47, 63, 46, 63, 62, 60, 61, 77, 60, 77, 76, 61, 62, 78, 61, 78, 77, 62, 63, 79, 62, 79, 78, 76, 77, 93, 76, 93, 92, 77, 78, 94, 77, 94, 93, 78, 79, 95, 78, 95, 94, 92, 93, 109, 92, 109, 108, 93, 94, 110, 93, 110, 109, 94, 95, 111, 94, 111, 110, 108, 109, 125, 108, 125, 124, 109, 110, 126, 109, 126, 125, 110, 111, 127, 110, 127, 126, 124, 125, 141, 124, 141, 140, 125, 126, 142, 125, 142, 141, 126, 127, 143, 126, 143, 142, 140, 141, 157, 140, 157, 156, 141, 142, 158, 141, 158, 157, 142, 143, 159, 142, 159, 158, 156, 157, 173, 156, 173, 172, 157, 158, 174, 157, 174, 173, 158, 159, 175, 158, 175, 174, 172, 173, 189, 172, 189, 188, 173, 174, 190, 173, 190, 189, 174, 175, 191, 174, 191, 190, 188, 189, 205, 188, 205, 204, 189, 190, 206, 189, 206, 205, 190, 191, 207, 190, 207, 206, 204, 205, 221, 204, 221, 220, 205, 206, 222, 205, 222, 221, 206, 207, 223, 206, 223, 222, 220, 221, 237, 220, 237, 236, 221, 222, 238, 221, 238, 237, 222, 223, 239, 222, 239, 238, 236, 237, 253, 236, 253, 252, 237, 238, 254, 237, 254, 253, 238, 239, 255, 238, 255, 254, 252, 253, 269, 252, 269, 268, 253, 254, 270, 253, 270, 269, 254, 255, 271, 254, 271, 270, 268, 269, 285, 268, 285, 284, 269, 270, 286, 269, 286, 285, 270, 271, 287, 270, 287, 286, 284, 285, 301, 284, 301, 300, 285, 286, 302, 285, 302, 301, 286, 287, 303, 286, 303, 302, 300, 301, 317, 300, 317, 316, 301, 302, 318, 301, 318, 317, 302, 303, 319, 302, 319, 318, 316, 317, 13, 316, 13, 12, 317, 318, 14, 317, 14, 13, 318, 319, 15, 318, 15, 14, 0, 4, 20, 0, 20, 16, 4, 8, 24, 4, 24, 20, 8, 12, 28, 8, 28, 24, 16, 20, 36, 16, 36, 32, 20, 24, 40, 20, 40, 36, 24, 28, 44, 24, 44, 40, 32, 36, 52, 32, 52, 48, 36, 40, 56, 36, 56, 52, 40, 44, 60, 40, 60, 56, 48, 52, 68, 48, 68, 64, 52, 56, 72, 52, 72, 68, 56, 60, 76, 56, 76, 72, 64, 68, 84, 64, 84, 80, 68, 72, 88, 68, 88, 84, 72, 76, 92, 72, 92, 88, 80, 84, 100, 80, 100, 96, 84, 88, 104, 84, 104, 100, 88, 92, 108, 88, 108, 104, 96, 100, 116, 96, 116, 112, 100, 104, 120, 100, 120, 116, 104, 108, 124, 104, 124, 120, 112, 116, 132, 112, 132, 128, 116, 120, 136, 116, 136, 132, 120, 124, 140, 120, 140, 136, 128, 132, 148, 128, 148, 144, 132, 136, 152, 132, 152, 148, 136, 140, 156, 136, 156, 152, 144, 148, 164, 144, 164, 160, 148, 152, 168, 148, 168, 164, 152, 156, 172, 152, 172, 168, 160, 164, 180, 160, 180, 176, 164, 168, 184, 164, 184, 180, 168, 172, 188, 168, 188, 184, 176, 180, 196, 176, 196, 192, 180, 184, 200, 180, 200, 196, 184, 188, 204, 184, 204, 200, 192, 196, 212, 192, 212, 208, 196, 200, 216, 196, 216, 212, 200, 204, 220, 200, 220, 216, 208, 212, 228, 208, 228, 224, 212, 216, 232, 212, 232, 228, 216, 220, 236, 216, 236, 232, 224, 228, 244, 224, 244, 240, 228, 232, 248, 228, 248, 244, 232, 236, 252, 232, 252, 248, 240, 244, 260, 240, 260, 256, 244, 248, 264, 244, 264, 260, 248, 252, 268, 248, 268, 264, 256, 260, 276, 256, 276, 272, 260, 264, 280, 260, 280, 276, 264, 268, 284, 264, 284, 280, 272, 276, 292, 272, 292, 288, 276, 280, 296, 276, 296, 292, 280, 284, 300, 280, 300, 296, 288, 292, 308, 288, 308, 304, 292, 296, 312, 292, 312, 308, 296, 300, 316, 296, 316, 312, 304, 308, 4, 304, 4, 0, 308, 312, 8, 308, 8, 4, 312, 316, 12, 312, 12, 8, 3, 19, 23, 3, 23, 7, 7, 23, 27, 7, 27, 11, 11, 27, 31, 11, 31, 15, 19, 35, 39, 19, 39, 23, 23, 39, 43, 23, 43, 27, 27, 43, 47, 27, 47, 31, 35, 51, 55, 35, 55, 39, 39, 55, 59, 39, 59, 43, 43, 59, 63, 43, 63, 47, 51, 67, 71, 51, 71, 55, 55, 71, 75, 55, 75, 59, 59, 75, 79, 59, 79, 63, 67, 83, 87, 67, 87, 71, 71, 87, 91, 71, 91, 75, 75, 91, 95, 75, 95, 79, 83, 99, 103, 83, 103, 87, 87, 103, 107, 87, 107, 91, 91, 107, 111, 91, 111, 95, 99, 115, 119, 99, 119, 103, 103, 119, 123, 103, 123, 107, 107, 123, 127, 107, 127, 111, 115, 131, 135, 115, 135, 119, 119, 135, 139, 119, 139, 123, 123, 139, 143, 123, 143, 127, 131, 147, 151, 131, 151, 135, 135, 151, 155, 135, 155, 139, 139, 155, 159, 139, 159, 143, 147, 163, 167, 147, 167, 151, 151, 167, 171, 151, 171, 155, 155, 171, 175, 155, 175, 159, 163, 179, 183, 163, 183, 167, 167, 183, 187, 167, 187, 171, 171, 187, 191, 171, 191, 175, 179, 195, 199, 179, 199, 183, 183, 199, 203, 183, 203, 187, 187, 203, 207, 187, 207, 191, 195, 211, 215, 195, 215, 199, 199, 215, 219, 199, 219, 203, 203, 219, 223, 203, 223, 207, 211, 227, 231, 211, 231, 215, 215, 231, 235, 215, 235, 219, 219, 235, 239, 219, 239, 223, 227, 243, 247, 227, 247, 231, 231, 247, 251, 231, 251, 235, 235, 251, 255, 235, 255, 239, 243, 259, 263, 243, 263, 247, 247, 263, 267, 247, 267, 251, 251, 267, 271, 251, 271, 255, 259, 275, 279, 259, 279, 263, 263, 279, 283, 263, 283, 267, 267, 283, 287, 267, 287, 271, 275, 291, 295, 275, 295, 279, 279, 295, 299, 279, 299, 283, 283, 299, 303, 283, 303, 287, 291, 307, 311, 291, 311, 295, 295, 311, 315, 295, 315, 299, 299, 315, 319, 299, 319, 303, 307, 3, 7, 307, 7, 311, 311, 7, 11, 311, 11, 315, 315, 11, 15, 315, 15, 319]
    point3f[] points = [(0.18, 0, 1.2), (0.18, 0, 1.2466667), (0.18, 0, 1.2933333), (0.18, 0, 1.34), (0.15, 0, 1.2), (0.15, 0, 1.2466667), (0.15, 0, 1.2933333), (0.15, 0, 1.34), (0.12, 0, 1.2), (0.12, 0, 1.2466667), (0.12, 0, 1.2933333), (0.12, 0, 1.34), (0.09, 0, 1.2), (0.09, 0, 1.2466667), (0.09, 0, 1.2933333), (0.09, 0, 1.34), (0.17119017, 0.05562306, 1.2), (0.17119017, 0.05562306, 1.2466667), (0.17119017, 0.05562306, 1.2933333), (0.17119017, 0.05562306, 1.34), (0.14265847, 0.04635255, 1.2), (0.14265847, 0.04635255, 1.2466667), (0.14265847, 0.04635255, 1.2933333), (0.14265847, 0.04635255, 1.34), (0.11412678, 0.03708204, 1.2), (0.11412678, 0.03708204, 1.2466667), (0.11412678, 0.03708204, 1.2933333), (0.11412678, 0.03708204, 1.34), (0.085595086, 0.02781153, 1.2), (0.085595086, 0.02781153, 1.2466667), (0.085595086, 0.02781153, 1.2933333), (0.085595086, 0.02781153, 1.34), (0.14562306, 0.105801344, 1.2), (0.14562306, 0.105801344, 1.2466667), (0.14562306, 0.105801344, 1.2933333), (0.14562306, 0.105801344, 1.34), (0.121352546, 0.08816779, 1.2), (0.121352546, 0.08816779, 1.2466667), (0.121352546, 0.08816779, 1.2933333), (0.121352546, 0.08816779, 1.34), (0.09708204, 0.07053423, 1.2), (0.09708204, 0.07053423, 1.2466667), (0.09708204, 0.07053423, 1.2933333), (0.09708204, 0.07053423, 1.34), (0.07281153, 0.052900672, 1.2), (0.07281153, 0.052900672, 1.2466667), (0.07281153, 0.052900672, 1.2933333), (0.07281153, 0.052900672, 1.34), (0.105801344, 0.14562306, 1.2), (0.105801344, 0.14562306, 1.2466667), (0.105801344, 0.14562306, 1.2933333), (0.105801344, 0.14562306, 1.34), (0.08816779, 0.121352546, 1.2), (0.08816779, 0.121352546, 1.2466667), (0.08816779, 0.121352546, 1.2933333), (0.08816779, 0.121352546, 1.34), (0.07053423, 0.09708204, 1.2), (0.07053423, 0.09708204, 1.2466667), (0.07053423, 0.09708204, 1.2933333), (0.07053423, 0.09708204, 1.34), (0.052900672, 0.07281153, 1.2), (0.052900672, 0.07281153, 1.2466667), (0.052900672, 0.07281153, 1.2933333), (0.052900672, 0.07281153, 1.34), (0.05562306, 0.17119017, 1.2), (0.05562306, 0.17119017, 1.2466667), (0.05562306, 0.17119017, 1.2933333), (0.05562306, 0.17119017, 1.34), (0.04635255, 0.14265847, 1.2), (0.04635255, 0.14265847, 1.2466667), (0.04635255, 0.14265847, 1.2933333), (0.04635255, 0.14265847, 1.34), (0.03708204, 0.11412678, 1.2), (0.03708204, 0.11412678, 1.2466667), (0.03708204, 0.11412678, 1.2933333), (0.03708204, 0.11412678, 1.34), (0.02781153, 0.085595086, 1.2), (0.02781153, 0.085595086, 1.2466667), (0.02781153, 0.085595086, 1.2933333), (0.02781153, 0.085595086, 1.34), (1.1021821e-17, 0.18, 1.2), (1.1021821e-17, 0.18, 1.2466667), (1.1021821e-17, 0.18, 1.2933333), (1.1021821e-17, 0.18, 1.34), (9.184851e-18, 0.15, 1.2), (9.184851e-18, 0.15, 1.2466667), (9.184851e-18, 0.15, 1.2933333), (9.184851e-18, 0.15, 1.34), (7.347881e-18, 0.12, 1.2), (7.347881e-18, 0.12, 1.2466667), (7.347881e-18, 0.12, 1.2933333), (7.347881e-18, 0.12, 1.34), (5.5109105e-18, 0.09, 1.2), (5.5109105e-18, 0.09, 1.2466667), (5.5109105e-18, 0.09, 1.2933333), (5.5109105e-18, 0.09, 1.34), (-0.05562306, 0.17119017, 1.2), (-0.05562306, 0.17119017, 1.2466667), (-0.05562306, 0.17119017, 1.2933333), (-0.05562306, 0.17119017, 1.34), (-0.04635255, 0.14265847, 1.2), (-0.04635255, 0.14265847, 1.2466667), (-0.04635255, 0.14265847, 1.2933333), (-0.04635255, 0.14265847, 1.34), (-0.03708204, 0.11412678, 1.2), (-0.03708204, 0.11412678, 1.2466667), (-0.03708204, 0.11412678, 1.2933333), (-0.03708204, 0.11412678, 1.34), (-0.02781153, 0.085595086, 1.2), (-0.02781153, 0.085595086, 1.2466667), (-0.02781153, 0.085595086, 1.2933333), (-0.02781153, 0.085595086, 1.34), (-0.105801344, 0.14562306, 1.2), (-0.105801344, 0.14562306, 1.2466667), (-0.105801344, 0.14562306, 1.2933333), (-0.105801344, 0.14562306, 1.34), (-0.08816779, 0.121352546, 1.2), (-0.08816779, 0.121352546, 1.2466667), (-0.08816779, 0.121352546, 1.2933333), (-0.08816779, 0.121352546, 1.34), (-0.07053423, 0.09708204, 1.2), (-0.07053423, 0.09708204, 1.2466667), (-0.07053423, 0.09708204, 1.2933333), (-0.07053423, 0.09708204, 1.34), (-0.052900672, 0.07281153, 1.2), (-0.052900672, 0.07281153, 1.2466667), (-0.052900672, 0.07281153, 1.2933333), (-0.052900672, 0.07281153, 1.34), (-0.14562306, 0.105801344, 1.2), (-0.14562306, 0.105801344, 1.2466667), (-0.14562306, 0.105801344, 1.2933333), (-0.14562306, 0.105801344, 1.34), (-0.121352546, 0.08816779, 1.2), (-0.121352546, 0.08816779, 1.2466667), (-0.121352546, 0.08816779, 1.2933333), (-0.121352546, 0.08816779, 1.34), (-0.09708204, 0.07053423, 1.2), (-0.09708204, 0.07053423, 1.2466667), (-0.09708204, 0.07053423, 1.2933333), (-0.09708204, 0.07053423, 1.34), (-0.07281153, 0.052900672, 1.2), (-0.07281153, 0.052900672, 1.2466667), (-0.07281153, 0.052900672, 1.2933333), (-0.07281153, 0.052900672, 1.34), (-0.17119017, 0.05562306, 1.2), (-0.17119017, 0.05562306, 1.2466667), (-0.17119017, 0.05562306, 1.2933333), (-0.17119017, 0.05562306, 1.34), (-0.14265847, 0.04635255, 1.2), (-0.14265847, 0.04635255, 1.2466667), (-0.14265847, 0.04635255, 1.2933333), (-0.14265847, 0.04635255, 1.34), (-0.11412678, 0.03708204, 1.2), (-0.11412678, 0.03708204, 1.2466667), (-0.11412678, 0.03708204, 1.2933333), (-0.11412678, 0.03708204, 1.34), (-0.085595086, 0.02781153, 1.2), (-0.085595086, 0.02781153, 1.2466667), (-0.085595086, 0.02781153, 1.2933333), (-0.085595086, 0.02781153, 1.34), (-0.18, 2.2043642e-17, 1.2), (-0.18, 2.2043642e-17, 1.2466667), (-0.18, 2.2043642e-17, 1.2933333), (-0.18, 2.2043642e-17, 1.34), (-0.15, 1.8369703e-17, 1.2), (-0.15, 1.8369703e-17, 1.2466667), (-0.15, 1.8369703e-17, 1.2933333), (-0.15, 1.8369703e-17, 1.34), (-0.12, 1.4695762e-17, 1.2), (-0.12, 1.4695762e-17, 1.2466667), (-0.12, 1.4695762e-17, 1.2933333), (-0.12, 1.4695762e-17, 1.34), (-0.09, 1.1021821e-17, 1.2), (-0.09, 1.1021821e-17, 1.2466667), (-0.09, 1.1021821e-17, 1.2933333), (-0.09, 1.1021821e-17, 1.34), (-0.17119017, -0.05562306, 1.2), (-0.17119017, -0.05562306, 1.2466667), (-0.17119017, -0.05562306, 1.2933333), (-0.17119017, -0.05562306, 1.34), (-0.14265847, -0.04635255, 1.2), (-0.14265847, -0.04635255, 1.2466667), (-0.14265847, -0.04635255, 1.2933333), (-0.14265847, -0.04635255, 1.34), (-0.11412678, -0.03708204, 1.2), (-0.11412678, -0.03708204, 1.2466667), (-0.11412678, -0.03708204, 1.2933333), (-0.11412678, -0.03708204, 1.34), (-0.085595086, -0.02781153, 1.2), (-0.085595086, -0.02781153, 1.2466667), (-0.085595086, -0.02781153, 1.2933333), (-0.085595086, -0.02781153, 1.34), (-0.14562306, -0.105801344, 1.2), (-0.14562306, -0.105801344, 1.2466667), (-0.14562306, -0.105801344, 1.2933333), (-0.14562306, -0.105801344, 1.34), (-0.121352546, -0.08816779, 1.2), (-0.121352546, -0.08816779, 1.2466667), (-0.121352546, -0.08816779, 1.2933333), (-0.121352546, -0.08816779, 1.34), (-0.09708204, -0.07053423, 1.2), (-0.09708204, -0.07053423, 1.2466667), (-0.09708204, -0.07053423, 1.2933333), (-0.09708204, -0.07053423, 1.34), (-0.07281153, -0.052900672, 1.2), (-0.07281153, -0.052900672, 1.2466667), (-0.07281153, -0.052900672, 1.2933333), (-0.07281153, -0.052900672, 1.34), (-0.105801344, -0.14562306, 1.2), (-0.105801344, -0.14562306, 1.2466667), (-0.105801344, -0.14562306, 1.2933333), (-0.105801344, -0.14562306, 1.34), (-0.08816779, -0.121352546, 1.2), (-0.08816779, -0.121352546, 1.2466667), (-0.08816779, -0.121352546, 1.2933333), (-0.08816779, -0.121352546, 1.34), (-0.07053423, -0.09708204, 1.2), (-0.07053423, -0.09708204, 1.2466667), (-0.07053423, -0.09708204, 1.2933333), (-0.07053423, -0.09708204, 1.34), (-0.052900672, -0.07281153, 1.2), (-0.052900672, -0.07281153, 1.2466667), (-0.052900672, -0.07281153, 1.2933333), (-0.052900672, -0.07281153, 1.34), (-0.05562306, -0.17119017, 1.2), (-0.05562306, -0.17119017, 1.2466667), (-0.05562306, -0.17119017, 1.2933333), (-0.05562306, -0.17119017, 1.34), (-0.04635255, -0.14265847, 1.2), (-0.04635255, -0.14265847, 1.2466667), (-0.04635255, -0.14265847, 1.2933333), (-0.04635255, -0.14265847, 1.34), (-0.03708204, -0.11412678, 1.2), (-0.03708204, -0.11412678, 1.2466667), (-0.03708204, -0.11412678, 1.2933333), (-0.03708204, -0.11412678, 1.34), (-0.02781153, -0.085595086, 1.2), (-0.02781153, -0.085595086, 1.2466667), (-0.02781153, -0.085595086, 1.2933333), (-0.02781153, -0.085595086, 1.34), (-3.3065463e-17, -0.18, 1.2), (-3.3065463e-17, -0.18, 1.2466667), (-3.3065463e-17, -0.18, 1.2933333), (-3.3065463e-17, -0.18, 1.34), (-2.7554553e-17, -0.15, 1.2), (-2.7554553e-17, -0.15, 1.2466667), (-2.7554553e-17, -0.15, 1.2933333), (-2.7554553e-17, -0.15, 1.34), (-2.2043642e-17, -0.12, 1.2), (-2.2043642e-17, -0.12, 1.2466667), (-2.2043642e-17, -0.12, 1.2933333), (-2.2043642e-17, -0.12, 1.34), (-1.6532732e-17, -0.09, 1.2), (-1.6532732e-17, -0.09, 1.2466667), (-1.6532732e-17, -0.09, 1.2933333), (-1.6532732e-17, -0.09, 1.34), (0.05562306, -0.17119017, 1.2), (0.05562306, -0.17119017, 1.2466667), (0.05562306, -0.17119017, 1.2933333), (0.05562306, -0.17119017, 1.34), (0.04635255, -0.14265847, 1.2), (0.04635255, -0.14265847, 1.2466667), (0.04635255, -0.14265847, 1.2933333), (0.04635255, -0.14265847, 1.34), (0.03708204, -0.11412678, 1.2), (0.03708204, -0.11412678, 1.2466667), (0.03708204, -0.11412678, 1.2933333), (0.03708204, -0.11412678, 1.34), (0.02781153, -0.085595086, 1.2), (0.02781153, -0.085595086, 1.2466667), (0.02781153, -0.085595086, 1.2933333), (0.02781153, -0.085595086, 1.34), (0.105801344, -0.14562306, 1.2), (0.105801344, -0.14562306, 1.2466667), (0.105801344, -0.14562306, 1.2933333), (0.105801344, -0.14562306, 1.34), (0.08816779, -0.121352546, 1.2), (0.08816779, -0.121352546, 1.2466667), (0.08816779, -0.121352546, 1.2933333), (0.08816779, -0.121352546, 1.34), (0.07053423, -0.09708204, 1.2), (0.07053423, -0.09708204, 1.2466667), (0.07053423, -0.09708204, 1.2933333), (0.07053423, -0.09708204, 1.34), (0.052900672, -0.07281153, 1.2), (0.052900672, -0.07281153, 1.2466667), (0.052900672, -0.07281153, 1.2933333), (0.052900672, -0.07281153, 1.34), (0.14562306, -0.105801344, 1.2), (0.14562306, -0.105801344, 1.2466667), (0.14562306, -0.105801344, 1.2933333), (0.14562306, -0.105801344, 1.34), (0.121352546, -0.08816779, 1.2), (0.121352546, -0.08816779, 1.2466667), (0.121352546, -0.08816779, 1.2933333), (0.121352546, -0.08816779, 1.34), (0.09708204, -0.07053423, 1.2), (0.09708204, -0.07053423, 1.2466667), (0.09708204, -0.07053423, 1.2933333), (0.09708204, -0.07053423, 1.34), (0.07281153, -0.052900672, 1.2), (0.07281153, -0.052900672, 1.2466667), (0.07281153, -0.052900672, 1.2933333), (0.07281153, -0.052900672, 1.34), (0.17119017, -0.05562306, 1.2), (0.17119017, -0.05562306, 1.2466667), (0.17119017, -0.05562306, 1.2933333), (0.17119017, -0.05562306, 1.34), (0.14265847, -0.04635255, 1.2), (0.14265847, -0.04635255, 1.2466667), (0.14265847, -0.04635255, 1.2933333), (0.14265847, -0.04635255, 1.34), (0.11412678, -0.03708204, 1.2), (0.11412678, -0.03708204, 1.2466667), (0.11412678, -0.03708204, 1.2933333), (0.11412678, -0.03708204, 1.34), (0.085595086, -0.02781153, 1.2), (0.085595086, -0.02781153, 1.2466667), (0.085595086, -0.02781153, 1.2933333), (0.085595086, -0.02781153, 1.34)]
}
