#usda 1.0
(
    defaultPrim = "glue_box"
    metersPerUnit = 1
    upAxis = "Z"
)

def Xform "glue_box" (
    customData = {
        dictionary gen_params = {
            string architecture = "box"
            dictionary counts = {
                int glue_pairs = 36
                int rigid_verts = 72
                int soft_verts = 216
                int tets = 750
            }
            string generator = "newton-mesh-tools/scripts/generate_assets.py"
        }
        dictionary glue = {
            dictionary entries = {
                dictionary s00000 = {
                    int index = 0
                    string name = "glue_box_rigid"
                    int[] rigid_indices = [0, 1, 2, 3, 4, 5, 6, 7, 8, 9, 10, 11, 12, 13, 14, 15, 16, 17, 18, 19, 20, 21, 22, 23, 24, 25, 26, 27, 28, 29, 30, 31, 32, 33, 34, 35]
                    string rigid_name = "rigid_box"
                    int[] soft_indices = [180, 181, 182, 183, 184, 185, 186, 187, 188, 189, 190, 191, 192, 193, 194, 195, 196, 197, 198, 199, 200, 201, 202, 203, 204, 205, 206, 207, 208, 209, 210, 211, 212, 213, 214, 215]
                    string soft_name = "box"
                }
            }
            int num_sets = 1
        }
    }
)
{
    def Scope "softs"
    {
        def TetMesh "box" (
            customData = {
                dictionary chambers = {
                    dictionary entries = {
                        dictionary c00000 = {
                            dictionary group = {
                                int cell = 0
                            }
                            int index = 0
                            string name = "c0"
                            int[] tet_indices = [0, 1, 2, 3, 4, 5, 6, 7, 8, 9, 10, 11, 12, 13, 14, 15, 16, 17, 18, 19, 20, 21, 22, 23, 24, 25, 26, 27, 28, 29, 30, 31, 32, 33, 34, 35, 36, 37, 38, 39, 40, 41, 42, 43, 44, 45, 46, 47, 48, 49, 50, 51, 52, 53, 54, 55, 56, 57, 58, 59, 60, 61, 62, 63, 64, 65, 66, 67, 68, 69, 70, 71, 72, 73, 74, 75, 76, 77, 78, 79, 80, 81, 82, 83, 84, 85, 86, 87, 88, 89, 90, 91, 92, 93, 94, 95, 96, 97, 98, 99, 100, 101, 102, 103, 104, 105, 106, 107, 108, 109, 110, 111, 112, 113, 114, 115, 116, 117, 118, 119, 120, 121, 122, 123, 124, 125, 126, 127, 128, 129, 130, 131, 132, 133, 134, 135, 136, 137, 138, 139, 140, 141, 142, 143, 144, 145, 146, 147, 148, 149, 150, 151, 152, 153, 154, 155, 156, 157, 158, 159, 160, 161, 162, 163, 164, 165, 166, 167, 168, 169, 170, 171, 172, 173, 174, 175, 176, 177, 178, 179, 180, 181, 182, 183, 184, 185, 186, 187, 188, 189, 190, 191, 192, 193, 194, 195, 196, 197, 198, 199, 200, 201, 202, 203, 204, 205, 206, 207, 208, 209, 210, 211, 212, 213, 214, 215, 216, 217, 218, 219, 220, 221, 222, 223, 224, 225, 226, 227, 228, 229, 230, 231, 232, 233, 234, 235, 236, 237, 238, 239, 240, 241, 242, 243, 244, 245, 246, 247, 248, 249, 250, 251, 252, 253, 254, 255, 256, 257, 258, 259, 260, 261, 262, 263, 264, 265, 266, 267, 268, 269, 270, 271, 272, 273, 274, 275, 276, 277, 278, 279, 280, 281, 282, 283, 284, 285, 286, 287, 288, 289, 290, 291, 292, 293, 294, 295, 296, 297, 298, 299, 300, 301, 302, 303, 304, 305, 306, 307, 308, 309, 310, 311, 312, 313, 314, 315, 316, 317, 318, 319, 320, 321, 322, 323, 324, 325, 326, 327, 328, 329, 330, 331, 332, 333, 334, 335, 336, 337, 338, 339, 340, 341, 342, 343, 344, 345, 346, 347, 348, 349, 350, 351, 352, 353, 354, 355, 356, 357, 358, 359, 360, 361, 362, 363, 364, 365, 366, 367, 368, 369, 370, 371, 372, 373, 374, 375, 376, 377, 378, 379, 380, 381, 382, 383, 384, 385, 386, 387, 388, 389, 390, 391, 392, 393, 394, 395, 396, 397, 398, 399, 400, 401, 402, 403, 404, 405, 406, 407, 408, 409, 410, 411, 412, 413, 414, 415, 416, 417, 418, 419, 420, 421, 422, 423, 424, 425, 426, 427, 428, 429, 430, 431, 432, 433, 434, 435, 436, 437, 438, 439, 440, 441, 442, 443, 444, 445, 446, 447, 448, 449, 450, 451, 452, 453, 454, 455, 456, 457, 458, 459, 460, 461, 462, 463, 464, 465, 466, 467, 468, 469, 470, 471, 472, 473, 474, 475, 476, 477, 478, 479, 480, 481, 482, 483, 484, 485, 486, 487, 488, 489, 490, 491, 492, 493, 494, 495, 496, 497, 498, 499, 500, 501, 502, 503, 504, 505, 506, 507, 508, 509, 510, 511, 512, 513, 514, 515, 516, 517, 518, 519, 520, 521, 522, 523, 524, 525, 526, 527, 528, 529, 530, 531, 532, 533, 534, 535, 536, 537, 538, 539, 540, 541, 542, 543, 544, 545, 546, 547, 548, 549, 550, 551, 552, 553, 554, 555, 556, 557, 558, 559, 560, 561, 562, 563, 564, 565, 566, 567, 568, 569, 570, 571, 572, 573, 574, 575, 576, 577, 578, 579, 580, 581, 582, 583, 584, 585, 586, 587, 588, 589, 590, 591, 592, 593, 594, 595, 596, 597, 598, 599, 600, 601, 602, 603, 604, 605, 606, 607, 608, 609, 610, 611, 612, 613, 614, 615, 616, 617, 618, 619, 620, 621, 622, 623, 624, 625, 626, 627, 628, 629, 630, 631, 632, 633, 634, 635, 636, 637, 638, 639, 640, 641, 642, 643, 644, 645, 646, 647, 648, 649, 650, 651, 652, 653, 654, 655, 656, 657, 658, 659, 660, 661, 662, 663, 664, 665, 666, 667, 668, 669, 670, 671, 672, 673, 674, 675, 676, 677, 678, 679, 680, 681, 682, 683, 684, 685, 686, 687, 688, 689, 690, 691, 692, 693, 694, 695, 696, 697, 698, 699, 700, 701, 702, 703, 704, 705, 706, 707, 708, 709, 710, 711, 712, 713, 714, 715, 716, 717, 718, 719, 720, 721, 722, 723, 724, 725, 726, 727, 728, 729, 730, 731, 732, 733, 734, 735, 736, 737, 738, 739, 740, 741, 742, 743, 744, 745, 746, 747, 748, 749]
                        }
                    }
                    int format_version = 1
                    int num_chambers = 1
                    int[] spring_chamber_mask = [0, 0, 0, 0, 0, 0, 0, 0, 0, 0, 0, 0, 0, 0, 0, 0, 0, 0, 0, 0, 0, 0, 0, 0, 0, 0, 0, 0, 0, 0, 0, 0, 0, 0, 0, 0, 0, 0, 0, 0, 0, 0, 0, 0, 0, 0, 0, 0, 0, 0, 0, 0, 0, 0, 0, 0, 0, 0, 0, 0, 0, 0, 0, 0, 0, 0, 0, 0, 0, 0, 0, 0, 0, 0, 0, 0, 0, 0, 0, 0, 0, 0, 0, 0, 0, 0, 0, 0, 0, 0, 0, 0, 0, 0, 0, 0, 0, 0, 0, 0, 0, 0, 0, 0, 0, 0, 0, 0, 0, 0, 0, 0, 0, 0, 0, 0, 0, 0, 0, 0, 0, 0, 0, 0, 0, 0, 0, 0, 0, 0, 0, 0, 0, 0, 0, 0, 0, 0, 0, 0, 0, 0, 0, 0, 0, 0, 0, 0, 0, 0, 0, 0, 0, 0, 0, 0, 0, 0, 0, 0, 0, 0, 0, 0, 0, 0, 0, 0, 0, 0, 0, 0, 0, 0, 0, 0, 0, 0, 0, 0, 0, 0, 0, 0, 0, 0, 0, 0, 0, 0, 0, 0, 0, 0, 0, 0, 0, 0, 0, 0, 0, 0, 0, 0, 0, 0, 0, 0, 0, 0, 0, 0, 0, 0, 0, 0, 0, 0, 0, 0, 0, 0, 0, 0, 0, 0, 0, 0, 0, 0, 0, 0, 0, 0, 0, 0, 0, 0, 0, 0, 0, 0, 0, 0, 0, 0, 0, 0, 0, 0, 0, 0, 0, 0, 0, 0, 0, 0, 0, 0, 0, 0, 0, 0, 0, 0, 0, 0, 0, 0, 0, 0, 0, 0, 0, 0, 0, 0, 0, 0, 0, 0, 0, 0, 0, 0, 0, 0, 0, 0, 0, 0, 0, 0, 0, 0, 0, 0, 0, 0, 0, 0, 0, 0, 0, 0, 0, 0, 0, 0, 0, 0, 0, 0, 0, 0, 0, 0, 0, 0, 0, 0, 0, 0, 0, 0, 0, 0, 0, 0, 0, 0, 0, 0, 0, 0, 0, 0, 0, 0, 0, 0, 0, 0, 0, 0, 0, 0, 0, 0, 0, 0, 0, 0, 0, 0, 0, 0, 0, 0, 0, 0, 0, 0, 0, 0, 0, 0, 0, 0, 0, 0, 0, 0, 0, 0, 0, 0, 0, 0, 0, 0, 0, 0, 0, 0, 0, 0, 0, 0, 0, 0, 0, 0, 0, 0, 0, 0, 0, 0, 0, 0, 0, 0, 0, 0, 0, 0, 0, 0, 0, 0, 0, 0, 0, 0, 0, 0, 0, 0, 0, 0, 0, 0, 0, 0, 0, 0, 0, 0, 0, 0, 0, 0, 0, 0, 0, 0, 0, 0, 0, 0, 0, 0, 0, 0, 0, 0, 0, 0, 0, 0, 0, 0, 0, 0, 0, 0, 0, 0, 0, 0, 0, 0, 0, 0, 0, 0, 0, 0, 0, 0, 0, 0, 0, 0, 0, 0, 0, 0, 0, 0, 0, 0, 0, 0, 0, 0, 0, 0, 0, 0, 0, 0, 0, 0, 0, 0, 0, 0, 0, 0, 0, 0, 0, 0, 0, 0, 0, 0, 0, 0, 0, 0, 0, 0, 0, 0, 0, 0, 0, 0, 0, 0, 0, 0, 0, 0, 0, 0, 0, 0, 0, 0, 0, 0, 0, 0, 0, 0, 0, 0, 0, 0, 0, 0, 0, 0, 0, 0, 0, 0, 0, 0, 0, 0, 0, 0, 0, 0, 0, 0, 0, 0, 0, 0, 0, 0, 0, 0, 0, 0, 0, 0, 0, 0, 0, 0, 0, 0, 0, 0, 0, 0, 0, 0, 0, 0, 0, 0, 0, 0, 0, 0, 0, 0, 0, 0, 0, 0, 0, 0, 0, 0, 0, 0, 0, 0, 0, 0, 0, 0, 0, 0, 0, 0, 0, 0, 0, 0, 0, 0, 0, 0, 0, 0, 0, 0, 0, 0, 0, 0, 0, 0, 0, 0, 0, 0, 0, 0, 0, 0, 0, 0, 0, 0, 0, 0, 0, 0, 0, 0, 0, 0, 0, 0, 0, 0, 0, 0, 0, 0, 0, 0, 0, 0, 0, 0, 0, 0, 0, 0, 0, 0, 0, 0, 0, 0, 0, 0, 0, 0, 0, 0, 0, 0, 0, 0, 0, 0, 0, 0, 0, 0, 0, 0, 0, 0, 0, 0, 0, 0, 0, 0, 0, 0, 0, 0, 0, 0, 0, 0, 0, 0, 0, 0, 0, 0, 0, 0, 0, 0, 0, 0, 0, 0, 0, 0, 0, 0, 0, 0, 0, 0, 0, 0, 0, 0, 0, 0, 0, 0, 0, 0, 0, 0, 0, 0, 0, 0, 0, 0, 0, 0, 0, 0, 0, 0, 0, 0, 0, 0, 0, 0, 0, 0, 0, 0, 0, 0, 0, 0, 0, 0, 0, 0, 0, 0, 0, 0, 0, 0, 0, 0, 0, 0, 0, 0, 0, 0, 0, 0, 0, 0, 0, 0, 0, 0, 0, 0, 0, 0, 0, 0, 0, 0, 0, 0, 0, 0, 0, 0, 0, 0, 0, 0, 0, 0, 0, 0, 0, 0, 0, 0, 0, 0, 0, 0, 0, 0, 0, 0, 0, 0, 0, 0, 0, 0, 0, 0, 0, 0, 0, 0, 0, 0, 0, 0, 0, 0, 0, 0, 0, 0, 0, 0, 0, 0, 0, 0, 0, 0, 0, 0, 0, 0, 0, 0, 0, 0, 0, 0, 0, 0, 0, 0, 0, 0, 0, 0, 0, 0, 0, 0, 0, 0, 0, 0, 0, 0, 0, 0, 0, 0, 0, 0, 0, 0, 0, 0, 0, 0, 0, 0, 0, 0, 0, 0, 0, 0, 0, 0, 0, 0, 0, 0, 0, 0, 0, 0, 0, 0, 0, 0, 0, 0, 0, 0, 0, 0, 0, 0, 0, 0, 0, 0, 0, 0, 0, 0, 0, 0, 0, 0, 0, 0, 0, 0, 0, 0, 0, 0, 0, 0, 0, 0, 0, 0, 0, 0, 0, 0, 0, 0, 0, 0, 0, 0, 0, 0, 0, 0, 0, 0, 0, 0, 0, 0, 0, 0, 0, 0, 0, 0, 0, 0, 0, 0, 0, 0, 0, 0, 0, 0, 0, 0, 0, 0, 0, 0, 0, 0, 0, 0, 0, 0, 0, 0, 0, 0, 0, 0, 0, 0, 0, 0, 0, 0, 0, 0, 0, 0, 0, 0, 0, 0, 0, 0, 0, 0, 0, 0, 0, 0, 0, 0, 0, 0, 0, 0, 0, 0, 0, 0, 0, 0, 0, 0, 0, 0, 0, 0, 0, 0, 0, 0, 0, 0, 0, 0, 0, 0, 0, 0, 0, 0, 0, 0, 0, 0, 0, 0, 0, 0, 0, 0, 0, 0, 0, 0, 0, 0, 0, 0, 0, 0, 0, 0, 0, 0, 0, 0, 0, 0, 0, 0, 0, 0, 0, 0, 0, 0, 0, 0, 0, 0, 0, 0, 0, 0, 0, 0, 0, 0, 0]
                    int spring_count = 1115
                    int[] spring_indices = [0, 1, 0, 7, 0, 43, 1, 7, 1, 43, 7, 43, 0, 37, 1, 37, 37, 43, 0, 6, 6, 43, 6, 7, 0, 42, 6, 42, 42, 43, 0, 36, 36, 37, 36, 43, 36, 42, 1, 2, 1, 8, 1, 44, 2, 8, 2, 44, 8, 44, 1, 38, 2, 38, 38, 44, 7, 44, 7, 8, 43, 44, 37, 38, 37, 44, 2, 3, 2, 9, 2, 45, 3, 9, 3, 45, 9, 45, 2, 39, 3, 39, 39, 45, 8, 45, 8, 9, 44, 45, 38, 39, 38, 45, 3, 4, 3, 10, 3, 46, 4, 10, 4, 46, 10, 46, 3, 40, 4, 40, 40, 46, 9, 46, 9, 10, 45, 46, 39, 40, 39, 46, 4, 5, 4, 11, 4, 47, 5, 11, 5, 47, 11, 47, 4, 41, 5, 41, 41, 47, 10, 47, 10, 11, 46, 47, 40, 41, 40, 47, 6, 13, 6, 49, 7, 13, 7, 49, 13, 49, 43, 49, 6, 12, 12, 49, 12, 13, 6, 48, 12, 48, 48, 49, 42, 49, 42, 48, 7, 14, 7, 50, 8, 14, 8, 50, 14, 50, 44, 50, 13, 50, 13, 14, 49, 50, 43, 50, 8, 15, 8, 51, 9, 15, 9, 51, 15, 51, 45, 51, 14, 51, 14, 15, 50, 51, 44, 51, 9, 16, 9, 52, 10, 16, 10, 52, 16, 52, 46, 52, 15, 52, 15, 16, 51, 52, 45, 52, 10, 17, 10, 53, 11, 17, 11, 53, 17, 53, 47, 53, 16, 53, 16, 17, 52, 53, 46, 53, 12, 19, 12, 55, 13, 19, 13, 55, 19, 55, 49, 55, 12, 18, 18, 55, 18, 19, 12, 54, 18, 54, 54, 55, 48, 55, 48, 54, 13, 20, 13, 56, 14, 20, 14, 56, 20, 56, 50, 56, 19, 56, 19, 20, 55, 56, 49, 56, 14, 21, 14, 57, 15, 21, 15, 57, 21, 57, 51, 57, 20, 57, 20, 21, 56, 57, 50, 57, 15, 22, 15, 58, 16, 22, 16, 58, 22, 58, 52, 58, 21, 58, 21, 22, 57, 58, 51, 58, 16, 23, 16, 59, 17, 23, 17, 59, 23, 59, 53, 59, 22, 59, 22, 23, 58, 59, 52, 59, 18, 25, 18, 61, 19, 25, 19, 61, 25, 61, 55, 61, 18, 24, 24, 61, 24, 25, 18, 60, 24, 60, 60, 61, 54, 61, 54, 60, 19, 26, 19, 62, 20, 26, 20, 62, 26, 62, 56, 62, 25, 62, 25, 26, 61, 62, 55, 62, 20, 27, 20, 63, 21, 27, 21, 63, 27, 63, 57, 63, 26, 63, 26, 27, 62, 63, 56, 63, 21, 28, 21, 64, 22, 28, 22, 64, 28, 64, 58, 64, 27, 64, 27, 28, 63, 64, 57, 64, 22, 29, 22, 65, 23, 29, 23, 65, 29, 65, 59, 65, 28, 65, 28, 29, 64, 65, 58, 65, 24, 31, 24, 67, 25, 31, 25, 67, 31, 67, 61, 67, 24, 30, 30, 67, 30, 31, 24, 66, 30, 66, 66, 67, 60, 67, 60, 66, 25, 32, 25, 68, 26, 32, 26, 68, 32, 68, 62, 68, 31, 68, 31, 32, 67, 68, 61, 68, 26, 33, 26, 69, 27, 33, 27, 69, 33, 69, 63, 69, 32, 69, 32, 33, 68, 69, 62, 69, 27, 34, 27, 70, 28, 34, 28, 70, 34, 70, 64, 70, 33, 70, 33, 34, 69, 70, 63, 70, 28, 35, 28, 71, 29, 35, 29, 71, 35, 71, 65, 71, 34, 71, 34, 35, 70, 71, 64, 71, 36, 79, 37, 79, 43, 79, 36, 73, 37, 73, 73, 79, 42, 79, 36, 78, 42, 78, 78, 79, 36, 72, 72, 73, 72, 79, 72, 78, 37, 80, 38, 80, 44, 80, 37, 74, 38, 74, 74, 80, 43, 80, 79, 80, 73, 74, 73, 80, 38, 81, 39, 81, 45, 81, 38, 75, 39, 75, 75, 81, 44, 81, 80, 81, 74, 75, 74, 81, 39, 82, 40, 82, 46, 82, 39, 76, 40, 76, 76, 82, 45, 82, 81, 82, 75, 76, 75, 82, 40, 83, 41, 83, 47, 83, 40, 77, 41, 77, 77, 83, 46, 83, 82, 83, 76, 77, 76, 83, 42, 85, 43, 85, 49, 85, 79, 85, 48, 85, 42, 84, 48, 84, 84, 85, 78, 85, 78, 84, 43, 86, 44, 86, 50, 86, 80, 86, 49, 86, 85, 86, 79, 86, 44, 87, 45, 87, 51, 87, 81, 87, 50, 87, 86, 87, 80, 87, 45, 88, 46, 88, 52, 88, 82, 88, 51, 88, 87, 88, 81, 88, 46, 89, 47, 89, 53, 89, 83, 89, 52, 89, 88, 89, 82, 89, 48, 91, 49, 91, 55, 91, 85, 91, 54, 91, 48, 90, 54, 90, 90, 91, 84, 91, 84, 90, 49, 92, 50, 92, 56, 92, 86, 92, 55, 92, 91, 92, 85, 92, 50, 93, 51, 93, 57, 93, 87, 93, 56, 93, 92, 93, 86, 93, 51, 94, 52, 94, 58, 94, 88, 94, 57, 94, 93, 94, 87, 94, 52, 95, 53, 95, 59, 95, 89, 95, 58, 95, 94, 95, 88, 95, 54, 97, 55, 97, 61, 97, 91, 97, 60, 97, 54, 96, 60, 96, 96, 97, 90, 97, 90, 96, 55, 98, 56, 98, 62, 98, 92, 98, 61, 98, 97, 98, 91, 98, 56, 99, 57, 99, 63, 99, 93, 99, 62, 99, 98, 99, 92, 99, 57, 100, 58, 100, 64, 100, 94, 100, 63, 100, 99, 100, 93, 100, 58, 101, 59, 101, 65, 101, 95, 101, 64, 101, 100, 101, 94, 101, 60, 103, 61, 103, 67, 103, 97, 103, 66, 103, 60, 102, 66, 102, 102, 103, 96, 103, 96, 102, 61, 104, 62, 104, 68, 104, 98, 104, 67, 104, 103, 104, 97, 104, 62, 105, 63, 105, 69, 105, 99, 105, 68, 105, 104, 105, 98, 105, 63, 106, 64, 106, 70, 106, 100, 106, 69, 106, 105, 106, 99, 106, 64, 107, 65, 107, 71, 107, 101, 107, 70, 107, 106, 107, 100, 107, 72, 115, 73, 115, 79, 115, 72, 109, 73, 109, 109, 115, 78, 115, 72, 114, 78, 114, 114, 115, 72, 108, 108, 109, 108, 115, 108, 114, 73, 116, 74, 116, 80, 116, 73, 110, 74, 110, 110, 116, 79, 116, 115, 116, 109, 110, 109, 116, 74, 117, 75, 117, 81, 117, 74, 111, 75, 111, 111, 117, 80, 117, 116, 117, 110, 111, 110, 117, 75, 118, 76, 118, 82, 118, 75, 112, 76, 112, 112, 118, 81, 118, 117, 118, 111, 112, 111, 118, 76, 119, 77, 119, 83, 119, 76, 113, 77, 113, 113, 119, 82, 119, 118, 119, 112, 113, 112, 119, 78, 121, 79, 121, 85, 121, 115, 121, 84, 121, 78, 120, 84, 120, 120, 121, 114, 121, 114, 120, 79, 122, 80, 122, 86, 122, 116, 122, 85, 122, 121, 122, 115, 122, 80, 123, 81, 123, 87, 123, 117, 123, 86, 123, 122, 123, 116, 123, 81, 124, 82, 124, 88, 124, 118, 124, 87, 124, 123, 124, 117, 124, 82, 125, 83, 125, 89, 125, 119, 125, 88, 125, 124, 125, 118, 125, 84, 127, 85, 127, 91, 127, 121, 127, 90, 127, 84, 126, 90, 126, 126, 127, 120, 127, 120, 126, 85, 128, 86, 128, 92, 128, 122, 128, 91, 128, 127, 128, 121, 128, 86, 129, 87, 129, 93, 129, 123, 129, 92, 129, 128, 129, 122, 129, 87, 130, 88, 130, 94, 130, 124, 130, 93, 130, 129, 130, 123, 130, 88, 131, 89, 131, 95, 131, 125, 131, 94, 131, 130, 131, 124, 131, 90, 133, 91, 133, 97, 133, 127, 133, 96, 133, 90, 132, 96, 132, 132, 133, 126, 133, 126, 132, 91, 134, 92, 134, 98, 134, 128, 134, 97, 134, 133, 134, 127, 134, 92, 135, 93, 135, 99, 135, 129, 135, 98, 135, 134, 135, 128, 135, 93, 136, 94, 136, 100, 136, 130, 136, 99, 136, 135, 136, 129, 136, 94, 137, 95, 137, 101, 137, 131, 137, 100, 137, 136, 137, 130, 137, 96, 139, 97, 139, 103, 139, 133, 139, 102, 139, 96, 138, 102, 138, 138, 139, 132, 139, 132, 138, 97, 140, 98, 140, 104, 140, 134, 140, 103, 140, 139, 140, 133, 140, 98, 141, 99, 141, 105, 141, 135, 141, 104, 141, 140, 141, 134, 141, 99, 142, 100, 142, 106, 142, 136, 142, 105, 142, 141, 142, 135, 142, 100, 143, 101, 143, 107, 143, 137, 143, 106, 143, 142, 143, 136, 143, 108, 151, 109, 151, 115, 151, 108, 145, 109, 145, 145, 151, 114, 151, 108, 150, 114, 150, 150, 151, 108, 144, 144, 145, 144, 151, 144, 150, 109, 152, 110, 152, 116, 152, 109, 146, 110, 146, 146, 152, 115, 152, 151, 152, 145, 146, 145, 152, 110, 153, 111, 153, 117, 153, 110, 147, 111, 147, 147, 153, 116, 153, 152, 153, 146, 147, 146, 153, 111, 154, 112, 154, 118, 154, 111, 148, 112, 148, 148, 154, 117, 154, 153, 154, 147, 148, 147, 154, 112, 155, 113, 155, 119, 155, 112, 149, 113, 149, 149, 155, 118, 155, 154, 155, 148, 149, 148, 155, 114, 157, 115, 157, 121, 157, 151, 157, 120, 157, 114, 156, 120, 156, 156, 157, 150, 157, 150, 156, 115, 158, 116, 158, 122, 158, 152, 158, 121, 158, 157, 158, 151, 158, 116, 159, 117, 159, 123, 159, 153, 159, 122, 159, 158, 159, 152, 159, 117, 160, 118, 160, 124, 160, 154, 160, 123, 160, 159, 160, 153, 160, 118, 161, 119, 161, 125, 161, 155, 161, 124, 161, 160, 161, 154, 161, 120, 163, 121, 163, 127, 163, 157, 163, 126, 163, 120, 162, 126, 162, 162, 163, 156, 163, 156, 162, 121, 164, 122, 164, 128, 164, 158, 164, 127, 164, 163, 164, 157, 164, 122, 165, 123, 165, 129, 165, 159, 165, 128, 165, 164, 165, 158, 165, 123, 166, 124, 166, 130, 166, 160, 166, 129, 166, 165, 166, 159, 166, 124, 167, 125, 167, 131, 167, 161, 167, 130, 167, 166, 167, 160, 167, 126, 169, 127, 169, 133, 169, 163, 169, 132, 169, 126, 168, 132, 168, 168, 169, 162, 169, 162, 168, 127, 170, 128, 170, 134, 170, 164, 170, 133, 170, 169, 170, 163, 170, 128, 171, 129, 171, 135, 171, 165, 171, 134, 171, 170, 171, 164, 171, 129, 172, 130, 172, 136, 172, 166, 172, 135, 172, 171, 172, 165, 172, 130, 173, 131, 173, 137, 173, 167, 173, 136, 173, 172, 173, 166, 173, 132, 175, 133, 175, 139, 175, 169, 175, 138, 175, 132, 174, 138, 174, 174, 175, 168, 175, 168, 174, 133, 176, 134, 176, 140, 176, 170, 176, 139, 176, 175, 176, 169, 176, 134, 177, 135, 177, 141, 177, 171, 177, 140, 177, 176, 177, 170, 177, 135, 178, 136, 178, 142, 178, 172, 178, 141, 178, 177, 178, 171, 178, 136, 179, 137, 179, 143, 179, 173, 179, 142, 179, 178, 179, 172, 179, 144, 187, 145, 187, 151, 187, 144, 181, 145, 181, 181, 187, 150, 187, 144, 186, 150, 186, 186, 187, 144, 180, 180, 181, 180, 187, 180, 186, 145, 188, 146, 188, 152, 188, 145, 182, 146, 182, 182, 188, 151, 188, 187, 188, 181, 182, 181, 188, 146, 189, 147, 189, 153, 189, 146, 183, 147, 183, 183, 189, 152, 189, 188, 189, 182, 183, 182, 189, 147, 190, 148, 190, 154, 190, 147, 184, 148, 184, 184, 190, 153, 190, 189, 190, 183, 184, 183, 190, 148, 191, 149, 191, 155, 191, 148, 185, 149, 185, 185, 191, 154, 191, 190, 191, 184, 185, 184, 191, 150, 193, 151, 193, 157, 193, 187, 193, 156, 193, 150, 192, 156, 192, 192, 193, 186, 193, 186, 192, 151, 194, 152, 194, 158, 194, 188, 194, 157, 194, 193, 194, 187, 194, 152, 195, 153, 195, 159, 195, 189, 195, 158, 195, 194, 195, 188, 195, 153, 196, 154, 196, 160, 196, 190, 196, 159, 196, 195, 196, 189, 196, 154, 197, 155, 197, 161, 197, 191, 197, 160, 197, 196, 197, 190, 197, 156, 199, 157, 199, 163, 199, 193, 199, 162, 199, 156, 198, 162, 198, 198, 199, 192, 199, 192, 198, 157, 200, 158, 200, 164, 200, 194, 200, 163, 200, 199, 200, 193, 200, 158, 201, 159, 201, 165, 201, 195, 201, 164, 201, 200, 201, 194, 201, 159, 202, 160, 202, 166, 202, 196, 202, 165, 202, 201, 202, 195, 202, 160, 203, 161, 203, 167, 203, 197, 203, 166, 203, 202, 203, 196, 203, 162, 205, 163, 205, 169, 205, 199, 205, 168, 205, 162, 204, 168, 204, 204, 205, 198, 205, 198, 204, 163, 206, 164, 206, 170, 206, 200, 206, 169, 206, 205, 206, 199, 206, 164, 207, 165, 207, 171, 207, 201, 207, 170, 207, 206, 207, 200, 207, 165, 208, 166, 208, 172, 208, 202, 208, 171, 208, 207, 208, 201, 208, 166, 209, 167, 209, 173, 209, 203, 209, 172, 209, 208, 209, 202, 209, 168, 211, 169, 211, 175, 211, 205, 211, 174, 211, 168, 210, 174, 210, 210, 211, 204, 211, 204, 210, 169, 212, 170, 212, 176, 212, 206, 212, 175, 212, 211, 212, 205, 212, 170, 213, 171, 213, 177, 213, 207, 213, 176, 213, 212, 213, 206, 213, 171, 214, 172, 214, 178, 214, 208, 214, 177, 214, 213, 214, 207, 214, 172, 215, 173, 215, 179, 215, 209, 215, 178, 215, 214, 215, 208, 215]
                    double[] spring_rest_direction = [0, 0, 0, 0, 0, 0, 0, 0, 0, 0, 0, 0, 0, 0, 0, 0, 0, 0, 0, 0, 0, 0, 0, 1, 0, 0, 0, 0, 0, 0, 0, 0, 0, 0, 0, 0, 0, 0, 0, 0, 0, 1, 0, 0, 0, 0, 0, 1, 0, 0, 0, 0, 0, 0, 0, 0, 0, 0, 0, 0, 0, 0, 0, 0, 0, 0, 0, 0, 0, 0, 0, 0, 0, 0, 0, 0, 0, 0, 0, 0, 1, 0, 0, 0, 0, 0, 0, 0, 0, 0, 0, 0, 0, 0, 0, 0, 0, 0, 0, 0, 0, 0, 0, 0, 0, 0, 0, 0, 0, 0, 0, 0, 0, 0, 0, 0, 0, 0, 0, 0, 0, 0, 1, 0, 0, 0, 0, 0, 0, 0, 0, 0, 0, 0, 0, 0, 0, 0, 0, 0, 0, 0, 0, 0, 0, 0, 0, 0, 0, 0, 0, 0, 0, 0, 0, 0, 0, 0, 0, 0, 0, 0, 0, 0, 1, 0, 0, 0, 0, 0, 0, 0, 0, 0, 0, 0, 0, 0, 0, 0, 0, 0, 0, 0, 0, 0, 0, 0, 0, 0, 0, 0, 0, 0, 0, 0, 0, 0, 0, 0, 1, 0, 0, 0, 0, 0, 1, 0, 0, 0, 0, 0, 0, 0, 0, 0, 0, 0, 0, 0, 0, 0, 0, 0, 0, 0, 0, 0, 0, 0, 0, 0, 0, 0, 0, 0, 0, 0, 0, 0, 0, 0, 0, 0, 0, 0, 0, 0, 0, 0, 0, 0, 0, 0, 0, 0, 0, 1, 0, 0, 0, 0, 0, 0, 0, 0, 0, 0, 0, 0, 0, 0, 0, 0, 0, 0, 0, 0, 0, 0, 0, 0, 0, 0, 0, 0, 0, 0, 0, 0, 0, 0, 0, 0, 0, 0, 0, 0, 0, 0, 0, 0, 0, 0, 0, 0, 0, 0, 0, 0, 0, 0, 0, 0, 0, 0, 0, 0, 0, 0, 0, 0, 0, 0, 0, 0, 0, 0, 0, 0, 0, 0, 0, 0, 0, 0, 0, 0, 0, 0, 0, 0, 0, 0, 0, 0, 0, 0, 0, 0, 0, 0, 0, 0, 0, 0, 0, 0, 0, 0, 0, 0, 0, 0, 0, 0, 0, 0, 0, 0, 0, 1, 0, 0, 0, 0, 0, 0, 0, 0, 0, 0, 0, 0, 0, 0, 0, 0, 0, 0, 0, 0, 0, 0, 0, 0, 0, 0, 0, 0, 0, 0, 0, 0, 0, 0, 0, 0, 0, 0, 0, 0, 0, 0, 0, 0, 0, 0, 0, 1, 0, 0, 0, 0, 0, 0, 0, 0, 0, 0, 0, 0, 0, 0, 0, 0, 0, 0, 0, 0, 0, 0, 0, 0, 0, 0, 0, 0, 0, 0, 0, 0, 0, 0, 0, 0, 0, 0, 0, 0, 0, 0, 0, 0, 0, 0, 0, 0, 0, 0, 0, 0, 0, 0, 0, 0, 0, 0, 0, 0, 0, 0, 0, 0, 0, 0, 0, 0, 0, 0, 0, 0, 0, 0, 0, 0, 0, 0, 0, 0, 0, 0, 0, 0, 0, 0, 0, 0, 0, 0, 0, 0, 0, 0, 0, 0, 0, 0, 0, 0, 0, 0, 0, 0, 0, 0, 0, 0, 0, 0, 0, 0, 0, 1, 0, 0, 0, 0, 0, 0, 0, 0, 0, 0, 0, 0, 0, 0, 0, 0, 0, 0, 0, 0, 0, 0, 0, 0, 0, 0, 0, 0, 0, 0, 0, 0, 0, 0, 0, 0, 0, 0, 0, 0, 0, 0, 0, 0, 0, 0, 0, 1, 0, 0, 0, 0, 0, 0, 0, 0, 0, 0, 0, 0, 0, 0, 0, 0, 0, 0, 0, 0, 0, 0, 0, 0, 0, 0, 0, 0, 0, 0, 0, 0, 0, 0, 0, 0, 0, 0, 0, 0, 0, 0, 0, 0, 0, 0, 0, 0, 0, 0, 0, 0, 0, 0, 0, 0, 0, 0, 0, 0, 0, 0, 0, 0, 0, 0, 0, 0, 0, 0, 0, 0, 0, 0, 0, 0, 0, 0, 0, 0, 0, 0, 0, 0, 0, 0, 0, 0, 0, 0, 0, 0, 0, 0, 0, 0, 0, 0, 0, 0, 0, 0, 0, 0, 0, 0, 0, 0, 0, 0, 0, 0, 0, 1, 0, 0, 0, 0, 0, 0, 0, 0, 0, 0, 0, 0, 0, 0, 0, 0, 0, 0, 0, 0, 0, 0, 0, 0, 0, 0, 0, 0, 0, 1, 0, 0, 0, 0, 0, 0, 0, 0, 0, 0, 0, 0, 0, 0, 0, 0, 0, 1, 0, 0, 0, 0, 0, 0, 0, 0, 0, 0, 0, 0, 0, 0, 0, 0, 0, 0, 0, 0, 0, 0, 0, 1, 0, 0, 0, 0, 0, 0, 0, 0, 0, 0, 0, 0, 0, 0, 0, 0, 0, 0, 0, 0, 0, 0, 0, 0, 0, 0, 0, 0, 0, 1, 0, 0, 0, 0, 0, 0, 0, 0, 0, 0, 0, 0, 0, 0, 0, 0, 0, 0, 0, 0, 0, 0, 0, 0, 0, 0, 0, 0, 0, 1, 0, 0, 0, 0, 0, 0, 0, 0, 0, 0, 0, 0, 0, 0, 0, 0, 0, 0, 0, 0, 0, 0, 0, 0, 0, 0, 0, 0, 0, 1, 0, 0, 0, 0, 0, 0, 0, 0, 0, 0, 0, 0, 0, 0, 0, 0, 0, 0, 0, 0, 0, 0, 0, 0, 0, 0, 0, 0, 0, 1, 0, 0, 0, 0, 0, 0, 0, 0, 0, 0, 0, 1, 0, 0, 0, 0, 0, 1, 0, 0, 0, 0, 0, 0, 0, 0, 0, 0, 0, 0, 0, 0, 0, 0, 0, 0, 0, 0, 0, 0, 0, 1, 0, 0, 0, 0, 0, 0, 0, 0, 0, 0, 0, 0, 0, 0, 0, 0, 0, 0, 0, 0, 0, 0, 0, 0, 0, 0, 0, 0, 0, 1, 0, 0, 0, 0, 0, 0, 0, 0, 0, 0, 0, 0, 0, 0, 0, 0, 0, 0, 0, 0, 0, 0, 0, 0, 0, 0, 0, 0, 0, 1, 0, 0, 0, 0, 0, 0, 0, 0, 0, 0, 0, 0, 0, 0, 0, 0, 0, 0, 0, 0, 0, 0, 0, 1, 0, 0, 0, 0, 0, 1, 0, 0, 0, 0, 0, 0, 0, 0, 0, 0, 0, 0, 0, 0, 0, 0, 0, 0, 0, 0, 0, 0, 0, 0, 0, 0, 0, 0, 0, 0, 0, 0, 0, 0, 0, 1, 0, 0, 0, 0, 0, 0, 0, 0, 0, 0, 0, 0, 0, 0, 0, 0, 0, 0, 0, 0, 0, 0, 0, 0, 0, 0, 0, 0, 0, 0, 0, 0, 0, 0, 0, 0, 0, 0, 0, 0, 0, 0, 0, 0, 0, 0, 0, 0, 0, 0, 0, 0, 0, 0, 0, 0, 0, 0, 0, 0, 0, 0, 0, 0, 0, 0, 0, 0, 0, 0, 0, 0, 0, 0, 0, 0, 0, 0, 0, 0, 1, 0, 0, 0, 0, 0, 0, 0, 0, 0, 0, 0, 0, 0, 0, 0, 0, 0, 0, 0, 0, 0, 0, 0, 0, 0, 0, 0, 0, 0, 0, 0, 0, 1, 0, 0, 0, 0, 0, 0, 0, 0, 0, 0, 0, 0, 0, 0, 0, 0, 0, 0, 0, 0, 0, 0, 0, 0, 0, 0, 0, 0, 0, 0, 0, 0, 0, 0, 0, 0, 0, 0, 0, 0, 0, 0, 0, 0, 0, 0, 0, 0, 0, 0, 0, 0, 0, 0, 0, 0, 0, 0, 0, 0, 0, 0, 0, 0, 0, 0, 0, 0, 0, 0, 0, 0, 0, 0, 0, 0, 0, 0, 0, 0, 1, 0, 0, 0, 0, 0, 0, 0, 0, 0, 0, 0, 0, 0, 0, 0, 0, 0, 0, 0, 0, 0, 0, 0, 0, 0, 0, 0, 0, 0, 0, 0, 0, 1, 0, 0, 0, 0, 0, 0, 0, 0, 0, 0, 0, 0, 0, 0, 0, 0, 0, 0, 0, 0, 0, 0, 0, 0, 0, 0, 0, 0, 0, 0, 0, 0, 0, 0, 0, 0, 0, 0, 0, 0, 0, 0, 0, 0, 0, 0, 0, 0, 0, 0, 0, 0, 0, 0, 0, 0, 0, 0, 0, 0, 0, 0, 0, 0, 0, 0, 0, 0, 0, 0, 0, 0, 0, 0, 0, 0, 0, 0, 0, 0, 1, 0, 0, 0, 0, 0, 0, 0, 0, 0, 0, 0, 0, 0, 0, 0, 0, 0, 0, 0, 0, 1, 0, 0, 0, 0, 0, 0, 0, 0, 0, 0, 0, 1, 0, 0, 0, 0, 0, 0, 0, 0, 0, 0, 0, 0, 0, 0, 0, 0, 0, 1, 0, 0, 0, 0, 0, 0, 0, 0, 0, 0, 0, 0, 0, 0, 0, 0, 0, 0, 0, 0, 1, 0, 0, 0, 0, 0, 0, 0, 0, 0, 0, 0, 0, 0, 0, 0, 0, 0, 0, 0, 0, 1, 0, 0, 0, 0, 0, 0, 0, 0, 0, 0, 0, 0, 0, 0, 0, 0, 0, 0, 0, 0, 1, 0, 0, 0, 0, 0, 0, 0, 0, 0, 0, 0, 0, 0, 0, 0, 0, 0, 0, 0, 0, 0, 0, 0, 0, 0, 0, 1, 0, 0, 0, 0, 0, 0, 0, 0, 0, 0, 0, 1, 0, 0, 0, 0, 0, 1, 0, 0, 0, 0, 0, 0, 0, 0, 0, 0, 0, 0, 0, 0, 0, 0, 0, 0, 0, 0, 0, 0, 0, 1, 0, 0, 0, 0, 0, 0, 0, 0, 0, 0, 0, 0, 0, 0, 0, 0, 0, 0, 0, 0, 0, 0, 0, 0, 0, 0, 0, 0, 0, 1, 0, 0, 0, 0, 0, 0, 0, 0, 0, 0, 0, 0, 0, 0, 0, 0, 0, 0, 0, 0, 0, 0, 0, 0, 0, 0, 0, 0, 0, 1, 0, 0, 0, 0, 0, 0, 0, 0, 0, 0, 0, 0, 0, 0, 0, 0, 0, 0, 0, 0, 0, 0, 0, 1, 0, 0, 0, 0, 0, 1, 0, 0, 0, 0, 0, 0, 0, 0, 0, 0, 0, 0, 0, 0, 0, 0, 0, 0, 0, 0, 0, 0, 0, 0, 0, 0, 0, 0, 0, 0, 0, 0, 0, 0, 0, 1, 0, 0, 0, 0, 0, 0, 0, 0, 0, 0, 0, 0, 0, 0, 0, 0, 0, 0, 0, 0, 0, 0, 0, 0, 0, 0, 0, 0, 0, 0, 0, 0, 0, 0, 0, 0, 0, 0, 0, 0, 0, 0, 0, 0, 0, 0, 0, 0, 0, 0, 0, 0, 0, 0, 0, 0, 0, 0, 0, 0, 0, 0, 0, 0, 0, 0, 0, 0, 0, 0, 0, 0, 0, 0, 0, 0, 0, 0, 0, 0, 1, 0, 0, 0, 0, 0, 0, 0, 0, 0, 0, 0, 0, 0, 0, 0, 0, 0, 0, 0, 0, 0, 0, 0, 0, 0, 0, 0, 0, 0, 0, 0, 0, 1, 0, 0, 0, 0, 0, 0, 0, 0, 0, 0, 0, 0, 0, 0, 0, 0, 0, 0, 0, 0, 0, 0, 0, 0, 0, 0, 0, 0, 0, 0, 0, 0, 0, 0, 0, 0, 0, 0, 0, 0, 0, 0, 0, 0, 0, 0, 0, 0, 0, 0, 0, 0, 0, 0, 0, 0, 0, 0, 0, 0, 0, 0, 0, 0, 0, 0, 0, 0, 0, 0, 0, 0, 0, 0, 0, 0, 0, 0, 0, 0, 1, 0, 0, 0, 0, 0, 0, 0, 0, 0, 0, 0, 0, 0, 0, 0, 0, 0, 0, 0, 0, 0, 0, 0, 0, 0, 0, 0, 0, 0, 0, 0, 0, 1, 0, 0, 0, 0, 0, 0, 0, 0, 0, 0, 0, 0, 0, 0, 0, 0, 0, 0, 0, 0, 0, 0, 0, 0, 0, 0, 0, 0, 0, 0, 0, 0, 0, 0, 0, 0, 0, 0, 0, 0, 0, 0, 0, 0, 0, 0, 0, 0, 0, 0, 0, 0, 0, 0, 0, 0, 0, 0, 0, 0, 0, 0, 0, 0, 0, 0, 0, 0, 0, 0, 0, 0, 0, 0, 0, 0, 0, 0, 0, 0, 1, 0, 0, 0, 0, 0, 0, 0, 0, 0, 0, 0, 0, 0, 0, 0, 0, 0, 0, 0, 0, 1, 0, 0, 0, 0, 0, 0, 0, 0, 0, 0, 0, 1, 0, 0, 0, 0, 0, 0, 0, 0, 0, 0, 0, 0, 0, 0, 0, 0, 0, 1, 0, 0, 0, 0, 0, 0, 0, 0, 0, 0, 0, 0, 0, 0, 0, 0, 0, 0, 0, 0, 1, 0, 0, 0, 0, 0, 0, 0, 0, 0, 0, 0, 0, 0, 0, 0, 0, 0, 0, 0, 0, 1, 0, 0, 0, 0, 0, 0, 0, 0, 0, 0, 0, 0, 0, 0, 0, 0, 0, 0, 0, 0, 1, 0, 0, 0, 0, 0, 0, 0, 0, 0, 0, 0, 0, 0, 0, 0, 0, 0, 0, 0, 0, 0, 0, 0, 0, 0, 0, 1, 0, 0, 0, 0, 0, 0, 0, 0, 0, 0, 0, 1, 0, 0, 0, 0, 0, 1, 0, 0, 0, 0, 0, 0, 0, 0, 0, 0, 0, 0, 0, 0, 0, 0, 0, 0, 0, 0, 0, 0, 0, 1, 0, 0, 0, 0, 0, 0, 0, 0, 0, 0, 0, 0, 0, 0, 0, 0, 0, 0, 0, 0, 0, 0, 0, 0, 0, 0, 0, 0, 0, 1, 0, 0, 0, 0, 0, 0, 0, 0, 0, 0, 0, 0, 0, 0, 0, 0, 0, 0, 0, 0, 0, 0, 0, 0, 0, 0, 0, 0, 0, 1, 0, 0, 0, 0, 0, 0, 0, 0, 0, 0, 0, 0, 0, 0, 0, 0, 0, 0, 0, 0, 0, 0, 0, 1, 0, 0, 0, 0, 0, 1, 0, 0, 0, 0, 0, 0, 0, 0, 0, 0, 0, 0, 0, 0, 0, 0, 0, 0, 0, 0, 0, 0, 0, 0, 0, 0, 0, 0, 0, 0, 0, 0, 0, 0, 0, 1, 0, 0, 0, 0, 0, 0, 0, 0, 0, 0, 0, 0, 0, 0, 0, 0, 0, 0, 0, 0, 0, 0, 0, 0, 0, 0, 0, 0, 0, 0, 0, 0, 0, 0, 0, 0, 0, 0, 0, 0, 0, 0, 0, 0, 0, 0, 0, 0, 0, 0, 0, 0, 0, 0, 0, 0, 0, 0, 0, 0, 0, 0, 0, 0, 0, 0, 0, 0, 0, 0, 0, 0, 0, 0, 0, 0, 0, 0, 0, 0, 1, 0, 0, 0, 0, 0, 0, 0, 0, 0, 0, 0, 0, 0, 0, 0, 0, 0, 0, 0, 0, 0, 0, 0, 0, 0, 0, 0, 0, 0, 0, 0, 0, 1, 0, 0, 0, 0, 0, 0, 0, 0, 0, 0, 0, 0, 0, 0, 0, 0, 0, 0, 0, 0, 0, 0, 0, 0, 0, 0, 0, 0, 0, 0, 0, 0, 0, 0, 0, 0, 0, 0, 0, 0, 0, 0, 0, 0, 0, 0, 0, 0, 0, 0, 0, 0, 0, 0, 0, 0, 0, 0, 0, 0, 0, 0, 0, 0, 0, 0, 0, 0, 0, 0, 0, 0, 0, 0, 0, 0, 0, 0, 0, 0, 1, 0, 0, 0, 0, 0, 0, 0, 0, 0, 0, 0, 0, 0, 0, 0, 0, 0, 0, 0, 0, 0, 0, 0, 0, 0, 0, 0, 0, 0, 0, 0, 0, 1, 0, 0, 0, 0, 0, 0, 0, 0, 0, 0, 0, 0, 0, 0, 0, 0, 0, 0, 0, 0, 0, 0, 0, 0, 0, 0, 0, 0, 0, 0, 0, 0, 0, 0, 0, 0, 0, 0, 0, 0, 0, 0, 0, 0, 0, 0, 0, 0, 0, 0, 0, 0, 0, 0, 0, 0, 0, 0, 0, 0, 0, 0, 0, 0, 0, 0, 0, 0, 0, 0, 0, 0, 0, 0, 0, 0, 0, 0, 0, 0, 1, 0, 0, 0, 0, 0, 0, 0, 0, 0, 0, 0, 0, 0, 0, 0, 0, 0, 0, 0, 0, 1, 0, 0, 0, 0, 0, 0, 0, 0, 0, 0, 0, 1, 0, 0, 0, 0, 0, 0, 0, 0, 0, 0, 0, 0, 0, 0, 0, 0, 0, 1, 0, 0, 0, 0, 0, 0, 0, 0, 0, 0, 0, 0, 0, 0, 0, 0, 0, 0, 0, 0, 1, 0, 0, 0, 0, 0, 0, 0, 0, 0, 0, 0, 0, 0, 0, 0, 0, 0, 0, 0, 0, 1, 0, 0, 0, 0, 0, 0, 0, 0, 0, 0, 0, 0, 0, 0, 0, 0, 0, 0, 0, 0, 1, 0, 0, 0, 0, 0, 0, 0, 0, 0, 0, 0, 0, 0, 0, 0, 0, 0, 0, 0, 0, 0, 0, 0, 0, 0, 0, 1, 0, 0, 0, 0, 0, 0, 0, 0, 0, 0, 0, 1, 0, 0, 0, 0, 0, 1, 0, 0, 0, 0, 0, 0, 0, 0, 0, 0, 0, 0, 0, 0, 0, 0, 0, 0, 0, 0, 0, 0, 0, 1, 0, 0, 0, 0, 0, 0, 0, 0, 0, 0, 0, 0, 0, 0, 0, 0, 0, 0, 0, 0, 0, 0, 0, 0, 0, 0, 0, 0, 0, 1, 0, 0, 0, 0, 0, 0, 0, 0, 0, 0, 0, 0, 0, 0, 0, 0, 0, 0, 0, 0, 0, 0, 0, 0, 0, 0, 0, 0, 0, 1, 0, 0, 0, 0, 0, 0, 0, 0, 0, 0, 0, 0, 0, 0, 0, 0, 0, 0, 0, 0, 0, 0, 0, 1, 0, 0, 0, 0, 0, 1, 0, 0, 0, 0, 0, 0, 0, 0, 0, 0, 0, 0, 0, 0, 0, 0, 0, 0, 0, 0, 0, 0, 0, 0, 0, 0, 0, 0, 0, 0, 0, 0, 0, 0, 0, 1, 0, 0, 0, 0, 0, 0, 0, 0, 0, 0, 0, 0, 0, 0, 0, 0, 0, 0, 0, 0, 0, 0, 0, 0, 0, 0, 0, 0, 0, 0, 0, 0, 0, 0, 0, 0, 0, 0, 0, 0, 0, 0, 0, 0, 0, 0, 0, 0, 0, 0, 0, 0, 0, 0, 0, 0, 0, 0, 0, 0, 0, 0, 0, 0, 0, 0, 0, 0, 0, 0, 0, 0, 0, 0, 0, 0, 0, 0, 0, 0, 1, 0, 0, 0, 0, 0, 0, 0, 0, 0, 0, 0, 0, 0, 0, 0, 0, 0, 0, 0, 0, 0, 0, 0, 0, 0, 0, 0, 0, 0, 0, 0, 0, 1, 0, 0, 0, 0, 0, 0, 0, 0, 0, 0, 0, 0, 0, 0, 0, 0, 0, 0, 0, 0, 0, 0, 0, 0, 0, 0, 0, 0, 0, 0, 0, 0, 0, 0, 0, 0, 0, 0, 0, 0, 0, 0, 0, 0, 0, 0, 0, 0, 0, 0, 0, 0, 0, 0, 0, 0, 0, 0, 0, 0, 0, 0, 0, 0, 0, 0, 0, 0, 0, 0, 0, 0, 0, 0, 0, 0, 0, 0, 0, 0, 1, 0, 0, 0, 0, 0, 0, 0, 0, 0, 0, 0, 0, 0, 0, 0, 0, 0, 0, 0, 0, 0, 0, 0, 0, 0, 0, 0, 0, 0, 0, 0, 0, 1, 0, 0, 0, 0, 0, 0, 0, 0, 0, 0, 0, 0, 0, 0, 0, 0, 0, 0, 0, 0, 0, 0, 0, 0, 0, 0, 0, 0, 0, 0, 0, 0, 0, 0, 0, 0, 0, 0, 0, 0, 0, 0, 0, 0, 0, 0, 0, 0, 0, 0, 0, 0, 0, 0, 0, 0, 0, 0, 0, 0, 0, 0, 0, 0, 0, 0, 0, 0, 0, 0, 0, 0, 0, 0, 0, 0, 0, 0, 0, 0, 1, 0, 0, 0, 0, 0, 0, 0, 0, 0, 0, 0, 0, 0, 0, 0, 0, 0, 0, 0, 0, 1, 0, 0, 0, 0, 0, 0, 0, 0, 0, 0, 0, 1, 0, 0, 0, 0, 0, 0, 0, 0, 0, 0, 0, 0, 0, 0, 0, 0, 0, 1, 0, 0, 0, 0, 0, 0, 0, 0, 0, 0, 0, 0, 0, 0, 0, 0, 0, 0, 0, 0, 1, 0, 0, 0, 0, 0, 0, 0, 0, 0, 0, 0, 0, 0, 0, 0, 0, 0, 0, 0, 0, 1, 0, 0, 0, 0, 0, 0, 0, 0, 0, 0, 0, 0, 0, 0, 0, 0, 0, 0, 0, 0, 1, 0, 0, 0, 0, 0, 0, 0, 0, 0, 0, 0, 0]
                    double[] stiff_axis = [0, 0, 1]
                    int[] tet_chamber_mask = [0, 0, 0, 0, 0, 0, 0, 0, 0, 0, 0, 0, 0, 0, 0, 0, 0, 0, 0, 0, 0, 0, 0, 0, 0, 0, 0, 0, 0, 0, 0, 0, 0, 0, 0, 0, 0, 0, 0, 0, 0, 0, 0, 0, 0, 0, 0, 0, 0, 0, 0, 0, 0, 0, 0, 0, 0, 0, 0, 0, 0, 0, 0, 0, 0, 0, 0, 0, 0, 0, 0, 0, 0, 0, 0, 0, 0, 0, 0, 0, 0, 0, 0, 0, 0, 0, 0, 0, 0, 0, 0, 0, 0, 0, 0, 0, 0, 0, 0, 0, 0, 0, 0, 0, 0, 0, 0, 0, 0, 0, 0, 0, 0, 0, 0, 0, 0, 0, 0, 0, 0, 0, 0, 0, 0, 0, 0, 0, 0, 0, 0, 0, 0, 0, 0, 0, 0, 0, 0, 0, 0, 0, 0, 0, 0, 0, 0, 0, 0, 0, 0, 0, 0, 0, 0, 0, 0, 0, 0, 0, 0, 0, 0, 0, 0, 0, 0, 0, 0, 0, 0, 0, 0, 0, 0, 0, 0, 0, 0, 0, 0, 0, 0, 0, 0, 0, 0, 0, 0, 0, 0, 0, 0, 0, 0, 0, 0, 0, 0, 0, 0, 0, 0, 0, 0, 0, 0, 0, 0, 0, 0, 0, 0, 0, 0, 0, 0, 0, 0, 0, 0, 0, 0, 0, 0, 0, 0, 0, 0, 0, 0, 0, 0, 0, 0, 0, 0, 0, 0, 0, 0, 0, 0, 0, 0, 0, 0, 0, 0, 0, 0, 0, 0, 0, 0, 0, 0, 0, 0, 0, 0, 0, 0, 0, 0, 0, 0, 0, 0, 0, 0, 0, 0, 0, 0, 0, 0, 0, 0, 0, 0, 0, 0, 0, 0, 0, 0, 0, 0, 0, 0, 0, 0, 0, 0, 0, 0, 0, 0, 0, 0, 0, 0, 0, 0, 0, 0, 0, 0, 0, 0, 0, 0, 0, 0, 0, 0, 0, 0, 0, 0, 0, 0, 0, 0, 0, 0, 0, 0, 0, 0, 0, 0, 0, 0, 0, 0, 0, 0, 0, 0, 0, 0, 0, 0, 0, 0, 0, 0, 0, 0, 0, 0, 0, 0, 0, 0, 0, 0, 0, 0, 0, 0, 0, 0, 0, 0, 0, 0, 0, 0, 0, 0, 0, 0, 0, 0, 0, 0, 0, 0, 0, 0, 0, 0, 0, 0, 0, 0, 0, 0, 0, 0, 0, 0, 0, 0, 0, 0, 0, 0, 0, 0, 0, 0, 0, 0, 0, 0, 0, 0, 0, 0, 0, 0, 0, 0, 0, 0, 0, 0, 0, 0, 0, 0, 0, 0, 0, 0, 0, 0, 0, 0, 0, 0, 0, 0, 0, 0, 0, 0, 0, 0, 0, 0, 0, 0, 0, 0, 0, 0, 0, 0, 0, 0, 0, 0, 0, 0, 0, 0, 0, 0, 0, 0, 0, 0, 0, 0, 0, 0, 0, 0, 0, 0, 0, 0, 0, 0, 0, 0, 0, 0, 0, 0, 0, 0, 0, 0, 0, 0, 0, 0, 0, 0, 0, 0, 0, 0, 0, 0, 0, 0, 0, 0, 0, 0, 0, 0, 0, 0, 0, 0, 0, 0, 0, 0, 0, 0, 0, 0, 0, 0, 0, 0, 0, 0, 0, 0, 0, 0, 0, 0, 0, 0, 0, 0, 0, 0, 0, 0, 0, 0, 0, 0, 0, 0, 0, 0, 0, 0, 0, 0, 0, 0, 0, 0, 0, 0, 0, 0, 0, 0, 0, 0, 0, 0, 0, 0, 0, 0, 0, 0, 0, 0, 0, 0, 0, 0, 0, 0, 0, 0, 0, 0, 0, 0, 0, 0, 0, 0, 0, 0, 0, 0, 0, 0, 0, 0, 0, 0, 0, 0, 0, 0, 0, 0, 0, 0, 0, 0, 0, 0, 0, 0, 0, 0, 0, 0, 0, 0, 0, 0, 0, 0, 0, 0, 0, 0, 0, 0, 0, 0, 0, 0, 0, 0, 0, 0, 0, 0, 0, 0, 0, 0, 0, 0, 0, 0, 0, 0, 0, 0, 0, 0, 0, 0, 0, 0, 0, 0, 0, 0, 0, 0, 0, 0, 0, 0, 0, 0, 0, 0, 0, 0, 0, 0, 0, 0, 0, 0, 0, 0, 0, 0, 0, 0, 0, 0, 0, 0, 0, 0, 0, 0, 0, 0, 0, 0, 0, 0, 0, 0, 0, 0, 0, 0, 0, 0, 0, 0, 0, 0, 0, 0, 0, 0, 0, 0, 0, 0, 0, 0, 0, 0, 0, 0, 0, 0, 0, 0, 0, 0, 0, 0, 0, 0, 0, 0, 0, 0, 0, 0, 0, 0, 0, 0, 0, 0, 0]
                    double[] torque_directions = [0, 0, 1]
                    int torque_directions_cols = 3
                }
                dictionary contact_params = {
                    double max_edge_length = 0.11313709299774882
                    double min_edge_length = 0.07999999821186066
                    double particle_radius = 0.03999999910593033
                    double self_contact_radius = 0.22627418599549765
                }
                dictionary placement = {
                    string name = "box"
                    double[] pos = [0, 0, 0.008]
                    double[] quat = [0, 0, 0, 1]
                }
            }
        )
        {
            point3f[] points = [(-0.2, -0.2, 0), (-0.12, -0.2, 0), (-0.04, -0.2, 0), (0.04, -0.2, 0), (0.12, -0.2, 0), (0.2, -0.2, 0), (-0.2, -0.12, 0), (-0.12, -0.12, 0), (-0.04, -0.12, 0), (0.04, -0.12, 0), (0.12, -0.12, 0), (0.2, -0.12, 0), (-0.2, -0.04, 0), (-0.12, -0.04, 0), (-0.04, -0.04, 0), (0.04, -0.04, 0), (0.12, -0.04, 0), (0.2, -0.04, 0), (-0.2, 0.04, 0), (-0.12, 0.04, 0), (-0.04, 0.04, 0), (0.04, 0.04, 0), (0.12, 0.04, 0), (0.2, 0.04, 0), (-0.2, 0.12, 0), (-0.12, 0.12, 0), (-0.04, 0.12, 0), (0.04, 0.12, 0), (0.12, 0.12, 0), (0.2, 0.12, 0), (-0.2, 0.2, 0), (-0.12, 0.2, 0), (-0.04, 0.2, 0), (0.04, 0.2, 0), (0.12, 0.2, 0), (0.2, 0.2, 0), (-0.2, -0.2, 0.08), (-0.12, -0.2, 0.08), (-0.04, -0.2, 0.08), (0.04, -0.2, 0.08), (0.12, -0.2, 0.08), (0.2, -0.2, 0.08), (-0.2, -0.12, 0.08), (-0.12, -0.12, 0.08), (-0.04, -0.12, 0.08), (0.04, -0.12, 0.08), (0.12, -0.12, 0.08), (0.2, -0.12, 0.08), (-0.2, -0.04, 0.08), (-0.12, -0.04, 0.08), (-0.04, -0.04, 0.08), (0.04, -0.04, 0.08), (0.12, -0.04, 0.08), (0.2, -0.04, 0.08), (-0.2, 0.04, 0.08), (-0.12, 0.04, 0.08), (-0.04, 0.04, 0.08), (0.04, 0.04, 0.08), (0.12, 0.04, 0.08), (0.2, 0.04, 0.08), (-0.2, 0.12, 0.08), (-0.12, 0.12, 0.08), (-0.04, 0.12, 0.08), (0.04, 0.12, 0.08), (0.12, 0.12, 0.08), (0.2, 0.12, 0.08), (-0.2, 0.2, 0.08), (-0.12, 0.2, 0.08), (-0.04, 0.2, 0.08), (0.04, 0.2, 0.08), (0.12, 0.2, 0.08), (0.2, 0.2, 0.08), (-0.2, -0.2, 0.16), (-0.12, -0.2, 0.16), (-0.04, -0.2, 0.16), (0.04, -0.2, 0.16), (0.12, -0.2, 0.16), (0.2, -0.2, 0.16), (-0.2, -0.12, 0.16), (-0.12, -0.12, 0.16), (-0.04, -0.12, 0.16), (0.04, -0.12, 0.16), (0.12, -0.12, 0.16), (0.2, -0.12, 0.16), (-0.2, -0.04, 0.16), (-0.12, -0.04, 0.16), (-0.04, -0.04, 0.16), (0.04, -0.04, 0.16), (0.12, -0.04, 0.16), (0.2, -0.04, 0.16), (-0.2, 0.04, 0.16), (-0.12, 0.04, 0.16), (-0.04, 0.04, 0.16), (0.04, 0.04, 0.16), (0.12, 0.04, 0.16), (0.2, 0.04, 0.16), (-0.2, 0.12, 0.16), (-0.12, 0.12, 0.16), (-0.04, 0.12, 0.16), (0.04, 0.12, 0.16), (0.12, 0.12, 0.16), (0.2, 0.12, 0.16), (-0.2, 0.2, 0.16), (-0.12, 0.2, 0.16), (-0.04, 0.2, 0.16), (0.04, 0.2, 0.16), (0.12, 0.2, 0.16), (0.2, 0.2, 0.16), (-0.2, -0.2, 0.24), (-0.12, -0.2, 0.24), (-0.04, -0.2, 0.24), (0.04, -0.2, 0.24), (0.12, -0.2, 0.24), (0.2, -0.2, 0.24), (-0.2, -0.12, 0.24), (-0.12, -0.12, 0.24), (-0.04, -0.12, 0.24), (0.04, -0.12, 0.24), (0.12, -0.12, 0.24), (0.2, -0.12, 0.24), (-0.2, -0.04, 0.24), (-0.12, -0.04, 0.24), (-0.04, -0.04, 0.24), (0.04, -0.04, 0.24), (0.12, -0.04, 0.24), (0.2, -0.04, 0.24), (-0.2, 0.04, 0.24), (-0.12, 0.04, 0.24), (-0.04, 0.04, 0.24), (0.04, 0.04, 0.24), (0.12, 0.04, 0.24), (0.2, 0.04, 0.24), (-0.2, 0.12, 0.24), (-0.12, 0.12, 0.24), (-0.04, 0.12, 0.24), (0.04, 0.12, 0.24), (0.12, 0.12, 0.24), (0.2, 0.12, 0.24), (-0.2, 0.2, 0.24), (-0.12, 0.2, 0.24), (-0.04, 0.2, 0.24), (0.04, 0.2, 0.24), (0.12, 0.2, 0.24), (0.2, 0.2, 0.24), (-0.2, -0.2, 0.32), (-0.12, -0.2, 0.32), (-0.04, -0.2, 0.32), (0.04, -0.2, 0.32), (0.12, -0.2, 0.32), (0.2, -0.2, 0.32), (-0.2, -0.12, 0.32), (-0.12, -0.12, 0.32), (-0.04, -0.12, 0.32), (0.04, -0.12, 0.32), (0.12, -0.12, 0.32), (0.2, -0.12, 0.32), (-0.2, -0.04, 0.32), (-0.12, -0.04, 0.32), (-0.04, -0.04, 0.32), (0.04, -0.04, 0.32), (0.12, -0.04, 0.32), (0.2, -0.04, 0.32), (-0.2, 0.04, 0.32), (-0.12, 0.04, 0.32), (-0.04, 0.04, 0.32), (0.04, 0.04, 0.32), (0.12, 0.04, 0.32), (0.2, 0.04, 0.32), (-0.2, 0.12, 0.32), (-0.12, 0.12, 0.32), (-0.04, 0.12, 0.32), (0.04, 0.12, 0.32), (0.12, 0.12, 0.32), (0.2, 0.12, 0.32), (-0.2, 0.2, 0.32), (-0.12, 0.2, 0.32), (-0.04, 0.2, 0.32), (0.04, 0.2, 0.32), (0.12, 0.2, 0.32), (0.2, 0.2, 0.32), (-0.2, -0.2, 0.4), (-0.12, -0.2, 0.4), (-0.04, -0.2, 0.4), (0.04, -0.2, 0.4), (0.12, -0.2, 0.4), (0.2, -0.2, 0.4), (-0.2, -0.12, 0.4), (-0.12, -0.12, 0.4), (-0.04, -0.12, 0.4), (0.04, -0.12, 0.4), (0.12, -0.12, 0.4), (0.2, -0.12, 0.4), (-0.2, -0.04, 0.4), (-0.12, -0.04, 0.4), (-0.04, -0.04, 0.4), (0.04, -0.04, 0.4), (0.12, -0.04, 0.4), (0.2, -0.04, 0.4), (-0.2, 0.04, 0.4), (-0.12, 0.04, 0.4), (-0.04, 0.04, 0.4), (0.04, 0.04, 0.4), (0.12, 0.04, 0.4), (0.2, 0.04, 0.4), (-0.2, 0.12, 0.4), (-0.12, 0.12, 0.4), (-0.04, 0.12, 0.4), (0.04, 0.12, 0.4), (0.12, 0.12, 0.4), (0.2, 0.12, 0.4), (-0.2, 0.2, 0.4), (-0.12, 0.2, 0.4), (-0.04, 0.2, 0.4), (0.04, 0.2, 0.4), (0.12, 0.2, 0.4), (0.2, 0.2, 0.4)]
            int3[] surfaceFaceVertexIndices = [(0, 7, 1), (0, 1, 37), (0, 6, 7), (0, 42, 6), (0, 37, 36), (0, 36, 42), (1, 8, 2), (1, 2, 38), (1, 7, 8), (1, 38, 37), (2, 9, 3), (2, 3, 39), (2, 8, 9), (2, 39, 38), (3, 10, 4), (3, 4, 40), (3, 9, 10), (3, 40, 39), (4, 11, 5), (5, 11, 47), (4, 5, 41), (5, 47, 41), (4, 10, 11), (4, 41, 40), (6, 13, 7), (6, 12, 13), (6, 48, 12), (6, 42, 48), (7, 14, 8), (7, 13, 14), (8, 15, 9), (8, 14, 15), (9, 16, 10), (9, 15, 16), (10, 17, 11), (11, 17, 53), (11, 53, 47), (10, 16, 17), (12, 19, 13), (12, 18, 19), (12, 54, 18), (12, 48, 54), (13, 20, 14), (13, 19, 20), (14, 21, 15), (14, 20, 21), (15, 22, 16), (15, 21, 22), (16, 23, 17), (17, 23, 59), (17, 59, 53), (16, 22, 23), (18, 25, 19), (18, 24, 25), (18, 60, 24), (18, 54, 60), (19, 26, 20), (19, 25, 26), (20, 27, 21), (20, 26, 27), (21, 28, 22), (21, 27, 28), (22, 29, 23), (23, 29, 65), (23, 65, 59), (22, 28, 29), (24, 31, 25), (24, 30, 31), (30, 67, 31), (24, 66, 30), (30, 66, 67), (24, 60, 66), (25, 32, 26), (25, 31, 32), (31, 68, 32), (31, 67, 68), (26, 33, 27), (26, 32, 33), (32, 69, 33), (32, 68, 69), (27, 34, 28), (27, 33, 34), (33, 70, 34), (33, 69, 70), (28, 35, 29), (29, 35, 71), (29, 71, 65), (28, 34, 35), (34, 71, 35), (34, 70, 71), (36, 37, 73), (36, 78, 42), (36, 73, 72), (36, 72, 78), (37, 38, 74), (37, 74, 73), (38, 39, 75), (38, 75, 74), (39, 40, 76), (39, 76, 75), (41, 47, 83), (40, 41, 77), (41, 83, 77), (40, 77, 76), (42, 84, 48), (42, 78, 84), (47, 53, 89), (47, 89, 83), (48, 90, 54), (48, 84, 90), (53, 59, 95), (53, 95, 89), (54, 96, 60), (54, 90, 96), (59, 65, 101), (59, 101, 95), (66, 103, 67), (60, 102, 66), (66, 102, 103), (60, 96, 102), (67, 104, 68), (67, 103, 104), (68, 105, 69), (68, 104, 105), (69, 106, 70), (69, 105, 106), (65, 71, 107), (65, 107, 101), (70, 107, 71), (70, 106, 107), (72, 73, 109), (72, 114, 78), (72, 109, 108), (72, 108, 114), (73, 74, 110), (73, 110, 109), (74, 75, 111), (74, 111, 110), (75, 76, 112), (75, 112, 111), (77, 83, 119), (76, 77, 113), (77, 119, 113), (76, 113, 112), (78, 120, 84), (78, 114, 120), (83, 89, 125), (83, 125, 119), (84, 126, 90), (84, 120, 126), (89, 95, 131), (89, 131, 125), (90, 132, 96), (90, 126, 132), (95, 101, 137), (95, 137, 131), (102, 139, 103), (96, 138, 102), (102, 138, 139), (96, 132, 138), (103, 140, 104), (103, 139, 140), (104, 141, 105), (104, 140, 141), (105, 142, 106), (105, 141, 142), (101, 107, 143), (101, 143, 137), (106, 143, 107), (106, 142, 143), (108, 109, 145), (108, 150, 114), (108, 145, 144), (108, 144, 150), (109, 110, 146), (109, 146, 145), (110, 111, 147), (110, 147, 146), (111, 112, 148), (111, 148, 147), (113, 119, 155), (112, 113, 149), (113, 155, 149), (112, 149, 148), (114, 156, 120), (114, 150, 156), (119, 125, 161), (119, 161, 155), (120, 162, 126), (120, 156, 162), (125, 131, 167), (125, 167, 161), (126, 168, 132), (126, 162, 168), (131, 137, 173), (131, 173, 167), (138, 175, 139), (132, 174, 138), (138, 174, 175), (132, 168, 174), (139, 176, 140), (139, 175, 176), (140, 177, 141), (140, 176, 177), (141, 178, 142), (141, 177, 178), (137, 143, 179), (137, 179, 173), (142, 179, 143), (142, 178, 179), (144, 145, 181), (144, 186, 150), (144, 181, 180), (180, 181, 187), (144, 180, 186), (180, 187, 186), (145, 146, 182), (145, 182, 181), (181, 182, 188), (181, 188, 187), (146, 147, 183), (146, 183, 182), (182, 183, 189), (182, 189, 188), (147, 148, 184), (147, 184, 183), (183, 184, 190), (183, 190, 189), (149, 155, 191), (148, 149, 185), (149, 191, 185), (148, 185, 184), (184, 185, 191), (184, 191, 190), (150, 192, 156), (186, 187, 193), (150, 186, 192), (186, 193, 192), (187, 188, 194), (187, 194, 193), (188, 189, 195), (188, 195, 194), (189, 190, 196), (189, 196, 195), (155, 161, 197), (155, 197, 191), (190, 191, 197), (190, 197, 196), (156, 198, 162), (192, 193, 199), (156, 192, 198), (192, 199, 198), (193, 194, 200), (193, 200, 199), (194, 195, 201), (194, 201, 200), (195, 196, 202), (195, 202, 201), (161, 167, 203), (161, 203, 197), (196, 197, 203), (196, 203, 202), (162, 204, 168), (198, 199, 205), (162, 198, 204), (198, 205, 204), (199, 200, 206), (199, 206, 205), (200, 201, 207), (200, 207, 206), (201, 202, 208), (201, 208, 207), (167, 173, 209), (167, 209, 203), (202, 203, 209), (202, 209, 208), (174, 211, 175), (168, 210, 174), (174, 210, 211), (204, 205, 211), (168, 204, 210), (204, 211, 210), (175, 212, 176), (175, 211, 212), (205, 206, 212), (205, 212, 211), (176, 213, 177), (176, 212, 213), (206, 207, 213), (206, 213, 212), (177, 214, 178), (177, 213, 214), (207, 208, 214), (207, 214, 213), (173, 179, 215), (173, 215, 209), (178, 215, 179), (178, 214, 215), (208, 209, 215), (208, 215, 214)]
            int4[] tetVertexIndices = [(0, 1, 7, 43), (0, 1, 43, 37), (0, 6, 43, 7), (0, 6, 42, 43), (0, 36, 37, 43), (0, 36, 43, 42), (1, 2, 8, 44), (1, 2, 44, 38), (1, 7, 44, 8), (1, 7, 43, 44), (1, 37, 38, 44), (1, 37, 44, 43), (2, 3, 9, 45), (2, 3, 45, 39), (2, 8, 45, 9), (2, 8, 44, 45), (2, 38, 39, 45), (2, 38, 45, 44), (3, 4, 10, 46), (3, 4, 46, 40), (3, 9, 46, 10), (3, 9, 45, 46), (3, 39, 40, 46), (3, 39, 46, 45), (4, 5, 11, 47), (4, 5, 47, 41), (4, 10, 47, 11), (4, 10, 46, 47), (4, 40, 41, 47), (4, 40, 47, 46), (6, 7, 13, 49), (6, 7, 49, 43), (6, 12, 49, 13), (6, 12, 48, 49), (6, 42, 43, 49), (6, 42, 49, 48), (7, 8, 14, 50), (7, 8, 50, 44), (7, 13, 50, 14), (7, 13, 49, 50), (7, 43, 44, 50), (7, 43, 50, 49), (8, 9, 15, 51), (8, 9, 51, 45), (8, 14, 51, 15), (8, 14, 50, 51), (8, 44, 45, 51), (8, 44, 51, 50), (9, 10, 16, 52), (9, 10, 52, 46), (9, 15, 52, 16), (9, 15, 51, 52), (9, 45, 46, 52), (9, 45, 52, 51), (10, 11, 17, 53), (10, 11, 53, 47), (10, 16, 53, 17), (10, 16, 52, 53), (10, 46, 47, 53), (10, 46, 53, 52), (12, 13, 19, 55), (12, 13, 55, 49), (12, 18, 55, 19), (12, 18, 54, 55), (12, 48, 49, 55), (12, 48, 55, 54), (13, 14, 20, 56), (13, 14, 56, 50), (13, 19, 56, 20), (13, 19, 55, 56), (13, 49, 50, 56), (13, 49, 56, 55), (14, 15, 21, 57), (14, 15, 57, 51), (14, 20, 57, 21), (14, 20, 56, 57), (14, 50, 51, 57), (14, 50, 57, 56), (15, 16, 22, 58), (15, 16, 58, 52), (15, 21, 58, 22), (15, 21, 57, 58), (15, 51, 52, 58), (15, 51, 58, 57), (16, 17, 23, 59), (16, 17, 59, 53), (16, 22, 59, 23), (16, 22, 58, 59), (16, 52, 53, 59), (16, 52, 59, 58), (18, 19, 25, 61), (18, 19, 61, 55), (18, 24, 61, 25), (18, 24, 60, 61), (18, 54, 55, 61), (18, 54, 61, 60), (19, 20, 26, 62), (19, 20, 62, 56), (19, 25, 62, 26), (19, 25, 61, 62), (19, 55, 56, 62), (19, 55, 62, 61), (20, 21, 27, 63), (20, 21, 63, 57), (20, 26, 63, 27), (20, 26, 62, 63), (20, 56, 57, 63), (20, 56, 63, 62), (21, 22, 28, 64), (21, 22, 64, 58), (21, 27, 64, 28), (21, 27, 63, 64), (21, 57, 58, 64), (21, 57, 64, 63), (22, 23, 29, 65), (22, 23, 65, 59), (22, 28, 65, 29), (22, 28, 64, 65), (22, 58, 59, 65), (22, 58, 65, 64), (24, 25, 31, 67), (24, 25, 67, 61), (24, 30, 67, 31), (24, 30, 66, 67), (24, 60, 61, 67), (24, 60, 67, 66), (25, 26, 32, 68), (25, 26, 68, 62), (25, 31, 68, 32), (25, 31, 67, 68), (25, 61, 62, 68), (25, 61, 68, 67), (26, 27, 33, 69), (26, 27, 69, 63), (26, 32, 69, 33), (26, 32, 68, 69), (26, 62, 63, 69), (26, 62, 69, 68), (27, 28, 34, 70), (27, 28, 70, 64), (27, 33, 70, 34), (27, 33, 69, 70), (27, 63, 64, 70), (27, 63, 70, 69), (28, 29, 35, 71), (28, 29, 71, 65), (28, 34, 71, 35), (28, 34, 70, 71), (28, 64, 65, 71), (28, 64, 71, 70), (36, 37, 43, 79), (36, 37, 79, 73), (36, 42, 79, 43), (36, 42, 78, 79), (36, 72, 73, 79), (36, 72, 79, 78), (37, 38, 44, 80), (37, 38, 80, 74), (37, 43, 80, 44), (37, 43, 79, 80), (37, 73, 74, 80), (37, 73, 80, 79), (38, 39, 45, 81), (38, 39, 81, 75), (38, 44, 81, 45), (38, 44, 80, 81), (38, 74, 75, 81), (38, 74, 81, 80), (39, 40, 46, 82), (39, 40, 82, 76), (39, 45, 82, 46), (39, 45, 81, 82), (39, 75, 76, 82), (39, 75, 82, 81), (40, 41, 47, 83), (40, 41, 83, 77), (40, 46, 83, 47), (40, 46, 82, 83), (40, 76, 77, 83), (40, 76, 83, 82), (42, 43, 49, 85), (42, 43, 85, 79), (42, 48, 85, 49), (42, 48, 84, 85), (42, 78, 79, 85), (42, 78, 85, 84), (43, 44, 50, 86), (43, 44, 86, 80), (43, 49, 86, 50), (43, 49, 85, 86), (43, 79, 80, 86), (43, 79, 86, 85), (44, 45, 51, 87), (44, 45, 87, 81), (44, 50, 87, 51), (44, 50, 86, 87), (44, 80, 81, 87), (44, 80, 87, 86), (45, 46, 52, 88), (45, 46, 88, 82), (45, 51, 88, 52), (45, 51, 87, 88), (45, 81, 82, 88), (45, 81, 88, 87), (46, 47, 53, 89), (46, 47, 89, 83), (46, 52, 89, 53), (46, 52, 88, 89), (46, 82, 83, 89), (46, 82, 89, 88), (48, 49, 55, 91), (48, 49, 91, 85), (48, 54, 91, 55), (48, 54, 90, 91), (48, 84, 85, 91), (48, 84, 91, 90), (49, 50, 56, 92), (49, 50, 92, 86), (49, 55, 92, 56), (49, 55, 91, 92), (49, 85, 86, 92), (49, 85, 92, 91), (50, 51, 57, 93), (50, 51, 93, 87), (50, 56, 93, 57), (50, 56, 92, 93), (50, 86, 87, 93), (50, 86, 93, 92), (51, 52, 58, 94), (51, 52, 94, 88), (51, 57, 94, 58), (51, 57, 93, 94), (51, 87, 88, 94), (51, 87, 94, 93), (52, 53, 59, 95), (52, 53, 95, 89), (52, 58, 95, 59), (52, 58, 94, 95), (52, 88, 89, 95), (52, 88, 95, 94), (54, 55, 61, 97), (54, 55, 97, 91), (54, 60, 97, 61), (54, 60, 96, 97), (54, 90, 91, 97), (54, 90, 97, 96), (55, 56, 62, 98), (55, 56, 98, 92), (55, 61, 98, 62), (55, 61, 97, 98), (55, 91, 92, 98), (55, 91, 98, 97), (56, 57, 63, 99), (56, 57, 99, 93), (56, 62, 99, 63), (56, 62, 98, 99), (56, 92, 93, 99), (56, 92, 99, 98), (57, 58, 64, 100), (57, 58, 100, 94), (57, 63, 100, 64), (57, 63, 99, 100), (57, 93, 94, 100), (57, 93, 100, 99), (58, 59, 65, 101), (58, 59, 101, 95), (58, 64, 101, 65), (58, 64, 100, 101), (58, 94, 95, 101), (58, 94, 101, 100), (60, 61, 67, 103), (60, 61, 103, 97), (60, 66, 103, 67), (60, 66, 102, 103), (60, 96, 97, 103), (60, 96, 103, 102), (61, 62, 68, 104), (61, 62, 104, 98), (61, 67, 104, 68), (61, 67, 103, 104), (61, 97, 98, 104), (61, 97, 104, 103), (62, 63, 69, 105), (62, 63, 105, 99), (62, 68, 105, 69), (62, 68, 104, 105), (62, 98, 99, 105), (62, 98, 105, 104), (63, 64, 70, 106), (63, 64, 106, 100), (63, 69, 106, 70), (63, 69, 105, 106), (63, 99, 100, 106), (63, 99, 106, 105), (64, 65, 71, 107), (64, 65, 107, 101), (64, 70, 107, 71), (64, 70, 106, 107), (64, 100, 101, 107), (64, 100, 107, 106), (72, 73, 79, 115), (72, 73, 115, 109), (72, 78, 115, 79), (72, 78, 114, 115), (72, 108, 109, 115), (72, 108, 115, 114), (73, 74, 80, 116), (73, 74, 116, 110), (73, 79, 116, 80), (73, 79, 115, 116), (73, 109, 110, 116), (73, 109, 116, 115), (74, 75, 81, 117), (74, 75, 117, 111), (74, 80, 117, 81), (74, 80, 116, 117), (74, 110, 111, 117), (74, 110, 117, 116), (75, 76, 82, 118), (75, 76, 118, 112), (75, 81, 118, 82), (75, 81, 117, 118), (75, 111, 112, 118), (75, 111, 118, 117), (76, 77, 83, 119), (76, 77, 119, 113), (76, 82, 119, 83), (76, 82, 118, 119), (76, 112, 113, 119), (76, 112, 119, 118), (78, 79, 85, 121), (78, 79, 121, 115), (78, 84, 121, 85), (78, 84, 120, 121), (78, 114, 115, 121), (78, 114, 121, 120), (79, 80, 86, 122), (79, 80, 122, 116), (79, 85, 122, 86), (79, 85, 121, 122), (79, 115, 116, 122), (79, 115, 122, 121), (80, 81, 87, 123), (80, 81, 123, 117), (80, 86, 123, 87), (80, 86, 122, 123), (80, 116, 117, 123), (80, 116, 123, 122), (81, 82, 88, 124), (81, 82, 124, 118), (81, 87, 124, 88), (81, 87, 123, 124), (81, 117, 118, 124), (81, 117, 124, 123), (82, 83, 89, 125), (82, 83, 125, 119), (82, 88, 125, 89), (82, 88, 124, 125), (82, 118, 119, 125), (82, 118, 125, 124), (84, 85, 91, 127), (84, 85, 127, 121), (84, 90, 127, 91), (84, 90, 126, 127), (84, 120, 121, 127), (84, 120, 127, 126), (85, 86, 92, 128), (85, 86, 128, 122), (85, 91, 128, 92), (85, 91, 127, 128), (85, 121, 122, 128), (85, 121, 128, 127), (86, 87, 93, 129), (86, 87, 129, 123), (86, 92, 129, 93), (86, 92, 128, 129), (86, 122, 123, 129), (86, 122, 129, 128), (87, 88, 94, 130), (87, 88, 130, 124), (87, 93, 130, 94), (87, 93, 129, 130), (87, 123, 124, 130), (87, 123, 130, 129), (88, 89, 95, 131), (88, 89, 131, 125), (88, 94, 131, 95), (88, 94, 130, 131), (88, 124, 125, 131), (88, 124, 131, 130), (90, 91, 97, 133), (90, 91, 133, 127), (90, 96, 133, 97), (90, 96, 132, 133), (90, 126, 127, 133), (90, 126, 133, 132), (91, 92, 98, 134), (91, 92, 134, 128), (91, 97, 134, 98), (91, 97, 133, 134), (91, 127, 128, 134), (91, 127, 134, 133), (92, 93, 99, 135), (92, 93, 135, 129), (92, 98, 135, 99), (92, 98, 134, 135), (92, 128, 129, 135), (92, 128, 135, 134), (93, 94, 100, 136), (93, 94, 136, 130), (93, 99, 136, 100), (93, 99, 135, 136), (93, 129, 130, 136), (93, 129, 136, 135), (94, 95, 101, 137), (94, 95, 137, 131), (94, 100, 137, 101), (94, 100, 136, 137), (94, 130, 131, 137), (94, 130, 137, 136), (96, 97, 103, 139), (96, 97, 139, 133), (96, 102, 139, 103), (96, 102, 138, 139), (96, 132, 133, 139), (96, 132, 139, 138), (97, 98, 104, 140), (97, 98, 140, 134), (97, 103, 140, 104), (97, 103, 139, 140), (97, 133, 134, 140), (97, 133, 140, 139), (98, 99, 105, 141), (98, 99, 141, 135), (98, 104, 141, 105), (98, 104, 140, 141), (98, 134, 135, 141), (98, 134, 141, 140), (99, 100, 106, 142), (99, 100, 142, 136), (99, 105, 142, 106), (99, 105, 141, 142), (99, 135, 136, 142), (99, 135, 142, 141), (100, 101, 107, 143), (100, 101, 143, 137), (100, 106, 143, 107), (100, 106, 142, 143), (100, 136, 137, 143), (100, 136, 143, 142), (108, 109, 115, 151), (108, 109, 151, 145), (108, 114, 151, 115), (108, 114, 150, 151), (108, 144, 145, 151), (108, 144, 151, 150), (109, 110, 116, 152), (109, 110, 152, 146), (109, 115, 152, 116), (109, 115, 151, 152), (109, 145, 146, 152), (109, 145, 152, 151), (110, 111, 117, 153), (110, 111, 153, 147), (110, 116, 153, 117), (110, 116, 152, 153), (110, 146, 147, 153), (110, 146, 153, 152), (111, 112, 118, 154), (111, 112, 154, 148), (111, 117, 154, 118), (111, 117, 153, 154), (111, 147, 148, 154), (111, 147, 154, 153), (112, 113, 119, 155), (112, 113, 155, 149), (112, 118, 155, 119), (112, 118, 154, 155), (112, 148, 149, 155), (112, 148, 155, 154), (114, 115, 121, 157), (114, 115, 157, 151), (114, 120, 157, 121), (114, 120, 156, 157), (114, 150, 151, 157), (114, 150, 157, 156), (115, 116, 122, 158), (115, 116, 158, 152), (115, 121, 158, 122), (115, 121, 157, 158), (115, 151, 152, 158), (115, 151, 158, 157), (116, 117, 123, 159), (116, 117, 159, 153), (116, 122, 159, 123), (116, 122, 158, 159), (116, 152, 153, 159), (116, 152, 159, 158), (117, 118, 124, 160), (117, 118, 160, 154), (117, 123, 160, 124), (117, 123, 159, 160), (117, 153, 154, 160), (117, 153, 160, 159), (118, 119, 125, 161), (118, 119, 161, 155), (118, 124, 161, 125), (118, 124, 160, 161), (118, 154, 155, 161), (118, 154, 161, 160), (120, 121, 127, 163), (120, 121, 163, 157), (120, 126, 163, 127), (120, 126, 162, 163), (120, 156, 157, 163), (120, 156, 163, 162), (121, 122, 128, 164), (121, 122, 164, 158), (121, 127, 164, 128), (121, 127, 163, 164), (121, 157, 158, 164), (121, 157, 164, 163), (122, 123, 129, 165), (122, 123, 165, 159), (122, 128, 165, 129), (122, 128, 164, 165), (122, 158, 159, 165), (122, 158, 165, 164), (123, 124, 130, 166), (123, 124, 166, 160), (123, 129, 166, 130), (123, 129, 165, 166), (123, 159, 160, 166), (123, 159, 166, 165), (124, 125, 131, 167), (124, 125, 167, 161), (124, 130, 167, 131), (124, 130, 166, 167), (124, 160, 161, 167), (124, 160, 167, 166), (126, 127, 133, 169), (126, 127, 169, 163), (126, 132, 169, 133), (126, 132, 168, 169), (126, 162, 163, 169), (126, 162, 169, 168), (127, 128, 134, 170), (127, 128, 170, 164), (127, 133, 170, 134), (127, 133, 169, 170), (127, 163, 164, 170), (127, 163, 170, 169), (128, 129, 135, 171), (128, 129, 171, 165), (128, 134, 171, 135), (128, 134, 170, 171), (128, 164, 165, 171), (128, 164, 171, 170), (129, 130, 136, 172), (129, 130, 172, 166), (129, 135, 172, 136), (129, 135, 171, 172), (129, 165, 166, 172), (129, 165, 172, 171), (130, 131, 137, 173), (130, 131, 173, 167), (130, 136, 173, 137), (130, 136, 172, 173), (130, 166, 167, 173), (130, 166, 173, 172), (132, 133, 139, 175), (132, 133, 175, 169), (132, 138, 175, 139), (132, 138, 174, 175), (132, 168, 169, 175), (132, 168, 175, 174), (133, 134, 140, 176), (133, 134, 176, 170), (133, 139, 176, 140), (133, 139, 175, 176), (133, 169, 170, 176), (133, 169, 176, 175), (134, 135, 141, 177), (134, 135, 177, 171), (134, 140, 177, 141), (134, 140, 176, 177), (134, 170, 171, 177), (134, 170, 177, 176), (135, 136, 142, 178), (135, 136, 178, 172), (135, 141, 178, 142), (135, 141, 177, 178), (135, 171, 172, 178), (135, 171, 178, 177), (136, 137, 143, 179), (136, 137, 179, 173), (136, 142, 179, 143), (136, 142, 178, 179), (136, 172, 173, 179), (136, 172, 179, 178), (144, 145, 151, 187), (144, 145, 187, 181), (144, 150, 187, 151), (144, 150, 186, 187), (144, 180, 181, 187), (144, 180, 187, 186), (145, 146, 152, 188), (145, 146, 188, 182), (145, 151, 188, 152), (145, 151, 187, 188), (145, 181, 182, 188), (145, 181, 188, 187), (146, 147, 153, 189), (146, 147, 189, 183), (146, 152, 189, 153), (146, 152, 188, 189), (146, 182, 183, 189), (146, 182, 189, 188), (147, 148, 154, 190), (147, 148, 190, 184), (147, 153, 190, 154), (147, 153, 189, 190), (147, 183, 184, 190), (147, 183, 190, 189), (148, 149, 155, 191), (148, 149, 191, 185), (148, 154, 191, 155), (148, 154, 190, 191), (148, 184, 185, 191), (148, 184, 191, 190), (150, 151, 157, 193), (150, 151, 193, 187), (150, 156, 193, 157), (150, 156, 192, 193), (150, 186, 187, 193), (150, 186, 193, 192), (151, 152, 158, 194), (151, 152, 194, 188), (151, 157, 194, 158), (151, 157, 193, 194), (151, 187, 188, 194), (151, 187, 194, 193), (152, 153, 159, 195), (152, 153, 195, 189), (152, 158, 195, 159), (152, 158, 194, 195), (152, 188, 189, 195), (152, 188, 195, 194), (153, 154, 160, 196), (153, 154, 196, 190), (153, 159, 196, 160), (153, 159, 195, 196), (153, 189, 190, 196), (153, 189, 196, 195), (154, 155, 161, 197), (154, 155, 197, 191), (154, 160, 197, 161), (154, 160, 196, 197), (154, 190, 191, 197), (154, 190, 197, 196), (156, 157, 163, 199), (156, 157, 199, 193), (156, 162, 199, 163), (156, 162, 198, 199), (156, 192, 193, 199), (156, 192, 199, 198), (157, 158, 164, 200), (157, 158, 200, 194), (157, 163, 200, 164), (157, 163, 199, 200), (157, 193, 194, 200), (157, 193, 200, 199), (158, 159, 165, 201), (158, 159, 201, 195), (158, 164, 201, 165), (158, 164, 200, 201), (158, 194, 195, 201), (158, 194, 201, 200), (159, 160, 166, 202), (159, 160, 202, 196), (159, 165, 202, 166), (159, 165, 201, 202), (159, 195, 196, 202), (159, 195, 202, 201), (160, 161, 167, 203), (160, 161, 203, 197), (160, 166, 203, 167), (160, 166, 202, 203), (160, 196, 197, 203), (160, 196, 203, 202), (162, 163, 169, 205), (162, 163, 205, 199), (162, 168, 205, 169), (162, 168, 204, 205), (162, 198, 199, 205), (162, 198, 205, 204), (163, 164, 170, 206), (163, 164, 206, 200), (163, 169, 206, 170), (163, 169, 205, 206), (163, 199, 200, 206), (163, 199, 206, 205), (164, 165, 171, 207), (164, 165, 207, 201), (164, 170, 207, 171), (164, 170, 206, 207), (164, 200, 201, 207), (164, 200, 207, 206), (165, 166, 172, 208), (165, 166, 208, 202), (165, 171, 208, 172), (165, 171, 207, 208), (165, 201, 202, 208), (165, 201, 208, 207), (166, 167, 173, 209), (166, 167, 209, 203), (166, 172, 209, 173), (166, 172, 208, 209), (166, 202, 203, 209), (166, 202, 209, 208), (168, 169, 175, 211), (168, 169, 211, 205), (168, 174, 211, 175), (168, 174, 210, 211), (168, 204, 205, 211), (168, 204, 211, 210), (169, 170, 176, 212), (169, 170, 212, 206), (169, 175, 212, 176), (169, 175, 211, 212), (169, 205, 206, 212), (169, 205, 212, 211), (170, 171, 177, 213), (170, 171, 213, 207), (170, 176, 213, 177), (170, 176, 212, 213), (170, 206, 207, 213), (170, 206, 213, 212), (171, 172, 178, 214), (171, 172, 214, 208), (171, 177, 214, 178), (171, 177, 213, 214), (171, 207, 208, 214), (171, 207, 214, 213), (172, 173, 179, 215), (172, 173, 215, 209), (172, 178, 215, 179), (172, 178, 214, 215), (172, 208, 209, 215), (172, 208, 215, 214)]
        }
    }

    def Scope "rigids"
    {
        def Mesh "rigid_box" (
            customData = {
                dictionary placement = {
                    string name = "rigid_box"
                    double[] pos = [0, 0, 0.408]
                    double[] quat = [0, 0, 0, 1]
                }
            }
        )
        {
            int[] faceVertexCounts = [3, 3, 3, 3, 3, 3, 3, 3, 3, 3, 3, 3, 3, 3, 3, 3, 3, 3, 3, 3, 3, 3, 3, 3, 3, 3, 3, 3, 3, 3, 3, 3, 3, 3, 3, 3, 3, 3, 3, 3, 3, 3, 3, 3, 3, 3, 3, 3, 3, 3, 3, 3, 3, 3, 3, 3, 3, 3, 3, 3, 3, 3, 3, 3, 3, 3, 3, 3, 3, 3, 3, 3, 3, 3, 3, 3, 3, 3, 3, 3, 3, 3, 3, 3, 3, 3, 3, 3, 3, 3, 3, 3, 3, 3, 3, 3, 3, 3, 3, 3, 3, 3, 3, 3, 3, 3, 3, 3, 3, 3, 3, 3, 3, 3, 3, 3, 3, 3, 3, 3, 3, 3, 3, 3, 3, 3, 3, 3, 3, 3, 3, 3, 3, 3, 3, 3, 3, 3, 3, 3]
            int[] faceVertexIndices = [0, 7, 1, 0, 6, 7, 1, 8, 2, 1, 7, 8, 2, 9, 3, 2, 8, 9, 3, 10, 4, 3, 9, 10, 4, 11, 5, 4, 10, 11, 6, 13, 7, 6, 12, 13, 7, 14, 8, 7, 13, 14, 8, 15, 9, 8, 14, 15, 9, 16, 10, 9, 15, 16, 10, 17, 11, 10, 16, 17, 12, 19, 13, 12, 18, 19, 13, 20, 14, 13, 19, 20, 14, 21, 15, 14, 20, 21, 15, 22, 16, 15, 21, 22, 16, 23, 17, 16, 22, 23, 18, 25, 19, 18, 24, 25, 19, 26, 20, 19, 25, 26, 20, 27, 21, 20, 26, 27, 21, 28, 22, 21, 27, 28, 22, 29, 23, 22, 28, 29, 24, 31, 25, 24, 30, 31, 25, 32, 26, 25, 31, 32, 26, 33, 27, 26, 32, 33, 27, 34, 28, 27, 33, 34, 28, 35, 29, 28, 34, 35, 36, 37, 43, 36, 43, 42, 37, 38, 44, 37, 44, 43, 38, 39, 45, 38, 45, 44, 39, 40, 46, 39, 46, 45, 40, 41, 47, 40, 47, 46, 42, 43, 49, 42, 49, 48, 43, 44, 50, 43, 50, 49, 44, 45, 51, 44, 51, 50, 45, 46, 52, 45, 52, 51, 46, 47, 53, 46, 53, 52, 48, 49, 55, 48, 55, 54, 49, 50, 56, 49, 56, 55, 50, 51, 57, 50, 57, 56, 51, 52, 58, 51, 58, 57, 52, 53, 59, 52, 59, 58, 54, 55, 61, 54, 61, 60, 55, 56, 62, 55, 62, 61, 56, 57, 63, 56, 63, 62, 57, 58, 64, 57, 64, 63, 58, 59, 65, 58, 65, 64, 60, 61, 67, 60, 67, 66, 61, 62, 68, 61, 68, 67, 62, 63, 69, 62, 69, 68, 63, 64, 70, 63, 70, 69, 64, 65, 71, 64, 71, 70, 0, 1, 37, 0, 37, 36, 1, 2, 38, 1, 38, 37, 2, 3, 39, 2, 39, 38, 3, 4, 40, 3, 40, 39, 4, 5, 41, 4, 41, 40, 5, 11, 47, 5, 47, 41, 11, 17, 53, 11, 53, 47, 17, 23, 59, 17, 59, 53, 23, 29, 65, 23, 65, 59, 29, 35, 71, 29, 71, 65, 35, 34, 70, 35, 70, 71, 34, 33, 69, 34, 69, 70, 33, 32, 68, 33, 68, 69, 32, 31, 67, 32, 67, 68, 31, 30, 66, 31, 66, 67, 30, 24, 60, 30, 60, 66, 24, 18, 54, 24, 54, 60, 18, 12, 48, 18, 48, 54, 12, 6, 42, 12, 42, 48, 6, 0, 36, 6, 36, 42]
            point3f[] points = [(-0.2, -0.2, 0), (-0.12, -0.2, 0), (-0.04, -0.2, 0), (0.04, -0.2, 0), (0.12, -0.2, 0), (0.2, -0.2, 0), (-0.2, -0.12, 0), (-0.12, -0.12, 0), (-0.04, -0.12, 0), (0.04, -0.12, 0), (0.12, -0.12, 0), (0.2, -0.12, 0), (-0.2, -0.04, 0), (-0.12, -0.04, 0), (-0.04, -0.04, 0), (0.04, -0.04, 0), (0.12, -0.04, 0), (0.2, -0.04, 0), (-0.2, 0.04, 0), (-0.12, 0.04, 0), (-0.04, 0.04, 0), (0.04, 0.04, 0), (0.12, 0.04, 0), (0.2, 0.04, 0), (-0.2, 0.12, 0), (-0.12, 0.12, 0), (-0.04, 0.12, 0), (0.04, 0.12, 0), (0.12, 0.12, 0), (0.2, 0.12, 0), (-0.2, 0.2, 0), (-0.12, 0.2, 0), (-0.04, 0.2, 0), (0.04, 0.2, 0), (0.12, 0.2, 0), (0.2, 0.2, 0), (-0.2, -0.2, 0.4), (-0.12, -0.2, 0.4), (-0.04, -0.2, 0.4), (0.04, -0.2, 0.4), (0.12, -0.2, 0.4), (0.2, -0.2, 0.4), (-0.2, -0.12, 0.4), (-0.12, -0.12, 0.4), (-0.04, -0.12, 0.4), (0.04, -0.12, 0.4), (0.12, -0.12, 0.4), (0.2, -0.12, 0.4), (-0.2, -0.04, 0.4), (-0.12, -0.04, 0.4), (-0.04, -0.04, 0.4), (0.04, -0.04, 0.4), (0.12, -0.04, 0.4), (0.2, -0.04, 0.4), (-0.2, 0.04, 0.4), (-0.12, 0.04, 0.4), (-0.04, 0.04, 0.4), (0.04, 0.04, 0.4), (0.12, 0.04, 0.4), (0.2, 0.04, 0.4), (-0.2, 0.12, 0.4), (-0.12, 0.12, 0.4), (-0.04, 0.12, 0.4), (0.04, 0.12, 0.4), (0.12, 0.12, 0.4), (0.2, 0.12, 0.4), (-0.2, 0.2, 0.4), (-0.12, 0.2, 0.4), (-0.04, 0.2, 0.4), (0.04, 0.2, 0.4), (0.12, 0.2, 0.4), (0.2, 0.2, 0.4)]
        }
    }
}

