#usda 1.0
(
    defaultPrim = "Tire"
    upAxis = "Y"
)

def Xform "Tire"
{
    def Mesh "Mesh" (
        customData = {
            double contactKn = 29659.82406286696
            string[] materialFields = ["C11", "C22", "C33", "C12", "C13", "C23", "G23", "G13", "G12", "rho", "alpha_damp"]
            int nBeadRows = 0
            int nCirc = 40
            int pcgIters = 10
            double pressure = 110000
            double rInner = 0.5
            double rOuter = 0.5
            double shellThickness = 0.01
            int[] surfTriIndices = [0, 42, 45, 12, 43, 45, 14, 44, 45, 11, 46, 49, 13, 47, 49, 12, 48, 49, 5, 50, 53, 14, 51, 53, 13, 52, 53, 12, 47, 54, 13, 51, 54, 14, 43, 54, 0, 44, 57, 14, 55, 57, 16, 56, 57, 5, 58, 60, 15, 59, 60, 14, 50, 60, 1, 61, 64, 16, 62, 64, 15, 63, 64, 14, 59, 65, 15, 62, 65, 16, 55, 65, 0, 56, 68, 16, 66, 68, 18, 67, 68, 1, 69, 71, 17, 70, 71, 16, 61, 71, 7, 72, 75, 18, 73, 75, 17, 74, 75, 16, 70, 76, 17, 73, 76, 18, 66, 76, 0, 67, 79, 18, 77, 79, 20, 78, 79, 7, 80, 82, 19, 81, 82, 18, 72, 82, 10, 83, 86, 20, 84, 86, 19, 85, 86, 18, 81, 87, 19, 84, 87, 20, 77, 87, 0, 78, 89, 20, 88, 89, 12, 42, 89, 10, 90, 92, 21, 91, 92, 20, 83, 92, 11, 48, 95, 12, 93, 95, 21, 94, 95, 20, 91, 96, 21, 93, 96, 12, 88, 96, 1, 63, 99, 15, 97, 99, 23, 98, 99, 5, 100, 102, 22, 101, 102, 15, 58, 102, 9, 103, 106, 23, 104, 106, 22, 105, 106, 15, 101, 107, 22, 104, 107, 23, 97, 107, 5, 52, 110, 13, 108, 110, 25, 109, 110, 11, 111, 113, 24, 112, 113, 13, 46, 113, 4, 114, 117, 25, 115, 117, 24, 116, 117, 13, 112, 118, 24, 115, 118, 25, 108, 118, 11, 94, 121, 21, 119, 121, 27, 120, 121, 10, 122, 124, 26, 123, 124, 21, 90, 124, 2, 125, 128, 27, 126, 128, 26, 127, 128, 21, 123, 129, 26, 126, 129, 27, 119, 129, 10, 85, 132, 19, 130, 132, 29, 131, 132, 7, 133, 135, 28, 134, 135, 19, 80, 135, 6, 136, 139, 29, 137, 139, 28, 138, 139, 19, 134, 140, 28, 137, 140, 29, 130, 140, 7, 74, 143, 17, 141, 143, 31, 142, 143, 1, 144, 146, 30, 145, 146, 17, 69, 146, 8, 147, 150, 31, 148, 150, 30, 149, 150, 17, 145, 151, 30, 148, 151, 31, 141, 151, 3, 152, 155, 32, 153, 155, 34, 154, 155, 9, 156, 159, 33, 157, 159, 32, 158, 159, 4, 160, 163, 34, 161, 163, 33, 162, 163, 32, 157, 164, 33, 161, 164, 34, 153, 164, 3, 154, 167, 34, 165, 167, 36, 166, 167, 4, 168, 170, 35, 169, 170, 34, 160, 170, 2, 171, 174, 36, 172, 174, 35, 173, 174, 34, 169, 175, 35, 172, 175, 36, 165, 175, 3, 166, 178, 36, 176, 178, 38, 177, 178, 2, 179, 181, 37, 180, 181, 36, 171, 181, 6, 182, 185, 38, 183, 185, 37, 184, 185, 36, 180, 186, 37, 183, 186, 38, 176, 186, 3, 177, 189, 38, 187, 189, 40, 188, 189, 6, 190, 192, 39, 191, 192, 38, 182, 192, 8, 193, 196, 40, 194, 196, 39, 195, 196, 38, 191, 197, 39, 194, 197, 40, 187, 197, 3, 188, 199, 40, 198, 199, 32, 152, 199, 8, 200, 202, 41, 201, 202, 40, 193, 202, 9, 158, 205, 32, 203, 205, 41, 204, 205, 40, 201, 206, 41, 203, 206, 32, 198, 206, 4, 162, 208, 33, 207, 208, 25, 114, 208, 9, 105, 210, 22, 209, 210, 33, 156, 210, 5, 109, 212, 25, 211, 212, 22, 100, 212, 33, 209, 213, 22, 211, 213, 25, 207, 213, 2, 173, 215, 35, 214, 215, 27, 125, 215, 4, 116, 217, 24, 216, 217, 35, 168, 217, 11, 120, 219, 27, 218, 219, 24, 111, 219, 35, 216, 220, 24, 218, 220, 27, 214, 220, 6, 184, 222, 37, 221, 222, 29, 136, 222, 2, 127, 224, 26, 223, 224, 37, 179, 224, 10, 131, 226, 29, 225, 226, 26, 122, 226, 37, 223, 227, 26, 225, 227, 29, 221, 227, 8, 195, 229, 39, 228, 229, 31, 147, 229, 6, 138, 231, 28, 230, 231, 39, 190, 231, 7, 142, 233, 31, 232, 233, 28, 133, 233, 39, 230, 234, 28, 232, 234, 31, 228, 234, 9, 204, 236, 41, 235, 236, 23, 103, 236, 8, 149, 238, 30, 237, 238, 41, 200, 238, 1, 98, 240, 23, 239, 240, 30, 144, 240, 41, 237, 241, 30, 239, 241, 23, 235, 241, 0, 45, 44, 12, 45, 42, 14, 45, 43, 11, 49, 48, 13, 49, 46, 12, 49, 47, 5, 53, 52, 14, 53, 50, 13, 53, 51, 12, 54, 43, 13, 54, 47, 14, 54, 51, 0, 57, 56, 14, 57, 44, 16, 57, 55, 5, 60, 50, 15, 60, 58, 14, 60, 59, 1, 64, 63, 16, 64, 61, 15, 64, 62, 14, 65, 55, 15, 65, 59, 16, 65, 62, 0, 68, 67, 16, 68, 56, 18, 68, 66, 1, 71, 61, 17, 71, 69, 16, 71, 70, 7, 75, 74, 18, 75, 72, 17, 75, 73, 16, 76, 66, 17, 76, 70, 18, 76, 73, 0, 79, 78, 18, 79, 67, 20, 79, 77, 7, 82, 72, 19, 82, 80, 18, 82, 81, 10, 86, 85, 20, 86, 83, 19, 86, 84, 18, 87, 77, 19, 87, 81, 20, 87, 84, 0, 89, 42, 20, 89, 78, 12, 89, 88, 10, 92, 83, 21, 92, 90, 20, 92, 91, 11, 95, 94, 12, 95, 48, 21, 95, 93, 20, 96, 88, 21, 96, 91, 12, 96, 93, 1, 99, 98, 15, 99, 63, 23, 99, 97, 5, 102, 58, 22, 102, 100, 15, 102, 101, 9, 106, 105, 23, 106, 103, 22, 106, 104, 15, 107, 97, 22, 107, 101, 23, 107, 104, 5, 110, 109, 13, 110, 52, 25, 110, 108, 11, 113, 46, 24, 113, 111, 13, 113, 112, 4, 117, 116, 25, 117, 114, 24, 117, 115, 13, 118, 108, 24, 118, 112, 25, 118, 115, 11, 121, 120, 21, 121, 94, 27, 121, 119, 10, 124, 90, 26, 124, 122, 21, 124, 123, 2, 128, 127, 27, 128, 125, 26, 128, 126, 21, 129, 119, 26, 129, 123, 27, 129, 126, 10, 132, 131, 19, 132, 85, 29, 132, 130, 7, 135, 80, 28, 135, 133, 19, 135, 134, 6, 139, 138, 29, 139, 136, 28, 139, 137, 19, 140, 130, 28, 140, 134, 29, 140, 137, 7, 143, 142, 17, 143, 74, 31, 143, 141, 1, 146, 69, 30, 146, 144, 17, 146, 145, 8, 150, 149, 31, 150, 147, 30, 150, 148, 17, 151, 141, 30, 151, 145, 31, 151, 148, 3, 155, 154, 32, 155, 152, 34, 155, 153, 9, 159, 158, 33, 159, 156, 32, 159, 157, 4, 163, 162, 34, 163, 160, 33, 163, 161, 32, 164, 153, 33, 164, 157, 34, 164, 161, 3, 167, 166, 34, 167, 154, 36, 167, 165, 4, 170, 160, 35, 170, 168, 34, 170, 169, 2, 174, 173, 36, 174, 171, 35, 174, 172, 34, 175, 165, 35, 175, 169, 36, 175, 172, 3, 178, 177, 36, 178, 166, 38, 178, 176, 2, 181, 171, 37, 181, 179, 36, 181, 180, 6, 185, 184, 38, 185, 182, 37, 185, 183, 36, 186, 176, 37, 186, 180, 38, 186, 183, 3, 189, 188, 38, 189, 177, 40, 189, 187, 6, 192, 182, 39, 192, 190, 38, 192, 191, 8, 196, 195, 40, 196, 193, 39, 196, 194, 38, 197, 187, 39, 197, 191, 40, 197, 194, 3, 199, 152, 40, 199, 188, 32, 199, 198, 8, 202, 193, 41, 202, 200, 40, 202, 201, 9, 205, 204, 32, 205, 158, 41, 205, 203, 40, 206, 198, 41, 206, 201, 32, 206, 203, 4, 208, 114, 33, 208, 162, 25, 208, 207, 9, 210, 156, 22, 210, 105, 33, 210, 209, 5, 212, 100, 25, 212, 109, 22, 212, 211, 33, 213, 207, 22, 213, 209, 25, 213, 211, 2, 215, 125, 35, 215, 173, 27, 215, 214, 4, 217, 168, 24, 217, 116, 35, 217, 216, 11, 219, 111, 27, 219, 120, 24, 219, 218, 35, 220, 214, 24, 220, 216, 27, 220, 218, 6, 222, 136, 37, 222, 184, 29, 222, 221, 2, 224, 179, 26, 224, 127, 37, 224, 223, 10, 226, 122, 29, 226, 131, 26, 226, 225, 37, 227, 221, 26, 227, 223, 29, 227, 225, 8, 229, 147, 39, 229, 195, 31, 229, 228, 6, 231, 190, 28, 231, 138, 39, 231, 230, 7, 233, 133, 31, 233, 142, 28, 233, 232, 39, 234, 228, 28, 234, 230, 31, 234, 232, 9, 236, 103, 41, 236, 204, 23, 236, 235, 8, 238, 200, 30, 238, 149, 41, 238, 237, 1, 240, 144, 23, 240, 98, 30, 240, 239, 41, 241, 235, 30, 241, 237, 23, 241, 239]
            double width = 1
        }
    )
    {
        int[] faceVertexCounts = [4, 4, 4, 4, 4, 4, 4, 4, 4, 4, 4, 4, 4, 4, 4, 4, 4, 4, 4, 4, 4, 4, 4, 4, 4, 4, 4, 4, 4, 4, 4, 4, 4, 4, 4, 4, 4, 4, 4, 4, 4, 4, 4, 4, 4, 4, 4, 4, 4, 4, 4, 4, 4, 4, 4, 4, 4, 4, 4, 4, 4, 4, 4, 4, 4, 4, 4, 4, 4, 4, 4, 4, 4, 4, 4, 4, 4, 4, 4, 4, 4, 4, 4, 4, 4, 4, 4, 4, 4, 4, 4, 4, 4, 4, 4, 4, 4, 4, 4, 4, 4, 4, 4, 4, 4, 4, 4, 4, 4, 4, 4, 4, 4, 4, 4, 4, 4, 4, 4, 4, 4, 4, 4, 4, 4, 4, 4, 4, 4, 4, 4, 4, 4, 4, 4, 4, 4, 4, 4, 4, 4, 4, 4, 4, 4, 4, 4, 4, 4, 4, 4, 4, 4, 4, 4, 4, 4, 4, 4, 4, 4, 4, 4, 4, 4, 4, 4, 4, 4, 4, 4, 4, 4, 4, 4, 4, 4, 4, 4, 4, 4, 4, 4, 4, 4, 4, 4, 4, 4, 4, 4, 4, 4, 4, 4, 4, 4, 4, 4, 4, 4, 4, 4, 4, 4, 4, 4, 4, 4, 4, 4, 4, 4, 4, 4, 4, 4, 4, 4, 4, 4, 4, 4, 4, 4, 4, 4, 4, 4, 4, 4, 4, 4, 4, 4, 4, 4, 4, 4, 4]
        int[] faceVertexIndices = [0, 42, 45, 44, 12, 43, 45, 42, 14, 44, 45, 43, 11, 46, 49, 48, 13, 47, 49, 46, 12, 48, 49, 47, 5, 50, 53, 52, 14, 51, 53, 50, 13, 52, 53, 51, 12, 47, 54, 43, 13, 51, 54, 47, 14, 43, 54, 51, 0, 44, 57, 56, 14, 55, 57, 44, 16, 56, 57, 55, 5, 58, 60, 50, 15, 59, 60, 58, 14, 50, 60, 59, 1, 61, 64, 63, 16, 62, 64, 61, 15, 63, 64, 62, 14, 59, 65, 55, 15, 62, 65, 59, 16, 55, 65, 62, 0, 56, 68, 67, 16, 66, 68, 56, 18, 67, 68, 66, 1, 69, 71, 61, 17, 70, 71, 69, 16, 61, 71, 70, 7, 72, 75, 74, 18, 73, 75, 72, 17, 74, 75, 73, 16, 70, 76, 66, 17, 73, 76, 70, 18, 66, 76, 73, 0, 67, 79, 78, 18, 77, 79, 67, 20, 78, 79, 77, 7, 80, 82, 72, 19, 81, 82, 80, 18, 72, 82, 81, 10, 83, 86, 85, 20, 84, 86, 83, 19, 85, 86, 84, 18, 81, 87, 77, 19, 84, 87, 81, 20, 77, 87, 84, 0, 78, 89, 42, 20, 88, 89, 78, 12, 42, 89, 88, 10, 90, 92, 83, 21, 91, 92, 90, 20, 83, 92, 91, 11, 48, 95, 94, 12, 93, 95, 48, 21, 94, 95, 93, 20, 91, 96, 88, 21, 93, 96, 91, 12, 88, 96, 93, 1, 63, 99, 98, 15, 97, 99, 63, 23, 98, 99, 97, 5, 100, 102, 58, 22, 101, 102, 100, 15, 58, 102, 101, 9, 103, 106, 105, 23, 104, 106, 103, 22, 105, 106, 104, 15, 101, 107, 97, 22, 104, 107, 101, 23, 97, 107, 104, 5, 52, 110, 109, 13, 108, 110, 52, 25, 109, 110, 108, 11, 111, 113, 46, 24, 112, 113, 111, 13, 46, 113, 112, 4, 114, 117, 116, 25, 115, 117, 114, 24, 116, 117, 115, 13, 112, 118, 108, 24, 115, 118, 112, 25, 108, 118, 115, 11, 94, 121, 120, 21, 119, 121, 94, 27, 120, 121, 119, 10, 122, 124, 90, 26, 123, 124, 122, 21, 90, 124, 123, 2, 125, 128, 127, 27, 126, 128, 125, 26, 127, 128, 126, 21, 123, 129, 119, 26, 126, 129, 123, 27, 119, 129, 126, 10, 85, 132, 131, 19, 130, 132, 85, 29, 131, 132, 130, 7, 133, 135, 80, 28, 134, 135, 133, 19, 80, 135, 134, 6, 136, 139, 138, 29, 137, 139, 136, 28, 138, 139, 137, 19, 134, 140, 130, 28, 137, 140, 134, 29, 130, 140, 137, 7, 74, 143, 142, 17, 141, 143, 74, 31, 142, 143, 141, 1, 144, 146, 69, 30, 145, 146, 144, 17, 69, 146, 145, 8, 147, 150, 149, 31, 148, 150, 147, 30, 149, 150, 148, 17, 145, 151, 141, 30, 148, 151, 145, 31, 141, 151, 148, 3, 152, 155, 154, 32, 153, 155, 152, 34, 154, 155, 153, 9, 156, 159, 158, 33, 157, 159, 156, 32, 158, 159, 157, 4, 160, 163, 162, 34, 161, 163, 160, 33, 162, 163, 161, 32, 157, 164, 153, 33, 161, 164, 157, 34, 153, 164, 161, 3, 154, 167, 166, 34, 165, 167, 154, 36, 166, 167, 165, 4, 168, 170, 160, 35, 169, 170, 168, 34, 160, 170, 169, 2, 171, 174, 173, 36, 172, 174, 171, 35, 173, 174, 172, 34, 169, 175, 165, 35, 172, 175, 169, 36, 165, 175, 172, 3, 166, 178, 177, 36, 176, 178, 166, 38, 177, 178, 176, 2, 179, 181, 171, 37, 180, 181, 179, 36, 171, 181, 180, 6, 182, 185, 184, 38, 183, 185, 182, 37, 184, 185, 183, 36, 180, 186, 176, 37, 183, 186, 180, 38, 176, 186, 183, 3, 177, 189, 188, 38, 187, 189, 177, 40, 188, 189, 187, 6, 190, 192, 182, 39, 191, 192, 190, 38, 182, 192, 191, 8, 193, 196, 195, 40, 194, 196, 193, 39, 195, 196, 194, 38, 191, 197, 187, 39, 194, 197, 191, 40, 187, 197, 194, 3, 188, 199, 152, 40, 198, 199, 188, 32, 152, 199, 198, 8, 200, 202, 193, 41, 201, 202, 200, 40, 193, 202, 201, 9, 158, 205, 204, 32, 203, 205, 158, 41, 204, 205, 203, 40, 201, 206, 198, 41, 203, 206, 201, 32, 198, 206, 203, 4, 162, 208, 114, 33, 207, 208, 162, 25, 114, 208, 207, 9, 105, 210, 156, 22, 209, 210, 105, 33, 156, 210, 209, 5, 109, 212, 100, 25, 211, 212, 109, 22, 100, 212, 211, 33, 209, 213, 207, 22, 211, 213, 209, 25, 207, 213, 211, 2, 173, 215, 125, 35, 214, 215, 173, 27, 125, 215, 214, 4, 116, 217, 168, 24, 216, 217, 116, 35, 168, 217, 216, 11, 120, 219, 111, 27, 218, 219, 120, 24, 111, 219, 218, 35, 216, 220, 214, 24, 218, 220, 216, 27, 214, 220, 218, 6, 184, 222, 136, 37, 221, 222, 184, 29, 136, 222, 221, 2, 127, 224, 179, 26, 223, 224, 127, 37, 179, 224, 223, 10, 131, 226, 122, 29, 225, 226, 131, 26, 122, 226, 225, 37, 223, 227, 221, 26, 225, 227, 223, 29, 221, 227, 225, 8, 195, 229, 147, 39, 228, 229, 195, 31, 147, 229, 228, 6, 138, 231, 190, 28, 230, 231, 138, 39, 190, 231, 230, 7, 142, 233, 133, 31, 232, 233, 142, 28, 133, 233, 232, 39, 230, 234, 228, 28, 232, 234, 230, 31, 228, 234, 232, 9, 204, 236, 103, 41, 235, 236, 204, 23, 103, 236, 235, 8, 149, 238, 200, 30, 237, 238, 149, 41, 200, 238, 237, 1, 98, 240, 144, 23, 239, 240, 98, 30, 144, 240, 239, 41, 237, 241, 235, 30, 239, 241, 237, 23, 235, 241, 239]
        point3f[] points = [(-0.053324983, -0.49419442, -0.05411412), (-0.42267206, -0.20001204, 0.17704095), (0.42267206, 0.20001204, -0.17704095), (0.053324983, 0.49419442, 0.05411412), (0.33409956, 0.15305817, 0.33904377), (0.039917205, -0.275985, 0.41501674), (-0.039917205, 0.275985, -0.41501674), (-0.33409956, -0.15305817, -0.33904377), (-0.41438562, 0.275985, -0.04600913), (-0.18323053, 0.20001204, 0.4200259), (0.18323053, -0.20001204, -0.4200259), (0.41438562, -0.275985, 0.04600913), (0.21222611, -0.4527001, -0.004763992), (0.2670325, -0.32443982, 0.2709842), (-0.0078808945, -0.4527001, 0.21213324), (-0.22497767, -0.27978405, 0.3480028), (-0.27978405, -0.4080443, 0.07225458), (-0.4448192, -0.20752947, -0.09522287), (-0.22772244, -0.3804455, -0.23109241), (-0.08867858, -0.20752947, -0.44616994), (0.07635657, -0.4080443, -0.2786925), (0.35126996, -0.27978405, -0.21984154), (-0.084237464, -0.04465579, 0.49082574), (-0.3561406, 1.8036966e-16, 0.35094708), (0.43994856, -0.07225458, 0.22632842), (0.21984154, -0.07225458, 0.44322565), (0.3561406, -1.8036966e-16, -0.35094708), (0.49201018, -0.04465579, -0.077018574), (-0.21984154, 0.07225458, -0.44322565), (0.084237464, 0.04465579, -0.49082574), (-0.49201018, 0.04465579, 0.077018574), (-0.43994856, 0.07225458, -0.22632842), (-0.07635657, 0.4080443, 0.2786925), (0.08867858, 0.20752947, 0.44616994), (0.22772244, 0.3804455, 0.23109241), (0.4448192, 0.20752947, 0.09522287), (0.27978405, 0.4080443, -0.07225458), (0.22497767, 0.27978405, -0.3480028), (0.0078808945, 0.4527001, -0.21213324), (-0.2670325, 0.32443982, -0.2709842), (-0.21222611, 0.4527001, 0.004763992), (-0.35126996, 0.27978405, 0.21984154), (0.08259424, -0.49218044, -0.03060389), (0.10743064, -0.47599706, 0.109020464), (-0.031813823, -0.49218044, 0.08213578), (0.053324983, -0.49419442, 0.05411412), (0.3541901, -0.3120911, 0.16476801), (0.25196117, -0.40856665, 0.13996024), (0.32570264, -0.37875873, 0.021438556), (0.31554422, -0.37185657, 0.110247634), (0.016651955, -0.37875873, 0.32598242), (0.13624406, -0.40856665, 0.25398988), (0.1595475, -0.3120911, 0.35657218), (0.10560067, -0.37185657, 0.3171296), (0.16819797, -0.4388341, 0.17068708), (-0.1512344, -0.45252013, 0.14951153), (-0.17314468, -0.4689691, 0.00942912), (-0.12040295, -0.47842652, 0.081309244), (-0.096191436, -0.28887978, 0.3966052), (-0.12242099, -0.3850897, 0.29448092), (-0.06812726, -0.3560887, 0.34432474), (-0.36512533, -0.31605786, 0.12957978), (-0.26536894, -0.36161277, 0.22094238), (-0.33663785, -0.24939024, 0.27290925), (-0.32747525, -0.3134949, 0.21090499), (-0.18292221, -0.40696576, 0.22565094), (-0.26681194, -0.41453364, -0.08350599), (-0.1460839, -0.4546237, -0.14824574), (-0.19802861, -0.45291355, -0.07519296), (-0.45090795, -0.21183349, 0.04252772), (-0.3809465, -0.32362628, -0.012075141), (-0.4051009, -0.28798193, 0.05440279), (-0.29202598, -0.2773066, -0.29634756), (-0.35357606, -0.30911675, -0.17155409), (-0.40486938, -0.18742763, -0.22572477), (-0.35544324, -0.2616575, -0.23493712), (-0.33981085, -0.3554017, -0.09065447), (-0.079577744, -0.41453364, -0.26800978), (0.011971448, -0.4689691, -0.1729875), (-0.07227598, -0.45291355, -0.19911176), (-0.21975325, -0.18742763, -0.4081414), (-0.16634186, -0.30911675, -0.35605788), (-0.22969061, -0.2616575, -0.3588559), (0.13492918, -0.31605786, -0.36318251), (-0.0064780675, -0.32362628, -0.38108274), (0.049146574, -0.21183349, -0.4502346), (0.0603475, -0.28798193, -0.40425807), (-0.08565316, -0.3554017, -0.34110582), (0.15171689, -0.45252013, -0.1490219), (0.083069086, -0.47842652, -0.119195595), (0.2778247, -0.24939024, -0.33259276), (0.22481658, -0.36161277, -0.26209486), (0.21569256, -0.3134949, -0.3243419), (0.29624742, -0.3850897, -0.11808211), (0.3979754, -0.28887978, -0.09035528), (0.3452883, -0.3560887, -0.06306208), (0.22831355, -0.40696576, -0.17958786), (-0.30551195, -0.14709118, 0.36745968), (-0.40481424, -0.103963025, 0.27443963), (-0.3544366, -0.16941516, 0.30931082), (-0.023036955, -0.1666639, 0.47084227), (-0.16256401, -0.17056812, 0.44099826), (-0.09508863, -0.21200897, 0.44273058), (-0.2803564, 0.103963025, 0.40073928), (-0.23152046, -0.023476938, 0.44254616), (-0.13902554, 0.08075167, 0.47344595), (-0.22019511, 0.05485602, 0.4455389), (-0.23741363, -0.1157673, 0.42453822), (0.25596482, -0.2085546, 0.37548235), (0.1350184, -0.18100931, 0.4461005), (0.18600906, -0.23752193, 0.39872792), (0.4440691, -0.18100931, 0.14155665), (0.37168193, -0.2085546, 0.2614527), (0.3959526, -0.23752193, 0.19184595), (0.28792962, 0.042000398, 0.406611), (0.34687218, -0.07597297, 0.3520054), (0.4023377, 0.042000398, 0.2938713), (0.3509407, 0.0030186388, 0.35613412), (0.33071077, -0.16733137, 0.33560482), (0.4433386, -0.17056812, -0.1560686), (0.47112986, -0.1666639, -0.016118208), (0.44407958, -0.21200897, -0.08857504), (0.2803564, -0.103963025, -0.40073928), (0.37190774, -0.14709118, -0.30008134), (0.31448382, -0.16941516, -0.3498549), (0.47543705, 0.08075167, -0.13205603), (0.44589925, -0.023476938, -0.22499487), (0.40481424, 0.103963025, -0.27443963), (0.4487253, 0.05485602, -0.21362677), (0.42797983, -0.1157673, -0.23115192), (-0.0023348362, -0.08562776, -0.4926078), (0.13902554, -0.08075167, -0.47344595), (0.06313023, -0.12813431, -0.47916195), (-0.28792962, -0.042000398, -0.406611), (-0.16219863, -0.07111821, -0.46758294), (-0.22690788, -0.1018099, -0.43375978), (0.023036955, 0.1666639, -0.47084227), (-0.07129128, 0.06146342, -0.49105987), (-0.1350184, 0.18100931, -0.4461005), (-0.061976254, 0.13873067, -0.4763536), (-0.08002901, -0.032334894, -0.49249345), (-0.46514994, -0.07111821, -0.16904952), (-0.4023377, -0.042000398, -0.2938713), (-0.43037993, -0.1018099, -0.23325495), (-0.47543705, -0.08075167, 0.13205603), (-0.49252033, -0.08562776, -0.009570562), (-0.48003757, -0.12813431, 0.05608495), (-0.4440691, 0.18100931, -0.14155665), (-0.4899597, 0.06146342, -0.07849683), (-0.47112986, 0.1666639, 0.016118208), (-0.47539183, 0.13873067, -0.06896678), (-0.49126476, -0.032334894, -0.08725467), (-0.011971448, 0.4689691, 0.1729875), (0.079577744, 0.41453364, 0.26800978), (0.1460839, 0.4546237, 0.14824574), (0.07227598, 0.45291355, 0.19911176), (-0.049146574, 0.21183349, 0.4502346), (0.0064780675, 0.32362628, 0.38108274), (-0.13492918, 0.31605786, 0.36318251), (-0.0603475, 0.28798193, 0.40425807), (0.29202598, 0.2773066, 0.29634756), (0.16634186, 0.30911675, 0.35605788), (0.21975325, 0.18742763, 0.4081414), (0.22969061, 0.2616575, 0.3588559), (0.08565316, 0.3554017, 0.34110582), (0.26681194, 0.41453364, 0.08350599), (0.17314468, 0.4689691, -0.00942912), (0.19802861, 0.45291355, 0.07519296), (0.40486938, 0.18742763, 0.22572477), (0.35357606, 0.30911675, 0.17155409), (0.35544324, 0.2616575, 0.23493712), (0.36512533, 0.31605786, -0.12957978), (0.3809465, 0.32362628, 0.012075141), (0.45090795, 0.21183349, -0.04252772), (0.4051009, 0.28798193, -0.05440279), (0.33981085, 0.3554017, 0.09065447), (0.1512344, 0.45252013, -0.14951153), (0.031813823, 0.49218044, -0.08213578), (0.12040295, 0.47842652, -0.081309244), (0.33663785, 0.24939024, -0.27290925), (0.26536894, 0.36161277, -0.22094238), (0.32747525, 0.3134949, -0.21090499), (-0.016651955, 0.37875873, -0.32598242), (0.12242099, 0.3850897, -0.29448092), (0.096191436, 0.28887978, -0.3966052), (0.06812726, 0.3560887, -0.34432474), (0.18292221, 0.40696576, -0.22565094), (-0.10743064, 0.47599706, -0.109020464), (-0.08259424, 0.49218044, 0.03060389), (-0.053324983, 0.49419442, -0.05411412), (-0.1595475, 0.3120911, -0.35657218), (-0.13624406, 0.40856665, -0.25398988), (-0.10560067, 0.37185657, -0.3171296), (-0.32570264, 0.37875873, -0.021438556), (-0.25196117, 0.40856665, -0.13996024), (-0.3541901, 0.3120911, -0.16476801), (-0.31554422, 0.37185657, -0.110247634), (-0.16819797, 0.4388341, -0.17068708), (-0.15171689, 0.45252013, 0.1490219), (-0.083069086, 0.47842652, 0.119195595), (-0.3979754, 0.28887978, 0.09035528), (-0.29624742, 0.3850897, 0.11808211), (-0.3452883, 0.3560887, 0.06306208), (-0.22481658, 0.36161277, 0.26209486), (-0.2778247, 0.24939024, 0.33259276), (-0.21569256, 0.3134949, 0.3243419), (-0.22831355, 0.40696576, 0.17958786), (0.16219863, 0.07111821, 0.46758294), (0.22690788, 0.1018099, 0.43375978), (0.0023348362, 0.08562776, 0.4926078), (-0.06313023, 0.12813431, 0.47916195), (0.07129128, -0.06146342, 0.49105987), (0.061976254, -0.13873067, 0.4763536), (0.08002901, 0.032334894, 0.49249345), (0.49252033, 0.08562776, 0.009570562), (0.48003757, 0.12813431, -0.05608495), (0.46514994, 0.07111821, 0.16904952), (0.43037993, 0.1018099, 0.23325495), (0.4899597, -0.06146342, 0.07849683), (0.47539183, -0.13873067, 0.06896678), (0.49126476, 0.032334894, 0.08725467), (0.16256401, 0.17056812, -0.44099826), (0.09508863, 0.21200897, -0.44273058), (0.30551195, 0.14709118, -0.36745968), (0.3544366, 0.16941516, -0.30931082), (0.23152046, 0.023476938, -0.44254616), (0.22019511, -0.05485602, -0.4455389), (0.23741363, 0.1157673, -0.42453822), (-0.37168193, 0.2085546, -0.2614527), (-0.3959526, 0.23752193, -0.19184595), (-0.25596482, 0.2085546, -0.37548235), (-0.18600906, 0.23752193, -0.39872792), (-0.34687218, 0.07597297, -0.3520054), (-0.3509407, -0.0030186388, -0.35613412), (-0.33071077, 0.16733137, -0.33560482), (-0.37190774, 0.14709118, 0.30008134), (-0.31448382, 0.16941516, 0.3498549), (-0.4433386, 0.17056812, 0.1560686), (-0.44407958, 0.21200897, 0.08857504), (-0.44589925, 0.023476938, 0.22499487), (-0.4487253, -0.05485602, 0.21362677), (-0.42797983, 0.1157673, 0.23115192)]
        vector3f[] primvars:D0 = [(-0.106649965, -0.98838884, -0.10822824), (-0.8453441, -0.4000241, 0.3540819), (0.8453441, 0.4000241, -0.3540819), (0.106649965, 0.98838884, 0.10822824), (0.6681991, 0.30611634, 0.67808753), (0.07983441, -0.55197, 0.8300335), (-0.07983441, 0.55197, -0.8300335), (-0.6681991, -0.30611634, -0.67808753), (-0.82877123, 0.55197, -0.09201826), (-0.36646107, 0.4000241, 0.8400518), (0.36646107, -0.4000241, -0.8400518), (0.82877123, -0.55197, 0.09201826), (0.42445222, -0.9054002, -0.009527984), (0.534065, -0.64887965, 0.5419684), (-0.015761789, -0.9054002, 0.4242665), (-0.44995534, -0.5595681, 0.6960056), (-0.55956817, -0.8160887, 0.14450918), (-0.8896384, -0.41505894, -0.19044574), (-0.45544487, -0.760891, -0.46218482), (-0.17735717, -0.41505894, -0.8923399), (0.15271315, -0.8160887, -0.5573851), (0.7025399, -0.5595681, -0.43968308), (-0.16847493, -0.08931158, 0.9816515), (-0.7122812, 3.6073931e-16, 0.70189416), (0.8798971, -0.14450917, 0.45265684), (0.43968308, -0.14450917, 0.8864513), (0.7122812, -3.6073931e-16, -0.70189416), (0.98402035, -0.08931158, -0.15403715), (-0.43968308, 0.14450917, -0.8864513), (0.16847493, 0.08931158, -0.9816515), (-0.98402035, 0.08931158, 0.15403715), (-0.8798971, 0.14450917, -0.45265684), (-0.15271315, 0.8160887, 0.5573851), (0.17735717, 0.41505894, 0.8923399), (0.45544487, 0.760891, 0.46218482), (0.8896384, 0.41505894, 0.19044574), (0.55956817, 0.8160887, -0.14450918), (0.44995534, 0.5595681, -0.6960056), (0.015761789, 0.9054002, -0.4242665), (-0.534065, 0.64887965, -0.5419684), (-0.42445222, 0.9054002, 0.009527984), (-0.7025399, 0.5595681, 0.43968308), (0.16518849, -0.98436093, -0.061207782), (0.21486127, -0.9519941, 0.21804093), (-0.06362765, -0.98436093, 0.16427158), (0.106649965, -0.98838884, 0.10822824), (0.7083802, -0.6241822, 0.32953602), (0.50392234, -0.8171333, 0.2799205), (0.6514053, -0.75751746, 0.04287711), (0.6310885, -0.7437132, 0.22049528), (0.03330391, -0.75751746, 0.65196484), (0.27248812, -0.8171333, 0.50797975), (0.31909502, -0.6241823, 0.7131444), (0.21120134, -0.74371314, 0.6342592), (0.33639595, -0.8776682, 0.34137416), (-0.3024688, -0.90504026, 0.29902306), (-0.34628937, -0.9379382, 0.01885824), (-0.24080591, -0.9568531, 0.1626185), (-0.19238287, -0.57775956, 0.7932104), (-0.24484198, -0.7701794, 0.58896184), (-0.13625452, -0.7121774, 0.6886495), (-0.73025066, -0.6321157, 0.25915956), (-0.5307379, -0.72322553, 0.44188476), (-0.6732757, -0.4987805, 0.5458185), (-0.6549505, -0.6269898, 0.42180997), (-0.36584443, -0.8139315, 0.45130187), (-0.5336239, -0.8290673, -0.16701198), (-0.2921678, -0.9092474, -0.29649147), (-0.39605725, -0.90582716, -0.15038593), (-0.9018159, -0.42366698, 0.08505544), (-0.761893, -0.64725256, -0.024150282), (-0.8102018, -0.57596385, 0.10880558), (-0.58405197, -0.5546132, -0.5926951), (-0.7071521, -0.6182335, -0.34310818), (-0.80973876, -0.37485525, -0.45144954), (-0.7108865, -0.523315, -0.46987423), (-0.6796217, -0.7108034, -0.18130894), (-0.15915549, -0.8290673, -0.53601956), (0.023942895, -0.9379382, -0.345975), (-0.14455198, -0.90582716, -0.39822355), (-0.4395065, -0.37485525, -0.8162828), (-0.3326837, -0.6182335, -0.71211576), (-0.45938122, -0.523315, -0.7177118), (0.2698584, -0.6321158, -0.7263651), (-0.012956135, -0.64725256, -0.7621655), (0.09829315, -0.42366698, -0.9004692), (0.120695, -0.57596385, -0.80851614), (-0.17130633, -0.7108034, -0.68221164), (0.30343378, -0.90504026, -0.2980438), (0.16613819, -0.9568531, -0.2383912), (0.5556494, -0.4987805, -0.6651855), (0.44963315, -0.72322553, -0.5241897), (0.43138513, -0.6269898, -0.6486838), (0.59249485, -0.7701794, -0.23616423), (0.7959508, -0.57775956, -0.18071055), (0.6905766, -0.7121774, -0.12612416), (0.4566271, -0.8139315, -0.3591757), (-0.61102396, -0.2941824, 0.7349194), (-0.80962855, -0.20792606, 0.5488793), (-0.7088732, -0.33883032, 0.61862165), (-0.04607391, -0.3333278, 0.94168454), (-0.32512802, -0.34113625, 0.8819965), (-0.19017726, -0.42401794, 0.88546115), (-0.5607128, 0.20792605, 0.80147856), (-0.46304092, -0.046953876, 0.8850923), (-0.27805108, 0.16150334, 0.9468919), (-0.44039023, 0.10971204, 0.8910778), (-0.47482726, -0.2315346, 0.84907645), (0.51192963, -0.4171092, 0.7509647), (0.2700368, -0.36201862, 0.892201), (0.37201813, -0.47504386, 0.79745585), (0.8881382, -0.36201862, 0.2831133), (0.74336386, -0.4171092, 0.5229054), (0.7919052, -0.47504386, 0.3836919), (0.57585925, 0.084000796, 0.813222), (0.69374436, -0.15194593, 0.7040108), (0.8046754, 0.084000796, 0.5877426), (0.7018814, 0.0060372776, 0.71226823), (0.6614216, -0.33466277, 0.6712097), (0.8866772, -0.34113625, -0.3121372), (0.9422597, -0.3333278, -0.032236416), (0.88815916, -0.42401794, -0.17715009), (0.5607128, -0.20792605, -0.80147856), (0.7438155, -0.29418236, -0.6001627), (0.62896764, -0.33883032, -0.6997098), (0.9508741, 0.16150334, -0.26411206), (0.89179856, -0.04695388, -0.44998977), (0.80962855, 0.20792606, -0.5488793), (0.8974507, 0.10971205, -0.42725357), (0.85595965, -0.2315346, -0.46230385), (-0.0046696723, -0.17125551, -0.9852156), (0.27805108, -0.16150334, -0.9468919), (0.12626046, -0.25626862, -0.9583239), (-0.57585925, -0.084000796, -0.813222), (-0.32439727, -0.14223643, -0.9351659), (-0.4538158, -0.20361981, -0.8675196), (0.04607391, 0.3333278, -0.94168454), (-0.14258257, 0.12292684, -0.98211974), (-0.2700368, 0.36201862, -0.892201), (-0.12395251, 0.27746135, -0.9527072), (-0.16005804, -0.064669795, -0.98498696), (-0.9302999, -0.14223643, -0.33809903), (-0.8046754, -0.084000796, -0.5877426), (-0.86075985, -0.2036198, -0.4665099), (-0.9508741, -0.16150334, 0.26411206), (-0.9850407, -0.17125553, -0.019141126), (-0.9600752, -0.25626865, 0.11216991), (-0.8881382, 0.36201862, -0.2831133), (-0.9799194, 0.12292684, -0.15699366), (-0.9422597, 0.3333278, 0.032236416), (-0.95078367, 0.27746135, -0.13793357), (-0.9825296, -0.064669795, -0.17450936), (-0.023942895, 0.9379382, 0.345975), (0.15915549, 0.8290673, 0.53601956), (0.2921678, 0.9092474, 0.29649147), (0.14455198, 0.90582716, 0.39822355), (-0.09829315, 0.42366698, 0.9004692), (0.012956135, 0.64725256, 0.7621655), (-0.2698584, 0.6321158, 0.7263651), (-0.120695, 0.57596385, 0.80851614), (0.58405197, 0.5546132, 0.5926951), (0.3326837, 0.6182335, 0.71211576), (0.4395065, 0.37485525, 0.8162828), (0.45938122, 0.523315, 0.7177118), (0.17130633, 0.7108034, 0.68221164), (0.5336239, 0.8290673, 0.16701198), (0.34628937, 0.9379382, -0.01885824), (0.39605725, 0.90582716, 0.15038593), (0.80973876, 0.37485525, 0.45144954), (0.7071521, 0.6182335, 0.34310818), (0.7108865, 0.523315, 0.46987423), (0.73025066, 0.6321157, -0.25915956), (0.761893, 0.64725256, 0.024150282), (0.9018159, 0.42366698, -0.08505544), (0.8102018, 0.57596385, -0.10880558), (0.6796217, 0.7108034, 0.18130894), (0.3024688, 0.90504026, -0.29902306), (0.06362765, 0.98436093, -0.16427158), (0.24080591, 0.9568531, -0.1626185), (0.6732757, 0.4987805, -0.5458185), (0.5307379, 0.72322553, -0.44188476), (0.6549505, 0.6269898, -0.42180997), (-0.03330391, 0.75751746, -0.65196484), (0.24484198, 0.7701794, -0.58896184), (0.19238287, 0.57775956, -0.7932104), (0.13625452, 0.7121774, -0.6886495), (0.36584443, 0.8139315, -0.45130187), (-0.21486127, 0.9519941, -0.21804093), (-0.16518849, 0.98436093, 0.061207782), (-0.106649965, 0.98838884, -0.10822824), (-0.31909502, 0.6241823, -0.7131444), (-0.27248812, 0.8171333, -0.50797975), (-0.21120134, 0.74371314, -0.6342592), (-0.6514053, 0.75751746, -0.04287711), (-0.50392234, 0.8171333, -0.2799205), (-0.7083802, 0.6241822, -0.32953602), (-0.6310885, 0.7437132, -0.22049528), (-0.33639595, 0.8776682, -0.34137416), (-0.30343378, 0.90504026, 0.2980438), (-0.16613819, 0.9568531, 0.2383912), (-0.7959508, 0.57775956, 0.18071055), (-0.59249485, 0.7701794, 0.23616423), (-0.6905766, 0.7121774, 0.12612416), (-0.44963315, 0.72322553, 0.5241897), (-0.5556494, 0.4987805, 0.6651855), (-0.43138513, 0.6269898, 0.6486838), (-0.4566271, 0.8139315, 0.3591757), (0.32439727, 0.14223643, 0.9351659), (0.4538158, 0.20361981, 0.8675196), (0.0046696723, 0.17125551, 0.9852156), (-0.12626046, 0.25626862, 0.9583239), (0.14258257, -0.12292684, 0.98211974), (0.12395251, -0.27746135, 0.9527072), (0.16005804, 0.064669795, 0.98498696), (0.9850407, 0.17125553, 0.019141126), (0.9600752, 0.25626865, -0.11216991), (0.9302999, 0.14223643, 0.33809903), (0.86075985, 0.2036198, 0.4665099), (0.9799194, -0.12292684, 0.15699366), (0.95078367, -0.27746135, 0.13793357), (0.9825296, 0.064669795, 0.17450936), (0.32512802, 0.34113625, -0.8819965), (0.19017726, 0.42401794, -0.88546115), (0.61102396, 0.2941824, -0.7349194), (0.7088732, 0.33883032, -0.61862165), (0.46304092, 0.046953876, -0.8850923), (0.44039023, -0.10971204, -0.8910778), (0.47482726, 0.2315346, -0.84907645), (-0.74336386, 0.4171092, -0.5229054), (-0.7919052, 0.47504386, -0.3836919), (-0.51192963, 0.4171092, -0.7509647), (-0.37201813, 0.47504386, -0.79745585), (-0.69374436, 0.15194593, -0.7040108), (-0.7018814, -0.0060372776, -0.71226823), (-0.6614216, 0.33466277, -0.6712097), (-0.7438155, 0.29418236, 0.6001627), (-0.62896764, 0.33883032, 0.6997098), (-0.8866772, 0.34113625, 0.3121372), (-0.88815916, 0.42401794, 0.17715009), (-0.89179856, 0.04695388, 0.44998977), (-0.8974507, -0.10971205, 0.42725357), (-0.85595965, 0.2315346, 0.46230385)] (
            interpolation = "vertex"
        )
        float[] primvars:material = [189655170, 189655170, 189655170, 155172420, 155172420, 155172420, 17241380, 17241380, 17241380, 700, 0.15, 189655170, 189655170, 189655170, 155172420, 155172420, 155172420, 17241380, 17241380, 17241380, 700, 0.15, 189655170, 189655170, 189655170, 155172420, 155172420, 155172420, 17241380, 17241380, 17241380, 700, 0.15, 189655170, 189655170, 189655170, 155172420, 155172420, 155172420, 17241380, 17241380, 17241380, 700, 0.15, 189655170, 189655170, 189655170, 155172420, 155172420, 155172420, 17241380, 17241380, 17241380, 700, 0.15, 189655170, 189655170, 189655170, 155172420, 155172420, 155172420, 17241380, 17241380, 17241380, 700, 0.15, 189655170, 189655170, 189655170, 155172420, 155172420, 155172420, 17241380, 17241380, 17241380, 700, 0.15, 189655170, 189655170, 189655170, 155172420, 155172420, 155172420, 17241380, 17241380, 17241380, 700, 0.15, 189655170, 189655170, 189655170, 155172420, 155172420, 155172420, 17241380, 17241380, 17241380, 700, 0.15, 189655170, 189655170, 189655170, 155172420, 155172420, 155172420, 17241380, 17241380, 17241380, 700, 0.15, 189655170, 189655170, 189655170, 155172420, 155172420, 155172420, 17241380, 17241380, 17241380, 700, 0.15, 189655170, 189655170, 189655170, 155172420, 155172420, 155172420, 17241380, 17241380, 17241380, 700, 0.15, 189655170, 189655170, 189655170, 155172420, 155172420, 155172420, 17241380, 17241380, 17241380, 700, 0.15, 189655170, 189655170, 189655170, 155172420, 155172420, 155172420, 17241380, 17241380, 17241380, 700, 0.15, 189655170, 189655170, 189655170, 155172420, 155172420, 155172420, 17241380, 17241380, 17241380, 700, 0.15, 189655170, 189655170, 189655170, 155172420, 155172420, 155172420, 17241380, 17241380, 17241380, 700, 0.15, 189655170, 189655170, 189655170, 155172420, 155172420, 155172420, 17241380, 17241380, 17241380, 700, 0.15, 189655170, 189655170, 189655170, 155172420, 155172420, 155172420, 17241380, 17241380, 17241380, 700, 0.15, 189655170, 189655170, 189655170, 155172420, 155172420, 155172420, 17241380, 17241380, 17241380, 700, 0.15, 189655170, 189655170, 189655170, 155172420, 155172420, 155172420, 17241380, 17241380, 17241380, 700, 0.15, 189655170, 189655170, 189655170, 155172420, 155172420, 155172420, 17241380, 17241380, 17241380, 700, 0.15, 189655170, 189655170, 189655170, 155172420, 155172420, 155172420, 17241380, 17241380, 17241380, 700, 0.15, 189655170, 189655170, 189655170, 155172420, 155172420, 155172420, 17241380, 17241380, 17241380, 700, 0.15, 189655170, 189655170, 189655170, 155172420, 155172420, 155172420, 17241380, 17241380, 17241380, 700, 0.15, 189655170, 189655170, 189655170, 155172420, 155172420, 155172420, 17241380, 17241380, 17241380, 700, 0.15, 189655170, 189655170, 189655170, 155172420, 155172420, 155172420, 17241380, 17241380, 17241380, 700, 0.15, 189655170, 189655170, 189655170, 155172420, 155172420, 155172420, 17241380, 17241380, 17241380, 700, 0.15, 189655170, 189655170, 189655170, 155172420, 155172420, 155172420, 17241380, 17241380, 17241380, 700, 0.15, 189655170, 189655170, 189655170, 155172420, 155172420, 155172420, 17241380, 17241380, 17241380, 700, 0.15, 189655170, 189655170, 189655170, 155172420, 155172420, 155172420, 17241380, 17241380, 17241380, 700, 0.15, 189655170, 189655170, 189655170, 155172420, 155172420, 155172420, 17241380, 17241380, 17241380, 700, 0.15, 189655170, 189655170, 189655170, 155172420, 155172420, 155172420, 17241380, 17241380, 17241380, 700, 0.15, 189655170, 189655170, 189655170, 155172420, 155172420, 155172420, 17241380, 17241380, 17241380, 700, 0.15, 189655170, 189655170, 189655170, 155172420, 155172420, 155172420, 17241380, 17241380, 17241380, 700, 0.15, 189655170, 189655170, 189655170, 155172420, 155172420, 155172420, 17241380, 17241380, 17241380, 700, 0.15, 189655170, 189655170, 189655170, 155172420, 155172420, 155172420, 17241380, 17241380, 17241380, 700, 0.15, 189655170, 189655170, 189655170, 155172420, 155172420, 155172420, 17241380, 17241380, 17241380, 700, 0.15, 189655170, 189655170, 189655170, 155172420, 155172420, 155172420, 17241380, 17241380, 17241380, 700, 0.15, 189655170, 189655170, 189655170, 155172420, 155172420, 155172420, 17241380, 17241380, 17241380, 700, 0.15, 189655170, 189655170, 189655170, 155172420, 155172420, 155172420, 17241380, 17241380, 17241380, 700, 0.15, 189655170, 189655170, 189655170, 155172420, 155172420, 155172420, 17241380, 17241380, 17241380, 700, 0.15, 189655170, 189655170, 189655170, 155172420, 155172420, 155172420, 17241380, 17241380, 17241380, 700, 0.15, 189655170, 189655170, 189655170, 155172420, 155172420, 155172420, 17241380, 17241380, 17241380, 700, 0.15, 189655170, 189655170, 189655170, 155172420, 155172420, 155172420, 17241380, 17241380, 17241380, 700, 0.15, 189655170, 189655170, 189655170, 155172420, 155172420, 155172420, 17241380, 17241380, 17241380, 700, 0.15, 189655170, 189655170, 189655170, 155172420, 155172420, 155172420, 17241380, 17241380, 17241380, 700, 0.15, 189655170, 189655170, 189655170, 155172420, 155172420, 155172420, 17241380, 17241380, 17241380, 700, 0.15, 189655170, 189655170, 189655170, 155172420, 155172420, 155172420, 17241380, 17241380, 17241380, 700, 0.15, 189655170, 189655170, 189655170, 155172420, 155172420, 155172420, 17241380, 17241380, 17241380, 700, 0.15, 189655170, 189655170, 189655170, 155172420, 155172420, 155172420, 17241380, 17241380, 17241380, 700, 0.15, 189655170, 189655170, 189655170, 155172420, 155172420, 155172420, 17241380, 17241380, 17241380, 700, 0.15, 189655170, 189655170, 189655170, 155172420, 155172420, 155172420, 17241380, 17241380, 17241380, 700, 0.15, 189655170, 189655170, 189655170, 155172420, 155172420, 155172420, 17241380, 17241380, 17241380, 700, 0.15, 189655170, 189655170, 189655170, 155172420, 155172420, 155172420, 17241380, 17241380, 17241380, 700, 0.15, 189655170, 189655170, 189655170, 155172420, 155172420, 155172420, 17241380, 17241380, 17241380, 700, 0.15, 189655170, 189655170, 189655170, 155172420, 155172420, 155172420, 17241380, 17241380, 17241380, 700, 0.15, 189655170, 189655170, 189655170, 155172420, 155172420, 155172420, 17241380, 17241380, 17241380, 700, 0.15, 189655170, 189655170, 189655170, 155172420, 155172420, 155172420, 17241380, 17241380, 17241380, 700, 0.15, 189655170, 189655170, 189655170, 155172420, 155172420, 155172420, 17241380, 17241380, 17241380, 700, 0.15, 189655170, 189655170, 189655170, 155172420, 155172420, 155172420, 17241380, 17241380, 17241380, 700, 0.15, 189655170, 189655170, 189655170, 155172420, 155172420, 155172420, 17241380, 17241380, 17241380, 700, 0.15, 189655170, 189655170, 189655170, 155172420, 155172420, 155172420, 17241380, 17241380, 17241380, 700, 0.15, 189655170, 189655170, 189655170, 155172420, 155172420, 155172420, 17241380, 17241380, 17241380, 700, 0.15, 189655170, 189655170, 189655170, 155172420, 155172420, 155172420, 17241380, 17241380, 17241380, 700, 0.15, 189655170, 189655170, 189655170, 155172420, 155172420, 155172420, 17241380, 17241380, 17241380, 700, 0.15, 189655170, 189655170, 189655170, 155172420, 155172420, 155172420, 17241380, 17241380, 17241380, 700, 0.15, 189655170, 189655170, 189655170, 155172420, 155172420, 155172420, 17241380, 17241380, 17241380, 700, 0.15, 189655170, 189655170, 189655170, 155172420, 155172420, 155172420, 17241380, 17241380, 17241380, 700, 0.15, 189655170, 189655170, 189655170, 155172420, 155172420, 155172420, 17241380, 17241380, 17241380, 700, 0.15, 189655170, 189655170, 189655170, 155172420, 155172420, 155172420, 17241380, 17241380, 17241380, 700, 0.15, 189655170, 189655170, 189655170, 155172420, 155172420, 155172420, 17241380, 17241380, 17241380, 700, 0.15, 189655170, 189655170, 189655170, 155172420, 155172420, 155172420, 17241380, 17241380, 17241380, 700, 0.15, 189655170, 189655170, 189655170, 155172420, 155172420, 155172420, 17241380, 17241380, 17241380, 700, 0.15, 189655170, 189655170, 189655170, 155172420, 155172420, 155172420, 17241380, 17241380, 17241380, 700, 0.15, 189655170, 189655170, 189655170, 155172420, 155172420, 155172420, 17241380, 17241380, 17241380, 700, 0.15, 189655170, 189655170, 189655170, 155172420, 155172420, 155172420, 17241380, 17241380, 17241380, 700, 0.15, 189655170, 189655170, 189655170, 155172420, 155172420, 155172420, 17241380, 17241380, 17241380, 700, 0.15, 189655170, 189655170, 189655170, 155172420, 155172420, 155172420, 17241380, 17241380, 17241380, 700, 0.15, 189655170, 189655170, 189655170, 155172420, 155172420, 155172420, 17241380, 17241380, 17241380, 700, 0.15, 189655170, 189655170, 189655170, 155172420, 155172420, 155172420, 17241380, 17241380, 17241380, 700, 0.15, 189655170, 189655170, 189655170, 155172420, 155172420, 155172420, 17241380, 17241380, 17241380, 700, 0.15, 189655170, 189655170, 189655170, 155172420, 155172420, 155172420, 17241380, 17241380, 17241380, 700, 0.15, 189655170, 189655170, 189655170, 155172420, 155172420, 155172420, 17241380, 17241380, 17241380, 700, 0.15, 189655170, 189655170, 189655170, 155172420, 155172420, 155172420, 17241380, 17241380, 17241380, 700, 0.15, 189655170, 189655170, 189655170, 155172420, 155172420, 155172420, 17241380, 17241380, 17241380, 700, 0.15, 189655170, 189655170, 189655170, 155172420, 155172420, 155172420, 17241380, 17241380, 17241380, 700, 0.15, 189655170, 189655170, 189655170, 155172420, 155172420, 155172420, 17241380, 17241380, 17241380, 700, 0.15, 189655170, 189655170, 189655170, 155172420, 155172420, 155172420, 17241380, 17241380, 17241380, 700, 0.15, 189655170, 189655170, 189655170, 155172420, 155172420, 155172420, 17241380, 17241380, 17241380, 700, 0.15, 189655170, 189655170, 189655170, 155172420, 155172420, 155172420, 17241380, 17241380, 17241380, 700, 0.15, 189655170, 189655170, 189655170, 155172420, 155172420, 155172420, 17241380, 17241380, 17241380, 700, 0.15, 189655170, 189655170, 189655170, 155172420, 155172420, 155172420, 17241380, 17241380, 17241380, 700, 0.15, 189655170, 189655170, 189655170, 155172420, 155172420, 155172420, 17241380, 17241380, 17241380, 700, 0.15, 189655170, 189655170, 189655170, 155172420, 155172420, 155172420, 17241380, 17241380, 17241380, 700, 0.15, 189655170, 189655170, 189655170, 155172420, 155172420, 155172420, 17241380, 17241380, 17241380, 700, 0.15, 189655170, 189655170, 189655170, 155172420, 155172420, 155172420, 17241380, 17241380, 17241380, 700, 0.15, 189655170, 189655170, 189655170, 155172420, 155172420, 155172420, 17241380, 17241380, 17241380, 700, 0.15, 189655170, 189655170, 189655170, 155172420, 155172420, 155172420, 17241380, 17241380, 17241380, 700, 0.15, 189655170, 189655170, 189655170, 155172420, 155172420, 155172420, 17241380, 17241380, 17241380, 700, 0.15, 189655170, 189655170, 189655170, 155172420, 155172420, 155172420, 17241380, 17241380, 17241380, 700, 0.15, 189655170, 189655170, 189655170, 155172420, 155172420, 155172420, 17241380, 17241380, 17241380, 700, 0.15, 189655170, 189655170, 189655170, 155172420, 155172420, 155172420, 17241380, 17241380, 17241380, 700, 0.15, 189655170, 189655170, 189655170, 155172420, 155172420, 155172420, 17241380, 17241380, 17241380, 700, 0.15, 189655170, 189655170, 189655170, 155172420, 155172420, 155172420, 17241380, 17241380, 17241380, 700, 0.15, 189655170, 189655170, 189655170, 155172420, 155172420, 155172420, 17241380, 17241380, 17241380, 700, 0.15, 189655170, 189655170, 189655170, 155172420, 155172420, 155172420, 17241380, 17241380, 17241380, 700, 0.15, 189655170, 189655170, 189655170, 155172420, 155172420, 155172420, 17241380, 17241380, 17241380, 700, 0.15, 189655170, 189655170, 189655170, 155172420, 155172420, 155172420, 17241380, 17241380, 17241380, 700, 0.15, 189655170, 189655170, 189655170, 155172420, 155172420, 155172420, 17241380, 17241380, 17241380, 700, 0.15, 189655170, 189655170, 189655170, 155172420, 155172420, 155172420, 17241380, 17241380, 17241380, 700, 0.15, 189655170, 189655170, 189655170, 155172420, 155172420, 155172420, 17241380, 17241380, 17241380, 700, 0.15, 189655170, 189655170, 189655170, 155172420, 155172420, 155172420, 17241380, 17241380, 17241380, 700, 0.15, 189655170, 189655170, 189655170, 155172420, 155172420, 155172420, 17241380, 17241380, 17241380, 700, 0.15, 189655170, 189655170, 189655170, 155172420, 155172420, 155172420, 17241380, 17241380, 17241380, 700, 0.15, 189655170, 189655170, 189655170, 155172420, 155172420, 155172420, 17241380, 17241380, 17241380, 700, 0.15, 189655170, 189655170, 189655170, 155172420, 155172420, 155172420, 17241380, 17241380, 17241380, 700, 0.15, 189655170, 189655170, 189655170, 155172420, 155172420, 155172420, 17241380, 17241380, 17241380, 700, 0.15, 189655170, 189655170, 189655170, 155172420, 155172420, 155172420, 17241380, 17241380, 17241380, 700, 0.15, 189655170, 189655170, 189655170, 155172420, 155172420, 155172420, 17241380, 17241380, 17241380, 700, 0.15, 189655170, 189655170, 189655170, 155172420, 155172420, 155172420, 17241380, 17241380, 17241380, 700, 0.15, 189655170, 189655170, 189655170, 155172420, 155172420, 155172420, 17241380, 17241380, 17241380, 700, 0.15, 189655170, 189655170, 189655170, 155172420, 155172420, 155172420, 17241380, 17241380, 17241380, 700, 0.15, 189655170, 189655170, 189655170, 155172420, 155172420, 155172420, 17241380, 17241380, 17241380, 700, 0.15, 189655170, 189655170, 189655170, 155172420, 155172420, 155172420, 17241380, 17241380, 17241380, 700, 0.15, 189655170, 189655170, 189655170, 155172420, 155172420, 155172420, 17241380, 17241380, 17241380, 700, 0.15, 189655170, 189655170, 189655170, 155172420, 155172420, 155172420, 17241380, 17241380, 17241380, 700, 0.15, 189655170, 189655170, 189655170, 155172420, 155172420, 155172420, 17241380, 17241380, 17241380, 700, 0.15, 189655170, 189655170, 189655170, 155172420, 155172420, 155172420, 17241380, 17241380, 17241380, 700, 0.15, 189655170, 189655170, 189655170, 155172420, 155172420, 155172420, 17241380, 17241380, 17241380, 700, 0.15, 189655170, 189655170, 189655170, 155172420, 155172420, 155172420, 17241380, 17241380, 17241380, 700, 0.15, 189655170, 189655170, 189655170, 155172420, 155172420, 155172420, 17241380, 17241380, 17241380, 700, 0.15, 189655170, 189655170, 189655170, 155172420, 155172420, 155172420, 17241380, 17241380, 17241380, 700, 0.15, 189655170, 189655170, 189655170, 155172420, 155172420, 155172420, 17241380, 17241380, 17241380, 700, 0.15, 189655170, 189655170, 189655170, 155172420, 155172420, 155172420, 17241380, 17241380, 17241380, 700, 0.15, 189655170, 189655170, 189655170, 155172420, 155172420, 155172420, 17241380, 17241380, 17241380, 700, 0.15, 189655170, 189655170, 189655170, 155172420, 155172420, 155172420, 17241380, 17241380, 17241380, 700, 0.15, 189655170, 189655170, 189655170, 155172420, 155172420, 155172420, 17241380, 17241380, 17241380, 700, 0.15, 189655170, 189655170, 189655170, 155172420, 155172420, 155172420, 17241380, 17241380, 17241380, 700, 0.15, 189655170, 189655170, 189655170, 155172420, 155172420, 155172420, 17241380, 17241380, 17241380, 700, 0.15, 189655170, 189655170, 189655170, 155172420, 155172420, 155172420, 17241380, 17241380, 17241380, 700, 0.15, 189655170, 189655170, 189655170, 155172420, 155172420, 155172420, 17241380, 17241380, 17241380, 700, 0.15, 189655170, 189655170, 189655170, 155172420, 155172420, 155172420, 17241380, 17241380, 17241380, 700, 0.15, 189655170, 189655170, 189655170, 155172420, 155172420, 155172420, 17241380, 17241380, 17241380, 700, 0.15, 189655170, 189655170, 189655170, 155172420, 155172420, 155172420, 17241380, 17241380, 17241380, 700, 0.15, 189655170, 189655170, 189655170, 155172420, 155172420, 155172420, 17241380, 17241380, 17241380, 700, 0.15, 189655170, 189655170, 189655170, 155172420, 155172420, 155172420, 17241380, 17241380, 17241380, 700, 0.15, 189655170, 189655170, 189655170, 155172420, 155172420, 155172420, 17241380, 17241380, 17241380, 700, 0.15, 189655170, 189655170, 189655170, 155172420, 155172420, 155172420, 17241380, 17241380, 17241380, 700, 0.15, 189655170, 189655170, 189655170, 155172420, 155172420, 155172420, 17241380, 17241380, 17241380, 700, 0.15, 189655170, 189655170, 189655170, 155172420, 155172420, 155172420, 17241380, 17241380, 17241380, 700, 0.15, 189655170, 189655170, 189655170, 155172420, 155172420, 155172420, 17241380, 17241380, 17241380, 700, 0.15, 189655170, 189655170, 189655170, 155172420, 155172420, 155172420, 17241380, 17241380, 17241380, 700, 0.15, 189655170, 189655170, 189655170, 155172420, 155172420, 155172420, 17241380, 17241380, 17241380, 700, 0.15, 189655170, 189655170, 189655170, 155172420, 155172420, 155172420, 17241380, 17241380, 17241380, 700, 0.15, 189655170, 189655170, 189655170, 155172420, 155172420, 155172420, 17241380, 17241380, 17241380, 700, 0.15, 189655170, 189655170, 189655170, 155172420, 155172420, 155172420, 17241380, 17241380, 17241380, 700, 0.15, 189655170, 189655170, 189655170, 155172420, 155172420, 155172420, 17241380, 17241380, 17241380, 700, 0.15, 189655170, 189655170, 189655170, 155172420, 155172420, 155172420, 17241380, 17241380, 17241380, 700, 0.15, 189655170, 189655170, 189655170, 155172420, 155172420, 155172420, 17241380, 17241380, 17241380, 700, 0.15, 189655170, 189655170, 189655170, 155172420, 155172420, 155172420, 17241380, 17241380, 17241380, 700, 0.15, 189655170, 189655170, 189655170, 155172420, 155172420, 155172420, 17241380, 17241380, 17241380, 700, 0.15, 189655170, 189655170, 189655170, 155172420, 155172420, 155172420, 17241380, 17241380, 17241380, 700, 0.15, 189655170, 189655170, 189655170, 155172420, 155172420, 155172420, 17241380, 17241380, 17241380, 700, 0.15, 189655170, 189655170, 189655170, 155172420, 155172420, 155172420, 17241380, 17241380, 17241380, 700, 0.15, 189655170, 189655170, 189655170, 155172420, 155172420, 155172420, 17241380, 17241380, 17241380, 700, 0.15, 189655170, 189655170, 189655170, 155172420, 155172420, 155172420, 17241380, 17241380, 17241380, 700, 0.15, 189655170, 189655170, 189655170, 155172420, 155172420, 155172420, 17241380, 17241380, 17241380, 700, 0.15, 189655170, 189655170, 189655170, 155172420, 155172420, 155172420, 17241380, 17241380, 17241380, 700, 0.15, 189655170, 189655170, 189655170, 155172420, 155172420, 155172420, 17241380, 17241380, 17241380, 700, 0.15, 189655170, 189655170, 189655170, 155172420, 155172420, 155172420, 17241380, 17241380, 17241380, 700, 0.15, 189655170, 189655170, 189655170, 155172420, 155172420, 155172420, 17241380, 17241380, 17241380, 700, 0.15, 189655170, 189655170, 189655170, 155172420, 155172420, 155172420, 17241380, 17241380, 17241380, 700, 0.15, 189655170, 189655170, 189655170, 155172420, 155172420, 155172420, 17241380, 17241380, 17241380, 700, 0.15, 189655170, 189655170, 189655170, 155172420, 155172420, 155172420, 17241380, 17241380, 17241380, 700, 0.15, 189655170, 189655170, 189655170, 155172420, 155172420, 155172420, 17241380, 17241380, 17241380, 700, 0.15, 189655170, 189655170, 189655170, 155172420, 155172420, 155172420, 17241380, 17241380, 17241380, 700, 0.15, 189655170, 189655170, 189655170, 155172420, 155172420, 155172420, 17241380, 17241380, 17241380, 700, 0.15, 189655170, 189655170, 189655170, 155172420, 155172420, 155172420, 17241380, 17241380, 17241380, 700, 0.15, 189655170, 189655170, 189655170, 155172420, 155172420, 155172420, 17241380, 17241380, 17241380, 700, 0.15, 189655170, 189655170, 189655170, 155172420, 155172420, 155172420, 17241380, 17241380, 17241380, 700, 0.15, 189655170, 189655170, 189655170, 155172420, 155172420, 155172420, 17241380, 17241380, 17241380, 700, 0.15, 189655170, 189655170, 189655170, 155172420, 155172420, 155172420, 17241380, 17241380, 17241380, 700, 0.15, 189655170, 189655170, 189655170, 155172420, 155172420, 155172420, 17241380, 17241380, 17241380, 700, 0.15, 189655170, 189655170, 189655170, 155172420, 155172420, 155172420, 17241380, 17241380, 17241380, 700, 0.15, 189655170, 189655170, 189655170, 155172420, 155172420, 155172420, 17241380, 17241380, 17241380, 700, 0.15, 189655170, 189655170, 189655170, 155172420, 155172420, 155172420, 17241380, 17241380, 17241380, 700, 0.15, 189655170, 189655170, 189655170, 155172420, 155172420, 155172420, 17241380, 17241380, 17241380, 700, 0.15, 189655170, 189655170, 189655170, 155172420, 155172420, 155172420, 17241380, 17241380, 17241380, 700, 0.15, 189655170, 189655170, 189655170, 155172420, 155172420, 155172420, 17241380, 17241380, 17241380, 700, 0.15, 189655170, 189655170, 189655170, 155172420, 155172420, 155172420, 17241380, 17241380, 17241380, 700, 0.15, 189655170, 189655170, 189655170, 155172420, 155172420, 155172420, 17241380, 17241380, 17241380, 700, 0.15, 189655170, 189655170, 189655170, 155172420, 155172420, 155172420, 17241380, 17241380, 17241380, 700, 0.15, 189655170, 189655170, 189655170, 155172420, 155172420, 155172420, 17241380, 17241380, 17241380, 700, 0.15, 189655170, 189655170, 189655170, 155172420, 155172420, 155172420, 17241380, 17241380, 17241380, 700, 0.15, 189655170, 189655170, 189655170, 155172420, 155172420, 155172420, 17241380, 17241380, 17241380, 700, 0.15, 189655170, 189655170, 189655170, 155172420, 155172420, 155172420, 17241380, 17241380, 17241380, 700, 0.15, 189655170, 189655170, 189655170, 155172420, 155172420, 155172420, 17241380, 17241380, 17241380, 700, 0.15, 189655170, 189655170, 189655170, 155172420, 155172420, 155172420, 17241380, 17241380, 17241380, 700, 0.15, 189655170, 189655170, 189655170, 155172420, 155172420, 155172420, 17241380, 17241380, 17241380, 700, 0.15, 189655170, 189655170, 189655170, 155172420, 155172420, 155172420, 17241380, 17241380, 17241380, 700, 0.15, 189655170, 189655170, 189655170, 155172420, 155172420, 155172420, 17241380, 17241380, 17241380, 700, 0.15, 189655170, 189655170, 189655170, 155172420, 155172420, 155172420, 17241380, 17241380, 17241380, 700, 0.15, 189655170, 189655170, 189655170, 155172420, 155172420, 155172420, 17241380, 17241380, 17241380, 700, 0.15, 189655170, 189655170, 189655170, 155172420, 155172420, 155172420, 17241380, 17241380, 17241380, 700, 0.15, 189655170, 189655170, 189655170, 155172420, 155172420, 155172420, 17241380, 17241380, 17241380, 700, 0.15, 189655170, 189655170, 189655170, 155172420, 155172420, 155172420, 17241380, 17241380, 17241380, 700, 0.15, 189655170, 189655170, 189655170, 155172420, 155172420, 155172420, 17241380, 17241380, 17241380, 700, 0.15, 189655170, 189655170, 189655170, 155172420, 155172420, 155172420, 17241380, 17241380, 17241380, 700, 0.15, 189655170, 189655170, 189655170, 155172420, 155172420, 155172420, 17241380, 17241380, 17241380, 700, 0.15, 189655170, 189655170, 189655170, 155172420, 155172420, 155172420, 17241380, 17241380, 17241380, 700, 0.15, 189655170, 189655170, 189655170, 155172420, 155172420, 155172420, 17241380, 17241380, 17241380, 700, 0.15, 189655170, 189655170, 189655170, 155172420, 155172420, 155172420, 17241380, 17241380, 17241380, 700, 0.15, 189655170, 189655170, 189655170, 155172420, 155172420, 155172420, 17241380, 17241380, 17241380, 700, 0.15, 189655170, 189655170, 189655170, 155172420, 155172420, 155172420, 17241380, 17241380, 17241380, 700, 0.15, 189655170, 189655170, 189655170, 155172420, 155172420, 155172420, 17241380, 17241380, 17241380, 700, 0.15, 189655170, 189655170, 189655170, 155172420, 155172420, 155172420, 17241380, 17241380, 17241380, 700, 0.15, 189655170, 189655170, 189655170, 155172420, 155172420, 155172420, 17241380, 17241380, 17241380, 700, 0.15, 189655170, 189655170, 189655170, 155172420, 155172420, 155172420, 17241380, 17241380, 17241380, 700, 0.15, 189655170, 189655170, 189655170, 155172420, 155172420, 155172420, 17241380, 17241380, 17241380, 700, 0.15, 189655170, 189655170, 189655170, 155172420, 155172420, 155172420, 17241380, 17241380, 17241380, 700, 0.15, 189655170, 189655170, 189655170, 155172420, 155172420, 155172420, 17241380, 17241380, 17241380, 700, 0.15, 189655170, 189655170, 189655170, 155172420, 155172420, 155172420, 17241380, 17241380, 17241380, 700, 0.15, 189655170, 189655170, 189655170, 155172420, 155172420, 155172420, 17241380, 17241380, 17241380, 700, 0.15, 189655170, 189655170, 189655170, 155172420, 155172420, 155172420, 17241380, 17241380, 17241380, 700, 0.15, 189655170, 189655170, 189655170, 155172420, 155172420, 155172420, 17241380, 17241380, 17241380, 700, 0.15, 189655170, 189655170, 189655170, 155172420, 155172420, 155172420, 17241380, 17241380, 17241380, 700, 0.15, 189655170, 189655170, 189655170, 155172420, 155172420, 155172420, 17241380, 17241380, 17241380, 700, 0.15, 189655170, 189655170, 189655170, 155172420, 155172420, 155172420, 17241380, 17241380, 17241380, 700, 0.15, 189655170, 189655170, 189655170, 155172420, 155172420, 155172420, 17241380, 17241380, 17241380, 700, 0.15, 189655170, 189655170, 189655170, 155172420, 155172420, 155172420, 17241380, 17241380, 17241380, 700, 0.15, 189655170, 189655170, 189655170, 155172420, 155172420, 155172420, 17241380, 17241380, 17241380, 700, 0.15, 189655170, 189655170, 189655170, 155172420, 155172420, 155172420, 17241380, 17241380, 17241380, 700, 0.15, 189655170, 189655170, 189655170, 155172420, 155172420, 155172420, 17241380, 17241380, 17241380, 700, 0.15, 189655170, 189655170, 189655170, 155172420, 155172420, 155172420, 17241380, 17241380, 17241380, 700, 0.15, 189655170, 189655170, 189655170, 155172420, 155172420, 155172420, 17241380, 17241380, 17241380, 700, 0.15, 189655170, 189655170, 189655170, 155172420, 155172420, 155172420, 17241380, 17241380, 17241380, 700, 0.15, 189655170, 189655170, 189655170, 155172420, 155172420, 155172420, 17241380, 17241380, 17241380, 700, 0.15, 189655170, 189655170, 189655170, 155172420, 155172420, 155172420, 17241380, 17241380, 17241380, 700, 0.15, 189655170, 189655170, 189655170, 155172420, 155172420, 155172420, 17241380, 17241380, 17241380, 700, 0.15, 189655170, 189655170, 189655170, 155172420, 155172420, 155172420, 17241380, 17241380, 17241380, 700, 0.15] (
            elementSize = 11
            interpolation = "uniform"
        )
        float[] primvars:shellThickness = [0.01, 0.01, 0.01, 0.01, 0.01, 0.01, 0.01, 0.01, 0.01, 0.01, 0.01, 0.01, 0.01, 0.01, 0.01, 0.01, 0.01, 0.01, 0.01, 0.01, 0.01, 0.01, 0.01, 0.01, 0.01, 0.01, 0.01, 0.01, 0.01, 0.01, 0.01, 0.01, 0.01, 0.01, 0.01, 0.01, 0.01, 0.01, 0.01, 0.01, 0.01, 0.01, 0.01, 0.01, 0.01, 0.01, 0.01, 0.01, 0.01, 0.01, 0.01, 0.01, 0.01, 0.01, 0.01, 0.01, 0.01, 0.01, 0.01, 0.01, 0.01, 0.01, 0.01, 0.01, 0.01, 0.01, 0.01, 0.01, 0.01, 0.01, 0.01, 0.01, 0.01, 0.01, 0.01, 0.01, 0.01, 0.01, 0.01, 0.01, 0.01, 0.01, 0.01, 0.01, 0.01, 0.01, 0.01, 0.01, 0.01, 0.01, 0.01, 0.01, 0.01, 0.01, 0.01, 0.01, 0.01, 0.01, 0.01, 0.01, 0.01, 0.01, 0.01, 0.01, 0.01, 0.01, 0.01, 0.01, 0.01, 0.01, 0.01, 0.01, 0.01, 0.01, 0.01, 0.01, 0.01, 0.01, 0.01, 0.01, 0.01, 0.01, 0.01, 0.01, 0.01, 0.01, 0.01, 0.01, 0.01, 0.01, 0.01, 0.01, 0.01, 0.01, 0.01, 0.01, 0.01, 0.01, 0.01, 0.01, 0.01, 0.01, 0.01, 0.01, 0.01, 0.01, 0.01, 0.01, 0.01, 0.01, 0.01, 0.01, 0.01, 0.01, 0.01, 0.01, 0.01, 0.01, 0.01, 0.01, 0.01, 0.01, 0.01, 0.01, 0.01, 0.01, 0.01, 0.01, 0.01, 0.01, 0.01, 0.01, 0.01, 0.01, 0.01, 0.01, 0.01, 0.01, 0.01, 0.01, 0.01, 0.01, 0.01, 0.01, 0.01, 0.01, 0.01, 0.01, 0.01, 0.01, 0.01, 0.01, 0.01, 0.01, 0.01, 0.01, 0.01, 0.01, 0.01, 0.01, 0.01, 0.01, 0.01, 0.01, 0.01, 0.01, 0.01, 0.01, 0.01, 0.01, 0.01, 0.01, 0.01, 0.01, 0.01, 0.01, 0.01, 0.01, 0.01, 0.01, 0.01, 0.01, 0.01, 0.01, 0.01, 0.01, 0.01, 0.01, 0.01, 0.01, 0.01, 0.01, 0.01, 0.01, 0.01, 0.01, 0.01, 0.01, 0.01, 0.01] (
            interpolation = "uniform"
        )
    }
}

