#usda 1.0
(
    defaultPrim = "Tire"
    upAxis = "Y"
)

def Xform "Tire"
{
    def Mesh "Mesh" (
        customData = {
            double contactKn = 115768.99069699684
            string[] materialFields = ["C11", "C22", "C33", "C12", "C13", "C23", "G23", "G13", "G12", "rho", "alpha_damp"]
            int nBeadRows = 0
            int nCirc = 10
            int pcgIters = 10
            double pressure = 110000
            double rInner = 0.5
            double rOuter = 0.5
            double shellThickness = 0.01
            int[] surfTriIndices = [0, 12, 15, 11, 13, 15, 5, 14, 15, 0, 14, 18, 5, 16, 18, 1, 17, 18, 0, 17, 21, 1, 19, 21, 7, 20, 21, 0, 20, 24, 7, 22, 24, 10, 23, 24, 0, 23, 26, 10, 25, 26, 11, 12, 26, 1, 16, 29, 5, 27, 29, 9, 28, 29, 5, 13, 32, 11, 30, 32, 4, 31, 32, 11, 25, 35, 10, 33, 35, 2, 34, 35, 10, 22, 38, 7, 36, 38, 6, 37, 38, 7, 19, 41, 1, 39, 41, 8, 40, 41, 3, 42, 45, 9, 43, 45, 4, 44, 45, 3, 44, 48, 4, 46, 48, 2, 47, 48, 3, 47, 51, 2, 49, 51, 6, 50, 51, 3, 50, 54, 6, 52, 54, 8, 53, 54, 3, 53, 56, 8, 55, 56, 9, 42, 56, 4, 43, 57, 9, 27, 57, 5, 31, 57, 2, 46, 58, 4, 30, 58, 11, 34, 58, 6, 49, 59, 2, 33, 59, 10, 37, 59, 8, 52, 60, 6, 36, 60, 7, 40, 60, 9, 55, 61, 8, 39, 61, 1, 28, 61, 0, 15, 14, 11, 15, 12, 5, 15, 13, 0, 18, 17, 5, 18, 14, 1, 18, 16, 0, 21, 20, 1, 21, 17, 7, 21, 19, 0, 24, 23, 7, 24, 20, 10, 24, 22, 0, 26, 12, 10, 26, 23, 11, 26, 25, 1, 29, 28, 5, 29, 16, 9, 29, 27, 5, 32, 31, 11, 32, 13, 4, 32, 30, 11, 35, 34, 10, 35, 25, 2, 35, 33, 10, 38, 37, 7, 38, 22, 6, 38, 36, 7, 41, 40, 1, 41, 19, 8, 41, 39, 3, 45, 44, 9, 45, 42, 4, 45, 43, 3, 48, 47, 4, 48, 44, 2, 48, 46, 3, 51, 50, 2, 51, 47, 6, 51, 49, 3, 54, 53, 6, 54, 50, 8, 54, 52, 3, 56, 42, 8, 56, 53, 9, 56, 55, 4, 57, 31, 9, 57, 43, 5, 57, 27, 2, 58, 34, 4, 58, 46, 11, 58, 30, 6, 59, 37, 2, 59, 49, 10, 59, 33, 8, 60, 40, 6, 60, 52, 7, 60, 36, 9, 61, 28, 8, 61, 55, 1, 61, 39]
            double width = 1
        }
    )
    {
        int[] faceVertexCounts = [4, 4, 4, 4, 4, 4, 4, 4, 4, 4, 4, 4, 4, 4, 4, 4, 4, 4, 4, 4, 4, 4, 4, 4, 4, 4, 4, 4, 4, 4, 4, 4, 4, 4, 4, 4, 4, 4, 4, 4, 4, 4, 4, 4, 4, 4, 4, 4, 4, 4, 4, 4, 4, 4, 4, 4, 4, 4, 4, 4]
        int[] faceVertexIndices = [0, 12, 15, 14, 11, 13, 15, 12, 5, 14, 15, 13, 0, 14, 18, 17, 5, 16, 18, 14, 1, 17, 18, 16, 0, 17, 21, 20, 1, 19, 21, 17, 7, 20, 21, 19, 0, 20, 24, 23, 7, 22, 24, 20, 10, 23, 24, 22, 0, 23, 26, 12, 10, 25, 26, 23, 11, 12, 26, 25, 1, 16, 29, 28, 5, 27, 29, 16, 9, 28, 29, 27, 5, 13, 32, 31, 11, 30, 32, 13, 4, 31, 32, 30, 11, 25, 35, 34, 10, 33, 35, 25, 2, 34, 35, 33, 10, 22, 38, 37, 7, 36, 38, 22, 6, 37, 38, 36, 7, 19, 41, 40, 1, 39, 41, 19, 8, 40, 41, 39, 3, 42, 45, 44, 9, 43, 45, 42, 4, 44, 45, 43, 3, 44, 48, 47, 4, 46, 48, 44, 2, 47, 48, 46, 3, 47, 51, 50, 2, 49, 51, 47, 6, 50, 51, 49, 3, 50, 54, 53, 6, 52, 54, 50, 8, 53, 54, 52, 3, 53, 56, 42, 8, 55, 56, 53, 9, 42, 56, 55, 4, 43, 57, 31, 9, 27, 57, 43, 5, 31, 57, 27, 2, 46, 58, 34, 4, 30, 58, 46, 11, 34, 58, 30, 6, 49, 59, 37, 2, 33, 59, 49, 10, 37, 59, 33, 8, 52, 60, 40, 6, 36, 60, 52, 7, 40, 60, 36, 9, 55, 61, 28, 8, 39, 61, 55, 1, 28, 61, 39]
        point3f[] points = [(-0.1486402, -0.47363678, -0.059785288), (-0.34664282, -0.16753504, 0.3190153), (0.34664282, 0.16753504, -0.3190153), (0.1486402, 0.47363678, 0.059785288), (0.459507, 0.06851799, 0.1848205), (0.15340523, -0.327748, 0.34503347), (-0.15340523, 0.327748, -0.34503347), (-0.459507, -0.06851799, -0.1848205), (-0.34958777, 0.327748, 0.14272223), (0.0292128, 0.16753504, 0.47019), (-0.0292128, -0.16753504, -0.47019), (0.34958777, -0.327748, -0.14272223), (0.118114024, -0.47104216, -0.11903093), (0.29565188, -0.3852909, 0.11891556), (0.0028008136, -0.47104216, 0.16766466), (0.1486402, -0.47363678, 0.059785288), (-0.11358221, -0.29112005, 0.39031807), (-0.29112005, -0.37687135, 0.15237157), (-0.14340732, -0.40643233, 0.2534701), (-0.47384298, -0.13874848, 0.07887772), (-0.35745996, -0.31867057, -0.14377567), (-0.4005053, -0.29769325, 0.03121252), (-0.2872623, -0.13874848, -0.3850055), (-0.10453937, -0.37687135, -0.31151164), (-0.2673531, -0.29769325, -0.29983506), (0.18831168, -0.29112005, -0.36026075), (0.0720375, -0.40643233, -0.2821761), (0.10734019, -0.09417081, 0.4791763), (-0.18658069, 1.7187576e-16, 0.46388322), (-0.06880341, -0.13748029, 0.47577858), (0.47557396, -0.15237157, 0.024744743), (0.36026075, -0.15237157, 0.31144035), (0.40373942, -0.24621938, 0.16238996), (0.18658069, -1.7187576e-16, -0.46388322), (0.40923408, -0.09417081, -0.2714025), (0.27979365, -0.13748029, -0.3909152), (-0.36026075, 0.15237157, -0.31144035), (-0.10734019, 0.09417081, -0.4791763), (-0.26935187, 0.038463242, -0.41948795), (-0.40923408, 0.09417081, 0.2714025), (-0.47557396, 0.15237157, -0.024744743), (-0.4847967, 0.038463242, 0.116158254), (0.10453937, 0.37687135, 0.31151164), (0.2872623, 0.13874848, 0.3850055), (0.35745996, 0.31867057, 0.14377567), (0.2673531, 0.29769325, 0.29983506), (0.47384298, 0.13874848, -0.07887772), (0.29112005, 0.37687135, -0.15237157), (0.4005053, 0.29769325, -0.03121252), (0.11358221, 0.29112005, -0.39031807), (-0.0028008136, 0.47104216, -0.16766466), (0.14340732, 0.40643233, -0.2534701), (-0.29565188, 0.3852909, -0.11891556), (-0.118114024, 0.47104216, 0.11903093), (-0.1486402, 0.47363678, -0.059785288), (-0.18831168, 0.29112005, 0.36026075), (-0.0720375, 0.40643233, 0.2821761), (0.26935187, -0.038463242, 0.41948795), (0.4847967, -0.038463242, -0.116158254), (0.06880341, 0.13748029, -0.47577858), (-0.40373942, 0.24621938, -0.16238996), (-0.27979365, 0.13748029, 0.3909152)]
        vector3f[] primvars:D0 = [(-0.29728043, -0.9472736, -0.11957058), (-0.6932857, -0.3350701, 0.63803065), (0.6932857, 0.3350701, -0.63803065), (0.29728043, 0.9472736, 0.11957058), (0.919014, 0.13703598, 0.369641), (0.30681047, -0.655496, 0.69006693), (-0.30681047, 0.655496, -0.69006693), (-0.919014, -0.13703598, -0.369641), (-0.6991756, 0.65549606, 0.2854445), (0.0584256, 0.33507007, 0.94038), (-0.0584256, -0.33507007, -0.94038), (0.6991756, -0.65549606, -0.2854445), (0.23622805, -0.9420843, -0.23806186), (0.59130377, -0.7705818, 0.23783112), (0.0056016273, -0.9420843, 0.33532932), (0.29728043, -0.9472736, 0.11957058), (-0.22716442, -0.5822401, 0.78063613), (-0.58224016, -0.75374275, 0.30474317), (-0.28681466, -0.8128647, 0.50694025), (-0.94768596, -0.27749696, 0.15775543), (-0.71492, -0.6373412, -0.28755137), (-0.8010106, -0.5953865, 0.06242504), (-0.5745246, -0.27749696, -0.770011), (-0.20907874, -0.7537427, -0.6230233), (-0.5347062, -0.5953865, -0.5996701), (0.3766234, -0.58224016, -0.72052157), (0.144075, -0.81286466, -0.5643522), (0.21468037, -0.18834162, 0.9583526), (-0.37316138, 3.4375151e-16, 0.92776644), (-0.13760681, -0.27496058, 0.95155716), (0.951148, -0.30474317, 0.04948949), (0.7205215, -0.30474314, 0.6228807), (0.80747885, -0.49243876, 0.32477993), (0.37316138, -3.4375151e-16, -0.92776644), (0.81846815, -0.18834162, -0.542805), (0.5595873, -0.27496058, -0.7818304), (-0.7205215, 0.30474314, -0.6228807), (-0.21468037, 0.18834162, -0.9583526), (-0.53870374, 0.076926485, -0.8389759), (-0.81846815, 0.18834162, 0.542805), (-0.951148, 0.30474317, -0.04948949), (-0.9695934, 0.076926485, 0.23231651), (0.20907874, 0.7537427, 0.6230233), (0.5745246, 0.27749696, 0.770011), (0.71492, 0.6373412, 0.28755137), (0.5347062, 0.5953865, 0.5996701), (0.94768596, 0.27749696, -0.15775543), (0.58224016, 0.75374275, -0.30474317), (0.8010106, 0.5953865, -0.06242504), (0.22716442, 0.5822401, -0.78063613), (-0.0056016273, 0.9420843, -0.33532932), (0.28681466, 0.8128647, -0.50694025), (-0.59130377, 0.7705818, -0.23783112), (-0.23622805, 0.9420843, 0.23806186), (-0.29728043, 0.9472736, -0.11957058), (-0.3766234, 0.58224016, 0.72052157), (-0.144075, 0.81286466, 0.5643522), (0.53870374, -0.076926485, 0.8389759), (0.9695934, -0.076926485, -0.23231651), (0.13760681, 0.27496058, -0.95155716), (-0.80747885, 0.49243876, -0.32477993), (-0.5595873, 0.27496058, 0.7818304)] (
            interpolation = "vertex"
        )
        float[] primvars:material = [189655170, 189655170, 189655170, 155172420, 155172420, 155172420, 17241380, 17241380, 17241380, 700, 0.15, 189655170, 189655170, 189655170, 155172420, 155172420, 155172420, 17241380, 17241380, 17241380, 700, 0.15, 189655170, 189655170, 189655170, 155172420, 155172420, 155172420, 17241380, 17241380, 17241380, 700, 0.15, 189655170, 189655170, 189655170, 155172420, 155172420, 155172420, 17241380, 17241380, 17241380, 700, 0.15, 189655170, 189655170, 189655170, 155172420, 155172420, 155172420, 17241380, 17241380, 17241380, 700, 0.15, 189655170, 189655170, 189655170, 155172420, 155172420, 155172420, 17241380, 17241380, 17241380, 700, 0.15, 189655170, 189655170, 189655170, 155172420, 155172420, 155172420, 17241380, 17241380, 17241380, 700, 0.15, 189655170, 189655170, 189655170, 155172420, 155172420, 155172420, 17241380, 17241380, 17241380, 700, 0.15, 189655170, 189655170, 189655170, 155172420, 155172420, 155172420, 17241380, 17241380, 17241380, 700, 0.15, 189655170, 189655170, 189655170, 155172420, 155172420, 155172420, 17241380, 17241380, 17241380, 700, 0.15, 189655170, 189655170, 189655170, 155172420, 155172420, 155172420, 17241380, 17241380, 17241380, 700, 0.15, 189655170, 189655170, 189655170, 155172420, 155172420, 155172420, 17241380, 17241380, 17241380, 700, 0.15, 189655170, 189655170, 189655170, 155172420, 155172420, 155172420, 17241380, 17241380, 17241380, 700, 0.15, 189655170, 189655170, 189655170, 155172420, 155172420, 155172420, 17241380, 17241380, 17241380, 700, 0.15, 189655170, 189655170, 189655170, 155172420, 155172420, 155172420, 17241380, 17241380, 17241380, 700, 0.15, 189655170, 189655170, 189655170, 155172420, 155172420, 155172420, 17241380, 17241380, 17241380, 700, 0.15, 189655170, 189655170, 189655170, 155172420, 155172420, 155172420, 17241380, 17241380, 17241380, 700, 0.15, 189655170, 189655170, 189655170, 155172420, 155172420, 155172420, 17241380, 17241380, 17241380, 700, 0.15, 189655170, 189655170, 189655170, 155172420, 155172420, 155172420, 17241380, 17241380, 17241380, 700, 0.15, 189655170, 189655170, 189655170, 155172420, 155172420, 155172420, 17241380, 17241380, 17241380, 700, 0.15, 189655170, 189655170, 189655170, 155172420, 155172420, 155172420, 17241380, 17241380, 17241380, 700, 0.15, 189655170, 189655170, 189655170, 155172420, 155172420, 155172420, 17241380, 17241380, 17241380, 700, 0.15, 189655170, 189655170, 189655170, 155172420, 155172420, 155172420, 17241380, 17241380, 17241380, 700, 0.15, 189655170, 189655170, 189655170, 155172420, 155172420, 155172420, 17241380, 17241380, 17241380, 700, 0.15, 189655170, 189655170, 189655170, 155172420, 155172420, 155172420, 17241380, 17241380, 17241380, 700, 0.15, 189655170, 189655170, 189655170, 155172420, 155172420, 155172420, 17241380, 17241380, 17241380, 700, 0.15, 189655170, 189655170, 189655170, 155172420, 155172420, 155172420, 17241380, 17241380, 17241380, 700, 0.15, 189655170, 189655170, 189655170, 155172420, 155172420, 155172420, 17241380, 17241380, 17241380, 700, 0.15, 189655170, 189655170, 189655170, 155172420, 155172420, 155172420, 17241380, 17241380, 17241380, 700, 0.15, 189655170, 189655170, 189655170, 155172420, 155172420, 155172420, 17241380, 17241380, 17241380, 700, 0.15, 189655170, 189655170, 189655170, 155172420, 155172420, 155172420, 17241380, 17241380, 17241380, 700, 0.15, 189655170, 189655170, 189655170, 155172420, 155172420, 155172420, 17241380, 17241380, 17241380, 700, 0.15, 189655170, 189655170, 189655170, 155172420, 155172420, 155172420, 17241380, 17241380, 17241380, 700, 0.15, 189655170, 189655170, 189655170, 155172420, 155172420, 155172420, 17241380, 17241380, 17241380, 700, 0.15, 189655170, 189655170, 189655170, 155172420, 155172420, 155172420, 17241380, 17241380, 17241380, 700, 0.15, 189655170, 189655170, 189655170, 155172420, 155172420, 155172420, 17241380, 17241380, 17241380, 700, 0.15, 189655170, 189655170, 189655170, 155172420, 155172420, 155172420, 17241380, 17241380, 17241380, 700, 0.15, 189655170, 189655170, 189655170, 155172420, 155172420, 155172420, 17241380, 17241380, 17241380, 700, 0.15, 189655170, 189655170, 189655170, 155172420, 155172420, 155172420, 17241380, 17241380, 17241380, 700, 0.15, 189655170, 189655170, 189655170, 155172420, 155172420, 155172420, 17241380, 17241380, 17241380, 700, 0.15, 189655170, 189655170, 189655170, 155172420, 155172420, 155172420, 17241380, 17241380, 17241380, 700, 0.15, 189655170, 189655170, 189655170, 155172420, 155172420, 155172420, 17241380, 17241380, 17241380, 700, 0.15, 189655170, 189655170, 189655170, 155172420, 155172420, 155172420, 17241380, 17241380, 17241380, 700, 0.15, 189655170, 189655170, 189655170, 155172420, 155172420, 155172420, 17241380, 17241380, 17241380, 700, 0.15, 189655170, 189655170, 189655170, 155172420, 155172420, 155172420, 17241380, 17241380, 17241380, 700, 0.15, 189655170, 189655170, 189655170, 155172420, 155172420, 155172420, 17241380, 17241380, 17241380, 700, 0.15, 189655170, 189655170, 189655170, 155172420, 155172420, 155172420, 17241380, 17241380, 17241380, 700, 0.15, 189655170, 189655170, 189655170, 155172420, 155172420, 155172420, 17241380, 17241380, 17241380, 700, 0.15, 189655170, 189655170, 189655170, 155172420, 155172420, 155172420, 17241380, 17241380, 17241380, 700, 0.15, 189655170, 189655170, 189655170, 155172420, 155172420, 155172420, 17241380, 17241380, 17241380, 700, 0.15, 189655170, 189655170, 189655170, 155172420, 155172420, 155172420, 17241380, 17241380, 17241380, 700, 0.15, 189655170, 189655170, 189655170, 155172420, 155172420, 155172420, 17241380, 17241380, 17241380, 700, 0.15, 189655170, 189655170, 189655170, 155172420, 155172420, 155172420, 17241380, 17241380, 17241380, 700, 0.15, 189655170, 189655170, 189655170, 155172420, 155172420, 155172420, 17241380, 17241380, 17241380, 700, 0.15, 189655170, 189655170, 189655170, 155172420, 155172420, 155172420, 17241380, 17241380, 17241380, 700, 0.15, 189655170, 189655170, 189655170, 155172420, 155172420, 155172420, 17241380, 17241380, 17241380, 700, 0.15, 189655170, 189655170, 189655170, 155172420, 155172420, 155172420, 17241380, 17241380, 17241380, 700, 0.15, 189655170, 189655170, 189655170, 155172420, 155172420, 155172420, 17241380, 17241380, 17241380, 700, 0.15, 189655170, 189655170, 189655170, 155172420, 155172420, 155172420, 17241380, 17241380, 17241380, 700, 0.15, 189655170, 189655170, 189655170, 155172420, 155172420, 155172420, 17241380, 17241380, 17241380, 700, 0.15] (
            elementSize = 11
            interpolation = "uniform"
        )
        float[] primvars:shellThickness = [0.01, 0.01, 0.01, 0.01, 0.01, 0.01, 0.01, 0.01, 0.01, 0.01, 0.01, 0.01, 0.01, 0.01, 0.01, 0.01, 0.01, 0.01, 0.01, 0.01, 0.01, 0.01, 0.01, 0.01, 0.01, 0.01, 0.01, 0.01, 0.01, 0.01, 0.01, 0.01, 0.01, 0.01, 0.01, 0.01, 0.01, 0.01, 0.01, 0.01, 0.01, 0.01, 0.01, 0.01, 0.01, 0.01, 0.01, 0.01, 0.01, 0.01, 0.01, 0.01, 0.01, 0.01, 0.01, 0.01, 0.01, 0.01, 0.01, 0.01] (
            interpolation = "uniform"
        )
    }
}

