#usda 1.0
(
    defaultPrim = "Tire"
    upAxis = "Y"
)

def Xform "Tire"
{
    def Mesh "Mesh" (
        customData = {
            double contactKn = 20000
            string[] materialFields = ["C11", "C22", "C33", "C12", "C13", "C23", "G23", "G13", "G12", "rho", "alpha_damp"]
            int nBeadRows = 2
            int nCirc = 16
            int pcgIters = 10
            double pressure = 110000
            double rInner = 0.286
            double rOuter = 0.499
            double shellThickness = 0.01
            int[] surfTriIndices = [0, 1, 17, 0, 17, 16, 1, 2, 18, 1, 18, 17, 2, 3, 19, 2, 19, 18, 3, 4, 20, 3, 20, 19, 4, 5, 21, 4, 21, 20, 5, 6, 22, 5, 22, 21, 6, 7, 23, 6, 23, 22, 7, 8, 24, 7, 24, 23, 8, 9, 25, 8, 25, 24, 9, 10, 26, 9, 26, 25, 10, 11, 27, 10, 27, 26, 11, 12, 28, 11, 28, 27, 12, 13, 29, 12, 29, 28, 13, 14, 30, 13, 30, 29, 14, 15, 31, 14, 31, 30, 15, 0, 16, 15, 16, 31, 16, 17, 33, 16, 33, 32, 17, 18, 34, 17, 34, 33, 18, 19, 35, 18, 35, 34, 19, 20, 36, 19, 36, 35, 20, 21, 37, 20, 37, 36, 21, 22, 38, 21, 38, 37, 22, 23, 39, 22, 39, 38, 23, 24, 40, 23, 40, 39, 24, 25, 41, 24, 41, 40, 25, 26, 42, 25, 42, 41, 26, 27, 43, 26, 43, 42, 27, 28, 44, 27, 44, 43, 28, 29, 45, 28, 45, 44, 29, 30, 46, 29, 46, 45, 30, 31, 47, 30, 47, 46, 31, 16, 32, 31, 32, 47, 32, 33, 49, 32, 49, 48, 33, 34, 50, 33, 50, 49, 34, 35, 51, 34, 51, 50, 35, 36, 52, 35, 52, 51, 36, 37, 53, 36, 53, 52, 37, 38, 54, 37, 54, 53, 38, 39, 55, 38, 55, 54, 39, 40, 56, 39, 56, 55, 40, 41, 57, 40, 57, 56, 41, 42, 58, 41, 58, 57, 42, 43, 59, 42, 59, 58, 43, 44, 60, 43, 60, 59, 44, 45, 61, 44, 61, 60, 45, 46, 62, 45, 62, 61, 46, 47, 63, 46, 63, 62, 47, 32, 48, 47, 48, 63, 48, 49, 65, 48, 65, 64, 49, 50, 66, 49, 66, 65, 50, 51, 67, 50, 67, 66, 51, 52, 68, 51, 68, 67, 52, 53, 69, 52, 69, 68, 53, 54, 70, 53, 70, 69, 54, 55, 71, 54, 71, 70, 55, 56, 72, 55, 72, 71, 56, 57, 73, 56, 73, 72, 57, 58, 74, 57, 74, 73, 58, 59, 75, 58, 75, 74, 59, 60, 76, 59, 76, 75, 60, 61, 77, 60, 77, 76, 61, 62, 78, 61, 78, 77, 62, 63, 79, 62, 79, 78, 63, 48, 64, 63, 64, 79, 64, 65, 81, 64, 81, 80, 65, 66, 82, 65, 82, 81, 66, 67, 83, 66, 83, 82, 67, 68, 84, 67, 84, 83, 68, 69, 85, 68, 85, 84, 69, 70, 86, 69, 86, 85, 70, 71, 87, 70, 87, 86, 71, 72, 88, 71, 88, 87, 72, 73, 89, 72, 89, 88, 73, 74, 90, 73, 90, 89, 74, 75, 91, 74, 91, 90, 75, 76, 92, 75, 92, 91, 76, 77, 93, 76, 93, 92, 77, 78, 94, 77, 94, 93, 78, 79, 95, 78, 95, 94, 79, 64, 80, 79, 80, 95, 80, 81, 97, 80, 97, 96, 81, 82, 98, 81, 98, 97, 82, 83, 99, 82, 99, 98, 83, 84, 100, 83, 100, 99, 84, 85, 101, 84, 101, 100, 85, 86, 102, 85, 102, 101, 86, 87, 103, 86, 103, 102, 87, 88, 104, 87, 104, 103, 88, 89, 105, 88, 105, 104, 89, 90, 106, 89, 106, 105, 90, 91, 107, 90, 107, 106, 91, 92, 108, 91, 108, 107, 92, 93, 109, 92, 109, 108, 93, 94, 110, 93, 110, 109, 94, 95, 111, 94, 111, 110, 95, 80, 96, 95, 96, 111, 96, 97, 113, 96, 113, 112, 97, 98, 114, 97, 114, 113, 98, 99, 115, 98, 115, 114, 99, 100, 116, 99, 116, 115, 100, 101, 117, 100, 117, 116, 101, 102, 118, 101, 118, 117, 102, 103, 119, 102, 119, 118, 103, 104, 120, 103, 120, 119, 104, 105, 121, 104, 121, 120, 105, 106, 122, 105, 122, 121, 106, 107, 123, 106, 123, 122, 107, 108, 124, 107, 124, 123, 108, 109, 125, 108, 125, 124, 109, 110, 126, 109, 126, 125, 110, 111, 127, 110, 127, 126, 111, 96, 112, 111, 112, 127, 112, 113, 129, 112, 129, 128, 113, 114, 130, 113, 130, 129, 114, 115, 131, 114, 131, 130, 115, 116, 132, 115, 132, 131, 116, 117, 133, 116, 133, 132, 117, 118, 134, 117, 134, 133, 118, 119, 135, 118, 135, 134, 119, 120, 136, 119, 136, 135, 120, 121, 137, 120, 137, 136, 121, 122, 138, 121, 138, 137, 122, 123, 139, 122, 139, 138, 123, 124, 140, 123, 140, 139, 124, 125, 141, 124, 141, 140, 125, 126, 142, 125, 142, 141, 126, 127, 143, 126, 143, 142, 127, 112, 128, 127, 128, 143, 128, 129, 145, 128, 145, 144, 129, 130, 146, 129, 146, 145, 130, 131, 147, 130, 147, 146, 131, 132, 148, 131, 148, 147, 132, 133, 149, 132, 149, 148, 133, 134, 150, 133, 150, 149, 134, 135, 151, 134, 151, 150, 135, 136, 152, 135, 152, 151, 136, 137, 153, 136, 153, 152, 137, 138, 154, 137, 154, 153, 138, 139, 155, 138, 155, 154, 139, 140, 156, 139, 156, 155, 140, 141, 157, 140, 157, 156, 141, 142, 158, 141, 158, 157, 142, 143, 159, 142, 159, 158, 143, 128, 144, 143, 144, 159, 144, 145, 161, 144, 161, 160, 145, 146, 162, 145, 162, 161, 146, 147, 163, 146, 163, 162, 147, 148, 164, 147, 164, 163, 148, 149, 165, 148, 165, 164, 149, 150, 166, 149, 166, 165, 150, 151, 167, 150, 167, 166, 151, 152, 168, 151, 168, 167, 152, 153, 169, 152, 169, 168, 153, 154, 170, 153, 170, 169, 154, 155, 171, 154, 171, 170, 155, 156, 172, 155, 172, 171, 156, 157, 173, 156, 173, 172, 157, 158, 174, 157, 174, 173, 158, 159, 175, 158, 175, 174, 159, 144, 160, 159, 160, 175, 160, 161, 177, 160, 177, 176, 161, 162, 178, 161, 178, 177, 162, 163, 179, 162, 179, 178, 163, 164, 180, 163, 180, 179, 164, 165, 181, 164, 181, 180, 165, 166, 182, 165, 182, 181, 166, 167, 183, 166, 183, 182, 167, 168, 184, 167, 184, 183, 168, 169, 185, 168, 185, 184, 169, 170, 186, 169, 186, 185, 170, 171, 187, 170, 187, 186, 171, 172, 188, 171, 188, 187, 172, 173, 189, 172, 189, 188, 173, 174, 190, 173, 190, 189, 174, 175, 191, 174, 191, 190, 175, 160, 176, 175, 176, 191, 176, 177, 193, 176, 193, 192, 177, 178, 194, 177, 194, 193, 178, 179, 195, 178, 195, 194, 179, 180, 196, 179, 196, 195, 180, 181, 197, 180, 197, 196, 181, 182, 198, 181, 198, 197, 182, 183, 199, 182, 199, 198, 183, 184, 200, 183, 200, 199, 184, 185, 201, 184, 201, 200, 185, 186, 202, 185, 202, 201, 186, 187, 203, 186, 203, 202, 187, 188, 204, 187, 204, 203, 188, 189, 205, 188, 205, 204, 189, 190, 206, 189, 206, 205, 190, 191, 207, 190, 207, 206, 191, 176, 192, 191, 192, 207, 192, 193, 209, 192, 209, 208, 193, 194, 210, 193, 210, 209, 194, 195, 211, 194, 211, 210, 195, 196, 212, 195, 212, 211, 196, 197, 213, 196, 213, 212, 197, 198, 214, 197, 214, 213, 198, 199, 215, 198, 215, 214, 199, 200, 216, 199, 216, 215, 200, 201, 217, 200, 217, 216, 201, 202, 218, 201, 218, 217, 202, 203, 219, 202, 219, 218, 203, 204, 220, 203, 220, 219, 204, 205, 221, 204, 221, 220, 205, 206, 222, 205, 222, 221, 206, 207, 223, 206, 223, 222, 207, 192, 208, 207, 208, 223, 208, 209, 225, 208, 225, 224, 209, 210, 226, 209, 226, 225, 210, 211, 227, 210, 227, 226, 211, 212, 228, 211, 228, 227, 212, 213, 229, 212, 229, 228, 213, 214, 230, 213, 230, 229, 214, 215, 231, 214, 231, 230, 215, 216, 232, 215, 232, 231, 216, 217, 233, 216, 233, 232, 217, 218, 234, 217, 234, 233, 218, 219, 235, 218, 235, 234, 219, 220, 236, 219, 236, 235, 220, 221, 237, 220, 237, 236, 221, 222, 238, 221, 238, 237, 222, 223, 239, 222, 239, 238, 223, 208, 224, 223, 224, 239]
            double width = 0.335
        }
    )
    {
        int[] faceVertexCounts = [4, 4, 4, 4, 4, 4, 4, 4, 4, 4, 4, 4, 4, 4, 4, 4, 4, 4, 4, 4, 4, 4, 4, 4, 4, 4, 4, 4, 4, 4, 4, 4, 4, 4, 4, 4, 4, 4, 4, 4, 4, 4, 4, 4, 4, 4, 4, 4, 4, 4, 4, 4, 4, 4, 4, 4, 4, 4, 4, 4, 4, 4, 4, 4, 4, 4, 4, 4, 4, 4, 4, 4, 4, 4, 4, 4, 4, 4, 4, 4, 4, 4, 4, 4, 4, 4, 4, 4, 4, 4, 4, 4, 4, 4, 4, 4, 4, 4, 4, 4, 4, 4, 4, 4, 4, 4, 4, 4, 4, 4, 4, 4, 4, 4, 4, 4, 4, 4, 4, 4, 4, 4, 4, 4, 4, 4, 4, 4, 4, 4, 4, 4, 4, 4, 4, 4, 4, 4, 4, 4, 4, 4, 4, 4, 4, 4, 4, 4, 4, 4, 4, 4, 4, 4, 4, 4, 4, 4, 4, 4, 4, 4, 4, 4, 4, 4, 4, 4, 4, 4, 4, 4, 4, 4, 4, 4, 4, 4, 4, 4, 4, 4, 4, 4, 4, 4, 4, 4, 4, 4, 4, 4, 4, 4, 4, 4, 4, 4, 4, 4, 4, 4, 4, 4, 4, 4, 4, 4, 4, 4, 4, 4, 4, 4, 4, 4, 4, 4, 4, 4, 4, 4, 4, 4]
        int[] faceVertexIndices = [0, 1, 17, 16, 1, 2, 18, 17, 2, 3, 19, 18, 3, 4, 20, 19, 4, 5, 21, 20, 5, 6, 22, 21, 6, 7, 23, 22, 7, 8, 24, 23, 8, 9, 25, 24, 9, 10, 26, 25, 10, 11, 27, 26, 11, 12, 28, 27, 12, 13, 29, 28, 13, 14, 30, 29, 14, 15, 31, 30, 15, 0, 16, 31, 16, 17, 33, 32, 17, 18, 34, 33, 18, 19, 35, 34, 19, 20, 36, 35, 20, 21, 37, 36, 21, 22, 38, 37, 22, 23, 39, 38, 23, 24, 40, 39, 24, 25, 41, 40, 25, 26, 42, 41, 26, 27, 43, 42, 27, 28, 44, 43, 28, 29, 45, 44, 29, 30, 46, 45, 30, 31, 47, 46, 31, 16, 32, 47, 32, 33, 49, 48, 33, 34, 50, 49, 34, 35, 51, 50, 35, 36, 52, 51, 36, 37, 53, 52, 37, 38, 54, 53, 38, 39, 55, 54, 39, 40, 56, 55, 40, 41, 57, 56, 41, 42, 58, 57, 42, 43, 59, 58, 43, 44, 60, 59, 44, 45, 61, 60, 45, 46, 62, 61, 46, 47, 63, 62, 47, 32, 48, 63, 48, 49, 65, 64, 49, 50, 66, 65, 50, 51, 67, 66, 51, 52, 68, 67, 52, 53, 69, 68, 53, 54, 70, 69, 54, 55, 71, 70, 55, 56, 72, 71, 56, 57, 73, 72, 57, 58, 74, 73, 58, 59, 75, 74, 59, 60, 76, 75, 60, 61, 77, 76, 61, 62, 78, 77, 62, 63, 79, 78, 63, 48, 64, 79, 64, 65, 81, 80, 65, 66, 82, 81, 66, 67, 83, 82, 67, 68, 84, 83, 68, 69, 85, 84, 69, 70, 86, 85, 70, 71, 87, 86, 71, 72, 88, 87, 72, 73, 89, 88, 73, 74, 90, 89, 74, 75, 91, 90, 75, 76, 92, 91, 76, 77, 93, 92, 77, 78, 94, 93, 78, 79, 95, 94, 79, 64, 80, 95, 80, 81, 97, 96, 81, 82, 98, 97, 82, 83, 99, 98, 83, 84, 100, 99, 84, 85, 101, 100, 85, 86, 102, 101, 86, 87, 103, 102, 87, 88, 104, 103, 88, 89, 105, 104, 89, 90, 106, 105, 90, 91, 107, 106, 91, 92, 108, 107, 92, 93, 109, 108, 93, 94, 110, 109, 94, 95, 111, 110, 95, 80, 96, 111, 96, 97, 113, 112, 97, 98, 114, 113, 98, 99, 115, 114, 99, 100, 116, 115, 100, 101, 117, 116, 101, 102, 118, 117, 102, 103, 119, 118, 103, 104, 120, 119, 104, 105, 121, 120, 105, 106, 122, 121, 106, 107, 123, 122, 107, 108, 124, 123, 108, 109, 125, 124, 109, 110, 126, 125, 110, 111, 127, 126, 111, 96, 112, 127, 112, 113, 129, 128, 113, 114, 130, 129, 114, 115, 131, 130, 115, 116, 132, 131, 116, 117, 133, 132, 117, 118, 134, 133, 118, 119, 135, 134, 119, 120, 136, 135, 120, 121, 137, 136, 121, 122, 138, 137, 122, 123, 139, 138, 123, 124, 140, 139, 124, 125, 141, 140, 125, 126, 142, 141, 126, 127, 143, 142, 127, 112, 128, 143, 128, 129, 145, 144, 129, 130, 146, 145, 130, 131, 147, 146, 131, 132, 148, 147, 132, 133, 149, 148, 133, 134, 150, 149, 134, 135, 151, 150, 135, 136, 152, 151, 136, 137, 153, 152, 137, 138, 154, 153, 138, 139, 155, 154, 139, 140, 156, 155, 140, 141, 157, 156, 141, 142, 158, 157, 142, 143, 159, 158, 143, 128, 144, 159, 144, 145, 161, 160, 145, 146, 162, 161, 146, 147, 163, 162, 147, 148, 164, 163, 148, 149, 165, 164, 149, 150, 166, 165, 150, 151, 167, 166, 151, 152, 168, 167, 152, 153, 169, 168, 153, 154, 170, 169, 154, 155, 171, 170, 155, 156, 172, 171, 156, 157, 173, 172, 157, 158, 174, 173, 158, 159, 175, 174, 159, 144, 160, 175, 160, 161, 177, 176, 161, 162, 178, 177, 162, 163, 179, 178, 163, 164, 180, 179, 164, 165, 181, 180, 165, 166, 182, 181, 166, 167, 183, 182, 167, 168, 184, 183, 168, 169, 185, 184, 169, 170, 186, 185, 170, 171, 187, 186, 171, 172, 188, 187, 172, 173, 189, 188, 173, 174, 190, 189, 174, 175, 191, 190, 175, 160, 176, 191, 176, 177, 193, 192, 177, 178, 194, 193, 178, 179, 195, 194, 179, 180, 196, 195, 180, 181, 197, 196, 181, 182, 198, 197, 182, 183, 199, 198, 183, 184, 200, 199, 184, 185, 201, 200, 185, 186, 202, 201, 186, 187, 203, 202, 187, 188, 204, 203, 188, 189, 205, 204, 189, 190, 206, 205, 190, 191, 207, 206, 191, 176, 192, 207, 192, 193, 209, 208, 193, 194, 210, 209, 194, 195, 211, 210, 195, 196, 212, 211, 196, 197, 213, 212, 197, 198, 214, 213, 198, 199, 215, 214, 199, 200, 216, 215, 200, 201, 217, 216, 201, 202, 218, 217, 202, 203, 219, 218, 203, 204, 220, 219, 204, 205, 221, 220, 205, 206, 222, 221, 206, 207, 223, 222, 207, 192, 208, 223, 208, 209, 225, 224, 209, 210, 226, 225, 210, 211, 227, 226, 211, 212, 228, 227, 212, 213, 229, 228, 213, 214, 230, 229, 214, 215, 231, 230, 215, 216, 232, 231, 216, 217, 233, 232, 217, 218, 234, 233, 218, 219, 235, 234, 219, 220, 236, 235, 220, 221, 237, 236, 221, 222, 238, 237, 222, 223, 239, 238, 223, 208, 224, 239]
        point3f[] points = [(-0.12841667, -0.286, 0), (-0.12841667, -0.26422954, 0.109447464), (-0.12841667, -0.20223254, 0.20223254), (-0.12841667, -0.109447464, 0.26422954), (-0.12841667, -1.751245e-17, 0.286), (-0.12841667, 0.109447464, 0.26422954), (-0.12841667, 0.20223254, 0.20223254), (-0.12841667, 0.26422954, 0.109447464), (-0.12841667, 0.286, 3.50249e-17), (-0.12841667, 0.26422954, -0.109447464), (-0.12841667, 0.20223254, -0.20223254), (-0.12841667, 0.109447464, -0.26422954), (-0.12841667, 5.2537348e-17, -0.286), (-0.12841667, -0.109447464, -0.26422954), (-0.12841667, -0.20223254, -0.20223254), (-0.12841667, -0.26422954, -0.109447464), (-0.14725484, -0.34843716, 0), (-0.14725484, -0.32191396, 0.13334112), (-0.14725484, -0.24638227, 0.24638227), (-0.14725484, -0.13334112, 0.32191396), (-0.14725484, -2.1335622e-17, 0.34843716), (-0.14725484, 0.13334112, 0.32191396), (-0.14725484, 0.24638227, 0.24638227), (-0.14725484, 0.32191396, 0.13334112), (-0.14725484, 0.34843716, 4.2671243e-17), (-0.14725484, 0.32191396, -0.13334112), (-0.14725484, 0.24638227, -0.24638227), (-0.14725484, 0.13334112, -0.32191396), (-0.14725484, 6.4006865e-17, -0.34843716), (-0.14725484, -0.13334112, -0.32191396), (-0.14725484, -0.24638227, -0.24638227), (-0.14725484, -0.32191396, -0.13334112), (-0.16550787, -0.41087475, 0), (-0.16550787, -0.3795988, 0.15723497), (-0.16550787, -0.29053232, 0.29053232), (-0.16550787, -0.15723497, 0.3795988), (-0.16550787, -2.5158824e-17, 0.41087475), (-0.16550787, 0.15723497, 0.3795988), (-0.16550787, 0.29053232, 0.29053232), (-0.16550787, 0.3795988, 0.15723497), (-0.16550787, 0.41087475, 5.0317648e-17), (-0.16550787, 0.3795988, -0.15723497), (-0.16550787, 0.29053232, -0.29053232), (-0.16550787, 0.15723497, -0.3795988), (-0.16550787, 7.547647e-17, -0.41087475), (-0.16550787, -0.15723497, -0.3795988), (-0.16550787, -0.29053232, -0.29053232), (-0.16550787, -0.3795988, -0.15723497), (-0.15853986, -0.45993218, 0), (-0.15853986, -0.42492193, 0.17600842), (-0.15853986, -0.32522115, 0.32522115), (-0.15853986, -0.17600842, 0.42492193), (-0.15853986, -2.8162724e-17, 0.45993218), (-0.15853986, 0.17600842, 0.42492193), (-0.15853986, 0.32522115, 0.32522115), (-0.15853986, 0.42492193, 0.17600842), (-0.15853986, 0.45993218, 5.632545e-17), (-0.15853986, 0.42492193, -0.17600842), (-0.15853986, 0.32522115, -0.32522115), (-0.15853986, 0.17600842, -0.42492193), (-0.15853986, 8.448817e-17, -0.45993218), (-0.15853986, -0.17600842, -0.42492193), (-0.15853986, -0.32522115, -0.32522115), (-0.15853986, -0.42492193, -0.17600842), (-0.11989427, -0.49205342, 0), (-0.11989427, -0.45459807, 0.18830068), (-0.11989427, -0.3479343, 0.3479343), (-0.11989427, -0.18830068, 0.45459807), (-0.11989427, -3.012958e-17, 0.49205342), (-0.11989427, 0.18830068, 0.45459807), (-0.11989427, 0.3479343, 0.3479343), (-0.11989427, 0.45459807, 0.18830068), (-0.11989427, 0.49205342, 6.025916e-17), (-0.11989427, 0.45459807, -0.18830068), (-0.11989427, 0.3479343, -0.3479343), (-0.11989427, 0.18830068, -0.45459807), (-0.11989427, 9.0388745e-17, -0.49205342), (-0.11989427, -0.18830068, -0.45459807), (-0.11989427, -0.3479343, -0.3479343), (-0.11989427, -0.45459807, -0.18830068), (-0.0799298, -0.4982529, 0), (-0.0799298, -0.46032566, 0.19067313), (-0.0799298, -0.352318, 0.352318), (-0.0799298, -0.19067313, 0.46032566), (-0.0799298, -3.050919e-17, 0.4982529), (-0.0799298, 0.19067313, 0.46032566), (-0.0799298, 0.352318, 0.352318), (-0.0799298, 0.46032566, 0.19067313), (-0.0799298, 0.4982529, 6.101838e-17), (-0.0799298, 0.46032566, -0.19067313), (-0.0799298, 0.352318, -0.352318), (-0.0799298, 0.19067313, -0.46032566), (-0.0799298, 9.1527574e-17, -0.4982529), (-0.0799298, -0.19067313, -0.46032566), (-0.0799298, -0.352318, -0.352318), (-0.0799298, -0.46032566, -0.19067313), (-0.039964925, -0.49860397, 0), (-0.039964925, -0.46065, 0.19080748), (-0.039964925, -0.35256624, 0.35256624), (-0.039964925, -0.19080748, 0.46065), (-0.039964925, -3.0530687e-17, 0.49860397), (-0.039964925, 0.19080748, 0.46065), (-0.039964925, 0.35256624, 0.35256624), (-0.039964925, 0.46065, 0.19080748), (-0.039964925, 0.49860397, 6.1061374e-17), (-0.039964925, 0.46065, -0.19080748), (-0.039964925, 0.35256624, -0.35256624), (-0.039964925, 0.19080748, -0.46065), (-0.039964925, 9.159206e-17, -0.49860397), (-0.039964925, -0.19080748, -0.46065), (-0.039964925, -0.35256624, -0.35256624), (-0.039964925, -0.46065, -0.19080748), (0, -0.499, 0), (0, -0.46101588, 0.19095904), (0, -0.3528463, 0.3528463), (0, -0.19095904, 0.46101588), (0, -3.0554937e-17, 0.499), (0, 0.19095904, 0.46101588), (0, 0.3528463, 0.3528463), (0, 0.46101588, 0.19095904), (0, 0.499, 6.1109874e-17), (0, 0.46101588, -0.19095904), (0, 0.3528463, -0.3528463), (0, 0.19095904, -0.46101588), (0, 9.1664814e-17, -0.499), (0, -0.19095904, -0.46101588), (0, -0.3528463, -0.3528463), (0, -0.46101588, -0.19095904), (0.039964925, -0.49860397, 0), (0.039964925, -0.46065, 0.19080748), (0.039964925, -0.35256624, 0.35256624), (0.039964925, -0.19080748, 0.46065), (0.039964925, -3.0530687e-17, 0.49860397), (0.039964925, 0.19080748, 0.46065), (0.039964925, 0.35256624, 0.35256624), (0.039964925, 0.46065, 0.19080748), (0.039964925, 0.49860397, 6.1061374e-17), (0.039964925, 0.46065, -0.19080748), (0.039964925, 0.35256624, -0.35256624), (0.039964925, 0.19080748, -0.46065), (0.039964925, 9.159206e-17, -0.49860397), (0.039964925, -0.19080748, -0.46065), (0.039964925, -0.35256624, -0.35256624), (0.039964925, -0.46065, -0.19080748), (0.0799298, -0.4982529, 0), (0.0799298, -0.46032566, 0.19067313), (0.0799298, -0.352318, 0.352318), (0.0799298, -0.19067313, 0.46032566), (0.0799298, -3.050919e-17, 0.4982529), (0.0799298, 0.19067313, 0.46032566), (0.0799298, 0.352318, 0.352318), (0.0799298, 0.46032566, 0.19067313), (0.0799298, 0.4982529, 6.101838e-17), (0.0799298, 0.46032566, -0.19067313), (0.0799298, 0.352318, -0.352318), (0.0799298, 0.19067313, -0.46032566), (0.0799298, 9.1527574e-17, -0.4982529), (0.0799298, -0.19067313, -0.46032566), (0.0799298, -0.352318, -0.352318), (0.0799298, -0.46032566, -0.19067313), (0.11989427, -0.49205342, 0), (0.11989427, -0.45459807, 0.18830068), (0.11989427, -0.3479343, 0.3479343), (0.11989427, -0.18830068, 0.45459807), (0.11989427, -3.012958e-17, 0.49205342), (0.11989427, 0.18830068, 0.45459807), (0.11989427, 0.3479343, 0.3479343), (0.11989427, 0.45459807, 0.18830068), (0.11989427, 0.49205342, 6.025916e-17), (0.11989427, 0.45459807, -0.18830068), (0.11989427, 0.3479343, -0.3479343), (0.11989427, 0.18830068, -0.45459807), (0.11989427, 9.0388745e-17, -0.49205342), (0.11989427, -0.18830068, -0.45459807), (0.11989427, -0.3479343, -0.3479343), (0.11989427, -0.45459807, -0.18830068), (0.15853986, -0.45993218, 0), (0.15853986, -0.42492193, 0.17600842), (0.15853986, -0.32522115, 0.32522115), (0.15853986, -0.17600842, 0.42492193), (0.15853986, -2.8162724e-17, 0.45993218), (0.15853986, 0.17600842, 0.42492193), (0.15853986, 0.32522115, 0.32522115), (0.15853986, 0.42492193, 0.17600842), (0.15853986, 0.45993218, 5.632545e-17), (0.15853986, 0.42492193, -0.17600842), (0.15853986, 0.32522115, -0.32522115), (0.15853986, 0.17600842, -0.42492193), (0.15853986, 8.448817e-17, -0.45993218), (0.15853986, -0.17600842, -0.42492193), (0.15853986, -0.32522115, -0.32522115), (0.15853986, -0.42492193, -0.17600842), (0.16550787, -0.41087475, 0), (0.16550787, -0.3795988, 0.15723497), (0.16550787, -0.29053232, 0.29053232), (0.16550787, -0.15723497, 0.3795988), (0.16550787, -2.5158824e-17, 0.41087475), (0.16550787, 0.15723497, 0.3795988), (0.16550787, 0.29053232, 0.29053232), (0.16550787, 0.3795988, 0.15723497), (0.16550787, 0.41087475, 5.0317648e-17), (0.16550787, 0.3795988, -0.15723497), (0.16550787, 0.29053232, -0.29053232), (0.16550787, 0.15723497, -0.3795988), (0.16550787, 7.547647e-17, -0.41087475), (0.16550787, -0.15723497, -0.3795988), (0.16550787, -0.29053232, -0.29053232), (0.16550787, -0.3795988, -0.15723497), (0.14725482, -0.34843713, 0), (0.14725482, -0.32191393, 0.13334112), (0.14725482, -0.24638225, 0.24638225), (0.14725482, -0.13334112, 0.32191393), (0.14725482, -2.133562e-17, 0.34843713), (0.14725482, 0.13334112, 0.32191393), (0.14725482, 0.24638225, 0.24638225), (0.14725482, 0.32191393, 0.13334112), (0.14725482, 0.34843713, 4.267124e-17), (0.14725482, 0.32191393, -0.13334112), (0.14725482, 0.24638225, -0.24638225), (0.14725482, 0.13334112, -0.32191393), (0.14725482, 6.400686e-17, -0.34843713), (0.14725482, -0.13334112, -0.32191393), (0.14725482, -0.24638225, -0.24638225), (0.14725482, -0.32191393, -0.13334112), (0.12841667, -0.286, 0), (0.12841667, -0.26422954, 0.109447464), (0.12841667, -0.20223254, 0.20223254), (0.12841667, -0.109447464, 0.26422954), (0.12841667, -1.751245e-17, 0.286), (0.12841667, 0.109447464, 0.26422954), (0.12841667, 0.20223254, 0.20223254), (0.12841667, 0.26422954, 0.109447464), (0.12841667, 0.286, 3.50249e-17), (0.12841667, 0.26422954, -0.109447464), (0.12841667, 0.20223254, -0.20223254), (0.12841667, 0.109447464, -0.26422954), (0.12841667, 5.2537348e-17, -0.286), (0.12841667, -0.109447464, -0.26422954), (0.12841667, -0.20223254, -0.20223254), (0.12841667, -0.26422954, -0.109447464)]
        vector3f[] primvars:D0 = [(0, -1, 0), (0, -0.9238795, 0.38268343), (0, -0.70710677, 0.70710677), (0, -0.38268343, 0.9238795), (0, -6.123234e-17, 1), (0, 0.38268343, 0.9238795), (0, 0.70710677, 0.70710677), (0, 0.9238795, 0.38268343), (0, 1, 1.2246469e-16), (0, 0.9238795, -0.38268343), (0, 0.70710677, -0.70710677), (0, 0.38268343, -0.9238795), (0, 1.8369701e-16, -1), (0, -0.38268343, -0.9238795), (0, -0.70710677, -0.70710677), (0, -0.9238795, -0.38268343), (0, -1, 0), (0, -0.9238795, 0.38268343), (0, -0.70710677, 0.70710677), (0, -0.38268343, 0.9238795), (0, -6.123234e-17, 1), (0, 0.38268343, 0.9238795), (0, 0.70710677, 0.70710677), (0, 0.9238795, 0.38268343), (0, 1, 1.2246469e-16), (0, 0.9238795, -0.38268343), (0, 0.70710677, -0.70710677), (0, 0.38268343, -0.9238795), (0, 1.8369701e-16, -1), (0, -0.38268343, -0.9238795), (0, -0.70710677, -0.70710677), (0, -0.9238795, -0.38268343), (0, -1, 0), (0, -0.9238795, 0.38268343), (0, -0.70710677, 0.70710677), (0, -0.38268343, 0.9238795), (0, -6.123234e-17, 1), (0, 0.38268343, 0.9238795), (0, 0.70710677, 0.70710677), (0, 0.9238795, 0.38268343), (0, 1, 1.2246469e-16), (0, 0.9238795, -0.38268343), (0, 0.70710677, -0.70710677), (0, 0.38268343, -0.9238795), (0, 1.8369701e-16, -1), (0, -0.38268343, -0.9238795), (0, -0.70710677, -0.70710677), (0, -0.9238795, -0.38268343), (0, -1, 0), (0, -0.9238795, 0.38268343), (0, -0.70710677, 0.70710677), (0, -0.38268343, 0.9238795), (0, -6.123234e-17, 1), (0, 0.38268343, 0.9238795), (0, 0.70710677, 0.70710677), (0, 0.9238795, 0.38268343), (0, 1, 1.2246469e-16), (0, 0.9238795, -0.38268343), (0, 0.70710677, -0.70710677), (0, 0.38268343, -0.9238795), (0, 1.8369701e-16, -1), (0, -0.38268343, -0.9238795), (0, -0.70710677, -0.70710677), (0, -0.9238795, -0.38268343), (0, -1, 0), (0, -0.9238795, 0.38268343), (0, -0.70710677, 0.70710677), (0, -0.38268343, 0.9238795), (0, -6.123234e-17, 1), (0, 0.38268343, 0.9238795), (0, 0.70710677, 0.70710677), (0, 0.9238795, 0.38268343), (0, 1, 1.2246469e-16), (0, 0.9238795, -0.38268343), (0, 0.70710677, -0.70710677), (0, 0.38268343, -0.9238795), (0, 1.8369701e-16, -1), (0, -0.38268343, -0.9238795), (0, -0.70710677, -0.70710677), (0, -0.9238795, -0.38268343), (0, -1, 0), (0, -0.9238795, 0.38268343), (0, -0.70710677, 0.70710677), (0, -0.38268343, 0.9238795), (0, -6.123234e-17, 1), (0, 0.38268343, 0.9238795), (0, 0.70710677, 0.70710677), (0, 0.9238795, 0.38268343), (0, 1, 1.2246469e-16), (0, 0.9238795, -0.38268343), (0, 0.70710677, -0.70710677), (0, 0.38268343, -0.9238795), (0, 1.8369701e-16, -1), (0, -0.38268343, -0.9238795), (0, -0.70710677, -0.70710677), (0, -0.9238795, -0.38268343), (0, -1, 0), (0, -0.9238795, 0.38268343), (0, -0.70710677, 0.70710677), (0, -0.38268343, 0.9238795), (0, -6.123234e-17, 1), (0, 0.38268343, 0.9238795), (0, 0.70710677, 0.70710677), (0, 0.9238795, 0.38268343), (0, 1, 1.2246469e-16), (0, 0.9238795, -0.38268343), (0, 0.70710677, -0.70710677), (0, 0.38268343, -0.9238795), (0, 1.8369701e-16, -1), (0, -0.38268343, -0.9238795), (0, -0.70710677, -0.70710677), (0, -0.9238795, -0.38268343), (0, -1, 0), (0, -0.9238795, 0.38268343), (0, -0.70710677, 0.70710677), (0, -0.38268343, 0.9238795), (0, -6.123234e-17, 1), (0, 0.38268343, 0.9238795), (0, 0.70710677, 0.70710677), (0, 0.9238795, 0.38268343), (0, 1, 1.2246469e-16), (0, 0.9238795, -0.38268343), (0, 0.70710677, -0.70710677), (0, 0.38268343, -0.9238795), (0, 1.8369701e-16, -1), (0, -0.38268343, -0.9238795), (0, -0.70710677, -0.70710677), (0, -0.9238795, -0.38268343), (0, -1, 0), (0, -0.9238795, 0.38268343), (0, -0.70710677, 0.70710677), (0, -0.38268343, 0.9238795), (0, -6.123234e-17, 1), (0, 0.38268343, 0.9238795), (0, 0.70710677, 0.70710677), (0, 0.9238795, 0.38268343), (0, 1, 1.2246469e-16), (0, 0.9238795, -0.38268343), (0, 0.70710677, -0.70710677), (0, 0.38268343, -0.9238795), (0, 1.8369701e-16, -1), (0, -0.38268343, -0.9238795), (0, -0.70710677, -0.70710677), (0, -0.9238795, -0.38268343), (0, -1, 0), (0, -0.9238795, 0.38268343), (0, -0.70710677, 0.70710677), (0, -0.38268343, 0.9238795), (0, -6.123234e-17, 1), (0, 0.38268343, 0.9238795), (0, 0.70710677, 0.70710677), (0, 0.9238795, 0.38268343), (0, 1, 1.2246469e-16), (0, 0.9238795, -0.38268343), (0, 0.70710677, -0.70710677), (0, 0.38268343, -0.9238795), (0, 1.8369701e-16, -1), (0, -0.38268343, -0.9238795), (0, -0.70710677, -0.70710677), (0, -0.9238795, -0.38268343), (0, -1, 0), (0, -0.9238795, 0.38268343), (0, -0.70710677, 0.70710677), (0, -0.38268343, 0.9238795), (0, -6.123234e-17, 1), (0, 0.38268343, 0.9238795), (0, 0.70710677, 0.70710677), (0, 0.9238795, 0.38268343), (0, 1, 1.2246469e-16), (0, 0.9238795, -0.38268343), (0, 0.70710677, -0.70710677), (0, 0.38268343, -0.9238795), (0, 1.8369701e-16, -1), (0, -0.38268343, -0.9238795), (0, -0.70710677, -0.70710677), (0, -0.9238795, -0.38268343), (0, -1, 0), (0, -0.9238795, 0.38268343), (0, -0.70710677, 0.70710677), (0, -0.38268343, 0.9238795), (0, -6.123234e-17, 1), (0, 0.38268343, 0.9238795), (0, 0.70710677, 0.70710677), (0, 0.9238795, 0.38268343), (0, 1, 1.2246469e-16), (0, 0.9238795, -0.38268343), (0, 0.70710677, -0.70710677), (0, 0.38268343, -0.9238795), (0, 1.8369701e-16, -1), (0, -0.38268343, -0.9238795), (0, -0.70710677, -0.70710677), (0, -0.9238795, -0.38268343), (0, -1, 0), (0, -0.9238795, 0.38268343), (0, -0.70710677, 0.70710677), (0, -0.38268343, 0.9238795), (0, -6.123234e-17, 1), (0, 0.38268343, 0.9238795), (0, 0.70710677, 0.70710677), (0, 0.9238795, 0.38268343), (0, 1, 1.2246469e-16), (0, 0.9238795, -0.38268343), (0, 0.70710677, -0.70710677), (0, 0.38268343, -0.9238795), (0, 1.8369701e-16, -1), (0, -0.38268343, -0.9238795), (0, -0.70710677, -0.70710677), (0, -0.9238795, -0.38268343), (0, -1, 0), (0, -0.9238795, 0.38268343), (0, -0.70710677, 0.70710677), (0, -0.38268343, 0.9238795), (0, -6.123234e-17, 1), (0, 0.38268343, 0.9238795), (0, 0.70710677, 0.70710677), (0, 0.9238795, 0.38268343), (0, 1, 1.2246469e-16), (0, 0.9238795, -0.38268343), (0, 0.70710677, -0.70710677), (0, 0.38268343, -0.9238795), (0, 1.8369701e-16, -1), (0, -0.38268343, -0.9238795), (0, -0.70710677, -0.70710677), (0, -0.9238795, -0.38268343), (0, -1, 0), (0, -0.9238795, 0.38268343), (0, -0.70710677, 0.70710677), (0, -0.38268343, 0.9238795), (0, -6.123234e-17, 1), (0, 0.38268343, 0.9238795), (0, 0.70710677, 0.70710677), (0, 0.9238795, 0.38268343), (0, 1, 1.2246469e-16), (0, 0.9238795, -0.38268343), (0, 0.70710677, -0.70710677), (0, 0.38268343, -0.9238795), (0, 1.8369701e-16, -1), (0, -0.38268343, -0.9238795), (0, -0.70710677, -0.70710677), (0, -0.9238795, -0.38268343)] (
            interpolation = "vertex"
        )
        float[] primvars:material = [128016330, 163296200, 138684590, 53449150, 103982900, 67815176, 1630000, 1630000, 1630000, 1080, 0.15, 128016330, 163296200, 138684590, 53449150, 103982900, 67815176, 1630000, 1630000, 1630000, 1080, 0.15, 128016330, 163296200, 138684590, 53449150, 103982900, 67815176, 1630000, 1630000, 1630000, 1080, 0.15, 128016330, 163296200, 138684590, 53449150, 103982900, 67815176, 1630000, 1630000, 1630000, 1080, 0.15, 128016330, 163296200, 138684590, 53449150, 103982900, 67815176, 1630000, 1630000, 1630000, 1080, 0.15, 128016330, 163296200, 138684590, 53449150, 103982900, 67815176, 1630000, 1630000, 1630000, 1080, 0.15, 128016330, 163296200, 138684590, 53449150, 103982900, 67815176, 1630000, 1630000, 1630000, 1080, 0.15, 128016330, 163296200, 138684590, 53449150, 103982900, 67815176, 1630000, 1630000, 1630000, 1080, 0.15, 128016330, 163296200, 138684590, 53449150, 103982900, 67815176, 1630000, 1630000, 1630000, 1080, 0.15, 128016330, 163296200, 138684590, 53449150, 103982900, 67815176, 1630000, 1630000, 1630000, 1080, 0.15, 128016330, 163296200, 138684590, 53449150, 103982900, 67815176, 1630000, 1630000, 1630000, 1080, 0.15, 128016330, 163296200, 138684590, 53449150, 103982900, 67815176, 1630000, 1630000, 1630000, 1080, 0.15, 128016330, 163296200, 138684590, 53449150, 103982900, 67815176, 1630000, 1630000, 1630000, 1080, 0.15, 128016330, 163296200, 138684590, 53449150, 103982900, 67815176, 1630000, 1630000, 1630000, 1080, 0.15, 128016330, 163296200, 138684590, 53449150, 103982900, 67815176, 1630000, 1630000, 1630000, 1080, 0.15, 128016330, 163296200, 138684590, 53449150, 103982900, 67815176, 1630000, 1630000, 1630000, 1080, 0.15, 128016330, 163296200, 138684590, 53449150, 103982900, 67815176, 1630000, 1630000, 1630000, 1080, 0.15, 128016330, 163296200, 138684590, 53449150, 103982900, 67815176, 1630000, 1630000, 1630000, 1080, 0.15, 128016330, 163296200, 138684590, 53449150, 103982900, 67815176, 1630000, 1630000, 1630000, 1080, 0.15, 128016330, 163296200, 138684590, 53449150, 103982900, 67815176, 1630000, 1630000, 1630000, 1080, 0.15, 128016330, 163296200, 138684590, 53449150, 103982900, 67815176, 1630000, 1630000, 1630000, 1080, 0.15, 128016330, 163296200, 138684590, 53449150, 103982900, 67815176, 1630000, 1630000, 1630000, 1080, 0.15, 128016330, 163296200, 138684590, 53449150, 103982900, 67815176, 1630000, 1630000, 1630000, 1080, 0.15, 128016330, 163296200, 138684590, 53449150, 103982900, 67815176, 1630000, 1630000, 1630000, 1080, 0.15, 128016330, 163296200, 138684590, 53449150, 103982900, 67815176, 1630000, 1630000, 1630000, 1080, 0.15, 128016330, 163296200, 138684590, 53449150, 103982900, 67815176, 1630000, 1630000, 1630000, 1080, 0.15, 128016330, 163296200, 138684590, 53449150, 103982900, 67815176, 1630000, 1630000, 1630000, 1080, 0.15, 128016330, 163296200, 138684590, 53449150, 103982900, 67815176, 1630000, 1630000, 1630000, 1080, 0.15, 128016330, 163296200, 138684590, 53449150, 103982900, 67815176, 1630000, 1630000, 1630000, 1080, 0.15, 128016330, 163296200, 138684590, 53449150, 103982900, 67815176, 1630000, 1630000, 1630000, 1080, 0.15, 128016330, 163296200, 138684590, 53449150, 103982900, 67815176, 1630000, 1630000, 1630000, 1080, 0.15, 128016330, 163296200, 138684590, 53449150, 103982900, 67815176, 1630000, 1630000, 1630000, 1080, 0.15, 65757080, 705736500, 66649000, 23586164, 32335870, 34435000, 1630000, 1630000, 1630000, 1000, 0.15, 65757080, 705736500, 66649000, 23586164, 32335870, 34435000, 1630000, 1630000, 1630000, 1000, 0.15, 65757080, 705736500, 66649000, 23586164, 32335870, 34435000, 1630000, 1630000, 1630000, 1000, 0.15, 65757080, 705736500, 66649000, 23586164, 32335870, 34435000, 1630000, 1630000, 1630000, 1000, 0.15, 65757080, 705736500, 66649000, 23586164, 32335870, 34435000, 1630000, 1630000, 1630000, 1000, 0.15, 65757080, 705736500, 66649000, 23586164, 32335870, 34435000, 1630000, 1630000, 1630000, 1000, 0.15, 65757080, 705736500, 66649000, 23586164, 32335870, 34435000, 1630000, 1630000, 1630000, 1000, 0.15, 65757080, 705736500, 66649000, 23586164, 32335870, 34435000, 1630000, 1630000, 1630000, 1000, 0.15, 65757080, 705736500, 66649000, 23586164, 32335870, 34435000, 1630000, 1630000, 1630000, 1000, 0.15, 65757080, 705736500, 66649000, 23586164, 32335870, 34435000, 1630000, 1630000, 1630000, 1000, 0.15, 65757080, 705736500, 66649000, 23586164, 32335870, 34435000, 1630000, 1630000, 1630000, 1000, 0.15, 65757080, 705736500, 66649000, 23586164, 32335870, 34435000, 1630000, 1630000, 1630000, 1000, 0.15, 65757080, 705736500, 66649000, 23586164, 32335870, 34435000, 1630000, 1630000, 1630000, 1000, 0.15, 65757080, 705736500, 66649000, 23586164, 32335870, 34435000, 1630000, 1630000, 1630000, 1000, 0.15, 65757080, 705736500, 66649000, 23586164, 32335870, 34435000, 1630000, 1630000, 1630000, 1000, 0.15, 65757080, 705736500, 66649000, 23586164, 32335870, 34435000, 1630000, 1630000, 1630000, 1000, 0.15, 65757080, 705736500, 66649000, 23586164, 32335870, 34435000, 1630000, 1630000, 1630000, 1000, 0.15, 65757080, 705736500, 66649000, 23586164, 32335870, 34435000, 1630000, 1630000, 1630000, 1000, 0.15, 65757080, 705736500, 66649000, 23586164, 32335870, 34435000, 1630000, 1630000, 1630000, 1000, 0.15, 65757080, 705736500, 66649000, 23586164, 32335870, 34435000, 1630000, 1630000, 1630000, 1000, 0.15, 65757080, 705736500, 66649000, 23586164, 32335870, 34435000, 1630000, 1630000, 1630000, 1000, 0.15, 65757080, 705736500, 66649000, 23586164, 32335870, 34435000, 1630000, 1630000, 1630000, 1000, 0.15, 65757080, 705736500, 66649000, 23586164, 32335870, 34435000, 1630000, 1630000, 1630000, 1000, 0.15, 65757080, 705736500, 66649000, 23586164, 32335870, 34435000, 1630000, 1630000, 1630000, 1000, 0.15, 65757080, 705736500, 66649000, 23586164, 32335870, 34435000, 1630000, 1630000, 1630000, 1000, 0.15, 65757080, 705736500, 66649000, 23586164, 32335870, 34435000, 1630000, 1630000, 1630000, 1000, 0.15, 65757080, 705736500, 66649000, 23586164, 32335870, 34435000, 1630000, 1630000, 1630000, 1000, 0.15, 65757080, 705736500, 66649000, 23586164, 32335870, 34435000, 1630000, 1630000, 1630000, 1000, 0.15, 65757080, 705736500, 66649000, 23586164, 32335870, 34435000, 1630000, 1630000, 1630000, 1000, 0.15, 65757080, 705736500, 66649000, 23586164, 32335870, 34435000, 1630000, 1630000, 1630000, 1000, 0.15, 65757080, 705736500, 66649000, 23586164, 32335870, 34435000, 1630000, 1630000, 1630000, 1000, 0.15, 65757080, 705736500, 66649000, 23586164, 32335870, 34435000, 1630000, 1630000, 1630000, 1000, 0.15, 79321380, 188883890, 8616282, 5914382, 6088905, 5750776, 200000, 200000, 54000000, 1150, 0.15, 79321380, 188883890, 8616282, 5914382, 6088905, 5750776, 200000, 200000, 54000000, 1150, 0.15, 79321380, 188883890, 8616282, 5914382, 6088905, 5750776, 200000, 200000, 54000000, 1150, 0.15, 79321380, 188883890, 8616282, 5914382, 6088905, 5750776, 200000, 200000, 54000000, 1150, 0.15, 79321380, 188883890, 8616282, 5914382, 6088905, 5750776, 200000, 200000, 54000000, 1150, 0.15, 79321380, 188883890, 8616282, 5914382, 6088905, 5750776, 200000, 200000, 54000000, 1150, 0.15, 79321380, 188883890, 8616282, 5914382, 6088905, 5750776, 200000, 200000, 54000000, 1150, 0.15, 79321380, 188883890, 8616282, 5914382, 6088905, 5750776, 200000, 200000, 54000000, 1150, 0.15, 79321380, 188883890, 8616282, 5914382, 6088905, 5750776, 200000, 200000, 54000000, 1150, 0.15, 79321380, 188883890, 8616282, 5914382, 6088905, 5750776, 200000, 200000, 54000000, 1150, 0.15, 79321380, 188883890, 8616282, 5914382, 6088905, 5750776, 200000, 200000, 54000000, 1150, 0.15, 79321380, 188883890, 8616282, 5914382, 6088905, 5750776, 200000, 200000, 54000000, 1150, 0.15, 79321380, 188883890, 8616282, 5914382, 6088905, 5750776, 200000, 200000, 54000000, 1150, 0.15, 79321380, 188883890, 8616282, 5914382, 6088905, 5750776, 200000, 200000, 54000000, 1150, 0.15, 79321380, 188883890, 8616282, 5914382, 6088905, 5750776, 200000, 200000, 54000000, 1150, 0.15, 79321380, 188883890, 8616282, 5914382, 6088905, 5750776, 200000, 200000, 54000000, 1150, 0.15, 79321380, 188883890, 8616282, 5914382, 6088905, 5750776, 200000, 200000, 54000000, 1150, 0.15, 79321380, 188883890, 8616282, 5914382, 6088905, 5750776, 200000, 200000, 54000000, 1150, 0.15, 79321380, 188883890, 8616282, 5914382, 6088905, 5750776, 200000, 200000, 54000000, 1150, 0.15, 79321380, 188883890, 8616282, 5914382, 6088905, 5750776, 200000, 200000, 54000000, 1150, 0.15, 79321380, 188883890, 8616282, 5914382, 6088905, 5750776, 200000, 200000, 54000000, 1150, 0.15, 79321380, 188883890, 8616282, 5914382, 6088905, 5750776, 200000, 200000, 54000000, 1150, 0.15, 79321380, 188883890, 8616282, 5914382, 6088905, 5750776, 200000, 200000, 54000000, 1150, 0.15, 79321380, 188883890, 8616282, 5914382, 6088905, 5750776, 200000, 200000, 54000000, 1150, 0.15, 79321380, 188883890, 8616282, 5914382, 6088905, 5750776, 200000, 200000, 54000000, 1150, 0.15, 79321380, 188883890, 8616282, 5914382, 6088905, 5750776, 200000, 200000, 54000000, 1150, 0.15, 79321380, 188883890, 8616282, 5914382, 6088905, 5750776, 200000, 200000, 54000000, 1150, 0.15, 79321380, 188883890, 8616282, 5914382, 6088905, 5750776, 200000, 200000, 54000000, 1150, 0.15, 79321380, 188883890, 8616282, 5914382, 6088905, 5750776, 200000, 200000, 54000000, 1150, 0.15, 79321380, 188883890, 8616282, 5914382, 6088905, 5750776, 200000, 200000, 54000000, 1150, 0.15, 79321380, 188883890, 8616282, 5914382, 6088905, 5750776, 200000, 200000, 54000000, 1150, 0.15, 79321380, 188883890, 8616282, 5914382, 6088905, 5750776, 200000, 200000, 54000000, 1150, 0.15, 79321380, 188883890, 8616282, 5914382, 6088905, 5750776, 200000, 200000, 54000000, 1150, 0.15, 79321380, 188883890, 8616282, 5914382, 6088905, 5750776, 200000, 200000, 54000000, 1150, 0.15, 79321380, 188883890, 8616282, 5914382, 6088905, 5750776, 200000, 200000, 54000000, 1150, 0.15, 79321380, 188883890, 8616282, 5914382, 6088905, 5750776, 200000, 200000, 54000000, 1150, 0.15, 79321380, 188883890, 8616282, 5914382, 6088905, 5750776, 200000, 200000, 54000000, 1150, 0.15, 79321380, 188883890, 8616282, 5914382, 6088905, 5750776, 200000, 200000, 54000000, 1150, 0.15, 79321380, 188883890, 8616282, 5914382, 6088905, 5750776, 200000, 200000, 54000000, 1150, 0.15, 79321380, 188883890, 8616282, 5914382, 6088905, 5750776, 200000, 200000, 54000000, 1150, 0.15, 79321380, 188883890, 8616282, 5914382, 6088905, 5750776, 200000, 200000, 54000000, 1150, 0.15, 79321380, 188883890, 8616282, 5914382, 6088905, 5750776, 200000, 200000, 54000000, 1150, 0.15, 79321380, 188883890, 8616282, 5914382, 6088905, 5750776, 200000, 200000, 54000000, 1150, 0.15, 79321380, 188883890, 8616282, 5914382, 6088905, 5750776, 200000, 200000, 54000000, 1150, 0.15, 79321380, 188883890, 8616282, 5914382, 6088905, 5750776, 200000, 200000, 54000000, 1150, 0.15, 79321380, 188883890, 8616282, 5914382, 6088905, 5750776, 200000, 200000, 54000000, 1150, 0.15, 79321380, 188883890, 8616282, 5914382, 6088905, 5750776, 200000, 200000, 54000000, 1150, 0.15, 79321380, 188883890, 8616282, 5914382, 6088905, 5750776, 200000, 200000, 54000000, 1150, 0.15, 79321380, 188883890, 8616282, 5914382, 6088905, 5750776, 200000, 200000, 54000000, 1150, 0.15, 79321380, 188883890, 8616282, 5914382, 6088905, 5750776, 200000, 200000, 54000000, 1150, 0.15, 79321380, 188883890, 8616282, 5914382, 6088905, 5750776, 200000, 200000, 54000000, 1150, 0.15, 79321380, 188883890, 8616282, 5914382, 6088905, 5750776, 200000, 200000, 54000000, 1150, 0.15, 79321380, 188883890, 8616282, 5914382, 6088905, 5750776, 200000, 200000, 54000000, 1150, 0.15, 79321380, 188883890, 8616282, 5914382, 6088905, 5750776, 200000, 200000, 54000000, 1150, 0.15, 79321380, 188883890, 8616282, 5914382, 6088905, 5750776, 200000, 200000, 54000000, 1150, 0.15, 79321380, 188883890, 8616282, 5914382, 6088905, 5750776, 200000, 200000, 54000000, 1150, 0.15, 79321380, 188883890, 8616282, 5914382, 6088905, 5750776, 200000, 200000, 54000000, 1150, 0.15, 79321380, 188883890, 8616282, 5914382, 6088905, 5750776, 200000, 200000, 54000000, 1150, 0.15, 79321380, 188883890, 8616282, 5914382, 6088905, 5750776, 200000, 200000, 54000000, 1150, 0.15, 79321380, 188883890, 8616282, 5914382, 6088905, 5750776, 200000, 200000, 54000000, 1150, 0.15, 79321380, 188883890, 8616282, 5914382, 6088905, 5750776, 200000, 200000, 54000000, 1150, 0.15, 79321380, 188883890, 8616282, 5914382, 6088905, 5750776, 200000, 200000, 54000000, 1150, 0.15, 79321380, 188883890, 8616282, 5914382, 6088905, 5750776, 200000, 200000, 54000000, 1150, 0.15, 79321380, 188883890, 8616282, 5914382, 6088905, 5750776, 200000, 200000, 54000000, 1150, 0.15, 79321380, 188883890, 8616282, 5914382, 6088905, 5750776, 200000, 200000, 54000000, 1150, 0.15, 79321380, 188883890, 8616282, 5914382, 6088905, 5750776, 200000, 200000, 54000000, 1150, 0.15, 79321380, 188883890, 8616282, 5914382, 6088905, 5750776, 200000, 200000, 54000000, 1150, 0.15, 79321380, 188883890, 8616282, 5914382, 6088905, 5750776, 200000, 200000, 54000000, 1150, 0.15, 79321380, 188883890, 8616282, 5914382, 6088905, 5750776, 200000, 200000, 54000000, 1150, 0.15, 79321380, 188883890, 8616282, 5914382, 6088905, 5750776, 200000, 200000, 54000000, 1150, 0.15, 79321380, 188883890, 8616282, 5914382, 6088905, 5750776, 200000, 200000, 54000000, 1150, 0.15, 79321380, 188883890, 8616282, 5914382, 6088905, 5750776, 200000, 200000, 54000000, 1150, 0.15, 79321380, 188883890, 8616282, 5914382, 6088905, 5750776, 200000, 200000, 54000000, 1150, 0.15, 79321380, 188883890, 8616282, 5914382, 6088905, 5750776, 200000, 200000, 54000000, 1150, 0.15, 79321380, 188883890, 8616282, 5914382, 6088905, 5750776, 200000, 200000, 54000000, 1150, 0.15, 79321380, 188883890, 8616282, 5914382, 6088905, 5750776, 200000, 200000, 54000000, 1150, 0.15, 79321380, 188883890, 8616282, 5914382, 6088905, 5750776, 200000, 200000, 54000000, 1150, 0.15, 79321380, 188883890, 8616282, 5914382, 6088905, 5750776, 200000, 200000, 54000000, 1150, 0.15, 79321380, 188883890, 8616282, 5914382, 6088905, 5750776, 200000, 200000, 54000000, 1150, 0.15, 79321380, 188883890, 8616282, 5914382, 6088905, 5750776, 200000, 200000, 54000000, 1150, 0.15, 79321380, 188883890, 8616282, 5914382, 6088905, 5750776, 200000, 200000, 54000000, 1150, 0.15, 79321380, 188883890, 8616282, 5914382, 6088905, 5750776, 200000, 200000, 54000000, 1150, 0.15, 79321380, 188883890, 8616282, 5914382, 6088905, 5750776, 200000, 200000, 54000000, 1150, 0.15, 79321380, 188883890, 8616282, 5914382, 6088905, 5750776, 200000, 200000, 54000000, 1150, 0.15, 79321380, 188883890, 8616282, 5914382, 6088905, 5750776, 200000, 200000, 54000000, 1150, 0.15, 79321380, 188883890, 8616282, 5914382, 6088905, 5750776, 200000, 200000, 54000000, 1150, 0.15, 79321380, 188883890, 8616282, 5914382, 6088905, 5750776, 200000, 200000, 54000000, 1150, 0.15, 79321380, 188883890, 8616282, 5914382, 6088905, 5750776, 200000, 200000, 54000000, 1150, 0.15, 79321380, 188883890, 8616282, 5914382, 6088905, 5750776, 200000, 200000, 54000000, 1150, 0.15, 79321380, 188883890, 8616282, 5914382, 6088905, 5750776, 200000, 200000, 54000000, 1150, 0.15, 79321380, 188883890, 8616282, 5914382, 6088905, 5750776, 200000, 200000, 54000000, 1150, 0.15, 79321380, 188883890, 8616282, 5914382, 6088905, 5750776, 200000, 200000, 54000000, 1150, 0.15, 79321380, 188883890, 8616282, 5914382, 6088905, 5750776, 200000, 200000, 54000000, 1150, 0.15, 79321380, 188883890, 8616282, 5914382, 6088905, 5750776, 200000, 200000, 54000000, 1150, 0.15, 79321380, 188883890, 8616282, 5914382, 6088905, 5750776, 200000, 200000, 54000000, 1150, 0.15, 79321380, 188883890, 8616282, 5914382, 6088905, 5750776, 200000, 200000, 54000000, 1150, 0.15, 65757080, 705736500, 66649000, 23586164, 32335870, 34435000, 1630000, 1630000, 1630000, 1000, 0.15, 65757080, 705736500, 66649000, 23586164, 32335870, 34435000, 1630000, 1630000, 1630000, 1000, 0.15, 65757080, 705736500, 66649000, 23586164, 32335870, 34435000, 1630000, 1630000, 1630000, 1000, 0.15, 65757080, 705736500, 66649000, 23586164, 32335870, 34435000, 1630000, 1630000, 1630000, 1000, 0.15, 65757080, 705736500, 66649000, 23586164, 32335870, 34435000, 1630000, 1630000, 1630000, 1000, 0.15, 65757080, 705736500, 66649000, 23586164, 32335870, 34435000, 1630000, 1630000, 1630000, 1000, 0.15, 65757080, 705736500, 66649000, 23586164, 32335870, 34435000, 1630000, 1630000, 1630000, 1000, 0.15, 65757080, 705736500, 66649000, 23586164, 32335870, 34435000, 1630000, 1630000, 1630000, 1000, 0.15, 65757080, 705736500, 66649000, 23586164, 32335870, 34435000, 1630000, 1630000, 1630000, 1000, 0.15, 65757080, 705736500, 66649000, 23586164, 32335870, 34435000, 1630000, 1630000, 1630000, 1000, 0.15, 65757080, 705736500, 66649000, 23586164, 32335870, 34435000, 1630000, 1630000, 1630000, 1000, 0.15, 65757080, 705736500, 66649000, 23586164, 32335870, 34435000, 1630000, 1630000, 1630000, 1000, 0.15, 65757080, 705736500, 66649000, 23586164, 32335870, 34435000, 1630000, 1630000, 1630000, 1000, 0.15, 65757080, 705736500, 66649000, 23586164, 32335870, 34435000, 1630000, 1630000, 1630000, 1000, 0.15, 65757080, 705736500, 66649000, 23586164, 32335870, 34435000, 1630000, 1630000, 1630000, 1000, 0.15, 65757080, 705736500, 66649000, 23586164, 32335870, 34435000, 1630000, 1630000, 1630000, 1000, 0.15, 65757080, 705736500, 66649000, 23586164, 32335870, 34435000, 1630000, 1630000, 1630000, 1000, 0.15, 65757080, 705736500, 66649000, 23586164, 32335870, 34435000, 1630000, 1630000, 1630000, 1000, 0.15, 65757080, 705736500, 66649000, 23586164, 32335870, 34435000, 1630000, 1630000, 1630000, 1000, 0.15, 65757080, 705736500, 66649000, 23586164, 32335870, 34435000, 1630000, 1630000, 1630000, 1000, 0.15, 65757080, 705736500, 66649000, 23586164, 32335870, 34435000, 1630000, 1630000, 1630000, 1000, 0.15, 65757080, 705736500, 66649000, 23586164, 32335870, 34435000, 1630000, 1630000, 1630000, 1000, 0.15, 65757080, 705736500, 66649000, 23586164, 32335870, 34435000, 1630000, 1630000, 1630000, 1000, 0.15, 65757080, 705736500, 66649000, 23586164, 32335870, 34435000, 1630000, 1630000, 1630000, 1000, 0.15, 65757080, 705736500, 66649000, 23586164, 32335870, 34435000, 1630000, 1630000, 1630000, 1000, 0.15, 65757080, 705736500, 66649000, 23586164, 32335870, 34435000, 1630000, 1630000, 1630000, 1000, 0.15, 65757080, 705736500, 66649000, 23586164, 32335870, 34435000, 1630000, 1630000, 1630000, 1000, 0.15, 65757080, 705736500, 66649000, 23586164, 32335870, 34435000, 1630000, 1630000, 1630000, 1000, 0.15, 65757080, 705736500, 66649000, 23586164, 32335870, 34435000, 1630000, 1630000, 1630000, 1000, 0.15, 65757080, 705736500, 66649000, 23586164, 32335870, 34435000, 1630000, 1630000, 1630000, 1000, 0.15, 65757080, 705736500, 66649000, 23586164, 32335870, 34435000, 1630000, 1630000, 1630000, 1000, 0.15, 65757080, 705736500, 66649000, 23586164, 32335870, 34435000, 1630000, 1630000, 1630000, 1000, 0.15, 128016330, 163296200, 138684590, 53449150, 103982900, 67815176, 1630000, 1630000, 1630000, 1080, 0.15, 128016330, 163296200, 138684590, 53449150, 103982900, 67815176, 1630000, 1630000, 1630000, 1080, 0.15, 128016330, 163296200, 138684590, 53449150, 103982900, 67815176, 1630000, 1630000, 1630000, 1080, 0.15, 128016330, 163296200, 138684590, 53449150, 103982900, 67815176, 1630000, 1630000, 1630000, 1080, 0.15, 128016330, 163296200, 138684590, 53449150, 103982900, 67815176, 1630000, 1630000, 1630000, 1080, 0.15, 128016330, 163296200, 138684590, 53449150, 103982900, 67815176, 1630000, 1630000, 1630000, 1080, 0.15, 128016330, 163296200, 138684590, 53449150, 103982900, 67815176, 1630000, 1630000, 1630000, 1080, 0.15, 128016330, 163296200, 138684590, 53449150, 103982900, 67815176, 1630000, 1630000, 1630000, 1080, 0.15, 128016330, 163296200, 138684590, 53449150, 103982900, 67815176, 1630000, 1630000, 1630000, 1080, 0.15, 128016330, 163296200, 138684590, 53449150, 103982900, 67815176, 1630000, 1630000, 1630000, 1080, 0.15, 128016330, 163296200, 138684590, 53449150, 103982900, 67815176, 1630000, 1630000, 1630000, 1080, 0.15, 128016330, 163296200, 138684590, 53449150, 103982900, 67815176, 1630000, 1630000, 1630000, 1080, 0.15, 128016330, 163296200, 138684590, 53449150, 103982900, 67815176, 1630000, 1630000, 1630000, 1080, 0.15, 128016330, 163296200, 138684590, 53449150, 103982900, 67815176, 1630000, 1630000, 1630000, 1080, 0.15, 128016330, 163296200, 138684590, 53449150, 103982900, 67815176, 1630000, 1630000, 1630000, 1080, 0.15, 128016330, 163296200, 138684590, 53449150, 103982900, 67815176, 1630000, 1630000, 1630000, 1080, 0.15, 128016330, 163296200, 138684590, 53449150, 103982900, 67815176, 1630000, 1630000, 1630000, 1080, 0.15, 128016330, 163296200, 138684590, 53449150, 103982900, 67815176, 1630000, 1630000, 1630000, 1080, 0.15, 128016330, 163296200, 138684590, 53449150, 103982900, 67815176, 1630000, 1630000, 1630000, 1080, 0.15, 128016330, 163296200, 138684590, 53449150, 103982900, 67815176, 1630000, 1630000, 1630000, 1080, 0.15, 128016330, 163296200, 138684590, 53449150, 103982900, 67815176, 1630000, 1630000, 1630000, 1080, 0.15, 128016330, 163296200, 138684590, 53449150, 103982900, 67815176, 1630000, 1630000, 1630000, 1080, 0.15, 128016330, 163296200, 138684590, 53449150, 103982900, 67815176, 1630000, 1630000, 1630000, 1080, 0.15, 128016330, 163296200, 138684590, 53449150, 103982900, 67815176, 1630000, 1630000, 1630000, 1080, 0.15, 128016330, 163296200, 138684590, 53449150, 103982900, 67815176, 1630000, 1630000, 1630000, 1080, 0.15, 128016330, 163296200, 138684590, 53449150, 103982900, 67815176, 1630000, 1630000, 1630000, 1080, 0.15, 128016330, 163296200, 138684590, 53449150, 103982900, 67815176, 1630000, 1630000, 1630000, 1080, 0.15, 128016330, 163296200, 138684590, 53449150, 103982900, 67815176, 1630000, 1630000, 1630000, 1080, 0.15, 128016330, 163296200, 138684590, 53449150, 103982900, 67815176, 1630000, 1630000, 1630000, 1080, 0.15, 128016330, 163296200, 138684590, 53449150, 103982900, 67815176, 1630000, 1630000, 1630000, 1080, 0.15, 128016330, 163296200, 138684590, 53449150, 103982900, 67815176, 1630000, 1630000, 1630000, 1080, 0.15, 128016330, 163296200, 138684590, 53449150, 103982900, 67815176, 1630000, 1630000, 1630000, 1080, 0.15] (
            elementSize = 11
            interpolation = "uniform"
        )
        float[] primvars:shellThickness = [0.009, 0.009, 0.009, 0.009, 0.009, 0.009, 0.009, 0.009, 0.009, 0.009, 0.009, 0.009, 0.009, 0.009, 0.009, 0.009, 0.009, 0.009, 0.009, 0.009, 0.009, 0.009, 0.009, 0.009, 0.009, 0.009, 0.009, 0.009, 0.009, 0.009, 0.009, 0.009, 0.0031, 0.0031, 0.0031, 0.0031, 0.0031, 0.0031, 0.0031, 0.0031, 0.0031, 0.0031, 0.0031, 0.0031, 0.0031, 0.0031, 0.0031, 0.0031, 0.0031, 0.0031, 0.0031, 0.0031, 0.0031, 0.0031, 0.0031, 0.0031, 0.0031, 0.0031, 0.0031, 0.0031, 0.0031, 0.0031, 0.0031, 0.0031, 0.0081, 0.0081, 0.0081, 0.0081, 0.0081, 0.0081, 0.0081, 0.0081, 0.0081, 0.0081, 0.0081, 0.0081, 0.0081, 0.0081, 0.0081, 0.0081, 0.0081, 0.0081, 0.0081, 0.0081, 0.0081, 0.0081, 0.0081, 0.0081, 0.0081, 0.0081, 0.0081, 0.0081, 0.0081, 0.0081, 0.0081, 0.0081, 0.0081, 0.0081, 0.0081, 0.0081, 0.0081, 0.0081, 0.0081, 0.0081, 0.0081, 0.0081, 0.0081, 0.0081, 0.0081, 0.0081, 0.0081, 0.0081, 0.0081, 0.0081, 0.0081, 0.0081, 0.0081, 0.0081, 0.0081, 0.0081, 0.0081, 0.0081, 0.0081, 0.0081, 0.0081, 0.0081, 0.0081, 0.0081, 0.0081, 0.0081, 0.0081, 0.0081, 0.0081, 0.0081, 0.0081, 0.0081, 0.0081, 0.0081, 0.0081, 0.0081, 0.0081, 0.0081, 0.0081, 0.0081, 0.0081, 0.0081, 0.0081, 0.0081, 0.0081, 0.0081, 0.0081, 0.0081, 0.0081, 0.0081, 0.0081, 0.0081, 0.0081, 0.0081, 0.0081, 0.0081, 0.0031, 0.0031, 0.0031, 0.0031, 0.0031, 0.0031, 0.0031, 0.0031, 0.0031, 0.0031, 0.0031, 0.0031, 0.0031, 0.0031, 0.0031, 0.0031, 0.0031, 0.0031, 0.0031, 0.0031, 0.0031, 0.0031, 0.0031, 0.0031, 0.0031, 0.0031, 0.0031, 0.0031, 0.0031, 0.0031, 0.0031, 0.0031, 0.009, 0.009, 0.009, 0.009, 0.009, 0.009, 0.009, 0.009, 0.009, 0.009, 0.009, 0.009, 0.009, 0.009, 0.009, 0.009, 0.009, 0.009, 0.009, 0.009, 0.009, 0.009, 0.009, 0.009, 0.009, 0.009, 0.009, 0.009, 0.009, 0.009, 0.009, 0.009] (
            interpolation = "uniform"
        )
    }

    def Mesh "Spindle" (
        customData = {
            double3 com = (2.4142006938996276e-19, -5.874555021822428e-18, 4.405916266366821e-18)
            double[] inertia = [0.6248, 0, 0, 0, 0.4639, 0, 0, 0, 0.4639]
            double mass = 31.88
        }
    )
    {
        int[] faceVertexCounts = [3, 3, 3, 3, 3, 3, 3, 3, 3, 3, 3, 3, 3, 3, 3, 3, 3, 3, 3, 3, 3, 3, 3, 3, 3, 3, 3, 3, 3, 3, 3, 3, 3, 3, 3, 3, 3, 3, 3, 3, 3, 3, 3, 3, 3, 3, 3, 3, 3, 3, 3, 3, 3, 3, 3, 3, 3, 3, 3, 3, 3, 3, 3, 3, 3, 3, 3, 3, 3, 3, 3, 3, 3, 3, 3, 3, 3, 3, 3, 3, 3, 3, 3, 3, 3, 3, 3, 3, 3, 3, 3, 3, 3, 3, 3, 3, 3, 3, 3, 3, 3, 3, 3, 3, 3, 3, 3, 3, 3, 3, 3, 3, 3, 3, 3, 3, 3, 3, 3, 3, 3, 3, 3, 3, 3, 3, 3, 3, 3, 3, 3, 3, 3, 3, 3, 3, 3, 3, 3, 3, 3, 3, 3, 3, 3, 3, 3, 3, 3, 3, 3, 3, 3, 3, 3, 3, 3, 3, 3, 3, 3, 3, 3, 3, 3, 3, 3, 3, 3, 3, 3, 3, 3, 3, 3, 3, 3, 3, 3, 3, 3, 3, 3, 3, 3, 3, 3, 3, 3, 3, 3, 3]
        int[] faceVertexIndices = [0, 1, 49, 0, 49, 48, 96, 1, 0, 97, 48, 49, 1, 2, 50, 1, 50, 49, 96, 2, 1, 97, 49, 50, 2, 3, 51, 2, 51, 50, 96, 3, 2, 97, 50, 51, 3, 4, 52, 3, 52, 51, 96, 4, 3, 97, 51, 52, 4, 5, 53, 4, 53, 52, 96, 5, 4, 97, 52, 53, 5, 6, 54, 5, 54, 53, 96, 6, 5, 97, 53, 54, 6, 7, 55, 6, 55, 54, 96, 7, 6, 97, 54, 55, 7, 8, 56, 7, 56, 55, 96, 8, 7, 97, 55, 56, 8, 9, 57, 8, 57, 56, 96, 9, 8, 97, 56, 57, 9, 10, 58, 9, 58, 57, 96, 10, 9, 97, 57, 58, 10, 11, 59, 10, 59, 58, 96, 11, 10, 97, 58, 59, 11, 12, 60, 11, 60, 59, 96, 12, 11, 97, 59, 60, 12, 13, 61, 12, 61, 60, 96, 13, 12, 97, 60, 61, 13, 14, 62, 13, 62, 61, 96, 14, 13, 97, 61, 62, 14, 15, 63, 14, 63, 62, 96, 15, 14, 97, 62, 63, 15, 16, 64, 15, 64, 63, 96, 16, 15, 97, 63, 64, 16, 17, 65, 16, 65, 64, 96, 17, 16, 97, 64, 65, 17, 18, 66, 17, 66, 65, 96, 18, 17, 97, 65, 66, 18, 19, 67, 18, 67, 66, 96, 19, 18, 97, 66, 67, 19, 20, 68, 19, 68, 67, 96, 20, 19, 97, 67, 68, 20, 21, 69, 20, 69, 68, 96, 21, 20, 97, 68, 69, 21, 22, 70, 21, 70, 69, 96, 22, 21, 97, 69, 70, 22, 23, 71, 22, 71, 70, 96, 23, 22, 97, 70, 71, 23, 24, 72, 23, 72, 71, 96, 24, 23, 97, 71, 72, 24, 25, 73, 24, 73, 72, 96, 25, 24, 97, 72, 73, 25, 26, 74, 25, 74, 73, 96, 26, 25, 97, 73, 74, 26, 27, 75, 26, 75, 74, 96, 27, 26, 97, 74, 75, 27, 28, 76, 27, 76, 75, 96, 28, 27, 97, 75, 76, 28, 29, 77, 28, 77, 76, 96, 29, 28, 97, 76, 77, 29, 30, 78, 29, 78, 77, 96, 30, 29, 97, 77, 78, 30, 31, 79, 30, 79, 78, 96, 31, 30, 97, 78, 79, 31, 32, 80, 31, 80, 79, 96, 32, 31, 97, 79, 80, 32, 33, 81, 32, 81, 80, 96, 33, 32, 97, 80, 81, 33, 34, 82, 33, 82, 81, 96, 34, 33, 97, 81, 82, 34, 35, 83, 34, 83, 82, 96, 35, 34, 97, 82, 83, 35, 36, 84, 35, 84, 83, 96, 36, 35, 97, 83, 84, 36, 37, 85, 36, 85, 84, 96, 37, 36, 97, 84, 85, 37, 38, 86, 37, 86, 85, 96, 38, 37, 97, 85, 86, 38, 39, 87, 38, 87, 86, 96, 39, 38, 97, 86, 87, 39, 40, 88, 39, 88, 87, 96, 40, 39, 97, 87, 88, 40, 41, 89, 40, 89, 88, 96, 41, 40, 97, 88, 89, 41, 42, 90, 41, 90, 89, 96, 42, 41, 97, 89, 90, 42, 43, 91, 42, 91, 90, 96, 43, 42, 97, 90, 91, 43, 44, 92, 43, 92, 91, 96, 44, 43, 97, 91, 92, 44, 45, 93, 44, 93, 92, 96, 45, 44, 97, 92, 93, 45, 46, 94, 45, 94, 93, 96, 46, 45, 97, 93, 94, 46, 47, 95, 46, 95, 94, 96, 47, 46, 97, 94, 95, 47, 0, 48, 47, 48, 95, 96, 0, 47, 97, 95, 48]
        point3f[] points = [(-0.168, 0.1, 0), (-0.168, 0.09914449, 0.013052619), (-0.168, 0.09659258, 0.025881905), (-0.168, 0.09238795, 0.038268343), (-0.168, 0.08660254, 0.05), (-0.168, 0.07933533, 0.060876142), (-0.168, 0.07071068, 0.07071068), (-0.168, 0.060876142, 0.07933533), (-0.168, 0.05, 0.08660254), (-0.168, 0.038268343, 0.09238795), (-0.168, 0.025881905, 0.09659258), (-0.168, 0.013052619, 0.09914449), (-0.168, 6.123234e-18, 0.1), (-0.168, -0.013052619, 0.09914449), (-0.168, -0.025881905, 0.09659258), (-0.168, -0.038268343, 0.09238795), (-0.168, -0.05, 0.08660254), (-0.168, -0.060876142, 0.07933533), (-0.168, -0.07071068, 0.07071068), (-0.168, -0.07933533, 0.060876142), (-0.168, -0.08660254, 0.05), (-0.168, -0.09238795, 0.038268343), (-0.168, -0.09659258, 0.025881905), (-0.168, -0.09914449, 0.013052619), (-0.168, -0.1, 1.2246468e-17), (-0.168, -0.09914449, -0.013052619), (-0.168, -0.09659258, -0.025881905), (-0.168, -0.09238795, -0.038268343), (-0.168, -0.08660254, -0.05), (-0.168, -0.07933533, -0.060876142), (-0.168, -0.07071068, -0.07071068), (-0.168, -0.060876142, -0.07933533), (-0.168, -0.05, -0.08660254), (-0.168, -0.038268343, -0.09238795), (-0.168, -0.025881905, -0.09659258), (-0.168, -0.013052619, -0.09914449), (-0.168, -1.8369703e-17, -0.1), (-0.168, 0.013052619, -0.09914449), (-0.168, 0.025881905, -0.09659258), (-0.168, 0.038268343, -0.09238795), (-0.168, 0.05, -0.08660254), (-0.168, 0.060876142, -0.07933533), (-0.168, 0.07071068, -0.07071068), (-0.168, 0.07933533, -0.060876142), (-0.168, 0.08660254, -0.05), (-0.168, 0.09238795, -0.038268343), (-0.168, 0.09659258, -0.025881905), (-0.168, 0.09914449, -0.013052619), (0.168, 0.1, 0), (0.168, 0.09914449, 0.013052619), (0.168, 0.09659258, 0.025881905), (0.168, 0.09238795, 0.038268343), (0.168, 0.08660254, 0.05), (0.168, 0.07933533, 0.060876142), (0.168, 0.07071068, 0.07071068), (0.168, 0.060876142, 0.07933533), (0.168, 0.05, 0.08660254), (0.168, 0.038268343, 0.09238795), (0.168, 0.025881905, 0.09659258), (0.168, 0.013052619, 0.09914449), (0.168, 6.123234e-18, 0.1), (0.168, -0.013052619, 0.09914449), (0.168, -0.025881905, 0.09659258), (0.168, -0.038268343, 0.09238795), (0.168, -0.05, 0.08660254), (0.168, -0.060876142, 0.07933533), (0.168, -0.07071068, 0.07071068), (0.168, -0.07933533, 0.060876142), (0.168, -0.08660254, 0.05), (0.168, -0.09238795, 0.038268343), (0.168, -0.09659258, 0.025881905), (0.168, -0.09914449, 0.013052619), (0.168, -0.1, 1.2246468e-17), (0.168, -0.09914449, -0.013052619), (0.168, -0.09659258, -0.025881905), (0.168, -0.09238795, -0.038268343), (0.168, -0.08660254, -0.05), (0.168, -0.07933533, -0.060876142), (0.168, -0.07071068, -0.07071068), (0.168, -0.060876142, -0.07933533), (0.168, -0.05, -0.08660254), (0.168, -0.038268343, -0.09238795), (0.168, -0.025881905, -0.09659258), (0.168, -0.013052619, -0.09914449), (0.168, -1.8369703e-17, -0.1), (0.168, 0.013052619, -0.09914449), (0.168, 0.025881905, -0.09659258), (0.168, 0.038268343, -0.09238795), (0.168, 0.05, -0.08660254), (0.168, 0.060876142, -0.07933533), (0.168, 0.07071068, -0.07071068), (0.168, 0.07933533, -0.060876142), (0.168, 0.08660254, -0.05), (0.168, 0.09238795, -0.038268343), (0.168, 0.09659258, -0.025881905), (0.168, 0.09914449, -0.013052619), (-0.168, 0, 0), (0.168, 0, 0)]
    }
}

