MeshVersionFormatted 1
Dimension 3

Vertices
406
-0.15771932899951935 0.25519523024559021 0 1
0.15771932899951935 0.25519523024559021 0 1
-0.15771932899951935 -0.25519523024559021 0 1
0.15771932899951935 -0.25519523024559021 0 1
0 -0.15771932899951935 0.25519523024559021 1
0 0.15771932899951935 0.25519523024559021 1
0 -0.15771932899951935 -0.25519523024559021 1
0 0.15771932899951935 -0.25519523024559021 1
0.25519523024559021 0 -0.15771932899951935 1
0.25519523024559021 0 0.15771932899951935 1
-0.25519523024559021 0 -0.15771932899951935 1
-0.25519523024559021 0 0.15771932899951935 1
-0.2427050918340683 0.15000000596046448 0.092705100774765015 1
-0.15000000596046448 0.092705100774765015 0.2427050918340683 1
-0.092705100774765015 0.2427050918340683 0.15000000596046448 1
0.092705100774765015 0.2427050918340683 0.15000000596046448 1
0 0.30000001192092896 0 1
0.092705100774765015 0.2427050918340683 -0.15000000596046448 1
-0.092705100774765015 0.2427050918340683 -0.15000000596046448 1
-0.15000000596046448 0.092705100774765015 -0.2427050918340683 1
-0.2427050918340683 0.15000000596046448 -0.092705100774765015 1
-0.30000001192092896 0 0 1
0.15000000596046448 0.092705100774765015 0.2427050918340683 1
0.2427050918340683 0.15000000596046448 0.092705100774765015 1
-0.15000000596046448 -0.092705100774765015 0.2427050918340683 1
0 0 0.30000001192092896 1
-0.2427050918340683 -0.15000000596046448 -0.092705100774765015 1
-0.2427050918340683 -0.15000000596046448 0.092705100774765015 1
0 0 -0.30000001192092896 1
-0.15000000596046448 -0.092705100774765015 -0.2427050918340683 1
0.2427050918340683 0.15000000596046448 -0.092705100774765015 1
0.15000000596046448 0.092705100774765015 -0.2427050918340683 1
0.2427050918340683 -0.15000000596046448 0.092705100774765015 1
0.15000000596046448 -0.092705100774765015 0.2427050918340683 1
0.092705100774765015 -0.2427050918340683 0.15000000596046448 1
-0.092705100774765015 -0.2427050918340683 0.15000000596046448 1
0 -0.30000001192092896 0 1
-0.092705100774765015 -0.2427050918340683 -0.15000000596046448 1
0.092705100774765015 -0.2427050918340683 -0.15000000596046448 1
0.15000000596046448 -0.092705100774765015 -0.2427050918340683 1
0.2427050918340683 -0.15000000596046448 -0.092705100774765015 1
0.30000001192092896 0 0 1
-0.20813414454460144 0.21061393618583679 0.048186611384153366 1
-0.17633557319641113 0.20645728707313538 0.1275976151227951 1
-0.13016657531261444 0.25880053639411926 0.077967576682567596 1
-0.21061393618583679 0.048186611384153366 0.20813414454460144 1
-0.20645728707313538 0.1275976151227951 0.17633557319641113 1
-0.25880053639411926 0.077967576682567596 0.13016657531261444 1
-0.048186611384153366 0.20813414454460144 0.21061393618583679 1
-0.1275976151227951 0.17633557319641113 0.20645728707313538 1
-0.077967576682567596 0.13016657531261444 0.25880053639411926 1
-0.048737954348325729 0.28531694412231445 0.078859664499759674 1
-0.081979960203170776 0.28858152031898499 0 1
0.048186611384153366 0.20813414454460144 0.21061393618583679 1
0 0.25519523024559021 0.15771932899951935 1
0.081979960203170776 0.28858152031898499 0 1
0.048737954348325729 0.28531694412231445 0.078859664499759674 1
0.13016657531261444 0.25880053639411926 0.077967576682567596 1
-0.048737954348325729 0.28531694412231445 -0.078859664499759674 1
-0.13016657531261444 0.25880053639411926 -0.077967576682567596 1
0.13016657531261444 0.25880053639411926 -0.077967576682567596 1
0.048737954348325729 0.28531694412231445 -0.078859664499759674 1
-0.048186611384153366 0.20813414454460144 -0.21061393618583679 1
0 0.25519523024559021 -0.15771932899951935 1
0.048186611384153366 0.20813414454460144 -0.21061393618583679 1
-0.17633557319641113 0.20645728707313538 -0.1275976151227951 1
-0.20813414454460144 0.21061393618583679 -0.048186611384153366 1
-0.077967576682567596 0.13016657531261444 -0.25880053639411926 1
-0.1275976151227951 0.17633557319641113 -0.20645728707313538 1
-0.25880053639411926 0.077967576682567596 -0.13016657531261444 1
-0.20645728707313538 0.1275976151227951 -0.17633557319641113 1
-0.21061393618583679 0.048186611384153366 -0.20813414454460144 1
-0.25519523024559021 0.15771932899951935 0 1
-0.28858152031898499 0 -0.081979960203170776 1
-0.28531694412231445 0.078859664499759674 -0.048737954348325729 1
-0.28531694412231445 0.078859664499759674 0.048737954348325729 1
-0.28858152031898499 0 0.081979960203170776 1
0.17633557319641113 0.20645728707313538 0.1275976151227951 1
0.20813414454460144 0.21061393618583679 0.048186611384153366 1
0.077967576682567596 0.13016657531261444 0.25880053639411926 1
0.1275976151227951 0.17633557319641113 0.20645728707313538 1
0.25880053639411926 0.077967576682567596 0.13016657531261444 1
0.20645728707313538 0.1275976151227951 0.17633557319641113 1
0.21061393618583679 0.048186611384153366 0.20813414454460144 1
-0.078859664499759674 0.048737954348325729 0.28531694412231445 1
0 0.081979960203170776 0.28858152031898499 1
-0.21061393618583679 -0.048186611384153366 0.20813414454460144 1
-0.15771932899951935 0 0.25519523024559021 1
0 -0.081979960203170776 0.28858152031898499 1
-0.078859664499759674 -0.048737954348325729 0.28531694412231445 1
-0.077967576682567596 -0.13016657531261444 0.25880053639411926 1
-0.28531694412231445 -0.078859664499759674 0.048737954348325729 1
-0.25880053639411926 -0.077967576682567596 0.13016657531261444 1
-0.25880053639411926 -0.077967576682567596 -0.13016657531261444 1
-0.28531694412231445 -0.078859664499759674 -0.048737954348325729 1
-0.20813414454460144 -0.21061393618583679 0.048186611384153366 1
-0.25519523024559021 -0.15771932899951935 0 1
-0.20813414454460144 -0.21061393618583679 -0.048186611384153366 1
-0.15771932899951935 0 -0.25519523024559021 1
-0.21061393618583679 -0.048186611384153366 -0.20813414454460144 1
0 0.081979960203170776 -0.28858152031898499 1
-0.078859664499759674 0.048737954348325729 -0.28531694412231445 1
-0.077967576682567596 -0.13016657531261444 -0.25880053639411926 1
-0.078859664499759674 -0.048737954348325729 -0.28531694412231445 1
0 -0.081979960203170776 -0.28858152031898499 1
0.1275976151227951 0.17633557319641113 -0.20645728707313538 1
0.077967576682567596 0.13016657531261444 -0.25880053639411926 1
0.20813414454460144 0.21061393618583679 -0.048186611384153366 1
0.17633557319641113 0.20645728707313538 -0.1275976151227951 1
0.21061393618583679 0.048186611384153366 -0.20813414454460144 1
0.20645728707313538 0.1275976151227951 -0.17633557319641113 1
0.25880053639411926 0.077967576682567596 -0.13016657531261444 1
0.20813414454460144 -0.21061393618583679 0.048186611384153366 1
0.17633557319641113 -0.20645728707313538 0.1275976151227951 1
0.13016657531261444 -0.25880053639411926 0.077967576682567596 1
0.21061393618583679 -0.048186611384153366 0.20813414454460144 1
0.20645728707313538 -0.1275976151227951 0.17633557319641113 1
0.25880053639411926 -0.077967576682567596 0.13016657531261444 1
0.048186611384153366 -0.20813414454460144 0.21061393618583679 1
0.1275976151227951 -0.17633557319641113 0.20645728707313538 1
0.077967576682567596 -0.13016657531261444 0.25880053639411926 1
0.048737954348325729 -0.28531694412231445 0.078859664499759674 1
0.081979960203170776 -0.28858152031898499 0 1
-0.048186611384153366 -0.20813414454460144 0.21061393618583679 1
0 -0.25519523024559021 0.15771932899951935 1
-0.081979960203170776 -0.28858152031898499 0 1
-0.048737954348325729 -0.28531694412231445 0.078859664499759674 1
-0.13016657531261444 -0.25880053639411926 0.077967576682567596 1
0.048737954348325729 -0.28531694412231445 -0.078859664499759674 1
0.13016657531261444 -0.25880053639411926 -0.077967576682567596 1
-0.13016657531261444 -0.25880053639411926 -0.077967576682567596 1
-0.048737954348325729 -0.28531694412231445 -0.078859664499759674 1
0.048186611384153366 -0.20813414454460144 -0.21061393618583679 1
0 -0.25519523024559021 -0.15771932899951935 1
-0.048186611384153366 -0.20813414454460144 -0.21061393618583679 1
0.17633557319641113 -0.20645728707313538 -0.1275976151227951 1
0.20813414454460144 -0.21061393618583679 -0.048186611384153366 1
0.077967576682567596 -0.13016657531261444 -0.25880053639411926 1
0.1275976151227951 -0.17633557319641113 -0.20645728707313538 1
0.25880053639411926 -0.077967576682567596 -0.13016657531261444 1
0.20645728707313538 -0.1275976151227951 -0.17633557319641113 1
0.21061393618583679 -0.048186611384153366 -0.20813414454460144 1
0.25519523024559021 -0.15771932899951935 0 1
0.28858152031898499 0 -0.081979960203170776 1
0.28531694412231445 -0.078859664499759674 -0.048737954348325729 1
0.28531694412231445 -0.078859664499759674 0.048737954348325729 1
0.28858152031898499 0 0.081979960203170776 1
0.078859664499759674 -0.048737954348325729 0.28531694412231445 1
0.15771932899951935 0 0.25519523024559021 1
0.078859664499759674 0.048737954348325729 0.28531694412231445 1
-0.17633557319641113 -0.20645728707313538 0.1275976151227951 1
-0.1275976151227951 -0.17633557319641113 0.20645728707313538 1
-0.20645728707313538 -0.1275976151227951 0.17633557319641113 1
-0.1275976151227951 -0.17633557319641113 -0.20645728707313538 1
-0.17633557319641113 -0.20645728707313538 -0.1275976151227951 1
-0.20645728707313538 -0.1275976151227951 -0.17633557319641113 1
0.15771932899951935 0 -0.25519523024559021 1
0.078859664499759674 -0.048737954348325729 -0.28531694412231445 1
0.078859664499759674 0.048737954348325729 -0.28531694412231445 1
0.28531694412231445 0.078859664499759674 0.048737954348325729 1
0.28531694412231445 0.078859664499759674 -0.048737954348325729 1
0.25519523024559021 0.15771932899951935 0 1
0 0 0 1
-0.052573110908269882 0.085065081715583801 0 1
-0.052573110908269882 -0.085065081715583801 0 1
0 -0.052573110908269882 0.085065081715583801 1
0 -0.052573110908269882 -0.085065081715583801 1
0.085065081715583801 0 -0.052573110908269882 1
-0.085065081715583801 0 -0.052573110908269882 1
-0.080901697278022766 0.05000000074505806 0.030901700258255005 1
-0.030901700258255005 0.080901697278022766 0.05000000074505806 1
0 0.10000000149011612 0 1
-0.030901700258255005 0.080901697278022766 -0.05000000074505806 1
-0.080901697278022766 0.05000000074505806 -0.030901700258255005 1
0.05000000074505806 0.030901700258255005 0.080901697278022766 1
-0.05000000074505806 -0.030901700258255005 0.080901697278022766 1
-0.080901697278022766 -0.05000000074505806 -0.030901700258255005 1
0 0 -0.10000000149011612 1
0.080901697278022766 0.05000000074505806 -0.030901700258255005 1
0.080901697278022766 -0.05000000074505806 0.030901700258255005 1
0.030901700258255005 -0.080901697278022766 0.05000000074505806 1
0 -0.10000000149011612 0 1
0.030901700258255005 -0.080901697278022766 -0.05000000074505806 1
0.080901697278022766 -0.05000000074505806 -0.030901700258255005 1
-0.069378048181533813 0.070204645395278931 0.016062203794717789 1
-0.043388854712247849 0.086266845464706421 0.025989191606640816 1
-0.068819098174571991 0.042532540857791901 0.058778524398803711 1
-0.016062203794717789 0.069378048181533813 0.070204645395278931 1
-0.025989191606640816 0.043388854712247849 0.086266845464706421 1
-0.027326652780175209 0.096193835139274597 0 1
0 0.085065081715583801 0.052573110908269882 1
0.01624598540365696 0.095105648040771484 0.026286555454134941 1
-0.01624598540365696 0.095105648040771484 -0.026286555454134941 1
0.043388854712247849 0.086266845464706421 -0.025989191606640816 1
-0.016062203794717789 0.069378048181533813 -0.070204645395278931 1
0.016062203794717789 0.069378048181533813 -0.070204645395278931 1
-0.069378048181533813 0.070204645395278931 -0.016062203794717789 1
-0.042532540857791901 0.058778524398803711 -0.068819098174571991 1
-0.068819098174571991 0.042532540857791901 -0.058778524398803711 1
-0.085065081715583801 0.052573110908269882 0 1
-0.095105648040771484 0.026286555454134941 -0.01624598540365696 1
-0.096193835139274597 0 0.027326652780175209 1
0.069378048181533813 0.070204645395278931 0.016062203794717789 1
0.042532540857791901 0.058778524398803711 0.068819098174571991 1
0.068819098174571991 0.042532540857791901 0.058778524398803711 1
-0.026286555454134941 0.01624598540365696 0.095105648040771484 1
-0.070204645395278931 -0.016062203794717789 0.069378048181533813 1
0 -0.027326652780175209 0.096193835139274597 1
-0.025989191606640816 -0.043388854712247849 0.086266845464706421 1
-0.086266845464706421 -0.025989191606640816 0.043388854712247849 1
-0.095105648040771484 -0.026286555454134941 -0.01624598540365696 1
-0.085065081715583801 -0.052573110908269882 0 1
-0.052573110908269882 0 -0.085065081715583801 1
0 0.027326652780175209 -0.096193835139274597 1
-0.025989191606640816 -0.043388854712247849 -0.086266845464706421 1
0 -0.027326652780175209 -0.096193835139274597 1
0.025989191606640816 0.043388854712247849 -0.086266845464706421 1
0.058778524398803711 0.068819098174571991 -0.042532540857791901 1
0.068819098174571991 0.042532540857791901 -0.058778524398803711 1
0.069378048181533813 -0.070204645395278931 0.016062203794717789 1
0.043388854712247849 -0.086266845464706421 0.025989191606640816 1
0.068819098174571991 -0.042532540857791901 0.058778524398803711 1
0.016062203794717789 -0.069378048181533813 0.070204645395278931 1
0.025989191606640816 -0.043388854712247849 0.086266845464706421 1
0.027326652780175209 -0.096193835139274597 0 1
0 -0.085065081715583801 0.052573110908269882 1
-0.01624598540365696 -0.095105648040771484 0.026286555454134941 1
0.01624598540365696 -0.095105648040771484 -0.026286555454134941 1
-0.043388854712247849 -0.086266845464706421 -0.025989191606640816 1
0.016062203794717789 -0.069378048181533813 -0.070204645395278931 1
-0.016062203794717789 -0.069378048181533813 -0.070204645395278931 1
0.069378048181533813 -0.070204645395278931 -0.016062203794717789 1
0.042532540857791901 -0.058778524398803711 -0.068819098174571991 1
0.068819098174571991 -0.042532540857791901 -0.058778524398803711 1
0.085065081715583801 -0.052573110908269882 0 1
0.095105648040771484 -0.026286555454134941 -0.01624598540365696 1
0.096193835139274597 0 0.027326652780175209 1
0.052573110908269882 0 0.085065081715583801 1
-0.058778524398803711 -0.068819098174571991 0.042532540857791901 1
-0.068819098174571991 -0.042532540857791901 0.058778524398803711 1
-0.058778524398803711 -0.068819098174571991 -0.042532540857791901 1
0.052573110908269882 0 -0.085065081715583801 1
0.026286555454134941 0.01624598540365696 -0.095105648040771484 1
0.095105648040771484 0.026286555454134941 -0.01624598540365696 1
-0.10514622181653976 0.1701301634311676 0 1
0.10514622181653976 0.1701301634311676 0 1
-0.10514622181653976 -0.1701301634311676 0 1
0.10514622181653976 -0.1701301634311676 0 1
0 -0.10514622181653976 0.1701301634311676 1
0 0.10514622181653976 0.1701301634311676 1
0 -0.10514622181653976 -0.1701301634311676 1
0 0.10514622181653976 -0.1701301634311676 1
0.1701301634311676 0 -0.10514622181653976 1
0.1701301634311676 0 0.10514622181653976 1
-0.1701301634311676 0 -0.10514622181653976 1
-0.1701301634311676 0 0.10514622181653976 1
-0.16180339455604553 0.10000000149011612 0.06180340051651001 1
-0.10000000149011612 0.06180340051651001 0.16180339455604553 1
-0.06180340051651001 0.16180339455604553 0.10000000149011612 1
0.06180340051651001 0.16180339455604553 0.10000000149011612 1
0 0.20000000298023224 0 1
0.06180340051651001 0.16180339455604553 -0.10000000149011612 1
-0.06180340051651001 0.16180339455604553 -0.10000000149011612 1
-0.10000000149011612 0.06180340051651001 -0.16180339455604553 1
-0.16180339455604553 0.10000000149011612 -0.06180340051651001 1
-0.20000000298023224 0 0 1
0.10000000149011612 0.06180340051651001 0.16180339455604553 1
0.16180339455604553 0.10000000149011612 0.06180340051651001 1
-0.10000000149011612 -0.06180340051651001 0.16180339455604553 1
0 0 0.20000000298023224 1
-0.16180339455604553 -0.10000000149011612 -0.06180340051651001 1
-0.16180339455604553 -0.10000000149011612 0.06180340051651001 1
0 0 -0.20000000298023224 1
-0.10000000149011612 -0.06180340051651001 -0.16180339455604553 1
0.16180339455604553 0.10000000149011612 -0.06180340051651001 1
0.10000000149011612 0.06180340051651001 -0.16180339455604553 1
0.16180339455604553 -0.10000000149011612 0.06180340051651001 1
0.10000000149011612 -0.06180340051651001 0.16180339455604553 1
0.06180340051651001 -0.16180339455604553 0.10000000149011612 1
-0.06180340051651001 -0.16180339455604553 0.10000000149011612 1
0 -0.20000000298023224 0 1
-0.06180340051651001 -0.16180339455604553 -0.10000000149011612 1
0.06180340051651001 -0.16180339455604553 -0.10000000149011612 1
0.10000000149011612 -0.06180340051651001 -0.16180339455604553 1
0.16180339455604553 -0.10000000149011612 -0.06180340051651001 1
0.20000000298023224 0 0 1
-0.13875609636306763 0.14040929079055786 0.032124407589435577 1
-0.11755704879760742 0.13763819634914398 0.085065081715583801 1
-0.086777709424495697 0.17253369092941284 0.051978383213281631 1
-0.14040929079055786 0.032124407589435577 0.13875609636306763 1
-0.13763819634914398 0.085065081715583801 0.11755704879760742 1
-0.17253369092941284 0.051978383213281631 0.086777709424495697 1
-0.032124407589435577 0.13875609636306763 0.14040929079055786 1
-0.085065081715583801 0.11755704879760742 0.13763819634914398 1
-0.051978383213281631 0.086777709424495697 0.17253369092941284 1
-0.032491970807313919 0.19021129608154297 0.052573110908269882 1
-0.054653305560350418 0.19238767027854919 0 1
0.032124407589435577 0.13875609636306763 0.14040929079055786 1
0 0.1701301634311676 0.10514622181653976 1
0.054653305560350418 0.19238767027854919 0 1
0.032491970807313919 0.19021129608154297 0.052573110908269882 1
0.086777709424495697 0.17253369092941284 0.051978383213281631 1
-0.032491970807313919 0.19021129608154297 -0.052573110908269882 1
-0.086777709424495697 0.17253369092941284 -0.051978383213281631 1
0.086777709424495697 0.17253369092941284 -0.051978383213281631 1
0.032491970807313919 0.19021129608154297 -0.052573110908269882 1
-0.032124407589435577 0.13875609636306763 -0.14040929079055786 1
0 0.1701301634311676 -0.10514622181653976 1
0.032124407589435577 0.13875609636306763 -0.14040929079055786 1
-0.11755704879760742 0.13763819634914398 -0.085065081715583801 1
-0.13875609636306763 0.14040929079055786 -0.032124407589435577 1
-0.051978383213281631 0.086777709424495697 -0.17253369092941284 1
-0.085065081715583801 0.11755704879760742 -0.13763819634914398 1
-0.17253369092941284 0.051978383213281631 -0.086777709424495697 1
-0.13763819634914398 0.085065081715583801 -0.11755704879760742 1
-0.14040929079055786 0.032124407589435577 -0.13875609636306763 1
-0.1701301634311676 0.10514622181653976 0 1
-0.19238767027854919 0 -0.054653305560350418 1
-0.19021129608154297 0.052573110908269882 -0.032491970807313919 1
-0.19021129608154297 0.052573110908269882 0.032491970807313919 1
-0.19238767027854919 0 0.054653305560350418 1
0.11755704879760742 0.13763819634914398 0.085065081715583801 1
0.13875609636306763 0.14040929079055786 0.032124407589435577 1
0.051978383213281631 0.086777709424495697 0.17253369092941284 1
0.085065081715583801 0.11755704879760742 0.13763819634914398 1
0.17253369092941284 0.051978383213281631 0.086777709424495697 1
0.13763819634914398 0.085065081715583801 0.11755704879760742 1
0.14040929079055786 0.032124407589435577 0.13875609636306763 1
-0.052573110908269882 0.032491970807313919 0.19021129608154297 1
0 0.054653305560350418 0.19238767027854919 1
-0.14040929079055786 -0.032124407589435577 0.13875609636306763 1
-0.10514622181653976 0 0.1701301634311676 1
0 -0.054653305560350418 0.19238767027854919 1
-0.052573110908269882 -0.032491970807313919 0.19021129608154297 1
-0.051978383213281631 -0.086777709424495697 0.17253369092941284 1
-0.19021129608154297 -0.052573110908269882 0.032491970807313919 1
-0.17253369092941284 -0.051978383213281631 0.086777709424495697 1
-0.17253369092941284 -0.051978383213281631 -0.086777709424495697 1
-0.19021129608154297 -0.052573110908269882 -0.032491970807313919 1
-0.13875609636306763 -0.14040929079055786 0.032124407589435577 1
-0.1701301634311676 -0.10514622181653976 0 1
-0.13875609636306763 -0.14040929079055786 -0.032124407589435577 1
-0.10514622181653976 0 -0.1701301634311676 1
-0.14040929079055786 -0.032124407589435577 -0.13875609636306763 1
0 0.054653305560350418 -0.19238767027854919 1
-0.052573110908269882 0.032491970807313919 -0.19021129608154297 1
-0.051978383213281631 -0.086777709424495697 -0.17253369092941284 1
-0.052573110908269882 -0.032491970807313919 -0.19021129608154297 1
0 -0.054653305560350418 -0.19238767027854919 1
0.085065081715583801 0.11755704879760742 -0.13763819634914398 1
0.051978383213281631 0.086777709424495697 -0.17253369092941284 1
0.13875609636306763 0.14040929079055786 -0.032124407589435577 1
0.11755704879760742 0.13763819634914398 -0.085065081715583801 1
0.14040929079055786 0.032124407589435577 -0.13875609636306763 1
0.13763819634914398 0.085065081715583801 -0.11755704879760742 1
0.17253369092941284 0.051978383213281631 -0.086777709424495697 1
0.13875609636306763 -0.14040929079055786 0.032124407589435577 1
0.11755704879760742 -0.13763819634914398 0.085065081715583801 1
0.086777709424495697 -0.17253369092941284 0.051978383213281631 1
0.14040929079055786 -0.032124407589435577 0.13875609636306763 1
0.13763819634914398 -0.085065081715583801 0.11755704879760742 1
0.17253369092941284 -0.051978383213281631 0.086777709424495697 1
0.032124407589435577 -0.13875609636306763 0.14040929079055786 1
0.085065081715583801 -0.11755704879760742 0.13763819634914398 1
0.051978383213281631 -0.086777709424495697 0.17253369092941284 1
0.032491970807313919 -0.19021129608154297 0.052573110908269882 1
0.054653305560350418 -0.19238767027854919 0 1
-0.032124407589435577 -0.13875609636306763 0.14040929079055786 1
0 -0.1701301634311676 0.10514622181653976 1
-0.054653305560350418 -0.19238767027854919 0 1
-0.032491970807313919 -0.19021129608154297 0.052573110908269882 1
-0.086777709424495697 -0.17253369092941284 0.051978383213281631 1
0.032491970807313919 -0.19021129608154297 -0.052573110908269882 1
0.086777709424495697 -0.17253369092941284 -0.051978383213281631 1
-0.086777709424495697 -0.17253369092941284 -0.051978383213281631 1
-0.032491970807313919 -0.19021129608154297 -0.052573110908269882 1
0.032124407589435577 -0.13875609636306763 -0.14040929079055786 1
0 -0.1701301634311676 -0.10514622181653976 1
-0.032124407589435577 -0.13875609636306763 -0.14040929079055786 1
0.11755704879760742 -0.13763819634914398 -0.085065081715583801 1
0.13875609636306763 -0.14040929079055786 -0.032124407589435577 1
0.051978383213281631 -0.086777709424495697 -0.17253369092941284 1
0.085065081715583801 -0.11755704879760742 -0.13763819634914398 1
0.17253369092941284 -0.051978383213281631 -0.086777709424495697 1
0.13763819634914398 -0.085065081715583801 -0.11755704879760742 1
0.14040929079055786 -0.032124407589435577 -0.13875609636306763 1
0.1701301634311676 -0.10514622181653976 0 1
0.19238767027854919 0 -0.054653305560350418 1
0.19021129608154297 -0.052573110908269882 -0.032491970807313919 1
0.19021129608154297 -0.052573110908269882 0.032491970807313919 1
0.19238767027854919 0 0.054653305560350418 1
0.052573110908269882 -0.032491970807313919 0.19021129608154297 1
0.10514622181653976 0 0.1701301634311676 1
0.052573110908269882 0.032491970807313919 0.19021129608154297 1
-0.11755704879760742 -0.13763819634914398 0.085065081715583801 1
-0.085065081715583801 -0.11755704879760742 0.13763819634914398 1
-0.13763819634914398 -0.085065081715583801 0.11755704879760742 1
-0.085065081715583801 -0.11755704879760742 -0.13763819634914398 1
-0.11755704879760742 -0.13763819634914398 -0.085065081715583801 1
-0.13763819634914398 -0.085065081715583801 -0.11755704879760742 1
0.10514622181653976 0 -0.1701301634311676 1
0.052573110908269882 -0.032491970807313919 -0.19021129608154297 1
0.052573110908269882 0.032491970807313919 -0.19021129608154297 1
0.19021129608154297 0.052573110908269882 0.032491970807313919 1
0.19021129608154297 0.052573110908269882 -0.032491970807313919 1
0.1701301634311676 0.10514622181653976 0 1

Tetrahedra
1832
202 170 187 163 1
200 170 202 163 1
169 338 318 255 1
338 169 344 255 1
389 388 236 286 1
390 389 236 286 1
335 396 209 368 1
292 202 187 256 1
170 292 202 187 1
292 321 202 256 1
294 189 295 258 1
291 294 258 187 1
294 189 258 187 1
200 185 170 163 1
170 185 187 163 1
371 370 372 227 1
370 165 372 227 1
169 400 338 344 1
290 291 258 187 1
290 292 187 256 1
290 292 291 187 1
266 201 318 319 1
201 200 202 163 1
200 201 174 163 1
201 169 174 163 1
343 213 344 274 1
213 400 344 274 1
213 400 169 344 1
343 213 274 348 1
346 213 343 348 1
205 326 268 327 1
322 205 268 327 1
205 203 322 268 1
388 244 236 286 1
189 206 187 163 1
176 206 209 163 1
189 206 258 187 1
206 290 258 187 1
332 206 290 258 1
207 332 290 331 1
290 207 331 256 1
207 290 187 256 1
207 206 332 176 1
206 207 290 187 1
206 207 332 290 1
206 207 187 163 1
207 206 176 163 1
207 210 202 163 1
207 202 187 163 1
210 207 202 256 1
202 207 187 256 1
240 207 176 163 1
207 240 210 163 1
396 240 176 209 1
240 176 209 163 1
225 182 366 227 1
225 182 227 163 1
182 225 228 163 1
182 165 370 227 1
182 165 227 163 1
169 316 344 255 1
213 316 343 344 1
316 213 169 344 1
382 216 242 402 1
388 384 389 236 1
232 225 228 374 1
225 232 228 163 1
386 384 234 385 1
179 244 406 203 1
218 179 203 163 1
179 244 203 163 1
242 219 217 163 1
219 179 218 163 1
339 211 338 318 1
211 169 338 318 1
211 201 169 318 1
211 339 266 318 1
201 211 266 318 1
211 201 266 202 1
211 201 202 163 1
201 211 169 163 1
336 272 210 337 1
336 266 321 202 1
336 211 339 266 1
336 211 266 202 1
247 165 340 372 1
165 247 370 372 1
224 365 364 278 1
406 323 203 268 1
203 323 322 268 1
302 323 203 246 1
323 302 203 322 1
404 406 203 268 1
244 404 406 203 1
175 206 189 163 1
222 278 361 360 1
222 223 224 163 1
364 222 278 361 1
222 224 364 278 1
364 222 361 358 1
223 222 224 364 1
280 371 372 227 1
280 369 226 368 1
165 239 340 372 1
165 239 372 227 1
240 239 272 210 1
239 280 372 227 1
239 240 396 209 1
165 239 227 163 1
240 239 210 163 1
280 239 226 227 1
280 239 396 368 1
396 239 209 368 1
239 226 227 163 1
239 226 209 368 1
239 280 226 368 1
226 239 209 163 1
239 240 209 163 1
376 182 370 281 1
378 376 373 228 1
382 349 216 402 1
398 215 347 274 1
216 215 213 348 1
215 216 213 163 1
241 215 213 163 1
215 398 400 274 1
215 398 241 400 1
215 347 274 348 1
213 215 274 348 1
213 215 400 274 1
215 241 213 400 1
204 205 203 322 1
205 204 203 163 1
204 302 260 322 1
302 204 203 322 1
325 204 260 322 1
175 204 205 163 1
204 298 325 260 1
298 204 191 260 1
204 175 189 163 1
298 204 325 324 1
204 175 324 189 1
197 200 174 163 1
197 185 200 163 1
197 164 185 163 1
197 304 310 311 1
314 201 169 174 1
314 169 318 255 1
201 314 169 318 1
201 314 318 319 1
314 316 169 255 1
199 197 310 174 1
199 197 174 163 1
169 199 174 163 1
213 199 169 163 1
199 314 169 174 1
199 316 213 169 1
314 199 316 315 1
199 314 316 169 1
284 386 234 385 1
386 284 234 242 1
401 284 242 402 1
284 382 242 402 1
284 386 401 242 1
215 167 216 163 1
233 167 382 230 1
284 233 234 242 1
233 284 382 242 1
233 167 230 163 1
233 232 234 163 1
233 234 242 163 1
167 233 382 216 1
233 382 216 242 1
216 233 242 163 1
167 233 216 163 1
232 184 234 163 1
184 235 236 163 1
184 232 235 163 1
386 354 401 242 1
234 168 242 163 1
244 168 236 163 1
168 219 242 163 1
168 184 236 163 1
184 168 234 163 1
179 168 244 163 1
219 168 179 163 1
168 386 234 242 1
244 168 388 236 1
354 168 219 242 1
168 184 384 236 1
184 168 384 234 1
168 356 179 244 1
168 356 219 179 1
384 168 388 253 1
168 384 388 236 1
386 168 384 253 1
168 386 384 234 1
354 168 386 253 1
168 354 386 242 1
168 356 388 253 1
168 356 244 388 1
354 168 356 219 1
168 354 356 253 1
329 206 332 258 1
394 267 175 324 1
342 247 165 340 1
177 213 400 169 1
241 177 213 400 1
400 177 169 338 1
177 213 169 163 1
177 241 213 163 1
177 211 169 338 1
271 177 400 338 1
211 177 169 163 1
241 177 165 163 1
177 342 241 165 1
229 182 228 163 1
376 229 182 228 1
376 229 282 375 1
182 229 165 163 1
229 241 165 163 1
229 182 165 370 1
229 376 182 370 1
342 229 241 165 1
229 376 370 375 1
172 306 261 300 1
302 192 300 246 1
192 302 203 246 1
192 302 300 301 1
204 192 302 203 1
204 192 203 163 1
192 204 191 163 1
204 192 191 260 1
192 204 302 260 1
172 192 190 163 1
302 192 260 301 1
192 172 190 296 1
404 237 326 268 1
237 205 326 268 1
205 237 203 268 1
237 404 203 268 1
237 391 404 326 1
237 404 244 203 1
391 237 254 326 1
254 237 205 326 1
237 205 203 163 1
244 237 203 163 1
391 237 404 286 1
404 237 244 286 1
244 237 236 286 1
222 237 180 163 1
237 244 236 163 1
237 391 390 286 1
237 390 236 286 1
235 237 236 163 1
237 235 180 163 1
235 237 390 236 1
237 235 390 180 1
356 405 244 388 1
404 405 244 406 1
405 244 388 286 1
405 404 244 286 1
232 380 381 374 1
380 233 232 234 1
184 380 232 234 1
238 222 254 360 1
278 238 393 360 1
222 238 278 360 1
237 238 222 254 1
222 238 224 278 1
238 222 224 163 1
237 238 254 205 1
238 237 222 163 1
238 394 175 206 1
175 238 206 163 1
238 175 205 163 1
237 238 205 163 1
181 221 226 163 1
223 181 226 163 1
181 222 221 163 1
222 181 223 163 1
181 222 364 358 1
222 181 221 358 1
181 222 223 364 1
221 181 226 366 1
279 181 364 358 1
223 166 224 163 1
166 226 209 163 1
166 223 226 163 1
223 166 226 368 1
226 166 209 368 1
395 239 280 372 1
239 395 280 396 1
239 395 340 372 1
239 395 272 340 1
216 243 242 402 1
243 216 242 163 1
214 243 217 163 1
243 242 217 163 1
205 328 326 327 1
328 254 205 326 1
238 328 254 205 1
328 238 175 205 1
238 328 393 360 1
328 238 254 360 1
299 298 191 260 1
288 294 291 187 1
185 288 170 187 1
288 171 294 187 1
320 292 321 202 1
320 201 200 202 1
266 320 321 202 1
201 320 266 202 1
320 201 266 319 1
320 200 170 202 1
292 320 170 202 1
197 173 164 163 1
197 173 304 164 1
304 173 310 263 1
173 197 304 310 1
214 312 195 252 1
312 307 195 252 1
312 214 213 346 1
378 183 230 228 1
183 230 228 163 1
183 233 230 163 1
232 183 228 163 1
233 183 232 163 1
183 232 228 374 1
380 183 283 374 1
183 380 232 374 1
183 380 233 232 1
355 354 356 219 1
334 269 332 176 1
206 334 176 209 1
206 334 332 176 1
334 329 206 332 1
334 329 270 206 1
392 238 394 393 1
392 365 224 278 1
238 392 224 278 1
238 392 278 393 1
329 330 270 206 1
330 394 270 206 1
330 175 206 189 1
394 330 175 206 1
175 330 324 189 1
330 394 175 324 1
398 399 241 400 1
399 398 241 282 1
239 212 165 340 1
177 212 342 165 1
212 239 165 163 1
177 212 165 163 1
212 342 340 341 1
212 342 165 340 1
272 212 340 341 1
212 239 272 340 1
212 177 211 163 1
239 212 272 210 1
239 212 210 163 1
336 212 272 341 1
212 336 272 210 1
362 237 391 390 1
237 362 391 254 1
362 237 390 180 1
362 222 361 360 1
222 362 254 360 1
237 362 222 180 1
362 237 222 254 1
179 352 218 203 1
352 179 406 203 1
323 352 203 246 1
323 352 406 203 1
352 194 203 246 1
352 194 218 203 1
194 192 203 246 1
194 218 203 163 1
194 352 305 246 1
192 194 172 300 1
192 194 300 246 1
192 194 203 163 1
194 192 172 163 1
194 305 300 246 1
194 196 218 163 1
194 305 306 300 1
172 194 306 300 1
222 220 180 358 1
220 222 221 358 1
220 222 180 163 1
222 220 221 163 1
235 220 180 163 1
232 220 235 163 1
383 233 284 382 1
379 231 398 282 1
398 231 241 282 1
231 215 398 241 1
231 229 241 282 1
231 379 378 282 1
229 231 241 163 1
167 231 230 163 1
231 215 241 163 1
231 167 215 163 1
231 378 230 228 1
230 231 228 163 1
231 229 228 163 1
345 312 214 252 1
312 345 214 346 1
273 178 346 348 1
243 178 216 163 1
178 243 214 163 1
178 243 216 402 1
178 216 213 348 1
178 213 346 348 1
214 178 213 346 1
178 214 213 163 1
216 178 213 163 1
259 288 171 294 1
330 250 324 189 1
330 250 189 295 1
250 204 324 189 1
250 204 298 324 1
186 288 185 187 1
288 186 171 187 1
164 186 185 163 1
185 186 187 163 1
186 171 187 163 1
186 164 190 163 1
171 186 191 163 1
186 171 191 296 1
320 257 292 170 1
164 193 190 163 1
173 193 164 163 1
193 172 190 163 1
193 304 164 190 1
173 193 304 164 1
194 193 196 163 1
193 194 172 163 1
194 193 172 306 1
196 193 195 163 1
193 173 195 163 1
193 308 196 195 1
308 193 173 195 1
173 198 195 163 1
312 198 214 195 1
198 312 214 213 1
198 214 195 163 1
214 198 213 163 1
198 199 213 163 1
199 198 197 163 1
198 173 197 163 1
198 199 197 310 1
173 198 197 310 1
392 208 238 224 1
208 333 392 270 1
208 392 394 270 1
208 392 238 394 1
208 238 224 163 1
238 208 206 163 1
394 208 270 206 1
238 208 394 206 1
333 208 334 270 1
208 334 270 206 1
166 208 224 163 1
208 334 206 209 1
206 208 209 163 1
208 166 209 163 1
277 362 390 180 1
275 352 179 406 1
308 262 196 309 1
262 194 305 306 1
350 262 196 218 1
350 262 218 353 1
262 350 196 309 1
262 194 196 218 1
248 232 381 374 1
232 248 225 374 1
248 367 225 374 1
303 193 308 306 1
199 264 316 315 1
264 198 312 313 1
264 199 316 213 1
198 264 312 213 1
264 198 199 213 1
213 264 346 343 1
316 264 213 343 1
264 312 213 346 1
354 276 401 242 1
276 243 242 217 1
219 276 242 217 1
276 354 219 242 1
350 276 219 217 1
351 276 350 217 1
276 355 350 219 1
355 276 354 219 1
188 293 250 298 1
204 188 298 191 1
188 250 204 298 1
250 188 204 189 1
188 204 189 163 1
204 188 191 163 1
188 171 191 163 1
188 189 187 163 1
171 188 187 163 1
294 188 189 187 1
171 188 294 187 1
74 338 11 255 1
318 338 74 255 1
338 94 74 11 1
94 338 100 11 1
338 100 11 255 1
338 344 100 255 1
266 74 75 319 1
266 318 74 319 1
74 266 75 22 1
87 93 12 256 1
331 93 87 256 1
93 331 337 256 1
87 93 397 153 1
93 331 87 397 1
331 93 337 397 1
77 93 321 12 1
93 337 321 256 1
93 321 12 256 1
30 343 99 100 1
344 343 274 100 1
343 30 274 100 1
390 145 286 42 1
389 390 145 286 1
390 146 145 42 1
390 145 143 387 1
146 390 145 143 1
390 389 145 387 1
337 210 321 256 1
321 210 202 256 1
389 285 145 387 1
285 41 145 143 1
145 285 143 387 1
390 235 389 387 1
235 390 389 236 1
104 343 102 99 1
104 346 343 348 1
346 104 343 102 1
104 347 274 103 1
30 104 274 103 1
347 104 274 348 1
30 104 99 274 1
104 343 99 274 1
104 343 274 348 1
339 318 74 22 1
339 74 95 22 1
339 266 318 22 1
339 318 94 74 1
338 339 318 94 1
94 339 74 95 1
400 344 274 100 1
30 400 100 156 1
30 400 274 100 1
344 400 94 100 1
400 338 344 94 1
400 94 100 156 1
48 77 321 12 1
292 48 321 256 1
321 48 12 256 1
47 14 291 50 1
14 294 291 50 1
294 14 291 258 1
144 389 145 286 1
144 388 389 286 1
145 144 286 42 1
361 120 358 117 1
120 114 358 117 1
120 364 361 358 1
41 137 143 387 1
285 137 41 387 1
137 285 381 387 1
34 364 361 117 1
34 120 364 117 1
34 364 278 361 1
149 116 278 393 1
116 278 393 360 1
116 34 149 278 1
116 278 361 117 1
116 34 278 117 1
278 116 361 360 1
371 369 366 227 1
369 226 366 227 1
331 207 337 256 1
207 210 337 256 1
337 272 397 153 1
93 272 337 153 1
272 93 28 153 1
96 272 97 28 1
97 272 340 341 1
272 96 97 340 1
240 331 337 397 1
210 240 331 337 1
240 207 210 331 1
272 240 337 397 1
272 240 210 337 1
370 182 371 281 1
182 370 371 227 1
371 182 366 281 1
182 371 366 227 1
226 221 366 227 1
221 225 366 227 1
221 225 227 163 1
226 221 227 163 1
159 403 158 157 1
403 402 158 157 1
403 401 402 157 1
269 240 396 397 1
240 269 396 176 1
207 269 331 397 1
240 269 207 397 1
269 240 207 176 1
269 396 176 209 1
269 335 396 209 1
269 87 397 153 1
331 269 87 397 1
87 269 25 153 1
269 207 332 176 1
207 269 332 331 1
83 325 78 327 1
78 325 322 327 1
325 83 78 81 1
100 316 11 255 1
344 316 100 255 1
316 72 100 11 1
344 316 99 100 1
316 72 99 100 1
316 343 344 99 1
41 384 389 145 1
140 384 41 145 1
384 285 41 389 1
384 41 385 141 1
285 384 41 385 1
384 140 41 141 1
384 388 9 253 1
144 384 388 9 1
384 144 140 9 1
384 388 389 145 1
144 384 140 145 1
384 144 388 145 1
386 140 9 253 1
386 384 140 253 1
386 140 142 9 1
386 140 385 141 1
140 386 142 141 1
384 386 140 385 1
219 196 217 163 1
196 219 218 163 1
337 336 77 321 1
336 93 337 77 1
336 93 77 92 1
336 97 95 341 1
339 336 95 341 1
336 97 92 95 1
97 336 28 341 1
336 272 28 341 1
336 97 28 92 1
93 336 337 28 1
93 336 28 92 1
336 272 337 28 1
336 77 321 22 1
77 336 92 22 1
266 336 321 22 1
336 266 95 22 1
92 336 95 22 1
339 336 266 95 1
210 336 337 202 1
337 336 321 202 1
51 294 258 50 1
51 294 295 258 1
14 51 258 50 1
46 331 87 256 1
46 290 331 256 1
46 87 12 256 1
47 46 291 258 1
14 46 47 258 1
46 290 291 258 1
292 46 12 256 1
46 48 292 12 1
290 46 292 256 1
46 292 47 291 1
46 290 292 291 1
48 46 292 47 1
331 88 87 25 1
269 88 332 331 1
269 88 331 25 1
88 290 331 87 1
88 46 290 87 1
332 88 290 331 1
14 88 290 258 1
88 332 290 258 1
88 46 14 290 1
131 126 370 3 1
131 247 370 375 1
247 131 370 3 1
338 271 94 156 1
400 271 338 156 1
271 27 94 156 1
271 338 94 95 1
27 271 94 95 1
271 339 338 95 1
271 339 95 341 1
97 271 95 341 1
271 27 97 95 1
365 120 364 278 1
365 34 120 278 1
34 365 120 121 1
335 5 91 368 1
249 5 335 368 1
91 5 124 368 1
122 35 366 125 1
35 369 366 125 1
35 369 279 366 1
114 35 364 358 1
35 279 364 358 1
35 120 114 364 1
300 261 301 56 1
261 57 301 56 1
261 57 56 17 1
306 300 56 17 1
62 306 56 17 1
306 261 300 17 1
302 2 56 58 1
2 302 56 246 1
302 300 56 246 1
302 300 301 56 1
57 302 301 56 1
57 302 56 58 1
196 350 218 217 1
350 219 218 217 1
356 144 388 9 1
388 356 9 253 1
144 356 112 9 1
2 323 58 246 1
323 302 58 246 1
323 79 2 58 1
78 323 322 58 1
79 323 78 58 1
323 302 322 58 1
373 130 129 39 1
130 283 373 374 1
283 130 373 39 1
367 373 129 281 1
123 367 129 37 1
129 367 281 37 1
367 122 366 37 1
367 123 122 37 1
367 366 281 37 1
373 367 228 281 1
367 182 225 228 1
367 182 228 281 1
182 367 366 281 1
182 367 225 366 1
373 367 129 374 1
367 130 129 374 1
367 130 123 129 1
367 373 228 374 1
225 367 228 374 1
57 16 301 58 1
16 302 301 58 1
16 302 260 301 1
78 16 322 81 1
16 325 322 81 1
16 325 260 322 1
16 78 322 58 1
302 16 322 58 1
302 16 260 322 1
52 57 301 17 1
261 52 301 17 1
52 261 301 296 1
125 280 124 368 1
369 280 125 368 1
280 36 125 124 1
369 280 226 371 1
280 226 371 227 1
378 373 129 39 1
378 283 373 39 1
129 378 39 134 1
30 398 274 156 1
154 398 30 156 1
398 400 274 156 1
398 30 274 103 1
347 398 274 103 1
398 154 30 103 1
376 373 228 281 1
182 376 228 281 1
279 359 122 366 1
359 35 279 122 1
359 35 122 115 1
359 279 114 358 1
35 359 114 115 1
35 359 279 114 1
359 221 225 366 1
367 359 225 366 1
359 123 122 366 1
359 367 123 366 1
123 359 122 115 1
347 349 103 348 1
349 104 103 348 1
105 349 104 103 1
7 349 103 251 1
349 105 7 103 1
349 347 103 251 1
138 349 7 251 1
382 349 138 251 1
349 105 138 7 1
138 349 402 158 1
105 349 138 158 1
349 382 138 402 1
215 349 347 348 1
349 215 216 348 1
196 214 195 252 1
214 196 217 252 1
196 214 217 163 1
214 196 195 163 1
83 267 81 327 1
267 325 81 327 1
83 267 23 81 1
267 325 324 81 1
80 267 324 81 1
267 80 23 81 1
325 204 322 327 1
204 205 322 327 1
267 204 325 327 1
204 175 205 327 1
204 267 175 327 1
204 267 325 324 1
267 204 175 324 1
287 197 185 200 1
317 197 287 200 1
197 317 287 311 1
66 60 67 311 1
66 304 60 311 1
304 66 310 311 1
66 60 263 19 1
304 66 60 263 1
66 304 310 263 1
74 314 75 319 1
318 314 74 319 1
314 70 74 75 1
314 74 11 255 1
70 314 74 11 1
314 318 74 255 1
72 314 11 255 1
316 314 72 255 1
314 70 72 11 1
72 314 315 71 1
70 314 72 71 1
314 316 72 315 1
307 196 195 252 1
196 307 309 252 1
284 142 385 141 1
386 284 142 385 1
284 40 142 141 1
402 284 158 157 1
401 284 402 157 1
284 40 158 157 1
284 138 402 158 1
382 284 138 402 1
138 284 40 158 1
284 401 142 157 1
40 284 142 157 1
386 284 401 142 1
167 349 382 251 1
349 167 382 216 1
349 167 347 251 1
349 167 216 347 1
167 215 216 347 1
384 184 285 389 1
384 184 389 236 1
184 384 285 385 1
384 184 234 385 1
184 285 389 387 1
184 389 236 387 1
235 184 236 387 1
285 184 381 387 1
184 235 381 387 1
232 184 235 381 1
354 142 9 253 1
354 386 142 253 1
110 354 142 9 1
354 110 142 157 1
401 354 142 157 1
354 386 401 142 1
112 354 9 253 1
354 110 112 9 1
356 354 112 253 1
329 14 295 258 1
51 329 14 295 1
329 51 14 85 1
329 332 14 258 1
88 329 332 14 1
88 329 14 85 1
189 329 295 258 1
206 329 189 258 1
394 23 149 393 1
394 267 23 393 1
23 394 149 150 1
80 394 324 23 1
80 394 23 150 1
394 267 324 23 1
36 127 369 125 1
127 280 36 369 1
127 280 369 371 1
127 122 366 125 1
369 127 366 125 1
369 127 371 366 1
366 127 281 37 1
122 127 366 37 1
127 371 366 281 1
127 370 281 37 1
127 370 371 281 1
127 126 370 37 1
342 247 3 375 1
131 342 98 3 1
131 342 3 375 1
342 27 97 341 1
342 271 27 341 1
98 342 27 97 1
342 97 340 341 1
96 342 97 340 1
342 98 96 97 1
342 96 3 340 1
247 342 3 340 1
98 342 96 3 1
177 271 339 338 1
211 177 339 338 1
342 229 247 375 1
229 342 247 165 1
247 229 370 375 1
247 229 165 370 1
363 120 364 121 1
120 363 119 121 1
365 363 364 121 1
363 365 249 121 1
5 363 249 121 1
363 5 119 121 1
363 120 279 364 1
35 363 120 279 1
363 35 120 119 1
365 363 224 364 1
363 223 224 364 1
363 369 279 125 1
35 363 279 125 1
363 35 119 125 1
363 125 124 368 1
363 369 125 368 1
119 363 125 124 1
249 363 124 368 1
5 363 119 124 1
363 5 249 124 1
369 363 226 368 1
363 223 226 368 1
391 146 286 42 1
391 147 146 42 1
390 391 146 286 1
160 391 286 42 1
391 404 160 286 1
147 391 160 42 1
10 391 326 82 1
147 391 10 82 1
391 254 10 326 1
391 160 326 82 1
391 147 160 82 1
404 391 160 326 1
160 24 326 82 1
24 404 160 326 1
24 404 326 268 1
24 326 82 327 1
83 24 82 327 1
326 24 268 327 1
24 78 322 327 1
24 322 268 327 1
24 83 78 327 1
79 24 78 322 1
323 24 79 322 1
323 24 322 268 1
305 2 56 246 1
300 305 56 246 1
61 305 2 56 1
300 305 62 56 1
305 61 62 56 1
305 306 300 62 1
261 192 300 301 1
192 172 261 300 1
261 192 301 296 1
172 192 261 296 1
351 350 106 309 1
65 351 106 309 1
351 107 65 106 1
8 351 309 252 1
107 351 65 8 1
351 65 8 309 1
196 351 217 252 1
351 196 309 252 1
351 350 196 217 1
350 351 196 309 1
380 283 39 374 1
130 380 39 374 1
380 136 130 39 1
380 137 381 374 1
136 380 130 137 1
380 130 137 374 1
380 285 381 41 1
137 380 381 41 1
136 380 137 41 1
380 285 41 385 1
136 380 41 141 1
41 380 385 141 1
380 234 285 385 1
184 380 234 285 1
380 184 232 285 1
232 380 285 381 1
394 238 267 393 1
238 394 267 175 1
181 363 369 279 1
223 181 369 226 1
181 363 223 369 1
369 181 279 366 1
181 369 226 366 1
181 359 279 366 1
359 181 221 366 1
181 359 221 358 1
359 181 279 358 1
181 363 279 364 1
363 181 223 364 1
223 166 365 224 1
166 363 223 365 1
166 363 365 249 1
166 249 335 368 1
166 335 209 368 1
166 363 249 368 1
363 166 223 368 1
381 357 143 387 1
357 137 381 143 1
357 113 137 143 1
114 357 115 358 1
357 359 115 358 1
357 113 114 115 1
240 395 396 397 1
395 239 240 396 1
395 240 272 397 1
239 395 240 272 1
395 272 340 28 1
96 395 340 28 1
151 395 96 28 1
395 272 28 397 1
151 395 28 153 1
28 395 397 153 1
283 377 39 134 1
377 39 134 133 1
378 377 283 134 1
138 377 7 133 1
377 138 7 251 1
377 382 138 251 1
377 167 382 251 1
167 377 382 230 1
347 379 103 251 1
379 7 103 251 1
135 379 7 103 1
379 154 347 103 1
154 379 135 103 1
398 379 154 347 1
379 398 154 282 1
38 379 154 282 1
379 38 154 135 1
38 379 282 134 1
379 378 282 134 1
379 38 135 134 1
7 379 133 251 1
379 377 133 251 1
379 135 7 133 1
379 378 134 133 1
135 379 134 133 1
379 377 378 133 1
132 373 129 134 1
132 378 373 134 1
376 132 378 373 1
132 126 370 375 1
376 132 370 375 1
132 131 126 375 1
378 132 282 134 1
132 38 282 134 1
132 376 378 282 1
131 132 282 375 1
132 376 282 375 1
132 38 131 282 1
373 132 129 281 1
376 132 373 281 1
132 129 281 37 1
126 132 370 37 1
132 376 370 281 1
370 132 281 37 1
273 346 102 348 1
104 273 102 348 1
273 104 102 29 1
105 273 104 348 1
349 273 105 348 1
273 105 104 29 1
402 273 159 158 1
273 159 158 29 1
273 403 402 159 1
105 273 402 158 1
105 273 158 29 1
273 349 105 402 1
243 403 401 402 1
243 401 242 402 1
83 328 23 327 1
328 267 23 327 1
328 83 23 84 1
328 83 82 327 1
326 328 82 327 1
83 328 82 84 1
328 10 82 84 1
328 10 326 82 1
254 328 10 326 1
328 23 149 84 1
23 328 149 393 1
267 328 23 393 1
116 328 149 84 1
328 149 393 360 1
328 116 149 360 1
116 328 10 360 1
328 116 10 84 1
328 254 10 360 1
175 328 205 327 1
267 328 175 327 1
328 267 175 393 1
238 328 175 393 1
299 57 301 296 1
299 52 57 296 1
52 299 57 55 1
192 299 301 296 1
299 192 191 296 1
299 57 260 301 1
16 299 57 260 1
299 16 57 55 1
192 299 260 301 1
192 299 191 260 1
325 54 324 81 1
54 298 325 324 1
54 80 324 81 1
16 54 260 81 1
54 325 260 81 1
298 54 325 260 1
54 16 260 55 1
299 54 260 55 1
299 54 298 260 1
287 245 185 311 1
245 197 185 311 1
245 197 164 185 1
245 197 304 164 1
197 245 304 311 1
320 292 77 321 1
48 320 292 77 1
76 320 48 77 1
77 320 321 22 1
320 266 321 22 1
76 320 77 22 1
320 75 319 22 1
320 76 75 22 1
266 320 319 22 1
201 320 200 319 1
320 317 200 319 1
197 265 310 174 1
265 197 310 311 1
265 199 310 174 1
199 265 310 315 1
199 265 314 174 1
265 199 314 315 1
265 201 200 319 1
317 265 200 319 1
201 265 200 174 1
265 317 200 311 1
197 265 200 311 1
265 197 200 174 1
265 314 201 319 1
314 265 201 174 1
310 69 315 71 1
69 313 310 315 1
66 69 310 71 1
69 310 263 19 1
69 66 310 19 1
313 69 310 263 1
63 8 309 252 1
307 63 309 252 1
65 63 8 309 1
63 313 263 19 1
307 63 313 263 1
63 69 313 19 1
63 68 8 252 1
63 312 68 252 1
312 63 307 252 1
312 63 68 313 1
63 312 307 313 1
63 69 68 313 1
308 307 263 19 1
63 308 64 19 1
308 63 307 19 1
308 307 65 309 1
63 308 307 65 1
63 308 65 64 1
196 308 309 195 1
308 307 309 195 1
307 308 263 195 1
308 173 263 195 1
297 245 304 164 1
304 297 164 190 1
297 172 261 296 1
172 297 190 296 1
261 297 296 17 1
297 52 296 17 1
52 297 53 17 1
297 52 45 296 1
289 297 45 296 1
52 297 45 53 1
183 378 283 373 1
183 378 373 228 1
377 183 378 283 1
183 377 378 230 1
283 183 373 374 1
373 183 228 374 1
355 350 219 218 1
355 350 218 353 1
73 76 75 319 1
320 73 317 319 1
73 320 76 319 1
269 334 332 25 1
334 88 332 25 1
334 90 88 25 1
334 269 335 25 1
90 334 91 25 1
334 335 91 25 1
88 334 332 85 1
334 329 332 85 1
90 334 88 85 1
334 270 85 26 1
90 334 85 26 1
329 334 270 85 1
269 334 335 176 1
334 335 176 209 1
392 149 393 150 1
394 392 393 150 1
392 148 149 150 1
34 392 149 278 1
392 148 34 149 1
392 149 278 393 1
34 392 278 121 1
392 365 278 121 1
148 392 34 121 1
270 392 150 26 1
392 148 150 26 1
392 394 270 150 1
51 330 85 295 1
330 329 85 295 1
51 330 86 85 1
80 330 324 150 1
86 330 80 150 1
330 394 324 150 1
330 86 85 26 1
270 330 85 26 1
330 329 270 85 1
86 330 150 26 1
330 270 150 26 1
394 330 270 150 1
329 330 206 295 1
206 330 189 295 1
96 128 3 340 1
128 247 3 340 1
128 247 340 372 1
151 128 96 340 1
395 128 340 372 1
395 128 151 340 1
151 128 280 36 1
128 395 151 280 1
128 395 280 372 1
128 280 36 371 1
128 280 371 372 1
127 128 36 371 1
126 128 370 3 1
128 247 370 3 1
247 128 370 372 1
128 126 370 371 1
370 128 371 372 1
128 127 126 371 1
36 152 124 368 1
280 152 36 368 1
152 280 396 368 1
152 151 280 36 1
395 152 151 280 1
395 152 280 396 1
152 91 124 368 1
152 335 91 368 1
335 152 396 368 1
152 395 151 397 1
151 152 397 153 1
395 152 396 397 1
397 152 25 153 1
152 269 397 25 1
152 269 396 397 1
269 152 335 25 1
335 152 91 25 1
152 269 335 396 1
399 229 342 375 1
229 399 342 241 1
399 398 154 400 1
155 399 154 156 1
154 399 400 156 1
399 342 98 375 1
399 155 131 98 1
131 399 98 375 1
229 399 282 375 1
229 399 241 282 1
177 399 271 400 1
399 177 241 400 1
177 399 342 271 1
399 177 342 241 1
399 131 282 375 1
38 399 131 282 1
399 155 38 131 1
398 399 154 282 1
155 399 38 154 1
399 38 154 282 1
399 342 271 98 1
399 155 98 27 1
271 399 98 27 1
271 399 27 400 1
399 155 27 156 1
399 27 400 156 1
342 212 271 341 1
212 177 342 271 1
271 212 339 341 1
271 212 211 339 1
212 177 271 211 1
212 336 339 341 1
212 336 211 339 1
212 336 210 202 1
336 212 211 202 1
210 212 202 163 1
212 211 202 163 1
147 362 390 146 1
362 391 147 390 1
118 362 147 146 1
362 147 254 10 1
362 118 147 10 1
391 362 147 254 1
362 116 10 360 1
254 362 10 360 1
118 362 116 10 1
362 116 360 117 1
361 362 360 117 1
362 118 116 117 1
61 352 2 246 1
352 108 61 2 1
305 352 61 246 1
61 352 353 109 1
108 352 61 109 1
352 305 61 353 1
352 323 79 246 1
108 352 79 2 1
352 79 2 246 1
352 194 305 353 1
194 352 218 353 1
359 220 221 358 1
357 220 359 358 1
220 232 235 381 1
220 357 381 387 1
235 220 381 387 1
221 220 225 163 1
220 232 225 163 1
136 383 385 141 1
383 136 139 141 1
383 380 136 385 1
383 382 138 133 1
383 138 139 133 1
383 377 382 133 1
383 40 385 141 1
383 139 40 141 1
284 383 40 385 1
382 383 138 40 1
138 383 139 40 1
284 383 382 40 1
380 383 234 385 1
380 383 233 234 1
377 383 382 230 1
383 233 382 230 1
383 136 283 39 1
136 383 139 39 1
380 383 136 283 1
283 383 39 133 1
377 383 283 133 1
383 139 39 133 1
383 284 234 385 1
233 383 284 234 1
383 183 233 230 1
383 377 283 230 1
183 383 283 230 1
183 383 380 283 1
383 183 380 233 1
231 379 398 347 1
215 231 398 347 1
231 379 377 378 1
377 231 378 230 1
231 167 230 251 1
379 231 377 251 1
377 231 230 251 1
215 231 347 251 1
231 379 347 251 1
167 231 215 251 1
376 231 378 282 1
229 231 376 282 1
231 376 378 228 1
231 229 376 228 1
345 346 102 29 1
101 345 102 29 1
345 273 346 29 1
68 345 101 8 1
68 345 8 252 1
312 345 68 252 1
68 345 346 102 1
345 68 101 102 1
345 312 68 346 1
403 345 159 29 1
345 101 159 29 1
273 345 403 29 1
345 107 8 252 1
345 107 101 8 1
345 351 107 252 1
345 107 403 159 1
107 345 101 159 1
351 345 107 403 1
351 345 403 217 1
345 243 403 217 1
243 345 214 217 1
345 214 217 252 1
351 345 217 252 1
243 178 214 403 1
345 178 273 403 1
178 345 214 403 1
178 349 216 348 1
178 273 349 348 1
178 345 273 346 1
345 178 214 346 1
273 178 349 402 1
349 178 216 402 1
178 273 403 402 1
243 178 403 402 1
52 259 45 296 1
259 15 52 45 1
259 289 45 296 1
259 52 55 296 1
15 259 52 55 1
299 259 55 296 1
259 299 191 296 1
171 259 191 296 1
186 288 289 287 1
186 288 287 185 1
259 186 288 289 1
186 259 288 171 1
164 186 287 185 1
186 245 164 287 1
245 186 289 287 1
245 186 164 190 1
297 186 245 190 1
186 297 245 289 1
297 186 190 296 1
186 297 289 296 1
259 186 289 296 1
186 259 171 296 1
192 186 190 163 1
186 192 191 163 1
192 186 191 296 1
186 192 190 296 1
15 44 294 50 1
44 259 15 294 1
259 44 288 294 1
44 15 289 45 1
259 44 15 289 1
44 259 288 289 1
44 47 291 50 1
294 44 291 50 1
44 288 294 291 1
257 48 292 47 1
257 13 48 47 1
292 257 47 291 1
257 44 13 47 1
257 288 47 291 1
44 257 288 47 1
257 292 170 187 1
292 257 291 187 1
288 257 170 187 1
257 288 291 187 1
288 257 287 185 1
288 257 185 170 1
76 257 48 292 1
320 257 76 292 1
257 13 76 48 1
320 257 317 76 1
73 257 13 76 1
257 73 317 76 1
257 287 185 200 1
185 257 200 170 1
257 317 287 200 1
257 320 317 200 1
257 320 200 170 1
193 308 306 196 1
194 193 306 196 1
198 307 313 263 1
198 307 263 195 1
173 198 263 195 1
312 198 307 313 1
198 312 307 195 1
313 198 310 315 1
198 199 310 315 1
198 313 310 263 1
173 198 310 263 1
70 21 315 71 1
21 265 314 315 1
21 314 70 315 1
21 310 67 311 1
21 265 310 311 1
66 21 310 67 1
21 310 315 71 1
265 21 310 315 1
21 66 310 71 1
314 21 70 319 1
265 21 314 319 1
70 21 75 319 1
21 317 75 319 1
21 265 317 319 1
73 21 317 75 1
265 21 317 311 1
317 21 67 311 1
21 73 317 67 1
111 106 353 109 1
355 111 350 353 1
350 111 106 353 1
111 356 110 112 1
111 355 354 356 1
354 111 356 110 1
249 333 335 91 1
5 333 249 91 1
333 5 89 91 1
333 90 335 91 1
334 333 90 335 1
90 333 89 91 1
90 333 270 26 1
333 90 89 26 1
333 334 90 270 1
270 333 148 26 1
333 392 270 148 1
148 333 89 26 1
365 333 249 121 1
5 333 89 121 1
333 5 249 121 1
333 365 148 121 1
333 148 89 121 1
392 333 365 148 1
333 208 392 365 1
208 392 365 224 1
208 365 249 224 1
333 208 365 249 1
166 208 249 224 1
208 249 335 209 1
333 208 249 335 1
208 166 249 209 1
334 208 335 209 1
208 333 334 335 1
114 277 358 117 1
277 361 358 117 1
33 277 114 117 1
277 113 114 358 1
277 113 33 114 1
277 357 113 358 1
277 118 361 117 1
118 277 33 117 1
362 277 118 361 1
277 220 357 358 1
220 277 180 358 1
222 277 361 358 1
277 222 180 358 1
277 362 222 361 1
362 277 222 180 1
277 390 146 387 1
33 277 146 143 1
277 146 143 387 1
113 277 143 387 1
113 277 33 143 1
357 277 113 387 1
118 277 390 146 1
277 118 33 146 1
277 362 118 390 1
277 235 390 387 1
235 277 390 180 1
277 357 235 387 1
220 277 357 235 1
220 277 235 180 1
356 161 388 112 1
161 405 356 388 1
161 144 388 112 1
161 160 286 42 1
404 161 160 286 1
405 161 404 286 1
388 161 286 42 1
144 161 388 42 1
161 405 388 286 1
275 405 356 112 1
161 275 31 112 1
275 161 405 112 1
275 179 244 406 1
405 275 244 406 1
356 275 179 244 1
405 275 356 244 1
108 275 353 109 1
275 352 108 353 1
31 275 108 109 1
275 355 353 109 1
111 275 31 109 1
275 111 355 109 1
355 275 356 112 1
275 111 31 112 1
111 275 355 112 1
275 219 218 353 1
275 355 219 353 1
275 219 179 218 1
356 275 219 179 1
275 355 356 219 1
352 275 218 353 1
352 275 179 218 1
262 306 61 62 1
61 262 62 18 1
305 262 306 61 1
65 262 64 309 1
262 308 64 309 1
262 65 64 18 1
306 262 64 62 1
262 64 62 18 1
262 308 306 64 1
106 262 353 109 1
106 262 109 18 1
262 350 106 353 1
350 262 106 309 1
262 65 106 309 1
65 262 106 18 1
262 61 109 18 1
262 61 353 109 1
305 262 61 353 1
262 305 218 353 1
194 262 305 218 1
262 194 306 196 1
308 262 306 196 1
130 248 137 374 1
137 248 381 374 1
248 130 137 4 1
248 130 123 374 1
367 248 123 374 1
130 248 123 4 1
248 367 123 115 1
248 359 367 115 1
248 123 4 115 1
359 248 113 115 1
113 248 4 115 1
248 357 359 113 1
248 113 137 381 1
113 248 137 4 1
248 357 113 381 1
357 248 232 381 1
248 220 357 232 1
357 248 359 221 1
220 248 357 221 1
248 367 221 225 1
359 248 367 221 1
232 248 221 225 1
248 220 232 221 1
299 293 298 55 1
293 54 298 55 1
54 293 49 55 1
293 299 15 55 1
293 15 49 55 1
259 293 299 15 1
15 293 49 50 1
293 15 294 50 1
259 293 15 294 1
293 294 295 50 1
293 51 49 50 1
51 293 295 50 1
86 6 80 324 1
330 6 86 324 1
250 6 330 324 1
6 298 80 324 1
54 6 298 80 1
6 250 298 324 1
51 6 86 295 1
6 250 330 295 1
6 330 86 295 1
6 51 49 295 1
6 293 250 295 1
293 6 49 295 1
6 54 298 49 1
293 6 298 49 1
293 6 250 298 1
44 43 288 13 1
257 43 288 287 1
43 257 288 13 1
73 43 13 317 1
43 257 317 287 1
43 257 13 317 1
317 43 287 311 1
43 317 67 311 1
73 43 317 67 1
43 288 289 45 1
288 43 289 287 1
43 44 288 45 1
303 172 261 190 1
297 303 261 190 1
303 193 172 190 1
303 172 306 261 1
193 303 172 306 1
303 261 62 17 1
306 303 261 62 1
59 303 62 17 1
261 303 53 17 1
303 59 53 17 1
303 297 261 53 1
303 297 304 190 1
193 303 304 190 1
303 306 64 62 1
59 303 64 62 1
308 303 306 64 1
297 303 304 53 1
304 303 60 53 1
303 59 60 53 1
303 173 304 263 1
193 303 173 304 1
303 308 173 263 1
193 303 308 173 1
303 304 60 263 1
59 303 60 19 1
60 303 263 19 1
303 64 263 19 1
308 303 64 263 1
303 59 64 19 1
264 312 68 313 1
69 264 68 313 1
264 20 69 68 1
316 264 72 315 1
264 20 72 71 1
264 72 315 71 1
313 264 315 71 1
20 264 69 71 1
69 264 313 71 1
72 264 343 99 1
264 316 72 343 1
20 264 72 99 1
343 264 102 99 1
264 346 343 102 1
264 20 102 99 1
264 68 346 102 1
264 20 68 102 1
312 264 68 346 1
198 264 199 313 1
264 199 313 315 1
401 276 110 157 1
276 354 401 110 1
276 32 110 157 1
276 401 159 157 1
403 276 401 159 1
32 276 159 157 1
107 276 403 159 1
32 276 107 159 1
276 351 107 403 1
351 276 107 350 1
276 32 107 106 1
276 107 350 106 1
276 355 354 110 1
111 276 32 110 1
276 111 355 110 1
355 276 350 106 1
276 111 32 106 1
111 276 355 106 1
276 351 403 217 1
243 276 403 217 1
276 403 401 242 1
276 243 403 242 1
162 108 323 79 1
352 162 108 323 1
352 162 323 406 1
405 162 404 160 1
162 405 404 406 1
161 162 405 160 1
162 404 160 268 1
24 162 160 268 1
404 162 406 268 1
323 162 79 268 1
162 323 406 268 1
162 24 79 268 1
161 162 31 405 1
162 275 31 405 1
162 275 405 406 1
352 162 31 108 1
275 162 352 406 1
162 275 352 31 1
293 188 299 298 1
188 299 298 191 1
293 188 250 295 1
250 188 189 295 1
299 188 171 191 1
293 188 259 299 1
188 259 299 171 1
188 293 294 295 1
188 294 189 295 1
188 293 259 294 1
188 259 171 294 1
60 1 67 311 1
245 1 304 311 1
304 1 60 311 1
1 304 60 53 1
1 297 245 304 1
1 297 304 53 1
289 1 45 53 1
297 1 245 289 1
297 1 289 53 1
1 245 289 287 1
289 1 287 45 1
1 43 287 45 1
1 245 287 311 1
1 287 67 311 1
43 1 287 67 1

End
