#usda 1.0
(
    defaultPrim = "pyramid"
    metersPerUnit = 1
    upAxis = "Z"
)

def Mesh "pyramid" (
    customData = {
        int chamber_id = 2
        dictionary hex_mesh = {
            int[] hex_vertex_indices = [0, 30, 36, 6, 1, 31, 37, 7, 1, 31, 37, 7, 2, 32, 38, 8, 2, 32, 38, 8, 3, 33, 39, 9, 3, 33, 39, 9, 4, 34, 40, 10, 4, 34, 40, 10, 5, 35, 41, 11, 6, 36, 42, 12, 7, 37, 43, 13, 7, 37, 43, 13, 8, 38, 44, 14, 8, 38, 44, 14, 9, 39, 45, 15, 9, 39, 45, 15, 10, 40, 46, 16, 10, 40, 46, 16, 11, 41, 47, 17, 12, 42, 48, 18, 13, 43, 49, 19, 13, 43, 49, 19, 14, 44, 50, 20, 14, 44, 50, 20, 15, 45, 51, 21, 15, 45, 51, 21, 16, 46, 52, 22, 16, 46, 52, 22, 17, 47, 53, 23, 18, 48, 54, 24, 19, 49, 55, 25, 19, 49, 55, 25, 20, 50, 56, 26, 20, 50, 56, 26, 21, 51, 57, 27, 21, 51, 57, 27, 22, 52, 58, 28, 22, 52, 58, 28, 23, 53, 59, 29, 30, 60, 66, 36, 31, 61, 67, 37, 31, 61, 67, 37, 32, 62, 68, 38, 32, 62, 68, 38, 33, 63, 69, 39, 33, 63, 69, 39, 34, 64, 70, 40, 34, 64, 70, 40, 35, 65, 71, 41, 36, 66, 72, 42, 37, 67, 73, 43, 37, 67, 73, 43, 38, 68, 74, 44, 38, 68, 74, 44, 39, 69, 75, 45, 39, 69, 75, 45, 40, 70, 76, 46, 40, 70, 76, 46, 41, 71, 77, 47, 42, 72, 78, 48, 43, 73, 79, 49, 43, 73, 79, 49, 44, 74, 80, 50, 44, 74, 80, 50, 45, 75, 81, 51, 45, 75, 81, 51, 46, 76, 82, 52, 46, 76, 82, 52, 47, 77, 83, 53, 48, 78, 84, 54, 49, 79, 85, 55, 49, 79, 85, 55, 50, 80, 86, 56, 50, 80, 86, 56, 51, 81, 87, 57, 51, 81, 87, 57, 52, 82, 88, 58, 52, 82, 88, 58, 53, 83, 89, 59, 60, 90, 96, 66, 61, 91, 97, 67, 61, 91, 97, 67, 62, 92, 98, 68, 62, 92, 98, 68, 63, 93, 99, 69, 63, 93, 99, 69, 64, 94, 100, 70, 64, 94, 100, 70, 65, 95, 101, 71, 66, 96, 102, 72, 67, 97, 103, 73, 67, 97, 103, 73, 68, 98, 104, 74, 68, 98, 104, 74, 69, 99, 105, 75, 69, 99, 105, 75, 70, 100, 106, 76, 70, 100, 106, 76, 71, 101, 107, 77, 72, 102, 108, 78, 73, 103, 109, 79, 73, 103, 109, 79, 74, 104, 110, 80, 74, 104, 110, 80, 75, 105, 111, 81, 75, 105, 111, 81, 76, 106, 112, 82, 76, 106, 112, 82, 77, 107, 113, 83, 78, 108, 114, 84, 79, 109, 115, 85, 79, 109, 115, 85, 80, 110, 116, 86, 80, 110, 116, 86, 81, 111, 117, 87, 81, 111, 117, 87, 82, 112, 118, 88, 82, 112, 118, 88, 83, 113, 119, 89, 90, 120, 126, 96, 91, 121, 127, 97, 91, 121, 127, 97, 92, 122, 128, 98, 92, 122, 128, 98, 93, 123, 129, 99, 93, 123, 129, 99, 94, 124, 130, 100, 94, 124, 130, 100, 95, 125, 131, 101, 96, 126, 132, 102, 97, 127, 133, 103, 97, 127, 133, 103, 98, 128, 134, 104, 98, 128, 134, 104, 99, 129, 135, 105, 99, 129, 135, 105, 100, 130, 136, 106, 100, 130, 136, 106, 101, 131, 137, 107, 102, 132, 138, 108, 103, 133, 139, 109, 103, 133, 139, 109, 104, 134, 140, 110, 104, 134, 140, 110, 105, 135, 141, 111, 105, 135, 141, 111, 106, 136, 142, 112, 106, 136, 142, 112, 107, 137, 143, 113, 108, 138, 144, 114, 109, 139, 145, 115, 109, 139, 145, 115, 110, 140, 146, 116, 110, 140, 146, 116, 111, 141, 147, 117, 111, 141, 147, 117, 112, 142, 148, 118, 112, 142, 148, 118, 113, 143, 149, 119]
            int num_elements = 80
        }
    }
)
{
    int[] faceVertexCounts = [3, 3, 3, 3, 3, 3, 3, 3, 3, 3, 3, 3, 3, 3, 3, 3, 3, 3, 3, 3, 3, 3, 3, 3, 3, 3, 3, 3, 3, 3, 3, 3, 3, 3, 3, 3, 3, 3, 3, 3, 3, 3, 3, 3, 3, 3, 3, 3, 3, 3, 3, 3, 3, 3, 3, 3, 3, 3, 3, 3, 3, 3, 3, 3, 3, 3, 3, 3, 3, 3, 3, 3, 3, 3, 3, 3, 3, 3, 3, 3, 3, 3, 3, 3, 3, 3, 3, 3, 3, 3, 3, 3, 3, 3, 3, 3, 3, 3, 3, 3, 3, 3, 3, 3, 3, 3, 3, 3, 3, 3, 3, 3, 3, 3, 3, 3, 3, 3, 3, 3, 3, 3, 3, 3, 3, 3, 3, 3, 3, 3, 3, 3, 3, 3, 3, 3, 3, 3, 3, 3, 3, 3, 3, 3, 3, 3, 3, 3, 3, 3, 3, 3, 3, 3, 3, 3, 3, 3, 3, 3, 3, 3, 3, 3, 3, 3, 3, 3, 3, 3, 3, 3, 3, 3, 3, 3, 3, 3, 3, 3, 3, 3, 3, 3, 3, 3, 3, 3, 3, 3, 3, 3, 3, 3, 3, 3, 3, 3, 3, 3, 3, 3, 3, 3, 3, 3, 3, 3, 3, 3, 3, 3, 3, 3, 3, 3, 3, 3, 3, 3, 3, 3, 3, 3]
    int[] faceVertexIndices = [0, 1, 7, 0, 7, 6, 1, 2, 8, 1, 8, 7, 2, 3, 9, 2, 9, 8, 3, 4, 10, 3, 10, 9, 4, 5, 11, 4, 11, 10, 6, 7, 13, 6, 13, 12, 7, 8, 14, 7, 14, 13, 8, 9, 15, 8, 15, 14, 9, 10, 16, 9, 16, 15, 10, 11, 17, 10, 17, 16, 12, 13, 19, 12, 19, 18, 13, 14, 20, 13, 20, 19, 14, 15, 21, 14, 21, 20, 15, 16, 22, 15, 22, 21, 16, 17, 23, 16, 23, 22, 18, 19, 25, 18, 25, 24, 19, 20, 26, 19, 26, 25, 20, 21, 27, 20, 27, 26, 21, 22, 28, 21, 28, 27, 22, 23, 29, 22, 29, 28, 120, 126, 127, 120, 127, 121, 121, 127, 128, 121, 128, 122, 122, 128, 129, 122, 129, 123, 123, 129, 130, 123, 130, 124, 124, 130, 131, 124, 131, 125, 126, 132, 133, 126, 133, 127, 127, 133, 134, 127, 134, 128, 128, 134, 135, 128, 135, 129, 129, 135, 136, 129, 136, 130, 130, 136, 137, 130, 137, 131, 132, 138, 139, 132, 139, 133, 133, 139, 140, 133, 140, 134, 134, 140, 141, 134, 141, 135, 135, 141, 142, 135, 142, 136, 136, 142, 143, 136, 143, 137, 138, 144, 145, 138, 145, 139, 139, 145, 146, 139, 146, 140, 140, 146, 147, 140, 147, 141, 141, 147, 148, 141, 148, 142, 142, 148, 149, 142, 149, 143, 0, 30, 31, 0, 31, 1, 1, 31, 32, 1, 32, 2, 2, 32, 33, 2, 33, 3, 3, 33, 34, 3, 34, 4, 4, 34, 35, 4, 35, 5, 30, 60, 61, 30, 61, 31, 31, 61, 62, 31, 62, 32, 32, 62, 63, 32, 63, 33, 33, 63, 64, 33, 64, 34, 34, 64, 65, 34, 65, 35, 60, 90, 91, 60, 91, 61, 61, 91, 92, 61, 92, 62, 62, 92, 93, 62, 93, 63, 63, 93, 94, 63, 94, 64, 64, 94, 95, 64, 95, 65, 90, 120, 121, 90, 121, 91, 91, 121, 122, 91, 122, 92, 92, 122, 123, 92, 123, 93, 93, 123, 124, 93, 124, 94, 94, 124, 125, 94, 125, 95, 24, 25, 55, 24, 55, 54, 25, 26, 56, 25, 56, 55, 26, 27, 57, 26, 57, 56, 27, 28, 58, 27, 58, 57, 28, 29, 59, 28, 59, 58, 54, 55, 85, 54, 85, 84, 55, 56, 86, 55, 86, 85, 56, 57, 87, 56, 87, 86, 57, 58, 88, 57, 88, 87, 58, 59, 89, 58, 89, 88, 84, 85, 115, 84, 115, 114, 85, 86, 116, 85, 116, 115, 86, 87, 117, 86, 117, 116, 87, 88, 118, 87, 118, 117, 88, 89, 119, 88, 119, 118, 114, 115, 145, 114, 145, 144, 115, 116, 146, 115, 146, 145, 116, 117, 147, 116, 147, 146, 117, 118, 148, 117, 148, 147, 118, 119, 149, 118, 149, 148, 0, 6, 36, 0, 36, 30, 6, 12, 42, 6, 42, 36, 12, 18, 48, 12, 48, 42, 18, 24, 54, 18, 54, 48, 30, 36, 66, 30, 66, 60, 36, 42, 72, 36, 72, 66, 42, 48, 78, 42, 78, 72, 48, 54, 84, 48, 84, 78, 60, 66, 96, 60, 96, 90, 66, 72, 102, 66, 102, 96, 72, 78, 108, 72, 108, 102, 78, 84, 114, 78, 114, 108, 90, 96, 126, 90, 126, 120, 96, 102, 132, 96, 132, 126, 102, 108, 138, 102, 138, 132, 108, 114, 144, 108, 144, 138, 5, 35, 41, 5, 41, 11, 11, 41, 47, 11, 47, 17, 17, 47, 53, 17, 53, 23, 23, 53, 59, 23, 59, 29, 35, 65, 71, 35, 71, 41, 41, 71, 77, 41, 77, 47, 47, 77, 83, 47, 83, 53, 53, 83, 89, 53, 89, 59, 65, 95, 101, 65, 101, 71, 71, 101, 107, 71, 107, 77, 77, 107, 113, 77, 113, 83, 83, 113, 119, 83, 119, 89, 95, 125, 131, 95, 131, 101, 101, 131, 137, 101, 137, 107, 107, 137, 143, 107, 143, 113, 113, 143, 149, 113, 149, 119]
    point3f[] points = [(-0.3, -0.3, 1.6), (-0.282, -0.282, 1.664), (-0.264, -0.264, 1.728), (-0.246, -0.246, 1.792), (-0.228, -0.228, 1.856), (-0.21, -0.21, 1.92), (-0.3, -0.225, 1.6), (-0.282, -0.216, 1.664), (-0.264, -0.207, 1.728), (-0.246, -0.198, 1.792), (-0.228, -0.189, 1.856), (-0.21, -0.18, 1.92), (-0.3, -0.15, 1.6), (-0.282, -0.15, 1.664), (-0.264, -0.15, 1.728), (-0.246, -0.15, 1.792), (-0.228, -0.15, 1.856), (-0.21, -0.15, 1.92), (-0.3, -0.075, 1.6), (-0.282, -0.084, 1.664), (-0.264, -0.093, 1.728), (-0.246, -0.102, 1.792), (-0.228, -0.111, 1.856), (-0.21, -0.12, 1.92), (-0.3, 0, 1.6), (-0.282, -0.018, 1.664), (-0.264, -0.036, 1.728), (-0.246, -0.054, 1.792), (-0.228, -0.072, 1.856), (-0.21, -0.09, 1.92), (-0.225, -0.3, 1.6), (-0.216, -0.282, 1.664), (-0.207, -0.264, 1.728), (-0.198, -0.246, 1.792), (-0.189, -0.228, 1.856), (-0.18, -0.21, 1.92), (-0.225, -0.225, 1.6), (-0.216, -0.216, 1.664), (-0.207, -0.207, 1.728), (-0.198, -0.198, 1.792), (-0.189, -0.189, 1.856), (-0.18, -0.18, 1.92), (-0.225, -0.15, 1.6), (-0.216, -0.15, 1.664), (-0.207, -0.15, 1.728), (-0.198, -0.15, 1.792), (-0.189, -0.15, 1.856), (-0.18, -0.15, 1.92), (-0.225, -0.075, 1.6), (-0.216, -0.084, 1.664), (-0.207, -0.093, 1.728), (-0.198, -0.102, 1.792), (-0.189, -0.111, 1.856), (-0.18, -0.12, 1.92), (-0.225, 0, 1.6), (-0.216, -0.018, 1.664), (-0.207, -0.036, 1.728), (-0.198, -0.054, 1.792), (-0.189, -0.072, 1.856), (-0.18, -0.09, 1.92), (-0.15, -0.3, 1.6), (-0.15, -0.282, 1.664), (-0.15, -0.264, 1.728), (-0.15, -0.246, 1.792), (-0.15, -0.228, 1.856), (-0.15, -0.21, 1.92), (-0.15, -0.225, 1.6), (-0.15, -0.216, 1.664), (-0.15, -0.207, 1.728), (-0.15, -0.198, 1.792), (-0.15, -0.189, 1.856), (-0.15, -0.18, 1.92), (-0.15, -0.15, 1.6), (-0.15, -0.15, 1.664), (-0.15, -0.15, 1.728), (-0.15, -0.15, 1.792), (-0.15, -0.15, 1.856), (-0.15, -0.15, 1.92), (-0.15, -0.075, 1.6), (-0.15, -0.084, 1.664), (-0.15, -0.093, 1.728), (-0.15, -0.102, 1.792), (-0.15, -0.111, 1.856), (-0.15, -0.12, 1.92), (-0.15, 0, 1.6), (-0.15, -0.018, 1.664), (-0.15, -0.036, 1.728), (-0.15, -0.054, 1.792), (-0.15, -0.072, 1.856), (-0.15, -0.09, 1.92), (-0.075, -0.3, 1.6), (-0.084, -0.282, 1.664), (-0.093, -0.264, 1.728), (-0.102, -0.246, 1.792), (-0.111, -0.228, 1.856), (-0.12, -0.21, 1.92), (-0.075, -0.225, 1.6), (-0.084, -0.216, 1.664), (-0.093, -0.207, 1.728), (-0.102, -0.198, 1.792), (-0.111, -0.189, 1.856), (-0.12, -0.18, 1.92), (-0.075, -0.15, 1.6), (-0.084, -0.15, 1.664), (-0.093, -0.15, 1.728), (-0.102, -0.15, 1.792), (-0.111, -0.15, 1.856), (-0.12, -0.15, 1.92), (-0.075, -0.075, 1.6), (-0.084, -0.084, 1.664), (-0.093, -0.093, 1.728), (-0.102, -0.102, 1.792), (-0.111, -0.111, 1.856), (-0.12, -0.12, 1.92), (-0.075, 0, 1.6), (-0.084, -0.018, 1.664), (-0.093, -0.036, 1.728), (-0.102, -0.054, 1.792), (-0.111, -0.072, 1.856), (-0.12, -0.09, 1.92), (0, -0.3, 1.6), (-0.018, -0.282, 1.664), (-0.036, -0.264, 1.728), (-0.054, -0.246, 1.792), (-0.072, -0.228, 1.856), (-0.09, -0.21, 1.92), (0, -0.225, 1.6), (-0.018, -0.216, 1.664), (-0.036, -0.207, 1.728), (-0.054, -0.198, 1.792), (-0.072, -0.189, 1.856), (-0.09, -0.18, 1.92), (0, -0.15, 1.6), (-0.018, -0.15, 1.664), (-0.036, -0.15, 1.728), (-0.054, -0.15, 1.792), (-0.072, -0.15, 1.856), (-0.09, -0.15, 1.92), (0, -0.075, 1.6), (-0.018, -0.084, 1.664), (-0.036, -0.093, 1.728), (-0.054, -0.102, 1.792), (-0.072, -0.111, 1.856), (-0.09, -0.12, 1.92), (0, 0, 1.6), (-0.018, -0.018, 1.664), (-0.036, -0.036, 1.728), (-0.054, -0.054, 1.792), (-0.072, -0.072, 1.856), (-0.09, -0.09, 1.92)]
}
