#usda 1.0
(
    defaultPrim = "sphere"
    metersPerUnit = 1
    upAxis = "Z"
)

def TetMesh "sphere" (
    customData = {
        dictionary contact_params = {
            double max_edge_length = 0.09747591530307412
            double min_edge_length = 0.08277134064082448
            double particle_radius = 0.04138567032041224
            double self_contact_radius = 0.19495183060614824
        }
    }
)
{
    point3f[] points = [(-0.15771933, 0.25519523, 0), (0.15771933, 0.25519523, 0), (-0.15771933, -0.25519523, 0), (0.15771933, -0.25519523, 0), (0, -0.15771933, 0.25519523), (0, 0.15771933, 0.25519523), (0, -0.15771933, -0.25519523), (0, 0.15771933, -0.25519523), (0.25519523, 0, -0.15771933), (0.25519523, 0, 0.15771933), (-0.25519523, 0, -0.15771933), (-0.25519523, 0, 0.15771933), (-0.24270509, 0.15, 0.0927051), (-0.15, 0.0927051, 0.24270509), (-0.0927051, 0.24270509, 0.15), (0.0927051, 0.24270509, 0.15), (0, 0.3, 0), (0.0927051, 0.24270509, -0.15), (-0.0927051, 0.24270509, -0.15), (-0.15, 0.0927051, -0.24270509), (-0.24270509, 0.15, -0.0927051), (-0.3, 0, 0), (0.15, 0.0927051, 0.24270509), (0.24270509, 0.15, 0.0927051), (-0.15, -0.0927051, 0.24270509), (0, 0, 0.3), (-0.24270509, -0.15, -0.0927051), (-0.24270509, -0.15, 0.0927051), (0, 0, -0.3), (-0.15, -0.0927051, -0.24270509), (0.24270509, 0.15, -0.0927051), (0.15, 0.0927051, -0.24270509), (0.24270509, -0.15, 0.0927051), (0.15, -0.0927051, 0.24270509), (0.0927051, -0.24270509, 0.15), (-0.0927051, -0.24270509, 0.15), (0, -0.3, 0), (-0.0927051, -0.24270509, -0.15), (0.0927051, -0.24270509, -0.15), (0.15, -0.0927051, -0.24270509), (0.24270509, -0.15, -0.0927051), (0.3, 0, 0), (-0.20813414, 0.21061394, 0.04818661), (-0.17633557, 0.20645729, 0.12759762), (-0.13016658, 0.25880054, 0.07796758), (-0.21061394, 0.04818661, 0.20813414), (-0.20645729, 0.12759762, 0.17633557), (-0.25880054, 0.07796758, 0.13016658), (-0.04818661, 0.20813414, 0.21061394), (-0.12759762, 0.17633557, 0.20645729), (-0.07796758, 0.13016658, 0.25880054), (-0.048737954, 0.28531694, 0.078859664), (-0.08197996, 0.28858152, 0), (0.04818661, 0.20813414, 0.21061394), (0, 0.25519523, 0.15771933), (0.08197996, 0.28858152, 0), (0.048737954, 0.28531694, 0.078859664), (0.13016658, 0.25880054, 0.07796758), (-0.048737954, 0.28531694, -0.078859664), (-0.13016658, 0.25880054, -0.07796758), (0.13016658, 0.25880054, -0.07796758), (0.048737954, 0.28531694, -0.078859664), (-0.04818661, 0.20813414, -0.21061394), (0, 0.25519523, -0.15771933), (0.04818661, 0.20813414, -0.21061394), (-0.17633557, 0.20645729, -0.12759762), (-0.20813414, 0.21061394, -0.04818661), (-0.07796758, 0.13016658, -0.25880054), (-0.12759762, 0.17633557, -0.20645729), (-0.25880054, 0.07796758, -0.13016658), (-0.20645729, 0.12759762, -0.17633557), (-0.21061394, 0.04818661, -0.20813414), (-0.25519523, 0.15771933, 0), (-0.28858152, 0, -0.08197996), (-0.28531694, 0.078859664, -0.048737954), (-0.28531694, 0.078859664, 0.048737954), (-0.28858152, 0, 0.08197996), (0.17633557, 0.20645729, 0.12759762), (0.20813414, 0.21061394, 0.04818661), (0.07796758, 0.13016658, 0.25880054), (0.12759762, 0.17633557, 0.20645729), (0.25880054, 0.07796758, 0.13016658), (0.20645729, 0.12759762, 0.17633557), (0.21061394, 0.04818661, 0.20813414), (-0.078859664, 0.048737954, 0.28531694), (0, 0.08197996, 0.28858152), (-0.21061394, -0.04818661, 0.20813414), (-0.15771933, 0, 0.25519523), (0, -0.08197996, 0.28858152), (-0.078859664, -0.048737954, 0.28531694), (-0.07796758, -0.13016658, 0.25880054), (-0.28531694, -0.078859664, 0.048737954), (-0.25880054, -0.07796758, 0.13016658), (-0.25880054, -0.07796758, -0.13016658), (-0.28531694, -0.078859664, -0.048737954), (-0.20813414, -0.21061394, 0.04818661), (-0.25519523, -0.15771933, 0), (-0.20813414, -0.21061394, -0.04818661), (-0.15771933, 0, -0.25519523), (-0.21061394, -0.04818661, -0.20813414), (0, 0.08197996, -0.28858152), (-0.078859664, 0.048737954, -0.28531694), (-0.07796758, -0.13016658, -0.25880054), (-0.078859664, -0.048737954, -0.28531694), (0, -0.08197996, -0.28858152), (0.12759762, 0.17633557, -0.20645729), (0.07796758, 0.13016658, -0.25880054), (0.20813414, 0.21061394, -0.04818661), (0.17633557, 0.20645729, -0.12759762), (0.21061394, 0.04818661, -0.20813414), (0.20645729, 0.12759762, -0.17633557), (0.25880054, 0.07796758, -0.13016658), (0.20813414, -0.21061394, 0.04818661), (0.17633557, -0.20645729, 0.12759762), (0.13016658, -0.25880054, 0.07796758), (0.21061394, -0.04818661, 0.20813414), (0.20645729, -0.12759762, 0.17633557), (0.25880054, -0.07796758, 0.13016658), (0.04818661, -0.20813414, 0.21061394), (0.12759762, -0.17633557, 0.20645729), (0.07796758, -0.13016658, 0.25880054), (0.048737954, -0.28531694, 0.078859664), (0.08197996, -0.28858152, 0), (-0.04818661, -0.20813414, 0.21061394), (0, -0.25519523, 0.15771933), (-0.08197996, -0.28858152, 0), (-0.048737954, -0.28531694, 0.078859664), (-0.13016658, -0.25880054, 0.07796758), (0.048737954, -0.28531694, -0.078859664), (0.13016658, -0.25880054, -0.07796758), (-0.13016658, -0.25880054, -0.07796758), (-0.048737954, -0.28531694, -0.078859664), (0.04818661, -0.20813414, -0.21061394), (0, -0.25519523, -0.15771933), (-0.04818661, -0.20813414, -0.21061394), (0.17633557, -0.20645729, -0.12759762), (0.20813414, -0.21061394, -0.04818661), (0.07796758, -0.13016658, -0.25880054), (0.12759762, -0.17633557, -0.20645729), (0.25880054, -0.07796758, -0.13016658), (0.20645729, -0.12759762, -0.17633557), (0.21061394, -0.04818661, -0.20813414), (0.25519523, -0.15771933, 0), (0.28858152, 0, -0.08197996), (0.28531694, -0.078859664, -0.048737954), (0.28531694, -0.078859664, 0.048737954), (0.28858152, 0, 0.08197996), (0.078859664, -0.048737954, 0.28531694), (0.15771933, 0, 0.25519523), (0.078859664, 0.048737954, 0.28531694), (-0.17633557, -0.20645729, 0.12759762), (-0.12759762, -0.17633557, 0.20645729), (-0.20645729, -0.12759762, 0.17633557), (-0.12759762, -0.17633557, -0.20645729), (-0.17633557, -0.20645729, -0.12759762), (-0.20645729, -0.12759762, -0.17633557), (0.15771933, 0, -0.25519523), (0.078859664, -0.048737954, -0.28531694), (0.078859664, 0.048737954, -0.28531694), (0.28531694, 0.078859664, 0.048737954), (0.28531694, 0.078859664, -0.048737954), (0.25519523, 0.15771933, 0), (0, 0, 0)]
    int3[] surfaceFaceVertexIndices = [(0, 42, 44), (12, 43, 42), (14, 44, 43), (42, 43, 44), (11, 45, 47), (13, 46, 45), (12, 47, 46), (45, 46, 47), (5, 48, 50), (14, 49, 48), (13, 50, 49), (48, 49, 50), (12, 46, 43), (13, 49, 46), (14, 43, 49), (46, 49, 43), (0, 44, 52), (14, 51, 44), (16, 52, 51), (44, 51, 52), (5, 53, 48), (15, 54, 53), (14, 48, 54), (53, 54, 48), (1, 55, 57), (16, 56, 55), (15, 57, 56), (55, 56, 57), (14, 54, 51), (15, 56, 54), (16, 51, 56), (54, 56, 51), (0, 52, 59), (16, 58, 52), (18, 59, 58), (52, 58, 59), (1, 60, 55), (17, 61, 60), (16, 55, 61), (60, 61, 55), (7, 62, 64), (18, 63, 62), (17, 64, 63), (62, 63, 64), (16, 61, 58), (17, 63, 61), (18, 58, 63), (61, 63, 58), (0, 59, 66), (18, 65, 59), (20, 66, 65), (59, 65, 66), (7, 67, 62), (19, 68, 67), (18, 62, 68), (67, 68, 62), (10, 69, 71), (20, 70, 69), (19, 71, 70), (69, 70, 71), (18, 68, 65), (19, 70, 68), (20, 65, 70), (68, 70, 65), (0, 66, 42), (20, 72, 66), (12, 42, 72), (66, 72, 42), (10, 73, 69), (21, 74, 73), (20, 69, 74), (73, 74, 69), (11, 47, 76), (12, 75, 47), (21, 76, 75), (47, 75, 76), (20, 74, 72), (21, 75, 74), (12, 72, 75), (74, 75, 72), (1, 57, 78), (15, 77, 57), (23, 78, 77), (57, 77, 78), (5, 79, 53), (22, 80, 79), (15, 53, 80), (79, 80, 53), (9, 81, 83), (23, 82, 81), (22, 83, 82), (81, 82, 83), (15, 80, 77), (22, 82, 80), (23, 77, 82), (80, 82, 77), (5, 50, 85), (13, 84, 50), (25, 85, 84), (50, 84, 85), (11, 86, 45), (24, 87, 86), (13, 45, 87), (86, 87, 45), (4, 88, 90), (25, 89, 88), (24, 90, 89), (88, 89, 90), (13, 87, 84), (24, 89, 87), (25, 84, 89), (87, 89, 84), (11, 76, 92), (21, 91, 76), (27, 92, 91), (76, 91, 92), (10, 93, 73), (26, 94, 93), (21, 73, 94), (93, 94, 73), (2, 95, 97), (27, 96, 95), (26, 97, 96), (95, 96, 97), (21, 94, 91), (26, 96, 94), (27, 91, 96), (94, 96, 91), (10, 71, 99), (19, 98, 71), (29, 99, 98), (71, 98, 99), (7, 100, 67), (28, 101, 100), (19, 67, 101), (100, 101, 67), (6, 102, 104), (29, 103, 102), (28, 104, 103), (102, 103, 104), (19, 101, 98), (28, 103, 101), (29, 98, 103), (101, 103, 98), (7, 64, 106), (17, 105, 64), (31, 106, 105), (64, 105, 106), (1, 107, 60), (30, 108, 107), (17, 60, 108), (107, 108, 60), (8, 109, 111), (31, 110, 109), (30, 111, 110), (109, 110, 111), (17, 108, 105), (30, 110, 108), (31, 105, 110), (108, 110, 105), (3, 112, 114), (32, 113, 112), (34, 114, 113), (112, 113, 114), (9, 115, 117), (33, 116, 115), (32, 117, 116), (115, 116, 117), (4, 118, 120), (34, 119, 118), (33, 120, 119), (118, 119, 120), (32, 116, 113), (33, 119, 116), (34, 113, 119), (116, 119, 113), (3, 114, 122), (34, 121, 114), (36, 122, 121), (114, 121, 122), (4, 123, 118), (35, 124, 123), (34, 118, 124), (123, 124, 118), (2, 125, 127), (36, 126, 125), (35, 127, 126), (125, 126, 127), (34, 124, 121), (35, 126, 124), (36, 121, 126), (124, 126, 121), (3, 122, 129), (36, 128, 122), (38, 129, 128), (122, 128, 129), (2, 130, 125), (37, 131, 130), (36, 125, 131), (130, 131, 125), (6, 132, 134), (38, 133, 132), (37, 134, 133), (132, 133, 134), (36, 131, 128), (37, 133, 131), (38, 128, 133), (131, 133, 128), (3, 129, 136), (38, 135, 129), (40, 136, 135), (129, 135, 136), (6, 137, 132), (39, 138, 137), (38, 132, 138), (137, 138, 132), (8, 139, 141), (40, 140, 139), (39, 141, 140), (139, 140, 141), (38, 138, 135), (39, 140, 138), (40, 135, 140), (138, 140, 135), (3, 136, 112), (40, 142, 136), (32, 112, 142), (136, 142, 112), (8, 143, 139), (41, 144, 143), (40, 139, 144), (143, 144, 139), (9, 117, 146), (32, 145, 117), (41, 146, 145), (117, 145, 146), (40, 144, 142), (41, 145, 144), (32, 142, 145), (144, 145, 142), (4, 120, 88), (33, 147, 120), (25, 88, 147), (120, 147, 88), (9, 83, 115), (22, 148, 83), (33, 115, 148), (83, 148, 115), (5, 85, 79), (25, 149, 85), (22, 79, 149), (85, 149, 79), (33, 148, 147), (22, 149, 148), (25, 147, 149), (148, 149, 147), (2, 127, 95), (35, 150, 127), (27, 95, 150), (127, 150, 95), (4, 90, 123), (24, 151, 90), (35, 123, 151), (90, 151, 123), (11, 92, 86), (27, 152, 92), (24, 86, 152), (92, 152, 86), (35, 151, 150), (24, 152, 151), (27, 150, 152), (151, 152, 150), (6, 134, 102), (37, 153, 134), (29, 102, 153), (134, 153, 102), (2, 97, 130), (26, 154, 97), (37, 130, 154), (97, 154, 130), (10, 99, 93), (29, 155, 99), (26, 93, 155), (99, 155, 93), (37, 154, 153), (26, 155, 154), (29, 153, 155), (154, 155, 153), (8, 141, 109), (39, 156, 141), (31, 109, 156), (141, 156, 109), (6, 104, 137), (28, 157, 104), (39, 137, 157), (104, 157, 137), (7, 106, 100), (31, 158, 106), (28, 100, 158), (106, 158, 100), (39, 157, 156), (28, 158, 157), (31, 156, 158), (157, 158, 156), (9, 146, 81), (41, 159, 146), (23, 81, 159), (146, 159, 81), (8, 111, 143), (30, 160, 111), (41, 143, 160), (111, 160, 143), (1, 78, 107), (23, 161, 78), (30, 107, 161), (78, 161, 107), (41, 160, 159), (30, 161, 160), (23, 159, 161), (160, 161, 159)]
    int4[] tetVertexIndices = [(0, 42, 162, 44), (12, 43, 162, 42), (14, 44, 162, 43), (42, 43, 162, 44), (11, 45, 162, 47), (13, 46, 162, 45), (12, 47, 162, 46), (45, 46, 162, 47), (5, 48, 162, 50), (14, 49, 162, 48), (13, 50, 162, 49), (48, 49, 162, 50), (12, 46, 162, 43), (13, 49, 162, 46), (14, 43, 162, 49), (46, 49, 162, 43), (0, 44, 162, 52), (14, 51, 162, 44), (16, 52, 162, 51), (44, 51, 162, 52), (5, 53, 162, 48), (15, 54, 162, 53), (14, 48, 162, 54), (53, 54, 162, 48), (1, 55, 162, 57), (16, 56, 162, 55), (15, 57, 162, 56), (55, 56, 162, 57), (14, 54, 162, 51), (15, 56, 162, 54), (16, 51, 162, 56), (54, 56, 162, 51), (0, 52, 162, 59), (16, 58, 162, 52), (18, 59, 162, 58), (52, 58, 162, 59), (1, 60, 162, 55), (17, 61, 162, 60), (16, 55, 162, 61), (60, 61, 162, 55), (7, 62, 162, 64), (18, 63, 162, 62), (17, 64, 162, 63), (62, 63, 162, 64), (16, 61, 162, 58), (17, 63, 162, 61), (18, 58, 162, 63), (61, 63, 162, 58), (0, 59, 162, 66), (18, 65, 162, 59), (20, 66, 162, 65), (59, 65, 162, 66), (7, 67, 162, 62), (19, 68, 162, 67), (18, 62, 162, 68), (67, 68, 162, 62), (10, 69, 162, 71), (20, 70, 162, 69), (19, 71, 162, 70), (69, 70, 162, 71), (18, 68, 162, 65), (19, 70, 162, 68), (20, 65, 162, 70), (68, 70, 162, 65), (0, 66, 162, 42), (20, 72, 162, 66), (12, 42, 162, 72), (66, 72, 162, 42), (10, 73, 162, 69), (21, 74, 162, 73), (20, 69, 162, 74), (73, 74, 162, 69), (11, 47, 162, 76), (12, 75, 162, 47), (21, 76, 162, 75), (47, 75, 162, 76), (20, 74, 162, 72), (21, 75, 162, 74), (12, 72, 162, 75), (74, 75, 162, 72), (1, 57, 162, 78), (15, 77, 162, 57), (23, 78, 162, 77), (57, 77, 162, 78), (5, 79, 162, 53), (22, 80, 162, 79), (15, 53, 162, 80), (79, 80, 162, 53), (9, 81, 162, 83), (23, 82, 162, 81), (22, 83, 162, 82), (81, 82, 162, 83), (15, 80, 162, 77), (22, 82, 162, 80), (23, 77, 162, 82), (80, 82, 162, 77), (5, 50, 162, 85), (13, 84, 162, 50), (25, 85, 162, 84), (50, 84, 162, 85), (11, 86, 162, 45), (24, 87, 162, 86), (13, 45, 162, 87), (86, 87, 162, 45), (4, 88, 162, 90), (25, 89, 162, 88), (24, 90, 162, 89), (88, 89, 162, 90), (13, 87, 162, 84), (24, 89, 162, 87), (25, 84, 162, 89), (87, 89, 162, 84), (11, 76, 162, 92), (21, 91, 162, 76), (27, 92, 162, 91), (76, 91, 162, 92), (10, 93, 162, 73), (26, 94, 162, 93), (21, 73, 162, 94), (93, 94, 162, 73), (2, 95, 162, 97), (27, 96, 162, 95), (26, 97, 162, 96), (95, 96, 162, 97), (21, 94, 162, 91), (26, 96, 162, 94), (27, 91, 162, 96), (94, 96, 162, 91), (10, 71, 162, 99), (19, 98, 162, 71), (29, 99, 162, 98), (71, 98, 162, 99), (7, 100, 162, 67), (28, 101, 162, 100), (19, 67, 162, 101), (100, 101, 162, 67), (6, 102, 162, 104), (29, 103, 162, 102), (28, 104, 162, 103), (102, 103, 162, 104), (19, 101, 162, 98), (28, 103, 162, 101), (29, 98, 162, 103), (101, 103, 162, 98), (7, 64, 162, 106), (17, 105, 162, 64), (31, 106, 162, 105), (64, 105, 162, 106), (1, 107, 162, 60), (30, 108, 162, 107), (17, 60, 162, 108), (107, 108, 162, 60), (8, 109, 162, 111), (31, 110, 162, 109), (30, 111, 162, 110), (109, 110, 162, 111), (17, 108, 162, 105), (30, 110, 162, 108), (31, 105, 162, 110), (108, 110, 162, 105), (3, 112, 162, 114), (32, 113, 162, 112), (34, 114, 162, 113), (112, 113, 162, 114), (9, 115, 162, 117), (33, 116, 162, 115), (32, 117, 162, 116), (115, 116, 162, 117), (4, 118, 162, 120), (34, 119, 162, 118), (33, 120, 162, 119), (118, 119, 162, 120), (32, 116, 162, 113), (33, 119, 162, 116), (34, 113, 162, 119), (116, 119, 162, 113), (3, 114, 162, 122), (34, 121, 162, 114), (36, 122, 162, 121), (114, 121, 162, 122), (4, 123, 162, 118), (35, 124, 162, 123), (34, 118, 162, 124), (123, 124, 162, 118), (2, 125, 162, 127), (36, 126, 162, 125), (35, 127, 162, 126), (125, 126, 162, 127), (34, 124, 162, 121), (35, 126, 162, 124), (36, 121, 162, 126), (124, 126, 162, 121), (3, 122, 162, 129), (36, 128, 162, 122), (38, 129, 162, 128), (122, 128, 162, 129), (2, 130, 162, 125), (37, 131, 162, 130), (36, 125, 162, 131), (130, 131, 162, 125), (6, 132, 162, 134), (38, 133, 162, 132), (37, 134, 162, 133), (132, 133, 162, 134), (36, 131, 162, 128), (37, 133, 162, 131), (38, 128, 162, 133), (131, 133, 162, 128), (3, 129, 162, 136), (38, 135, 162, 129), (40, 136, 162, 135), (129, 135, 162, 136), (6, 137, 162, 132), (39, 138, 162, 137), (38, 132, 162, 138), (137, 138, 162, 132), (8, 139, 162, 141), (40, 140, 162, 139), (39, 141, 162, 140), (139, 140, 162, 141), (38, 138, 162, 135), (39, 140, 162, 138), (40, 135, 162, 140), (138, 140, 162, 135), (3, 136, 162, 112), (40, 142, 162, 136), (32, 112, 162, 142), (136, 142, 162, 112), (8, 143, 162, 139), (41, 144, 162, 143), (40, 139, 162, 144), (143, 144, 162, 139), (9, 117, 162, 146), (32, 145, 162, 117), (41, 146, 162, 145), (117, 145, 162, 146), (40, 144, 162, 142), (41, 145, 162, 144), (32, 142, 162, 145), (144, 145, 162, 142), (4, 120, 162, 88), (33, 147, 162, 120), (25, 88, 162, 147), (120, 147, 162, 88), (9, 83, 162, 115), (22, 148, 162, 83), (33, 115, 162, 148), (83, 148, 162, 115), (5, 85, 162, 79), (25, 149, 162, 85), (22, 79, 162, 149), (85, 149, 162, 79), (33, 148, 162, 147), (22, 149, 162, 148), (25, 147, 162, 149), (148, 149, 162, 147), (2, 127, 162, 95), (35, 150, 162, 127), (27, 95, 162, 150), (127, 150, 162, 95), (4, 90, 162, 123), (24, 151, 162, 90), (35, 123, 162, 151), (90, 151, 162, 123), (11, 92, 162, 86), (27, 152, 162, 92), (24, 86, 162, 152), (92, 152, 162, 86), (35, 151, 162, 150), (24, 152, 162, 151), (27, 150, 162, 152), (151, 152, 162, 150), (6, 134, 162, 102), (37, 153, 162, 134), (29, 102, 162, 153), (134, 153, 162, 102), (2, 97, 162, 130), (26, 154, 162, 97), (37, 130, 162, 154), (97, 154, 162, 130), (10, 99, 162, 93), (29, 155, 162, 99), (26, 93, 162, 155), (99, 155, 162, 93), (37, 154, 162, 153), (26, 155, 162, 154), (29, 153, 162, 155), (154, 155, 162, 153), (8, 141, 162, 109), (39, 156, 162, 141), (31, 109, 162, 156), (141, 156, 162, 109), (6, 104, 162, 137), (28, 157, 162, 104), (39, 137, 162, 157), (104, 157, 162, 137), (7, 106, 162, 100), (31, 158, 162, 106), (28, 100, 162, 158), (106, 158, 162, 100), (39, 157, 162, 156), (28, 158, 162, 157), (31, 156, 162, 158), (157, 158, 162, 156), (9, 146, 162, 81), (41, 159, 162, 146), (23, 81, 162, 159), (146, 159, 162, 81), (8, 111, 162, 143), (30, 160, 162, 111), (41, 143, 162, 160), (111, 160, 162, 143), (1, 78, 162, 107), (23, 161, 162, 78), (30, 107, 162, 161), (78, 161, 162, 107), (41, 160, 162, 159), (30, 161, 162, 160), (23, 159, 162, 161), (160, 161, 162, 159)]
}

