#usda 1.0
(
    defaultPrim = "cube"
    metersPerUnit = 1
    upAxis = "Z"
)

def Mesh "cube" (
    customData = {
        int chamber_id = 0
        dictionary hex_mesh = {
            int[] hex_vertex_indices = [0, 36, 42, 6, 1, 37, 43, 7, 1, 37, 43, 7, 2, 38, 44, 8, 2, 38, 44, 8, 3, 39, 45, 9, 3, 39, 45, 9, 4, 40, 46, 10, 4, 40, 46, 10, 5, 41, 47, 11, 6, 42, 48, 12, 7, 43, 49, 13, 7, 43, 49, 13, 8, 44, 50, 14, 8, 44, 50, 14, 9, 45, 51, 15, 9, 45, 51, 15, 10, 46, 52, 16, 10, 46, 52, 16, 11, 47, 53, 17, 12, 48, 54, 18, 13, 49, 55, 19, 13, 49, 55, 19, 14, 50, 56, 20, 14, 50, 56, 20, 15, 51, 57, 21, 15, 51, 57, 21, 16, 52, 58, 22, 16, 52, 58, 22, 17, 53, 59, 23, 18, 54, 60, 24, 19, 55, 61, 25, 19, 55, 61, 25, 20, 56, 62, 26, 20, 56, 62, 26, 21, 57, 63, 27, 21, 57, 63, 27, 22, 58, 64, 28, 22, 58, 64, 28, 23, 59, 65, 29, 24, 60, 66, 30, 25, 61, 67, 31, 25, 61, 67, 31, 26, 62, 68, 32, 26, 62, 68, 32, 27, 63, 69, 33, 27, 63, 69, 33, 28, 64, 70, 34, 28, 64, 70, 34, 29, 65, 71, 35, 36, 72, 78, 42, 37, 73, 79, 43, 37, 73, 79, 43, 38, 74, 80, 44, 38, 74, 80, 44, 39, 75, 81, 45, 39, 75, 81, 45, 40, 76, 82, 46, 40, 76, 82, 46, 41, 77, 83, 47, 42, 78, 84, 48, 43, 79, 85, 49, 43, 79, 85, 49, 44, 80, 86, 50, 44, 80, 86, 50, 45, 81, 87, 51, 45, 81, 87, 51, 46, 82, 88, 52, 46, 82, 88, 52, 47, 83, 89, 53, 48, 84, 90, 54, 49, 85, 91, 55, 49, 85, 91, 55, 50, 86, 92, 56, 50, 86, 92, 56, 51, 87, 93, 57, 51, 87, 93, 57, 52, 88, 94, 58, 52, 88, 94, 58, 53, 89, 95, 59, 54, 90, 96, 60, 55, 91, 97, 61, 55, 91, 97, 61, 56, 92, 98, 62, 56, 92, 98, 62, 57, 93, 99, 63, 57, 93, 99, 63, 58, 94, 100, 64, 58, 94, 100, 64, 59, 95, 101, 65, 60, 96, 102, 66, 61, 97, 103, 67, 61, 97, 103, 67, 62, 98, 104, 68, 62, 98, 104, 68, 63, 99, 105, 69, 63, 99, 105, 69, 64, 100, 106, 70, 64, 100, 106, 70, 65, 101, 107, 71, 72, 108, 114, 78, 73, 109, 115, 79, 73, 109, 115, 79, 74, 110, 116, 80, 74, 110, 116, 80, 75, 111, 117, 81, 75, 111, 117, 81, 76, 112, 118, 82, 76, 112, 118, 82, 77, 113, 119, 83, 78, 114, 120, 84, 79, 115, 121, 85, 79, 115, 121, 85, 80, 116, 122, 86, 80, 116, 122, 86, 81, 117, 123, 87, 81, 117, 123, 87, 82, 118, 124, 88, 82, 118, 124, 88, 83, 119, 125, 89, 84, 120, 126, 90, 85, 121, 127, 91, 85, 121, 127, 91, 86, 122, 128, 92, 86, 122, 128, 92, 87, 123, 129, 93, 87, 123, 129, 93, 88, 124, 130, 94, 88, 124, 130, 94, 89, 125, 131, 95, 90, 126, 132, 96, 91, 127, 133, 97, 91, 127, 133, 97, 92, 128, 134, 98, 92, 128, 134, 98, 93, 129, 135, 99, 93, 129, 135, 99, 94, 130, 136, 100, 94, 130, 136, 100, 95, 131, 137, 101, 96, 132, 138, 102, 97, 133, 139, 103, 97, 133, 139, 103, 98, 134, 140, 104, 98, 134, 140, 104, 99, 135, 141, 105, 99, 135, 141, 105, 100, 136, 142, 106, 100, 136, 142, 106, 101, 137, 143, 107, 108, 144, 150, 114, 109, 145, 151, 115, 109, 145, 151, 115, 110, 146, 152, 116, 110, 146, 152, 116, 111, 147, 153, 117, 111, 147, 153, 117, 112, 148, 154, 118, 112, 148, 154, 118, 113, 149, 155, 119, 114, 150, 156, 120, 115, 151, 157, 121, 115, 151, 157, 121, 116, 152, 158, 122, 116, 152, 158, 122, 117, 153, 159, 123, 117, 153, 159, 123, 118, 154, 160, 124, 118, 154, 160, 124, 119, 155, 161, 125, 120, 156, 162, 126, 121, 157, 163, 127, 121, 157, 163, 127, 122, 158, 164, 128, 122, 158, 164, 128, 123, 159, 165, 129, 123, 159, 165, 129, 124, 160, 166, 130, 124, 160, 166, 130, 125, 161, 167, 131, 126, 162, 168, 132, 127, 163, 169, 133, 127, 163, 169, 133, 128, 164, 170, 134, 128, 164, 170, 134, 129, 165, 171, 135, 129, 165, 171, 135, 130, 166, 172, 136, 130, 166, 172, 136, 131, 167, 173, 137, 132, 168, 174, 138, 133, 169, 175, 139, 133, 169, 175, 139, 134, 170, 176, 140, 134, 170, 176, 140, 135, 171, 177, 141, 135, 171, 177, 141, 136, 172, 178, 142, 136, 172, 178, 142, 137, 173, 179, 143, 144, 180, 186, 150, 145, 181, 187, 151, 145, 181, 187, 151, 146, 182, 188, 152, 146, 182, 188, 152, 147, 183, 189, 153, 147, 183, 189, 153, 148, 184, 190, 154, 148, 184, 190, 154, 149, 185, 191, 155, 150, 186, 192, 156, 151, 187, 193, 157, 151, 187, 193, 157, 152, 188, 194, 158, 152, 188, 194, 158, 153, 189, 195, 159, 153, 189, 195, 159, 154, 190, 196, 160, 154, 190, 196, 160, 155, 191, 197, 161, 156, 192, 198, 162, 157, 193, 199, 163, 157, 193, 199, 163, 158, 194, 200, 164, 158, 194, 200, 164, 159, 195, 201, 165, 159, 195, 201, 165, 160, 196, 202, 166, 160, 196, 202, 166, 161, 197, 203, 167, 162, 198, 204, 168, 163, 199, 205, 169, 163, 199, 205, 169, 164, 200, 206, 170, 164, 200, 206, 170, 165, 201, 207, 171, 165, 201, 207, 171, 166, 202, 208, 172, 166, 202, 208, 172, 167, 203, 209, 173, 168, 204, 210, 174, 169, 205, 211, 175, 169, 205, 211, 175, 170, 206, 212, 176, 170, 206, 212, 176, 171, 207, 213, 177, 171, 207, 213, 177, 172, 208, 214, 178, 172, 208, 214, 178, 173, 209, 215, 179]
            int num_elements = 125
        }
    }
)
{
    int[] faceVertexCounts = [3, 3, 3, 3, 3, 3, 3, 3, 3, 3, 3, 3, 3, 3, 3, 3, 3, 3, 3, 3, 3, 3, 3, 3, 3, 3, 3, 3, 3, 3, 3, 3, 3, 3, 3, 3, 3, 3, 3, 3, 3, 3, 3, 3, 3, 3, 3, 3, 3, 3, 3, 3, 3, 3, 3, 3, 3, 3, 3, 3, 3, 3, 3, 3, 3, 3, 3, 3, 3, 3, 3, 3, 3, 3, 3, 3, 3, 3, 3, 3, 3, 3, 3, 3, 3, 3, 3, 3, 3, 3, 3, 3, 3, 3, 3, 3, 3, 3, 3, 3, 3, 3, 3, 3, 3, 3, 3, 3, 3, 3, 3, 3, 3, 3, 3, 3, 3, 3, 3, 3, 3, 3, 3, 3, 3, 3, 3, 3, 3, 3, 3, 3, 3, 3, 3, 3, 3, 3, 3, 3, 3, 3, 3, 3, 3, 3, 3, 3, 3, 3, 3, 3, 3, 3, 3, 3, 3, 3, 3, 3, 3, 3, 3, 3, 3, 3, 3, 3, 3, 3, 3, 3, 3, 3, 3, 3, 3, 3, 3, 3, 3, 3, 3, 3, 3, 3, 3, 3, 3, 3, 3, 3, 3, 3, 3, 3, 3, 3, 3, 3, 3, 3, 3, 3, 3, 3, 3, 3, 3, 3, 3, 3, 3, 3, 3, 3, 3, 3, 3, 3, 3, 3, 3, 3, 3, 3, 3, 3, 3, 3, 3, 3, 3, 3, 3, 3, 3, 3, 3, 3, 3, 3, 3, 3, 3, 3, 3, 3, 3, 3, 3, 3, 3, 3, 3, 3, 3, 3, 3, 3, 3, 3, 3, 3, 3, 3, 3, 3, 3, 3, 3, 3, 3, 3, 3, 3, 3, 3, 3, 3, 3, 3, 3, 3, 3, 3, 3, 3, 3, 3, 3, 3, 3, 3, 3, 3, 3, 3, 3, 3]
    int[] faceVertexIndices = [0, 1, 7, 0, 7, 6, 1, 2, 8, 1, 8, 7, 2, 3, 9, 2, 9, 8, 3, 4, 10, 3, 10, 9, 4, 5, 11, 4, 11, 10, 6, 7, 13, 6, 13, 12, 7, 8, 14, 7, 14, 13, 8, 9, 15, 8, 15, 14, 9, 10, 16, 9, 16, 15, 10, 11, 17, 10, 17, 16, 12, 13, 19, 12, 19, 18, 13, 14, 20, 13, 20, 19, 14, 15, 21, 14, 21, 20, 15, 16, 22, 15, 22, 21, 16, 17, 23, 16, 23, 22, 18, 19, 25, 18, 25, 24, 19, 20, 26, 19, 26, 25, 20, 21, 27, 20, 27, 26, 21, 22, 28, 21, 28, 27, 22, 23, 29, 22, 29, 28, 24, 25, 31, 24, 31, 30, 25, 26, 32, 25, 32, 31, 26, 27, 33, 26, 33, 32, 27, 28, 34, 27, 34, 33, 28, 29, 35, 28, 35, 34, 180, 186, 187, 180, 187, 181, 181, 187, 188, 181, 188, 182, 182, 188, 189, 182, 189, 183, 183, 189, 190, 183, 190, 184, 184, 190, 191, 184, 191, 185, 186, 192, 193, 186, 193, 187, 187, 193, 194, 187, 194, 188, 188, 194, 195, 188, 195, 189, 189, 195, 196, 189, 196, 190, 190, 196, 197, 190, 197, 191, 192, 198, 199, 192, 199, 193, 193, 199, 200, 193, 200, 194, 194, 200, 201, 194, 201, 195, 195, 201, 202, 195, 202, 196, 196, 202, 203, 196, 203, 197, 198, 204, 205, 198, 205, 199, 199, 205, 206, 199, 206, 200, 200, 206, 207, 200, 207, 201, 201, 207, 208, 201, 208, 202, 202, 208, 209, 202, 209, 203, 204, 210, 211, 204, 211, 205, 205, 211, 212, 205, 212, 206, 206, 212, 213, 206, 213, 207, 207, 213, 214, 207, 214, 208, 208, 214, 215, 208, 215, 209, 0, 36, 37, 0, 37, 1, 1, 37, 38, 1, 38, 2, 2, 38, 39, 2, 39, 3, 3, 39, 40, 3, 40, 4, 4, 40, 41, 4, 41, 5, 36, 72, 73, 36, 73, 37, 37, 73, 74, 37, 74, 38, 38, 74, 75, 38, 75, 39, 39, 75, 76, 39, 76, 40, 40, 76, 77, 40, 77, 41, 72, 108, 109, 72, 109, 73, 73, 109, 110, 73, 110, 74, 74, 110, 111, 74, 111, 75, 75, 111, 112, 75, 112, 76, 76, 112, 113, 76, 113, 77, 108, 144, 145, 108, 145, 109, 109, 145, 146, 109, 146, 110, 110, 146, 147, 110, 147, 111, 111, 147, 148, 111, 148, 112, 112, 148, 149, 112, 149, 113, 144, 180, 181, 144, 181, 145, 145, 181, 182, 145, 182, 146, 146, 182, 183, 146, 183, 147, 147, 183, 184, 147, 184, 148, 148, 184, 185, 148, 185, 149, 30, 31, 67, 30, 67, 66, 31, 32, 68, 31, 68, 67, 32, 33, 69, 32, 69, 68, 33, 34, 70, 33, 70, 69, 34, 35, 71, 34, 71, 70, 66, 67, 103, 66, 103, 102, 67, 68, 104, 67, 104, 103, 68, 69, 105, 68, 105, 104, 69, 70, 106, 69, 106, 105, 70, 71, 107, 70, 107, 106, 102, 103, 139, 102, 139, 138, 103, 104, 140, 103, 140, 139, 104, 105, 141, 104, 141, 140, 105, 106, 142, 105, 142, 141, 106, 107, 143, 106, 143, 142, 138, 139, 175, 138, 175, 174, 139, 140, 176, 139, 176, 175, 140, 141, 177, 140, 177, 176, 141, 142, 178, 141, 178, 177, 142, 143, 179, 142, 179, 178, 174, 175, 211, 174, 211, 210, 175, 176, 212, 175, 212, 211, 176, 177, 213, 176, 213, 212, 177, 178, 214, 177, 214, 213, 178, 179, 215, 178, 215, 214, 0, 6, 42, 0, 42, 36, 6, 12, 48, 6, 48, 42, 12, 18, 54, 12, 54, 48, 18, 24, 60, 18, 60, 54, 24, 30, 66, 24, 66, 60, 36, 42, 78, 36, 78, 72, 42, 48, 84, 42, 84, 78, 48, 54, 90, 48, 90, 84, 54, 60, 96, 54, 96, 90, 60, 66, 102, 60, 102, 96, 72, 78, 114, 72, 114, 108, 78, 84, 120, 78, 120, 114, 84, 90, 126, 84, 126, 120, 90, 96, 132, 90, 132, 126, 96, 102, 138, 96, 138, 132, 108, 114, 150, 108, 150, 144, 114, 120, 156, 114, 156, 150, 120, 126, 162, 120, 162, 156, 126, 132, 168, 126, 168, 162, 132, 138, 174, 132, 174, 168, 144, 150, 186, 144, 186, 180, 150, 156, 192, 150, 192, 186, 156, 162, 198, 156, 198, 192, 162, 168, 204, 162, 204, 198, 168, 174, 210, 168, 210, 204, 5, 41, 47, 5, 47, 11, 11, 47, 53, 11, 53, 17, 17, 53, 59, 17, 59, 23, 23, 59, 65, 23, 65, 29, 29, 65, 71, 29, 71, 35, 41, 77, 83, 41, 83, 47, 47, 83, 89, 47, 89, 53, 53, 89, 95, 53, 95, 59, 59, 95, 101, 59, 101, 65, 65, 101, 107, 65, 107, 71, 77, 113, 119, 77, 119, 83, 83, 119, 125, 83, 125, 89, 89, 125, 131, 89, 131, 95, 95, 131, 137, 95, 137, 101, 101, 137, 143, 101, 143, 107, 113, 149, 155, 113, 155, 119, 119, 155, 161, 119, 161, 125, 125, 161, 167, 125, 167, 131, 131, 167, 173, 131, 173, 137, 137, 173, 179, 137, 179, 143, 149, 185, 191, 149, 191, 155, 155, 191, 197, 155, 197, 161, 161, 197, 203, 161, 203, 167, 167, 203, 209, 167, 209, 173, 173, 209, 215, 173, 215, 179]
    point3f[] points = [(-0.2, -0.2, 0.45), (-0.2, -0.2, 0.53), (-0.2, -0.2, 0.61), (-0.2, -0.2, 0.69), (-0.2, -0.2, 0.77), (-0.2, -0.2, 0.85), (-0.2, -0.12, 0.45), (-0.2, -0.12, 0.53), (-0.2, -0.12, 0.61), (-0.2, -0.12, 0.69), (-0.2, -0.12, 0.77), (-0.2, -0.12, 0.85), (-0.2, -0.04, 0.45), (-0.2, -0.04, 0.53), (-0.2, -0.04, 0.61), (-0.2, -0.04, 0.69), (-0.2, -0.04, 0.77), (-0.2, -0.04, 0.85), (-0.2, 0.04, 0.45), (-0.2, 0.04, 0.53), (-0.2, 0.04, 0.61), (-0.2, 0.04, 0.69), (-0.2, 0.04, 0.77), (-0.2, 0.04, 0.85), (-0.2, 0.12, 0.45), (-0.2, 0.12, 0.53), (-0.2, 0.12, 0.61), (-0.2, 0.12, 0.69), (-0.2, 0.12, 0.77), (-0.2, 0.12, 0.85), (-0.2, 0.2, 0.45), (-0.2, 0.2, 0.53), (-0.2, 0.2, 0.61), (-0.2, 0.2, 0.69), (-0.2, 0.2, 0.77), (-0.2, 0.2, 0.85), (-0.12, -0.2, 0.45), (-0.12, -0.2, 0.53), (-0.12, -0.2, 0.61), (-0.12, -0.2, 0.69), (-0.12, -0.2, 0.77), (-0.12, -0.2, 0.85), (-0.12, -0.12, 0.45), (-0.12, -0.12, 0.53), (-0.12, -0.12, 0.61), (-0.12, -0.12, 0.69), (-0.12, -0.12, 0.77), (-0.12, -0.12, 0.85), (-0.12, -0.04, 0.45), (-0.12, -0.04, 0.53), (-0.12, -0.04, 0.61), (-0.12, -0.04, 0.69), (-0.12, -0.04, 0.77), (-0.12, -0.04, 0.85), (-0.12, 0.04, 0.45), (-0.12, 0.04, 0.53), (-0.12, 0.04, 0.61), (-0.12, 0.04, 0.69), (-0.12, 0.04, 0.77), (-0.12, 0.04, 0.85), (-0.12, 0.12, 0.45), (-0.12, 0.12, 0.53), (-0.12, 0.12, 0.61), (-0.12, 0.12, 0.69), (-0.12, 0.12, 0.77), (-0.12, 0.12, 0.85), (-0.12, 0.2, 0.45), (-0.12, 0.2, 0.53), (-0.12, 0.2, 0.61), (-0.12, 0.2, 0.69), (-0.12, 0.2, 0.77), (-0.12, 0.2, 0.85), (-0.04, -0.2, 0.45), (-0.04, -0.2, 0.53), (-0.04, -0.2, 0.61), (-0.04, -0.2, 0.69), (-0.04, -0.2, 0.77), (-0.04, -0.2, 0.85), (-0.04, -0.12, 0.45), (-0.04, -0.12, 0.53), (-0.04, -0.12, 0.61), (-0.04, -0.12, 0.69), (-0.04, -0.12, 0.77), (-0.04, -0.12, 0.85), (-0.04, -0.04, 0.45), (-0.04, -0.04, 0.53), (-0.04, -0.04, 0.61), (-0.04, -0.04, 0.69), (-0.04, -0.04, 0.77), (-0.04, -0.04, 0.85), (-0.04, 0.04, 0.45), (-0.04, 0.04, 0.53), (-0.04, 0.04, 0.61), (-0.04, 0.04, 0.69), (-0.04, 0.04, 0.77), (-0.04, 0.04, 0.85), (-0.04, 0.12, 0.45), (-0.04, 0.12, 0.53), (-0.04, 0.12, 0.61), (-0.04, 0.12, 0.69), (-0.04, 0.12, 0.77), (-0.04, 0.12, 0.85), (-0.04, 0.2, 0.45), (-0.04, 0.2, 0.53), (-0.04, 0.2, 0.61), (-0.04, 0.2, 0.69), (-0.04, 0.2, 0.77), (-0.04, 0.2, 0.85), (0.04, -0.2, 0.45), (0.04, -0.2, 0.53), (0.04, -0.2, 0.61), (0.04, -0.2, 0.69), (0.04, -0.2, 0.77), (0.04, -0.2, 0.85), (0.04, -0.12, 0.45), (0.04, -0.12, 0.53), (0.04, -0.12, 0.61), (0.04, -0.12, 0.69), (0.04, -0.12, 0.77), (0.04, -0.12, 0.85), (0.04, -0.04, 0.45), (0.04, -0.04, 0.53), (0.04, -0.04, 0.61), (0.04, -0.04, 0.69), (0.04, -0.04, 0.77), (0.04, -0.04, 0.85), (0.04, 0.04, 0.45), (0.04, 0.04, 0.53), (0.04, 0.04, 0.61), (0.04, 0.04, 0.69), (0.04, 0.04, 0.77), (0.04, 0.04, 0.85), (0.04, 0.12, 0.45), (0.04, 0.12, 0.53), (0.04, 0.12, 0.61), (0.04, 0.12, 0.69), (0.04, 0.12, 0.77), (0.04, 0.12, 0.85), (0.04, 0.2, 0.45), (0.04, 0.2, 0.53), (0.04, 0.2, 0.61), (0.04, 0.2, 0.69), (0.04, 0.2, 0.77), (0.04, 0.2, 0.85), (0.12, -0.2, 0.45), (0.12, -0.2, 0.53), (0.12, -0.2, 0.61), (0.12, -0.2, 0.69), (0.12, -0.2, 0.77), (0.12, -0.2, 0.85), (0.12, -0.12, 0.45), (0.12, -0.12, 0.53), (0.12, -0.12, 0.61), (0.12, -0.12, 0.69), (0.12, -0.12, 0.77), (0.12, -0.12, 0.85), (0.12, -0.04, 0.45), (0.12, -0.04, 0.53), (0.12, -0.04, 0.61), (0.12, -0.04, 0.69), (0.12, -0.04, 0.77), (0.12, -0.04, 0.85), (0.12, 0.04, 0.45), (0.12, 0.04, 0.53), (0.12, 0.04, 0.61), (0.12, 0.04, 0.69), (0.12, 0.04, 0.77), (0.12, 0.04, 0.85), (0.12, 0.12, 0.45), (0.12, 0.12, 0.53), (0.12, 0.12, 0.61), (0.12, 0.12, 0.69), (0.12, 0.12, 0.77), (0.12, 0.12, 0.85), (0.12, 0.2, 0.45), (0.12, 0.2, 0.53), (0.12, 0.2, 0.61), (0.12, 0.2, 0.69), (0.12, 0.2, 0.77), (0.12, 0.2, 0.85), (0.2, -0.2, 0.45), (0.2, -0.2, 0.53), (0.2, -0.2, 0.61), (0.2, -0.2, 0.69), (0.2, -0.2, 0.77), (0.2, -0.2, 0.85), (0.2, -0.12, 0.45), (0.2, -0.12, 0.53), (0.2, -0.12, 0.61), (0.2, -0.12, 0.69), (0.2, -0.12, 0.77), (0.2, -0.12, 0.85), (0.2, -0.04, 0.45), (0.2, -0.04, 0.53), (0.2, -0.04, 0.61), (0.2, -0.04, 0.69), (0.2, -0.04, 0.77), (0.2, -0.04, 0.85), (0.2, 0.04, 0.45), (0.2, 0.04, 0.53), (0.2, 0.04, 0.61), (0.2, 0.04, 0.69), (0.2, 0.04, 0.77), (0.2, 0.04, 0.85), (0.2, 0.12, 0.45), (0.2, 0.12, 0.53), (0.2, 0.12, 0.61), (0.2, 0.12, 0.69), (0.2, 0.12, 0.77), (0.2, 0.12, 0.85), (0.2, 0.2, 0.45), (0.2, 0.2, 0.53), (0.2, 0.2, 0.61), (0.2, 0.2, 0.69), (0.2, 0.2, 0.77), (0.2, 0.2, 0.85)]
}
